<svg xmlns="http://www.w3.org/2000/svg" xmlns:xlink="http://www.w3.org/1999/xlink" viewBox="0 0 512 512"><defs><style>.cls-1,.cls-2{fill:none;}.cls-2,.cls-6{stroke:#231f20;}.cls-3{fill:#999;stroke:#000;stroke-width:5px;}.cls-3,.cls-6{stroke-miterlimit:10;}.cls-4{font-size:41.22px;}.cls-4,.cls-5{font-family:Gulim;}.cls-5{font-size:37.56px;}.cls-6{stroke-width:10px;fill:url(#_10_lpi_10_2);}</style><pattern id="_10_lpi_10_2" data-name="10 lpi 10% 2" width="72" height="72" patternUnits="userSpaceOnUse" viewBox="0 0 72 72"><rect class="cls-1" width="72" height="72"/><line class="cls-2" x1="78.82" y1="72.09" x2="71.81" y2="79.1"/><line class="cls-2" x1="107.91" y1="71.84" x2="71.78" y2="107.97"/><line class="cls-2" x1="136.67" y1="71.92" x2="71.66" y2="136.94"/><line class="cls-2" x1="93.41" y1="71.92" x2="71.82" y2="93.51"/><line class="cls-2" x1="122.25" y1="71.92" x2="71.66" y2="122.52"/><line class="cls-2" x1="6.82" y1="72.09" x2="-0.19" y2="79.1"/><line class="cls-2" x1="35.91" y1="71.84" x2="-0.22" y2="107.97"/><line class="cls-2" x1="64.67" y1="71.92" x2="-0.34" y2="136.94"/><line class="cls-2" x1="21.41" y1="71.92" x2="-0.18" y2="93.51"/><line class="cls-2" x1="50.25" y1="71.92" x2="-0.34" y2="122.52"/><line class="cls-2" x1="78.82" y1="0.09" x2="71.81" y2="7.1"/><line class="cls-2" x1="107.91" y1="-0.16" x2="71.78" y2="35.97"/><line class="cls-2" x1="136.67" y1="-0.08" x2="71.66" y2="64.94"/><line class="cls-2" x1="93.41" y1="-0.08" x2="71.82" y2="21.51"/><line class="cls-2" x1="122.25" y1="-0.08" x2="71.66" y2="50.52"/><line class="cls-2" x1="6.82" y1="0.09" x2="-0.19" y2="7.1"/><line class="cls-2" x1="35.91" y1="-0.16" x2="-0.22" y2="35.97"/><line class="cls-2" x1="64.67" y1="-0.08" x2="-0.34" y2="64.94"/><line class="cls-2" x1="72.34" y1="21.09" x2="21.28" y2="72.16"/><line class="cls-2" x1="71.88" y1="50.4" x2="50.84" y2="71.44"/><line class="cls-2" x1="21.41" y1="-0.08" x2="-0.18" y2="21.51"/><line class="cls-2" x1="50.25" y1="-0.08" x2="-0.34" y2="50.52"/><line class="cls-2" x1="72.34" y1="6.67" x2="6.86" y2="72.16"/><line class="cls-2" x1="71.88" y1="35.98" x2="35.7" y2="72.16"/><line class="cls-2" x1="71.88" y1="64.82" x2="64.78" y2="71.92"/><line class="cls-2" x1="0.34" y1="21.09" x2="-50.72" y2="72.16"/><line class="cls-2" x1="-0.12" y1="50.4" x2="-21.16" y2="71.44"/><line class="cls-2" x1="0.34" y1="6.67" x2="-65.14" y2="72.16"/><line class="cls-2" x1="-0.12" y1="35.98" x2="-36.3" y2="72.16"/><line class="cls-2" x1="-0.12" y1="64.82" x2="-7.22" y2="71.92"/><line class="cls-2" x1="72.34" y1="-50.91" x2="21.28" y2="0.16"/><line class="cls-2" x1="72.34" y1="-65.33" x2="6.86" y2="0.16"/><line class="cls-2" x1="71.88" y1="-36.02" x2="35.7" y2="0.16"/><line class="cls-2" x1="71.88" y1="-7.18" x2="64.78" y2="-0.08"/><line class="cls-2" x1="0.34" y1="-50.91" x2="-50.72" y2="0.16"/><line class="cls-2" x1="0.34" y1="-65.33" x2="-65.14" y2="0.16"/><line class="cls-2" x1="-0.12" y1="-36.02" x2="-36.3" y2="0.16"/><line class="cls-2" x1="-0.12" y1="-7.18" x2="-7.22" y2="-0.08"/></pattern></defs><g id="Layer_2" data-name="Layer 2"><g id="G_F_AKPC--_X" data-name="G*F*AKPC--****X"><rect class="cls-3" x="235.88" y="208.75" width="40.24" height="46.34"/><rect class="cls-3" x="235.88" y="302.74" width="40.24" height="46.34"/><text class="cls-4" transform="translate(215.84 198.3)">PKB<tspan x="28.16" y="49.47">T</tspan></text><text class="cls-4" transform="translate(243.12 339.3)">X</text><rect class="cls-3" x="185.43" y="256.4" width="48.89" height="46.34"/><text class="cls-5" transform="translate(193.08 293.81)">W</text><rect class="cls-3" x="257.76" y="256.4" width="68.81" height="46.34"/><text class="cls-5" transform="translate(264.58 293.81)">W1</text><path d="M251.91,276.3c0,.63-.21.94-.64.94H239.51c-.41,0-.62-.31-.62-.94s.19-.92.62-.92h11.76C251.7,275.38,251.91,275.69,251.91,276.3Z"/><circle class="cls-6" cx="256" cy="256" r="240"/><rect class="cls-1" width="512" height="512"/></g></g></svg>