<?xml version="1.0" encoding="UTF-8"?><svg xmlns="http://www.w3.org/2000/svg" viewBox="0 0 512 512"><defs><style>.d{stroke-width:6px;}.d,.e{stroke:#000;stroke-miterlimit:10;}.d,.f{fill:none;}.e{fill:#fff;stroke-width:4px;}.g{font-size:33.56px;}.g,.h,.i{font-family:Gulim, Gulim;}.h{font-size:31.42px;}.i{font-size:29.72px;}</style></defs><g id="a"/><g id="b"><g id="c"><rect class="f" width="512" height="512"/><g><text class="g" transform="translate(34.76 246.38)"><tspan x="0" y="0">NFL</tspan></text><g><text class="h" transform="translate(28.57 286.11)"><tspan x="0" y="0">PL</tspan></text><path d="M26.28,265.4c.23-.02,.44,.03,.64,.13,.21,.12,.34,.28,.38,.48,.06,.21,0,.44-.15,.67-1.39,1.88-2.39,3.66-2.99,5.33-.64,1.78-.96,3.75-.96,5.91s.29,4.24,.87,5.97c.62,1.81,1.63,3.52,3.05,5.11,.19,.21,.28,.45,.26,.72-.02,.23-.13,.43-.32,.59-.19,.16-.42,.23-.67,.21-.27-.02-.51-.14-.73-.37-1.49-1.58-2.59-3.47-3.31-5.67-.62-1.97-.93-4.16-.93-6.55,0-2.24,.33-4.32,.99-6.26,.68-1.99,1.76-3.96,3.25-5.91,.15-.21,.36-.33,.61-.35Z"/><path d="M108.75,271.66c.68,1.94,1.02,4.02,1.02,6.26,0,2.4-.32,4.58-.96,6.55-.72,2.2-1.81,4.09-3.28,5.67-.23,.23-.48,.36-.75,.37-.25,.02-.47-.05-.67-.21-.19-.16-.3-.36-.32-.59-.02-.27,.08-.51,.29-.72,1.39-1.6,2.4-3.3,3.02-5.11,.6-1.72,.9-3.71,.9-5.97s-.33-4.14-.99-5.91c-.6-1.67-1.59-3.45-2.96-5.33-.17-.23-.23-.45-.17-.67,.04-.2,.16-.36,.38-.48,.19-.11,.41-.15,.64-.13,.25,.02,.46,.13,.64,.35,1.47,1.95,2.54,3.92,3.22,5.91Z"/><g><rect class="e" x="69.61" y="257.75" width="29.63" height="36.67"/><text class="i" transform="translate(74.73 287.36) scale(1.12 1)"><tspan x="0" y="0">T</tspan></text></g></g><line class="d" x1="130.27" y1="234.64" x2="380.27" y2="234.64"/><text class="g" transform="translate(415.56 246.38)"><tspan x="0" y="0">NFL</tspan></text><g><text class="h" transform="translate(409.37 286.11)"><tspan x="0" y="0">PL</tspan></text><path d="M407.08,265.4c.23-.02,.44,.03,.64,.13,.21,.12,.34,.28,.38,.48,.06,.21,0,.44-.15,.67-1.39,1.88-2.39,3.66-2.99,5.33-.64,1.78-.96,3.75-.96,5.91s.29,4.24,.87,5.97c.62,1.81,1.63,3.52,3.05,5.11,.19,.21,.28,.45,.26,.72-.02,.23-.13,.43-.32,.59-.19,.16-.42,.23-.67,.21-.27-.02-.51-.14-.73-.37-1.49-1.58-2.59-3.47-3.31-5.67-.62-1.97-.93-4.16-.93-6.55,0-2.24,.33-4.32,.99-6.26,.68-1.99,1.76-3.96,3.25-5.91,.15-.21,.36-.33,.61-.35Z"/><path d="M489.55,271.66c.68,1.94,1.02,4.02,1.02,6.26,0,2.4-.32,4.58-.96,6.55-.72,2.2-1.81,4.09-3.28,5.67-.23,.23-.48,.36-.75,.37-.25,.02-.47-.05-.67-.21-.19-.16-.3-.36-.32-.59-.02-.27,.08-.51,.29-.72,1.39-1.6,2.4-3.3,3.02-5.11,.6-1.72,.9-3.71,.9-5.97s-.33-4.14-.99-5.91c-.6-1.67-1.59-3.45-2.96-5.33-.17-.23-.23-.45-.17-.67,.04-.2,.16-.36,.38-.48,.19-.11,.41-.15,.64-.13,.25,.02,.46,.13,.64,.35,1.47,1.95,2.54,3.92,3.22,5.91Z"/><g><rect class="e" x="450.41" y="257.75" width="29.63" height="36.67"/><text class="i" transform="translate(455.53 287.36) scale(1.12 1)"><tspan x="0" y="0">T</tspan></text></g></g></g></g></g></svg>