<?xml version="1.0" encoding="UTF-8"?><svg xmlns="http://www.w3.org/2000/svg" viewBox="0 0 512 512"><defs><style>.d{font-size:22.79px;}.d,.e,.f,.g,.h{font-family:Gulim, Gulim;}.e{font-size:25.33px;}.f,.g,.h{font-size:21.78px;}.i{fill:#fff;stroke-width:4px;}.i,.j{stroke:#000;stroke-miterlimit:10;}.g{letter-spacing:-.06em;}.j{stroke-width:5px;}.j,.k{fill:none;}.h{letter-spacing:-.06em;}</style></defs><g id="a"/><g id="b"><g id="c"><g><line class="j" x1="115.03" y1="256.26" x2="408.43" y2="256.26"/><text class="e" transform="translate(24.43 262.25)"><tspan x="0" y="0">PL</tspan></text><text class="e" transform="translate(83.79 234.72)"><tspan x="0" y="0">FSCL</tspan></text><g><rect class="i" x="67.99" y="242.83" width="33.85" height="26.87"/><text class="h" transform="translate(71.71 264.52) scale(1.11 1)"><tspan x="0" y="0">T1</tspan></text></g><text class="e" transform="translate(413.92 262.25)"><tspan x="0" y="0">PL</tspan></text><g><rect class="i" x="453.72" y="242.83" width="33.85" height="26.87"/><text class="g" transform="translate(457.44 264.52) scale(1.11 1)"><tspan x="0" y="0">T1</tspan></text></g><g><rect class="i" x="53.39" y="214.75" width="20.78" height="26.87"/><text class="f" transform="translate(56.98 236.45) scale(1.07 1)"><tspan x="0" y="0">T</tspan></text></g><text class="e" transform="translate(389.06 234.72)"><tspan x="0" y="0">FSCL</tspan></text><g><rect class="i" x="358.66" y="214.75" width="20.78" height="26.87"/><text class="f" transform="translate(362.26 236.45) scale(1.07 1)"><tspan x="0" y="0">T</tspan></text></g><rect class="i" x="65.45" y="270.9" width="29.67" height="28.12"/><text class="d" transform="translate(70.09 293.6)"><tspan x="0" y="0">W</tspan></text><rect class="i" x="109.34" y="270.9" width="41.75" height="28.12"/><text class="d" transform="translate(113.48 293.6)"><tspan x="0" y="0">W1</tspan></text><path d="M105.79,282.97c0,.38-.13,.57-.39,.57h-7.13c-.25,0-.38-.19-.38-.57-.01-.37,.11-.55,.38-.55h7.13c.26,0,.39,.18,.39,.55Z"/><rect class="i" x="369.05" y="270.9" width="29.67" height="28.12"/><text class="d" transform="translate(373.69 293.6)"><tspan x="0" y="0">W</tspan></text><rect class="i" x="412.94" y="270.9" width="41.75" height="28.12"/><text class="d" transform="translate(417.08 293.6)"><tspan x="0" y="0">W1</tspan></text><path d="M409.39,282.97c0,.38-.13,.57-.39,.57h-7.13c-.25,0-.38-.19-.38-.57-.01-.37,.11-.55,.38-.55h7.13c.26,0,.39,.18,.39,.55Z"/></g><rect class="k" width="512" height="512"/><rect class="k" width="512" height="512"/></g></g></svg>