<svg xmlns="http://www.w3.org/2000/svg" viewBox="0 0 512 512"><defs><style>.cls-1,.cls-2,.cls-3{fill:none;}.cls-1,.cls-2{stroke:#000;stroke-miterlimit:10;}.cls-1{stroke-width:10px;}.cls-2{stroke-width:7px;}</style></defs><g id="Layer_2" data-name="Layer 2"><g id="G_F_ACCI--_X" data-name="G*F*ACCI--****X"><rect class="cls-1" x="19.73" y="115.2" width="472.53" height="281.6"/><path d="M163.19,236.44a56.09,56.09,0,0,0,6.83-1.77c.94-.35,1.54-.12,1.82.68a1.29,1.29,0,0,1-.83,1.72,59.67,59.67,0,0,1-13.34,2.71,161.88,161.88,0,0,1-16.47.68,2,2,0,0,1-1.35-.42,1.22,1.22,0,0,1-.47-.94,1.4,1.4,0,0,1,.36-.94,1.9,1.9,0,0,1,1.2-.36c1.63,0,3.47,0,5.52-.05l7.51-.21v-8.91H157v8.7A48.17,48.17,0,0,0,163.19,236.44Zm5.89-28.4a1.54,1.54,0,0,1,.42.94,1.42,1.42,0,0,1-1.41,1.35H143.28c-1,0-1.45-.45-1.45-1.35s.48-1.35,1.45-1.35h24.6A1.72,1.72,0,0,1,169.08,208Zm-4.79,8.08a7,7,0,0,1,2.91,5.63,7.22,7.22,0,0,1-2.91,5.73c-2.12,1.74-5,2.6-8.6,2.6s-6.66-.86-8.81-2.6a7.15,7.15,0,0,1-2.87-5.73,7,7,0,0,1,2.87-5.63c2.19-1.7,5.12-2.55,8.81-2.55A13.5,13.5,0,0,1,164.29,216.12Zm.05-13.39c0,.87-.44,1.3-1.41,1.3H148.39c-1,0-1.46-.43-1.46-1.3s.49-1.31,1.46-1.31h14.44C163.83,201.42,164.34,201.86,164.34,202.73Zm-15.17,15.21a4.59,4.59,0,0,0-2,3.81,4.78,4.78,0,0,0,2,3.91,10.63,10.63,0,0,0,6.52,1.77,10,10,0,0,0,6.35-1.77,4.76,4.76,0,0,0,2-3.91,4.58,4.58,0,0,0-2-3.81,10.39,10.39,0,0,0-6.35-1.72A10.91,10.91,0,0,0,149.17,217.94Zm33.34,2.87a1.42,1.42,0,0,1,1.05.36,1.38,1.38,0,0,1,.42.89,1.32,1.32,0,0,1-.31.89,1.07,1.07,0,0,1-.89.41H176.9V242a1.35,1.35,0,0,1-.52,1.09,1.51,1.51,0,0,1-2.09,0,1.45,1.45,0,0,1-.47-1.14V201.42a1.4,1.4,0,0,1,.47-1.09,1.66,1.66,0,0,1,2.09,0,1.21,1.21,0,0,1,.52,1v19.44Z"/><path d="M199.23,201.22a1.57,1.57,0,0,1,1.09-.37,1.65,1.65,0,0,1,1.05.47,1.8,1.8,0,0,1,.52,1.3,16.05,16.05,0,0,1-.31,3.13,37.35,37.35,0,0,1-.89,3.7,67.76,67.76,0,0,1,5.63,5.57,47.34,47.34,0,0,1,4.74,6.36,1.66,1.66,0,0,1,.31,1.36,1.46,1.46,0,0,1-.68.94,1.35,1.35,0,0,1-1.09.15,1.53,1.53,0,0,1-1-.83,47.81,47.81,0,0,0-4.22-6.05,53,53,0,0,0-4.59-4.74,42.28,42.28,0,0,1-3.8,6.62,37.22,37.22,0,0,1-5.37,5.78,1.6,1.6,0,0,1-1.15.37,1.42,1.42,0,0,1-1-.42,1.3,1.3,0,0,1-.42-.94,1.68,1.68,0,0,1,.68-1.14,30,30,0,0,0,7.87-10.37,23.26,23.26,0,0,0,2.24-9.59A1.75,1.75,0,0,1,199.23,201.22Zm25.38,28.86c2.85,1.4,4.27,3.29,4.27,5.69s-1.42,4.13-4.27,5.52q-4.74,2.34-13.86,2.34T197,241.29q-4.17-2.08-4.17-5.52c0-2.4,1.39-4.29,4.17-5.69q4.69-2.34,13.76-2.34T224.61,230.08Zm-25.28,1.83q-3.37,1.35-3.38,3.86,0,2.34,3.38,3.69,3.81,1.51,11.42,1.52t11.51-1.52q3.5-1.35,3.5-3.69,0-2.51-3.5-3.86-3.8-1.46-11.51-1.46T199.33,231.91ZM226.28,200a1.34,1.34,0,0,1,1.51,1.52v23.6a1.87,1.87,0,0,1-.52,1.36,1.3,1.3,0,0,1-1,.47,1.36,1.36,0,0,1-1.05-.47,1.79,1.79,0,0,1-.46-1.31V216h-7.46v7.92a1.38,1.38,0,0,1-.52,1.15,1.5,1.5,0,0,1-2.08,0,1.47,1.47,0,0,1-.47-1.15V201.32c0-.9.5-1.36,1.51-1.36s1.56.46,1.56,1.35v12.05h7.46V201.42A1.31,1.31,0,0,1,226.28,200Z"/><path d="M257.68,201.27a1.65,1.65,0,0,1,2.08,0,1.28,1.28,0,0,1,.47,1.09v15.79a3.9,3.9,0,0,1-1.35,3.13,4.75,4.75,0,0,1-3.23,1.09h-13a4.59,4.59,0,0,1-3.23-1.09,3.86,3.86,0,0,1-1.25-3.08V202.57a1.66,1.66,0,0,1,.47-1.25,1.39,1.39,0,0,1,1-.42,1.49,1.49,0,0,1,1,.37,1.59,1.59,0,0,1,.52,1.25v5.16h16v-5.32A1.37,1.37,0,0,1,257.68,201.27Zm12,28.81c2.71,1.43,4.07,3.32,4.07,5.69s-1.36,4.13-4.07,5.52q-4.49,2.34-12.82,2.34T244,241.29q-4.07-2.08-4.06-5.52c0-2.37,1.35-4.26,4.06-5.69q4.49-2.34,12.87-2.34T269.66,230.08Zm-28.4-19.69v7.34a2.06,2.06,0,0,0,.52,1.57,2.27,2.27,0,0,0,1.62.47h11.36a3,3,0,0,0,1.88-.47,1.86,1.86,0,0,0,.62-1.57v-7.34Zm5,21.52c-2.19.94-3.29,2.22-3.29,3.86s1.1,2.79,3.29,3.69q3.64,1.51,10.57,1.52t10.48-1.52q3.33-1.35,3.33-3.69c0-1.64-1.11-2.92-3.33-3.86q-3.6-1.46-10.48-1.46T246.27,231.91Zm32.15-19.39a1.42,1.42,0,0,1,1,.37,1.71,1.71,0,0,1,.42.94,1.55,1.55,0,0,1-.31.93,1.2,1.2,0,0,1-.94.42h-5.79v10.16a1.38,1.38,0,0,1-.52,1.15,1.53,1.53,0,0,1-1,.36,1.51,1.51,0,0,1-1-.36,1.59,1.59,0,0,1-.47-1.2V201.37c0-.94.5-1.41,1.51-1.41s1.56.46,1.56,1.35v11.21Z"/><path d="M312.58,202.47c0,.9-.43,1.35-1.3,1.35H301v1.62a13,13,0,0,0,3.86,9.38,23.34,23.34,0,0,0,8.23,5.21,1.42,1.42,0,0,1,.89.83,1.71,1.71,0,0,1-.11,1.15,1.62,1.62,0,0,1-.94.78,2,2,0,0,1-1.4-.1,29.18,29.18,0,0,1-7.61-4.69,13.65,13.65,0,0,1-4.48-6.21,16.42,16.42,0,0,1-4.38,6.52,25,25,0,0,1-8,4.84,1.73,1.73,0,0,1-2.09-.83,1.36,1.36,0,0,1-.1-1,1.44,1.44,0,0,1,.88-.84,23.43,23.43,0,0,0,8.55-5.52,13.36,13.36,0,0,0,3.6-9.38v-1.72H287.57c-1,0-1.44-.45-1.41-1.35s.49-1.31,1.46-1.31h23.66A1.15,1.15,0,0,1,312.58,202.47Zm6.05,27.61c2.74,1.4,4.11,3.29,4.11,5.69s-1.37,4.13-4.11,5.52q-4.49,2.34-13,2.34t-13.08-2.34q-4.06-2.08-4.07-5.52c0-2.4,1.36-4.29,4.07-5.69q4.53-2.34,13.08-2.34T318.63,230.08Zm-23.82,1.83c-2.22.94-3.33,2.22-3.33,3.86s1.11,2.79,3.33,3.69Q298.46,241,305.6,241t10.73-1.52q3.39-1.35,3.39-3.69c0-1.64-1.13-2.92-3.39-3.86q-3.65-1.46-10.73-1.46T294.81,231.91Zm27.05-5.42a1.42,1.42,0,0,1-1.05.42,1.47,1.47,0,0,1-1.09-.42,1.7,1.7,0,0,1-.47-1.25v-12H310.6a1.8,1.8,0,0,1-1.25-.42,1.52,1.52,0,0,1-.47-.93,1.37,1.37,0,0,1,.37-.94,1.48,1.48,0,0,1,1.09-.37h8.91v-9a1.52,1.52,0,0,1,1.56-1.56,1.56,1.56,0,0,1,1.05.37,1.41,1.41,0,0,1,.52,1.14v23.77A1.62,1.62,0,0,1,321.86,226.49Z"/><path d="M360.55,208.3c0,.91-.43,1.36-1.3,1.36H348.93v1.09a6.8,6.8,0,0,0,3,5.42,22.07,22.07,0,0,0,8.71,3.6,1.33,1.33,0,0,1,1,.67,1.22,1.22,0,0,1,.1,1.1,1.41,1.41,0,0,1-.73.94,2.06,2.06,0,0,1-1.4.15,27,27,0,0,1-8.24-3.38,11,11,0,0,1-4-4,12.29,12.29,0,0,1-3.75,4.17,26.19,26.19,0,0,1-8.6,3.91,1.43,1.43,0,0,1-1.2-.21,1.66,1.66,0,0,1-.73-.88,1.36,1.36,0,0,1,0-1.05,1.08,1.08,0,0,1,.94-.62,21.38,21.38,0,0,0,8.81-4.07,7.38,7.38,0,0,0,3-5.68v-1.14H335.54c-1,0-1.44-.45-1.41-1.36s.49-1.35,1.46-1.35h23.66C360.12,207,360.55,207.4,360.55,208.3Zm7,18.19a3.6,3.6,0,0,1,1.25,2.92v2a3.42,3.42,0,0,1-1.1,2.66,4.15,4.15,0,0,1-3,1.09h-23.1a2,2,0,0,0-1.45.47,2,2,0,0,0-.37,1.36v1.87a1.3,1.3,0,0,0,.42,1.1,2.36,2.36,0,0,0,1.35.31h27.15a1.7,1.7,0,0,1,1.15.36,1.3,1.3,0,0,1,.42.94,1.41,1.41,0,0,1-.37.94,1.47,1.47,0,0,1-1.09.42h-28.2a3.92,3.92,0,0,1-2.81-1,3.35,3.35,0,0,1-1.09-2.61V236.7a4.08,4.08,0,0,1,1.09-3,4.67,4.67,0,0,1,3.43-1.15h22.47a2.66,2.66,0,0,0,1.46-.31,1.09,1.09,0,0,0,.57-1v-1.41a1.54,1.54,0,0,0-.47-1.3,2.7,2.7,0,0,0-1.61-.37H338q-1.56,0-1.56-1.35c0-.87.57-1.3,1.61-1.3h26.07A5.08,5.08,0,0,1,367.54,226.49Zm-12.09-24.34c0,.91-.37,1.36-1.2,1.36H340.7c-1,0-1.51-.45-1.51-1.36s.5-1.35,1.51-1.35H354A1.25,1.25,0,0,1,355.45,202.15Zm19,9.17a1.18,1.18,0,0,1,1.35,1.31,1.19,1.19,0,0,1-1.35,1.35h-5.68v7.15a1.35,1.35,0,0,1-.52,1.09,1.7,1.7,0,0,1-2.09,0,1.4,1.4,0,0,1-.47-1.09V201.37c0-.94.51-1.41,1.51-1.41s1.57.47,1.57,1.41v9.95Z"/><path d="M235.27,270.4a1.48,1.48,0,0,1,1-.63,1.62,1.62,0,0,1,1.2.16,1.66,1.66,0,0,1,.78,1l9,31.69,8.07-31.22a2.19,2.19,0,0,1,2.35-1.72,2.22,2.22,0,0,1,2.4,1.72l8.07,31.22L277,271.13a1.62,1.62,0,0,1,.83-1.2,1.58,1.58,0,0,1,1.2-.16,1.71,1.71,0,0,1,1,.68,2,2,0,0,1,.2,1.46l-10,36.06c-.31,1.25-1,1.88-2,1.88s-1.67-.63-2-1.88l-8.55-32.52L249.24,308c-.42,1.22-1.13,1.83-2.14,1.83a2.09,2.09,0,0,1-2-1.83l-10-36.11A2,2,0,0,1,235.27,270.4Z"/><rect class="cls-2" x="225.04" y="259.4" width="61.91" height="58.37"/><rect class="cls-3" width="512" height="512"/></g></g></svg>