<svg xmlns="http://www.w3.org/2000/svg" viewBox="0 0 512 512"><defs><style>.cls-1,.cls-6,.cls-7{fill:none;}.cls-1,.cls-6{stroke:#231f20;stroke-miterlimit:10;}.cls-1{stroke-width:7px;}.cls-2{fill:#231f20;}.cls-3{font-size:25px;}.cls-3,.cls-4,.cls-5{font-family:New-Gulim, New Gulim;}.cls-4{font-size:27.01px;}.cls-5{font-size:23.52px;}.cls-6{stroke-width:2px;}</style></defs><g id="Layer_2" data-name="Layer 2"><g id="G_F_AXS---_X" data-name="G*F*AXS---****X"><path class="cls-1" d="M187,385.13A78.15,78.15,0,0,1,298,345"/><path class="cls-1" d="M152.34,305.86a152,152,0,0,0-34.27,52.65"/><path class="cls-1" d="M334,280.46a152.07,152.07,0,0,0-181.64,25.4"/><path class="cls-1" d="M370.24,215.41A226.58,226.58,0,0,0,99.69,253.2"/><path class="cls-1" d="M47.13,200.63a300.84,300.84,0,0,1,383.75-34.92"/><line class="cls-1" x1="333.98" y1="280.46" x2="297.99" y2="345.01"/><line class="cls-1" x1="333.98" y1="280.46" x2="370.24" y2="215.41"/><polyline class="cls-1" points="370.25 215.4 370.24 215.41 388.55 226.79 430.88 165.71"/><line class="cls-1" x1="430.88" y1="165.71" x2="430.9" y2="165.7"/><line class="cls-1" x1="47.13" y1="200.63" x2="47.13" y2="200.63"/><line class="cls-1" x1="154.92" y1="308.43" x2="152.34" y2="305.86"/><line class="cls-1" x1="99.69" y1="253.2" x2="47.13" y2="200.63"/><line class="cls-1" x1="99.69" y1="253.2" x2="152.34" y2="305.86"/><line class="cls-1" x1="187.03" y1="385.13" x2="118.07" y2="358.51"/><polyline class="cls-1" points="187.03 385.13 259.94 413.28 297.99 345.01"/><line class="cls-1" x1="118.07" y1="358.51" x2="118.07" y2="358.51"/><line class="cls-1" x1="259.94" y1="413.28" x2="259.94" y2="94.77"/><polygon class="cls-2" points="260.3 78.23 250.34 94.77 269.54 94.77 260.3 78.23"/><text class="cls-3" transform="translate(16.16 250.2)">AN6</text><text class="cls-3" transform="translate(70.03 303)">AN4</text><text class="cls-3" transform="translate(94.08 395.8)">AN2</text><text class="cls-3" transform="translate(180.73 423.54)">AN</text><text class="cls-3" transform="translate(282.35 402.74)">AN1</text><text class="cls-3" transform="translate(318.08 338.2)">AN3</text><text class="cls-4" transform="matrix(0.81, -0.59, 0.59, 0.81, 145.47, 340.88)">RG AM1<tspan x="6.73" y="35.65">ALT X1</tspan></text><text/><text class="cls-4" transform="matrix(0.81, -0.59, 0.59, 0.81, 193.64, 395.99)">RG AM<tspan x="6.73" y="35.65">ALT X</tspan></text><text class="cls-3" transform="translate(109.7 178.96) rotate(-22.55)">RG AM3<tspan x="6.23" y="33">ALT X3</tspan></text><text class="cls-5" transform="translate(356.44 430.16)">ANCHOR PT.</text><text class="cls-3" transform="translate(356.48 272.07)">AN5</text><text class="cls-3" transform="translate(412.48 219.98)">AN7</text><text class="cls-3" transform="translate(137.34 250.05) rotate(-22.55)">RG AM2<tspan x="6.23" y="33">ALT X2</tspan></text><rect class="cls-6" x="11.73" y="225.3" width="60" height="35"/><rect class="cls-6" x="64.62" y="275.8" width="60" height="35"/><rect class="cls-6" x="88.07" y="371.82" width="60" height="35"/><rect class="cls-6" x="279" y="377.44" width="60" height="35"/><rect class="cls-6" x="313.14" y="314.68" width="60" height="35"/><rect class="cls-6" x="352.11" y="250.2" width="60" height="35"/><rect class="cls-6" x="407.58" y="196.25" width="60" height="35"/><rect class="cls-6" x="175.87" y="398.77" width="49.65" height="35"/><rect class="cls-6" x="194.36" y="230.6" width="42.21" height="30.61" transform="translate(-77.83 101.43) rotate(-22.55)"/><rect class="cls-6" x="168.99" y="158.72" width="42.21" height="30.61" transform="translate(-52.2 86.21) rotate(-22.55)"/><rect class="cls-6" x="143.76" y="128.17" width="64.22" height="30.61" transform="translate(-41.57 78.41) rotate(-22.55)"/><rect class="cls-6" x="168.58" y="200.1" width="64.22" height="30.61" transform="translate(-67.26 93.43) rotate(-22.55)"/><rect class="cls-6" x="206.57" y="302.73" width="42.21" height="30.61" transform="translate(-143.35 194.25) rotate(-35.95)"/><rect class="cls-6" x="174.13" y="276.49" width="64.22" height="30.61" transform="translate(-132.03 176.67) rotate(-35.95)"/><rect class="cls-6" x="253.39" y="364.4" width="30.31" height="30.61" transform="translate(-171.77 229.99) rotate(-35.95)"/><rect class="cls-6" x="224.5" y="337.83" width="46.11" height="30.61" transform="translate(-160.17 212.61) rotate(-35.95)"/><rect class="cls-7" width="512" height="512"/></g></g></svg>