<?xml version="1.0" encoding="UTF-8"?><svg xmlns="http://www.w3.org/2000/svg" viewBox="0 0 512 512"><defs><style>.d{font-size:25.61px;}.d,.e,.f,.g,.h{font-family:Gulim, Gulim;}.e{font-size:28.77px;}.f{font-size:23.53px;letter-spacing:-.06em;}.g{font-size:27.36px;}.i,.j{fill:none;}.i,.k{stroke:#000;stroke-miterlimit:10;stroke-width:5px;}.h{font-size:26.92px;}.k{fill:#fff;}</style></defs><g id="a"/><g id="b"><g id="c"><g><line class="i" x1="106.86" y1="251.97" x2="416.86" y2="251.97"/><text class="g" transform="translate(21.06 257.67)"><tspan x="0" y="0">PL</tspan></text><g><rect class="k" x="57.33" y="234.02" width="36.57" height="29.03"/><text class="f" transform="translate(61.35 257.46) scale(1.11 1)"><tspan x="0" y="0">T1</tspan></text></g><rect class="k" x="44.38" y="266.66" width="35.04" height="33.21"/><text class="h" transform="translate(49.85 293.47)"><tspan x="0" y="0">W</tspan></text><rect class="k" x="96.21" y="266.66" width="49.31" height="33.21"/><text class="h" transform="translate(101.1 293.47)"><tspan x="0" y="0">W1</tspan></text><path d="M92.02,280.92c0,.45-.15,.68-.46,.68h-8.42c-.3,0-.44-.23-.44-.68-.01-.44,.14-.65,.44-.65h8.42c.31,0,.46,.22,.46,.65Z"/><text class="g" transform="translate(418.09 257.67)"><tspan x="0" y="0">PL</tspan></text><g><rect class="k" x="454.37" y="234.02" width="36.57" height="29.03"/><text class="f" transform="translate(458.39 257.46) scale(1.11 1)"><tspan x="0" y="0">T1</tspan></text></g><text class="e" transform="translate(106.86 240.19)"><tspan x="0" y="0">RFL</tspan></text><g><rect class="k" x="164.61" y="212.13" width="24.44" height="31.6"/><text class="d" transform="translate(168.84 237.64) scale(1.07 1)"><tspan x="0" y="0">T</tspan></text></g><text class="e" transform="translate(328.87 240.19)"><tspan x="0" y="0">RFL</tspan></text><g><rect class="k" x="386.62" y="212.13" width="24.44" height="31.6"/><text class="d" transform="translate(390.85 237.64) scale(1.07 1)"><tspan x="0" y="0">T</tspan></text></g><rect class="k" x="363.84" y="266.66" width="35.04" height="33.21"/><text class="h" transform="translate(369.32 293.47)"><tspan x="0" y="0">W</tspan></text><rect class="k" x="415.68" y="266.66" width="49.31" height="33.21"/><text class="h" transform="translate(420.57 293.47)"><tspan x="0" y="0">W1</tspan></text><path d="M411.49,280.92c0,.45-.15,.68-.46,.68h-8.42c-.3,0-.44-.23-.44-.68-.01-.44,.14-.65,.44-.65h8.42c.31,0,.46,.22,.46,.65Z"/></g><rect class="j" width="512" height="512"/></g></g></svg>