<?xml version="1.0" encoding="UTF-8"?><svg xmlns="http://www.w3.org/2000/svg" viewBox="0 0 512 512"><defs><style>.d{font-size:35.48px;}.d,.e{font-family:Gulim, Gulim;}.f{stroke-width:10px;}.f,.g{fill:none;}.f,.h{stroke:#000;stroke-miterlimit:10;}.e{font-size:32.32px;}.h{fill:#fff;stroke-width:5px;}</style></defs><g id="a"/><g id="b"><g id="c"><polygon class="f" points="498.9 302.45 454.7 346.45 67.5 346.45 13.1 302.45 13.1 209.55 67.5 165.55 454.7 165.55 498.9 209.55 498.9 302.45"/><text class="d" transform="translate(194.36 238.82)"><tspan x="0" y="0">SMOKE</tspan></text><g><rect class="h" x="195.27" y="249" width="42.07" height="39.88"/><text class="e" transform="translate(201.85 281.19)"><tspan x="0" y="0">W</tspan></text><rect class="h" x="257.52" y="249" width="59.22" height="39.88"/><text class="e" transform="translate(263.39 281.19)"><tspan x="0" y="0">W1</tspan></text><path d="M252.48,266.12c0,.54-.19,.81-.55,.81h-10.12c-.36,0-.53-.27-.53-.81-.01-.52,.16-.79,.53-.79h10.12c.37,0,.55,.26,.55,.79Z"/></g><rect class="g" width="512" height="512"/></g></g></svg>