<svg xmlns="http://www.w3.org/2000/svg" viewBox="0 0 512 512"><defs><style>.cls-1,.cls-2{fill:none;}.cls-1{stroke:#231f20;stroke-miterlimit:10;stroke-width:7px;}</style></defs><g id="Layer_2" data-name="Layer 2"><g id="G_F_ACBI------X" data-name="G*F*ACBI------X"><polygon class="cls-1" points="146.4 65.2 146.4 154 40 314.8 25.6 384.4 133.6 442.8 332.8 446.8 474.4 422.8 486.4 383.6 440 346.8 415.2 174.8 451.2 141.2 210.4 65.2 146.4 65.2"/><path d="M240.08,219.67a1,1,0,0,1,.33.75.91.91,0,0,1-.33.7,1.21,1.21,0,0,1-.89.33h-7.53v24.72a1.1,1.1,0,0,1-.37.85,1.22,1.22,0,0,1-1.6,0,1.15,1.15,0,0,1-.33-.85V221.45h-7.87c-.6,0-.89-.34-.89-1s.29-1,.89-1h17.7A1.32,1.32,0,0,1,240.08,219.67Z"/><path d="M257.26,219.38a6.68,6.68,0,0,1,5.23,2.19,7,7,0,0,1,1.79,4.86,6.37,6.37,0,0,1-.86,3.3,6.3,6.3,0,0,1-2.37,2.41,7.87,7.87,0,0,1,3.19,2.64,7.12,7.12,0,0,1,1.3,4.23,7.65,7.65,0,0,1-1.93,5.27,7.38,7.38,0,0,1-5.79,2.41H249a3.36,3.36,0,0,1-2.67-1.11,3.65,3.65,0,0,1-.85-2.45V223a3.71,3.71,0,0,1,.85-2.49,3.36,3.36,0,0,1,2.67-1.11Zm3.45,10.39a4.9,4.9,0,0,0,1.26-3.38,4.84,4.84,0,0,0-1.26-3.41,4.61,4.61,0,0,0-3.67-1.53h-7.61a1.6,1.6,0,0,0-1.26.52,1.73,1.73,0,0,0-.37,1.15v8.21H257A4.64,4.64,0,0,0,260.71,229.77Zm1.15,13.1a6,6,0,0,0-.07-7.76,5.41,5.41,0,0,0-4.19-1.74h-9.8V243a1.67,1.67,0,0,0,.37,1.11,1.57,1.57,0,0,0,1.26.52h8.35A5.14,5.14,0,0,0,261.86,242.87Z"/><path d="M278.67,219.19a2.12,2.12,0,0,1,1.27-.41,2,2,0,0,1,1.18.41,2.59,2.59,0,0,1,.89,1.3l9.21,25.16a1.38,1.38,0,0,1,0,1,1,1,0,0,1-.63.56,1.3,1.3,0,0,1-.89,0,1.58,1.58,0,0,1-.67-.82l-3.12-8.64H274l-3.15,8.64a1.56,1.56,0,0,1-.71.82,1,1,0,0,1-.85.07,1.11,1.11,0,0,1-.67-.59,1.16,1.16,0,0,1,0-1l9.16-25.16A2.73,2.73,0,0,1,278.67,219.19Zm6.42,16.51L280,221.6h-.11l-5.16,14.1Z"/><path d="M227.59,265.27a1,1,0,0,1,.34.75.89.89,0,0,1-.34.7,1.21,1.21,0,0,1-.89.33h-7.53v24.72a1.1,1.1,0,0,1-.37.85,1.12,1.12,0,0,1-.78.3,1.18,1.18,0,0,1-.82-.3,1.15,1.15,0,0,1-.33-.85V267.05H209c-.59,0-.89-.34-.89-1s.3-1,.89-1h17.7A1.32,1.32,0,0,1,227.59,265.27Z"/><path d="M240.47,264.79a2.09,2.09,0,0,1,1.26-.41,2,2,0,0,1,1.19.41,2.73,2.73,0,0,1,.89,1.3l9.2,25.16a1.38,1.38,0,0,1,0,1,1,1,0,0,1-.64.56,1.3,1.3,0,0,1-.89,0,1.61,1.61,0,0,1-.66-.82l-3.12-8.64H235.76L232.6,292a1.58,1.58,0,0,1-.7.82,1,1,0,0,1-.86.07,1.1,1.1,0,0,1-.66-.59,1.19,1.19,0,0,1,0-1l9.17-25.16A2.66,2.66,0,0,1,240.47,264.79Zm6.42,16.51-5.12-14.1h-.11l-5.16,14.1Z"/><path d="M258.65,264.35a1.62,1.62,0,0,1,1.71.78l1.26,1.85,13,21.67v-23.3a1,1,0,0,1,.33-.78,1.44,1.44,0,0,1,.82-.22,1.23,1.23,0,0,1,.81.26.85.85,0,0,1,.38.74v26a1.38,1.38,0,0,1-1,1.53,1.12,1.12,0,0,1-1.44-.49l-2.08-3-12.58-20.74v23a1.37,1.37,0,0,1-.37,1,1.11,1.11,0,0,1-.82.34,1.32,1.32,0,0,1-.82-.37,1.41,1.41,0,0,1-.33-1V265.83C257.54,265,257.91,264.47,258.65,264.35Z"/><path d="M284.41,264.64a1.29,1.29,0,0,1,.81-.26,1.24,1.24,0,0,1,.78.26,1,1,0,0,1,.37.82v14.1L301,264.79a1.21,1.21,0,0,1,.93-.44,1.14,1.14,0,0,1,.85.26.94.94,0,0,1,.33.74,1.47,1.47,0,0,1-.44.93l-9.84,10,11.1,14.84a1.33,1.33,0,0,1,.26,1,1,1,0,0,1-.48.66,1.29,1.29,0,0,1-.86.15,1.11,1.11,0,0,1-.81-.52l-10.88-14.54-4.75,4.82v9.06a1.14,1.14,0,0,1-.37.89,1.16,1.16,0,0,1-.78.29,1.09,1.09,0,0,1-1.15-1.18V265.46A1,1,0,0,1,284.41,264.64Z"/><rect class="cls-2" width="512" height="512"/></g></g></svg>