<svg xmlns="http://www.w3.org/2000/svg" viewBox="0 0 512 512"><defs><style>.cls-1,.cls-5{fill:none;}.cls-1{stroke:#231f20;stroke-width:7px;}.cls-1,.cls-2{stroke-miterlimit:10;}.cls-2{fill:#999;stroke:#000;stroke-width:5px;}.cls-3{font-size:38px;}.cls-3,.cls-4{font-family:Gulim;}.cls-4{font-size:37.56px;}</style></defs><g id="Layer_2" data-name="Layer 2"><g id="G_F_AZFI--_X" data-name="G*F*AZFI--****X"><polygon class="cls-1" points="185.9 94 496.5 68.4 413.1 443.6 15.5 443.6 121.9 253.8 185.9 94"/><rect class="cls-2" x="230.36" y="250.25" width="40.24" height="46.34"/><text class="cls-3" transform="translate(167.56 243.62)">CF ZONE<tspan x="71.88" y="45.6">T</tspan></text><rect class="cls-2" x="72.35" y="141.14" width="48.89" height="46.34"/><text class="cls-4" transform="translate(79.99 178.55)">W</text><rect class="cls-2" x="78.37" y="188.49" width="68.81" height="46.34"/><text class="cls-4" transform="translate(85.19 225.9)">W1</text><path d="M138.83,161c0,.63-.22,1-.65,1H126.43c-.41,0-.62-.32-.62-1s.19-.91.62-.91h11.75C138.61,160.13,138.83,160.43,138.83,161Z"/><rect class="cls-5" width="512" height="512"/></g></g></svg>