<svg xmlns="http://www.w3.org/2000/svg" viewBox="0 0 512 512"><defs><style>.cls-1,.cls-5{fill:none;}.cls-1{stroke:#231f20;stroke-width:7px;}.cls-1,.cls-2{stroke-miterlimit:10;}.cls-2{fill:#999;stroke:#000;stroke-width:5px;}.cls-3{font-size:38px;}.cls-3,.cls-4{font-family:Gulim;}.cls-4{font-size:37.56px;}</style></defs><g id="Layer_2" data-name="Layer 2"><g id="G_F_ACEI--_X" data-name="G*F*ACEI--****X"><polygon class="cls-1" points="146.4 65.2 146.4 154 40 314.8 25.6 384.4 133.6 442.8 332.8 446.8 474.4 422.8 486.4 383.6 440 346.8 415.2 174.8 451.2 141.2 210.4 65.2 146.4 65.2"/><rect class="cls-2" x="235.86" y="252.45" width="40.24" height="46.34"/><text class="cls-3" transform="translate(121.53 245.82)">SENSOR ZONE<tspan x="123.41" y="45.6">T</tspan></text><rect class="cls-2" x="74.83" y="86.16" width="48.89" height="46.34"/><text class="cls-4" transform="translate(82.48 123.57)">W</text><rect class="cls-2" x="80.86" y="133.5" width="68.81" height="46.34"/><text class="cls-4" transform="translate(87.68 170.91)">W1</text><path d="M141.31,106.06c0,.63-.21.94-.64.94H128.92c-.42,0-.62-.31-.62-.94s.19-.92.62-.92h11.75C141.1,105.14,141.31,105.45,141.31,106.06Z"/><rect class="cls-5" width="512" height="512"/></g></g></svg>