<?xml version="1.0" encoding="UTF-8"?><svg xmlns="http://www.w3.org/2000/svg" xmlns:xlink="http://www.w3.org/1999/xlink" viewBox="0 0 512 512"><defs><style>.e{fill:url(#d);stroke-width:7px;}.e,.f{stroke:#000;stroke-miterlimit:10;}.g{font-size:37.56px;}.g,.h{font-family:Gulim, Gulim;}.h{font-size:41.22px;}.i{stroke:#231f20;}.i,.j{fill:none;}.f{fill:#fff;stroke-width:5px;}</style><pattern id="d" x="0" y="0" width="72" height="72" patternUnits="userSpaceOnUse" viewBox="0 0 72 72"><g><rect class="j" y="0" width="72" height="72"/><g><line class="i" x1="78.82" y1="72.09" x2="71.81" y2="79.1"/><line class="i" x1="107.91" y1="71.84" x2="71.78" y2="107.97"/><line class="i" x1="136.67" y1="71.92" x2="71.66" y2="136.94"/><line class="i" x1="93.41" y1="71.92" x2="71.82" y2="93.51"/><line class="i" x1="122.25" y1="71.92" x2="71.66" y2="122.52"/></g><g><line class="i" x1="6.82" y1="72.09" x2="-.19" y2="79.1"/><line class="i" x1="35.91" y1="71.84" x2="-.22" y2="107.97"/><line class="i" x1="64.67" y1="71.92" x2="-.34" y2="136.94"/><line class="i" x1="21.41" y1="71.92" x2="-.18" y2="93.51"/><line class="i" x1="50.25" y1="71.92" x2="-.34" y2="122.52"/></g><g><line class="i" x1="78.82" y1=".09" x2="71.81" y2="7.1"/><line class="i" x1="107.91" y1="-.16" x2="71.78" y2="35.97"/><line class="i" x1="136.67" y1="-.08" x2="71.66" y2="64.94"/><line class="i" x1="93.41" y1="-.08" x2="71.82" y2="21.51"/><line class="i" x1="122.25" y1="-.08" x2="71.66" y2="50.52"/></g><g><line class="i" x1="6.82" y1=".09" x2="-.19" y2="7.1"/><line class="i" x1="35.91" y1="-.16" x2="-.22" y2="35.97"/><line class="i" x1="64.67" y1="-.08" x2="-.34" y2="64.94"/><line class="i" x1="72.34" y1="21.09" x2="21.28" y2="72.16"/><line class="i" x1="71.88" y1="50.4" x2="50.84" y2="71.44"/><line class="i" x1="21.41" y1="-.08" x2="-.18" y2="21.51"/><line class="i" x1="50.25" y1="-.08" x2="-.34" y2="50.52"/><line class="i" x1="72.34" y1="6.67" x2="6.86" y2="72.16"/><line class="i" x1="71.88" y1="35.98" x2="35.7" y2="72.16"/><line class="i" x1="71.88" y1="64.82" x2="64.78" y2="71.92"/></g><g><line class="i" x1=".34" y1="21.09" x2="-50.72" y2="72.16"/><line class="i" x1="-.12" y1="50.4" x2="-21.16" y2="71.44"/><line class="i" x1=".34" y1="6.67" x2="-65.14" y2="72.16"/><line class="i" x1="-.12" y1="35.98" x2="-36.3" y2="72.16"/><line class="i" x1="-.12" y1="64.82" x2="-7.22" y2="71.92"/></g><g><line class="i" x1="72.34" y1="-50.91" x2="21.28" y2=".16"/><line class="i" x1="72.34" y1="-65.33" x2="6.86" y2=".16"/><line class="i" x1="71.88" y1="-36.02" x2="35.7" y2=".16"/><line class="i" x1="71.88" y1="-7.18" x2="64.78" y2="-.08"/></g><g><line class="i" x1=".34" y1="-50.91" x2="-50.72" y2=".16"/><line class="i" x1=".34" y1="-65.33" x2="-65.14" y2=".16"/><line class="i" x1="-.12" y1="-36.02" x2="-36.3" y2=".16"/><line class="i" x1="-.12" y1="-7.18" x2="-7.22" y2="-.08"/></g></g></pattern></defs><g id="a"/><g id="b"><g id="c"><g><g><rect class="f" x="235.88" y="231.93" width="40.24" height="46.34"/><text class="h" transform="translate(216 221.47)"><tspan x="0" y="0">NFA</tspan><tspan x="28" y="49.47">T</tspan></text></g><g><rect class="f" x="185.43" y="279.57" width="48.89" height="46.34"/><text class="g" transform="translate(193.08 316.98)"><tspan x="0" y="0">W</tspan></text><rect class="f" x="257.76" y="279.57" width="68.81" height="46.34"/><text class="g" transform="translate(264.58 316.98)"><tspan x="0" y="0">W1</tspan></text><path d="M251.91,299.47c0,.63-.22,.95-.64,.95h-11.75c-.41,0-.62-.31-.62-.95-.02-.61,.19-.91,.62-.91h11.75c.43,0,.64,.3,.64,.91Z"/></g></g><rect class="j" width="512" height="512"/><polygon class="e" points="147.6 63.6 208.47 63.6 456.4 137.2 420.4 172.4 443.6 349.2 493.2 384.4 482.8 422 334 445.2 130.8 448.4 18.8 384.4 33.2 325.18 145 149.2 147.6 63.6"/></g></g></svg>