<?xml version="1.0" encoding="UTF-8"?><svg xmlns="http://www.w3.org/2000/svg" viewBox="0 0 512 512"><defs><style>.d{font-size:26.42px;}.d,.e,.f,.g{font-family:Gulim, Gulim;}.e{font-size:29px;}.f{font-size:26px;letter-spacing:-.06em;}.h,.i{fill:none;}.g{font-size:26.54px;}.i{stroke-dasharray:0 0 40 11;}.i,.j{stroke:#000;stroke-miterlimit:10;stroke-width:5px;}.j{fill:#fff;}</style></defs><g id="a"/><g id="b"><g id="c"><line class="i" x1="112.45" y1="255.2" x2="400.74" y2="255.2"/><text class="e" transform="translate(16.18 261.87)"><tspan x="0" y="0">PL</tspan></text><rect class="j" x="60.19" y="238.89" width="41.1" height="32.62"/><text class="f" transform="translate(64.97 265.23) scale(1.11 1)"><tspan x="0" y="0">T1</tspan></text><text class="e" transform="translate(411.87 261.87)"><tspan x="0" y="0">PL</tspan></text><rect class="j" x="454.72" y="238.89" width="41.1" height="32.62"/><text class="f" transform="translate(459.5 265.23) scale(1.11 1)"><tspan x="0" y="0">T1</tspan></text><g><text class="e" transform="translate(211.91 243.92)"><tspan x="0" y="0">CFL</tspan></text><rect class="j" x="274.76" y="216.36" width="25.33" height="32.75"/><text class="g" transform="translate(279.14 242.8) scale(1.07 1)"><tspan x="0" y="0">T</tspan></text></g><g><rect class="j" x="205.95" y="262.37" width="34.39" height="32.6"/><text class="d" transform="translate(211.33 288.69)"><tspan x="0" y="0">W</tspan></text><rect class="j" x="256.84" y="262.37" width="48.4" height="32.6"/><text class="d" transform="translate(261.63 288.69)"><tspan x="0" y="0">W1</tspan></text><path d="M252.72,276.37c0,.44-.15,.67-.45,.67h-8.27c-.29,0-.44-.22-.44-.67-.01-.43,.13-.64,.44-.64h8.27c.3,0,.45,.21,.45,.64Z"/></g><rect class="h" width="512" height="512"/></g></g></svg>