<?xml version="1.0" encoding="UTF-8"?><svg xmlns="http://www.w3.org/2000/svg" viewBox="0 0 512 512"><defs><style>.d{font-size:37.56px;}.d,.e{font-family:Gulim, Gulim;}.e{font-size:41.22px;}.f,.g{fill:none;}.g{stroke-width:7px;}.g,.h{stroke:#000;stroke-miterlimit:10;}.h{fill:#fff;stroke-width:5px;}</style></defs><g id="a"/><g id="b"><g id="c"><g><g><rect class="h" x="235.88" y="231.93" width="40.24" height="46.34"/><text class="e" transform="translate(218.14 221.47)"><tspan x="0" y="0">FFA</tspan><tspan x="25.87" y="49.47">T</tspan></text></g><g><rect class="h" x="185.43" y="279.57" width="48.89" height="46.34"/><text class="d" transform="translate(193.08 316.98)"><tspan x="0" y="0">W</tspan></text><rect class="h" x="257.76" y="279.57" width="68.81" height="46.34"/><text class="d" transform="translate(264.58 316.98)"><tspan x="0" y="0">W1</tspan></text><path d="M251.91,299.47c0,.63-.22,.95-.64,.95h-11.75c-.41,0-.62-.31-.62-.95-.02-.61,.19-.91,.62-.91h11.75c.43,0,.64,.3,.64,.91Z"/></g></g><polygon class="g" points="147.6 63.6 208.47 63.6 456.4 137.2 420.4 172.4 443.6 349.2 493.2 384.4 482.8 422 334 445.2 130.8 448.4 18.8 384.4 33.2 325.18 145 149.2 147.6 63.6"/><rect class="f" width="512" height="512"/></g></g></svg>