<svg xmlns="http://www.w3.org/2000/svg" viewBox="0 0 512 512"><defs><style>.cls-1{fill:#999;stroke-width:5px;}.cls-1,.cls-4{stroke:#000;stroke-miterlimit:10;}.cls-2{font-size:41.22px;}.cls-2,.cls-3{font-family:Gulim;}.cls-3{font-size:37.56px;}.cls-4,.cls-5{fill:none;}.cls-4{stroke-width:7px;}</style></defs><g id="Layer_2" data-name="Layer 2"><g id="G_F_ACRI--_X" data-name="G*F*ACRI--****X"><rect class="cls-1" x="235.88" y="231.93" width="40.24" height="46.34"/><text class="cls-2" transform="translate(216.69 221.47)">RFA<tspan x="27.32" y="49.47">T</tspan></text><rect class="cls-1" x="185.43" y="279.57" width="48.89" height="46.34"/><text class="cls-3" transform="translate(193.08 316.98)">W</text><rect class="cls-1" x="257.76" y="279.57" width="68.81" height="46.34"/><text class="cls-3" transform="translate(264.58 316.98)">W1</text><path d="M251.91,299.47c0,.63-.21.94-.64.94H239.51c-.41,0-.62-.31-.62-.94s.19-.92.62-.92h11.76C251.7,298.55,251.91,298.86,251.91,299.47Z"/><polygon class="cls-4" points="147.6 63.6 208.47 63.6 456.4 137.2 420.4 172.4 443.6 349.2 493.2 384.4 482.8 422 334 445.2 130.8 448.4 18.8 384.4 33.2 325.18 145 149.2 147.6 63.6"/><rect class="cls-5" width="512" height="512"/></g></g></svg>