<?xml version="1.0" encoding="UTF-8"?><svg xmlns="http://www.w3.org/2000/svg" viewBox="0 0 512 512"><defs><style>.d{font-size:37.56px;}.d,.e{font-family:Gulim, Gulim;}.e{font-size:41.22px;}.f,.g{fill:none;}.g{stroke:#231f20;stroke-width:7px;}.g,.h{stroke-miterlimit:10;}.h{fill:#fff;stroke:#000;stroke-width:5px;}</style></defs><g id="a"/><g id="b"><g id="c"><polygon class="g" points="146.4 65.2 146.4 154 40 314.8 25.6 384.4 133.6 442.8 332.8 446.8 474.4 422.8 486.4 383.6 440 346.8 415.2 174.8 451.2 141.2 210.4 65.2 146.4 65.2"/><rect class="h" x="279.49" y="232.83" width="40.24" height="46.34"/><text class="e" transform="translate(195.36 270.88)"><tspan x="0" y="0">FSA T</tspan></text><g><rect class="h" x="74.83" y="86.16" width="48.89" height="46.34"/><text class="d" transform="translate(82.48 123.57)"><tspan x="0" y="0">W</tspan></text><rect class="h" x="80.86" y="133.5" width="68.81" height="46.34"/><text class="d" transform="translate(87.68 170.91)"><tspan x="0" y="0">W1</tspan></text><path d="M141.31,106.06c0,.63-.22,.95-.64,.95h-11.75c-.41,0-.62-.31-.62-.95-.02-.61,.19-.91,.62-.91h11.75c.43,0,.64,.3,.64,.91Z"/></g><rect class="f" width="512" height="512"/></g></g></svg>