<svg xmlns="http://www.w3.org/2000/svg" viewBox="0 0 512 512"><defs><style>.cls-1,.cls-6{fill:none;}.cls-1{stroke:#231f20;}.cls-1,.cls-2{stroke-miterlimit:10;stroke-width:5px;}.cls-2{fill:#999;stroke:#000;}.cls-3,.cls-4,.cls-5{font-size:28.48px;font-family:New-Gulim, New Gulim;}.cls-3{letter-spacing:-0.06em;}.cls-5{letter-spacing:-0.06em;}</style></defs><g id="Layer_2" data-name="Layer 2"><g id="G_G_DAB---_X" data-name="G*G*DAB---****X"><path class="cls-1" d="M293.8,165.8l-45.6,5.6H214.6l-48.8,10.4-46.4-16L65.8,161,35.4,192.2v89.6s8,19.2,10.4,20S75.4,333,75.4,333l39.2,17.6H249L277,333l60-1.6,17.6,10.4,60.8,2.4,22.4-21.6,28-8.8,16.8-38.4L457,182.6,424.2,161l-54.4-10.4-46.4,12.8Z"/><rect class="cls-2" x="241.53" y="233.04" width="27.75" height="36.76"/><text class="cls-3" transform="translate(247.68 261.5)">T</text><rect class="cls-2" x="241.53" y="326.3" width="27.75" height="36.76"/><text class="cls-3" transform="translate(246.33 354.76)">B</text><rect class="cls-2" x="452.01" y="217.44" width="49.99" height="36.76"/><text class="cls-4" transform="translate(459.75 245.9)">B3</text><rect class="cls-2" x="231.5" y="150.6" width="49.99" height="36.76"/><text class="cls-4" transform="translate(239.25 179.06)">B1</text><rect class="cls-2" x="459.01" y="256" width="35.99" height="36.76"/><text class="cls-5" transform="translate(467.61 284.46)">N</text><rect class="cls-2" x="10.4" y="203.39" width="49.99" height="36.76"/><text class="cls-4" transform="translate(18.15 231.85)">B2</text><rect class="cls-2" x="17.4" y="241.95" width="35.99" height="36.76"/><text class="cls-5" transform="translate(26.01 270.41)">N</text><rect class="cls-6" width="512" height="512"/></g></g></svg>