<svg xmlns="http://www.w3.org/2000/svg" viewBox="0 0 512 512"><defs><style>.cls-1,.cls-2{fill:none;}.cls-1{stroke:#000;stroke-miterlimit:10;stroke-width:7px;}</style></defs><g id="Layer_2" data-name="Layer 2"><g id="G_G_SLAA--_X" data-name="G*G*SLAA--****X"><path class="cls-1" d="M16,372.91H146.69L107,335.05l-7.33-13.44L93,308.79,78.29,294.74l3-28.09s5.5-17.1,7.33-18.32,11.6-18.32,13.44-24.42,7.94-9.17,12.82-15.27,8.55-12.22,18.93-18.32,12.22-4.89,22-12.83S176,161.61,194.32,154.9s36-14.05,47.63-15.27,24.43,0,49.47,0,55.57,11,70.84,18.32,16.49,11,28.09,12.83S406.84,178.71,416,186s18.32,18.93,25,24.43,20.15,26.87,20.15,36.64-6.72,39.09-15.88,50.69-3.66,19.54-16.49,31.75-31.75,20.16-43.35,29.93-15.88,13.43-15.88,13.43H496"/><circle cx="256" cy="374.2" r="18.4"/><rect class="cls-2" width="512" height="512"/></g></g></svg>