<svg xmlns="http://www.w3.org/2000/svg" viewBox="0 0 512 512"><defs><style>.cls-1,.cls-4{fill:none;}.cls-1,.cls-2{stroke:#000;stroke-miterlimit:10;stroke-width:5px;}.cls-2{fill:#999;}.cls-3{font-size:37.21px;font-family:Gulim;}</style></defs><g id="Layer_2" data-name="Layer 2"><g id="G_G_OLI---_X" data-name="G*G*OLI---****X"><path class="cls-1" d="M451,96.85c-14.83,8-15-.56-31.38,8.28s-9.33,13.66-24.17,21.65-15-.57-31.38,8.27-9.33,13.67-24.16,21.66-15-.57-31.38,8.27-9.34,13.66-24.17,21.66-15-.57-31.38,8.27-9.34,13.66-24.17,21.65-15-.57-31.38,8.28-9.33,13.66-24.17,21.65-15-.57-31.38,8.27-9.33,13.67-24.17,21.66-15-.57-31.37,8.27S77,298.35,62.2,306.34s-15-.57-31.38,8.28c-9.55,5.14-11.15,8.93-13.74,12.77"/><path class="cls-1" d="M494.92,184.61c-14.84,8-15-.57-31.38,8.28s-9.34,13.66-24.17,21.65-15-.57-31.38,8.27-9.33,13.67-24.17,21.66-15-.57-31.38,8.27-9.33,13.66-24.16,21.66-15-.57-31.38,8.27-9.34,13.66-24.17,21.65-15-.57-31.38,8.28-9.34,13.66-24.17,21.65-15-.57-31.38,8.27-9.33,13.66-24.17,21.66-15-.57-31.38,8.27-9.33,13.66-24.17,21.65-15-.57-31.37,8.28c-9.56,5.14-11.15,8.93-13.74,12.77"/><rect class="cls-2" x="239.15" y="228.15" width="35.52" height="45.92" transform="matrix(0.87, -0.48, 0.48, 0.87, -89.46, 155.79)"/><text class="cls-3" transform="translate(253.58 269.13) rotate(-28.96) scale(1.07 1)">T</text><rect class="cls-4" width="512" height="512"/></g></g></svg>