<?xml version="1.0" encoding="UTF-8"?><svg id="Layer_2" xmlns="http://www.w3.org/2000/svg" viewBox="0 0 512 512"><defs><style>.cls-1{font-size:23px;}.cls-1,.cls-2,.cls-3{font-family:Gulim, Gulim;}.cls-4,.cls-5{stroke:#000;stroke-miterlimit:10;stroke-width:4px;}.cls-4,.cls-6{fill:none;}.cls-2{font-size:23.35px;}.cls-3{font-size:22.09px;}.cls-5{fill:#fff;}</style></defs><g id="G_G_OLC---_X"><g><text class="cls-1" transform="translate(39.75 248.55)"><tspan x="0" y="0">LD/LC</tspan></text><g><text class="cls-2" transform="translate(46.06 277.01)"><tspan x="0" y="0">PL</tspan></text><path d="M44.36,261.62c.17-.01,.33,.02,.47,.1,.16,.09,.25,.21,.28,.36,.04,.16,0,.32-.11,.49-1.03,1.4-1.78,2.72-2.22,3.96-.47,1.32-.71,2.78-.71,4.39s.22,3.15,.65,4.43c.46,1.35,1.21,2.61,2.26,3.8,.14,.16,.21,.34,.19,.53-.01,.17-.09,.32-.24,.44-.14,.12-.31,.17-.5,.16-.2-.01-.38-.11-.54-.28-1.11-1.17-1.93-2.58-2.46-4.22-.46-1.46-.69-3.09-.69-4.87,0-1.66,.24-3.21,.73-4.65,.5-1.48,1.31-2.94,2.41-4.39,.12-.16,.27-.24,.45-.26Z"/><path d="M105.65,266.27c.5,1.44,.76,2.99,.76,4.65,0,1.78-.24,3.4-.71,4.87-.53,1.64-1.34,3.04-2.44,4.22-.17,.17-.36,.26-.56,.28-.19,.01-.35-.04-.5-.16-.14-.12-.22-.26-.24-.44-.01-.2,.06-.38,.22-.53,1.04-1.19,1.78-2.45,2.24-3.8,.45-1.28,.67-2.76,.67-4.43s-.24-3.07-.73-4.39c-.45-1.24-1.18-2.56-2.2-3.96-.13-.17-.17-.34-.13-.49,.03-.14,.12-.26,.28-.36,.14-.08,.3-.11,.47-.1,.19,.01,.35,.1,.47,.26,1.09,1.45,1.89,2.92,2.39,4.39Z"/><g><rect class="cls-5" x="76.56" y="255.94" width="22.02" height="27.25"/><text class="cls-3" transform="translate(80.37 277.94) scale(1.12 1)"><tspan x="0" y="0">T</tspan></text></g></g><text class="cls-1" transform="translate(404.58 248.55)"><tspan x="0" y="0">LD/LC</tspan></text><g><text class="cls-2" transform="translate(410.89 277.01)"><tspan x="0" y="0">PL</tspan></text><path d="M409.19,261.62c.17-.01,.33,.02,.47,.1,.16,.09,.25,.21,.28,.36,.04,.16,0,.32-.11,.49-1.03,1.4-1.78,2.72-2.22,3.96-.47,1.32-.71,2.78-.71,4.39s.22,3.15,.65,4.43c.46,1.35,1.21,2.61,2.26,3.8,.14,.16,.21,.34,.19,.53-.01,.17-.09,.32-.24,.44-.14,.12-.31,.17-.5,.16-.2-.01-.38-.11-.54-.28-1.11-1.17-1.93-2.58-2.46-4.22-.46-1.46-.69-3.09-.69-4.87,0-1.66,.24-3.21,.73-4.65,.5-1.48,1.31-2.94,2.41-4.39,.12-.16,.27-.24,.45-.26Z"/><path d="M470.48,266.27c.5,1.44,.76,2.99,.76,4.65,0,1.78-.24,3.4-.71,4.87-.53,1.64-1.34,3.04-2.44,4.22-.17,.17-.36,.26-.56,.28-.19,.01-.35-.04-.5-.16-.14-.12-.22-.26-.24-.44-.01-.2,.06-.38,.22-.53,1.04-1.19,1.78-2.45,2.24-3.8,.45-1.28,.67-2.76,.67-4.43s-.24-3.07-.73-4.39c-.45-1.24-1.18-2.56-2.2-3.96-.13-.17-.17-.34-.13-.49,.03-.14,.12-.26,.28-.36,.14-.08,.3-.11,.47-.1,.19,.01,.35,.1,.47,.26,1.09,1.45,1.89,2.92,2.39,4.39Z"/><g><rect class="cls-5" x="441.39" y="255.94" width="22.02" height="27.25"/><text class="cls-3" transform="translate(445.2 277.94) scale(1.12 1)"><tspan x="0" y="0">T</tspan></text></g></g><line class="cls-4" x1="121" y1="255.94" x2="391" y2="255.94"/></g><rect class="cls-6" width="512" height="512"/></g></svg>