<svg xmlns="http://www.w3.org/2000/svg" viewBox="0 0 512 512"><defs><style>.cls-1,.cls-4,.cls-7{fill:none;}.cls-1,.cls-4{stroke:#000;stroke-miterlimit:10;}.cls-1{stroke-width:8px;}.cls-2{font-size:40px;font-family:Dotum;letter-spacing:0em;}.cls-3{letter-spacing:0.08em;}.cls-4{stroke-width:2px;}.cls-5{letter-spacing:0.16em;}.cls-6{letter-spacing:0.14em;}</style></defs><g id="Layer_2" data-name="Layer 2"><g id="G_G_ALC---_X" data-name="G*G*ALC---****X"><line class="cls-1" x1="40" y1="344.2" x2="472" y2="344.2"/><line class="cls-1" x1="40" y1="487.4" x2="472" y2="487.4"/><text class="cls-2" transform="translate(203.24 427.74)">AC<tspan class="cls-3" x="55.43" y="0"> </tspan><tspan x="71.95" y="0">T</tspan></text><rect class="cls-4" x="265.06" y="389.3" width="43.7" height="49"/><text class="cls-2" transform="translate(120.83 66.94)">Name: T<tspan x="0" y="51">Width: AM</tspan><tspan x="0" y="102">Min Alt: X</tspan><tspan x="0" y="153">Max Alt: X1</tspan><tspan x="0" y="204">DTG Start:</tspan><tspan class="cls-5" x="195.54" y="204"> </tspan><tspan x="215.26" y="204">W</tspan><tspan x="0" y="255">DTG End:</tspan><tspan class="cls-6" x="180.97" y="255"> </tspan><tspan x="199.89" y="255">W1</tspan></text><rect class="cls-4" x="247.27" y="27.7" width="43.7" height="49"/><rect class="cls-4" x="243.47" y="79.26" width="75.93" height="49"/><rect class="cls-4" x="266.12" y="130.82" width="38.65" height="49"/><rect class="cls-4" x="276.28" y="182.38" width="65.1" height="49"/><rect class="cls-4" x="329.77" y="233.94" width="52" height="49"/><rect class="cls-4" x="309.83" y="285.5" width="81.35" height="49"/><rect class="cls-7" width="512" height="512"/></g></g></svg>