<svg xmlns="http://www.w3.org/2000/svg" viewBox="0 0 512 512"><defs><style>.cls-1,.cls-3,.cls-4{fill:none;}.cls-1,.cls-3{stroke:#000;stroke-miterlimit:10;}.cls-1{stroke-width:5px;}.cls-2{font-size:31.71px;font-family:Gulim;}.cls-3{stroke-width:2px;}</style></defs><g id="Layer_2" data-name="Layer 2"><g id="G_G_PF----_X" data-name="G*G*PF----****X"><polyline class="cls-1" points="462.98 237.85 478.77 248.25 469.01 263.83"/><path class="cls-1" d="M16.2,250.84S82.6,254.6,125,247.4s91.8-17.6,131.5-19.2,71.7-3.2,96.5,4,49.6,15.68,73.6,18.64,52.17-2.59,52.17-2.59"/><text class="cls-2" transform="translate(296.17 214.45)">T</text><rect class="cls-1" x="289" y="182.2" width="32.8" height="40.45"/><line class="cls-3" x1="480.2" y1="237" x2="486.87" y2="237"/><line class="cls-3" x1="483.53" y1="233.67" x2="483.53" y2="240.33"/><line class="cls-3" x1="487.4" y1="244.47" x2="494.07" y2="244.47"/><line class="cls-3" x1="490.73" y1="241.13" x2="490.73" y2="247.8"/><line class="cls-3" x1="480.2" y1="266.23" x2="486.87" y2="266.23"/><line class="cls-3" x1="483.53" y1="269.57" x2="483.53" y2="262.9"/><line class="cls-3" x1="487.4" y1="258.77" x2="494.07" y2="258.77"/><line class="cls-3" x1="490.73" y1="262.1" x2="490.73" y2="255.43"/><rect class="cls-4" width="512" height="512"/></g></g></svg>