<svg xmlns="http://www.w3.org/2000/svg" xmlns:xlink="http://www.w3.org/1999/xlink" viewBox="0 0 512 512"><defs><style>.cls-1,.cls-2{fill:none;}.cls-2{stroke:#231f20;}.cls-10,.cls-3{stroke:#000;stroke-miterlimit:10;fill:url(#_10_lpi_10_2);}.cls-3{stroke-width:10px;}.cls-4{font-size:36.49px;font-family:Dotum;}.cls-4,.cls-9{letter-spacing:0.02em;}.cls-5{letter-spacing:0.02em;}.cls-6{letter-spacing:0.18em;}.cls-7{letter-spacing:0.02em;}.cls-8{letter-spacing:0.16em;}.cls-10{stroke-width:7px;}</style><pattern id="_10_lpi_10_2" data-name="10 lpi 10% 2" width="72" height="72" patternUnits="userSpaceOnUse" viewBox="0 0 72 72"><rect class="cls-1" width="72" height="72"/><line class="cls-2" x1="78.82" y1="72.09" x2="71.81" y2="79.1"/><line class="cls-2" x1="107.91" y1="71.84" x2="71.78" y2="107.97"/><line class="cls-2" x1="136.67" y1="71.92" x2="71.66" y2="136.94"/><line class="cls-2" x1="93.41" y1="71.92" x2="71.82" y2="93.51"/><line class="cls-2" x1="122.25" y1="71.92" x2="71.66" y2="122.52"/><line class="cls-2" x1="6.82" y1="72.09" x2="-0.19" y2="79.1"/><line class="cls-2" x1="35.91" y1="71.84" x2="-0.22" y2="107.97"/><line class="cls-2" x1="64.67" y1="71.92" x2="-0.34" y2="136.94"/><line class="cls-2" x1="21.41" y1="71.92" x2="-0.18" y2="93.51"/><line class="cls-2" x1="50.25" y1="71.92" x2="-0.34" y2="122.52"/><line class="cls-2" x1="78.82" y1="0.09" x2="71.81" y2="7.1"/><line class="cls-2" x1="107.91" y1="-0.16" x2="71.78" y2="35.97"/><line class="cls-2" x1="136.67" y1="-0.08" x2="71.66" y2="64.94"/><line class="cls-2" x1="93.41" y1="-0.08" x2="71.82" y2="21.51"/><line class="cls-2" x1="122.25" y1="-0.08" x2="71.66" y2="50.52"/><line class="cls-2" x1="6.82" y1="0.09" x2="-0.19" y2="7.1"/><line class="cls-2" x1="35.91" y1="-0.16" x2="-0.22" y2="35.97"/><line class="cls-2" x1="64.67" y1="-0.08" x2="-0.34" y2="64.94"/><line class="cls-2" x1="72.34" y1="21.09" x2="21.28" y2="72.16"/><line class="cls-2" x1="71.88" y1="50.4" x2="50.84" y2="71.44"/><line class="cls-2" x1="21.41" y1="-0.08" x2="-0.18" y2="21.51"/><line class="cls-2" x1="50.25" y1="-0.08" x2="-0.34" y2="50.52"/><line class="cls-2" x1="72.34" y1="6.67" x2="6.86" y2="72.16"/><line class="cls-2" x1="71.88" y1="35.98" x2="35.7" y2="72.16"/><line class="cls-2" x1="71.88" y1="64.82" x2="64.78" y2="71.92"/><line class="cls-2" x1="0.34" y1="21.09" x2="-50.72" y2="72.16"/><line class="cls-2" x1="-0.12" y1="50.4" x2="-21.16" y2="71.44"/><line class="cls-2" x1="0.34" y1="6.67" x2="-65.14" y2="72.16"/><line class="cls-2" x1="-0.12" y1="35.98" x2="-36.3" y2="72.16"/><line class="cls-2" x1="-0.12" y1="64.82" x2="-7.22" y2="71.92"/><line class="cls-2" x1="72.34" y1="-50.91" x2="21.28" y2="0.16"/><line class="cls-2" x1="72.34" y1="-65.33" x2="6.86" y2="0.16"/><line class="cls-2" x1="71.88" y1="-36.02" x2="35.7" y2="0.16"/><line class="cls-2" x1="71.88" y1="-7.18" x2="64.78" y2="-0.08"/><line class="cls-2" x1="0.34" y1="-50.91" x2="-50.72" y2="0.16"/><line class="cls-2" x1="0.34" y1="-65.33" x2="-65.14" y2="0.16"/><line class="cls-2" x1="-0.12" y1="-36.02" x2="-36.3" y2="0.16"/><line class="cls-2" x1="-0.12" y1="-7.18" x2="-7.22" y2="-0.08"/></pattern></defs><g id="Layer_2" data-name="Layer 2"><g id="G_G_AAW---_X" data-name="G*G*AAW---****X"><polygon class="cls-3" points="423.37 43.52 15.23 43.52 15.23 356.67 94.57 468.48 496.77 378.46 496.77 161.34 423.37 43.52"/><text class="cls-4" transform="translate(124.5 198.5)">WFZ<tspan class="cls-5"><tspan x="0" y="46.52">T</tspan><tspan x="0" y="93.05">TIME FROM:</tspan><tspan class="cls-6" x="217.78" y="93.05"> </tspan><tspan class="cls-7" x="236.5" y="93.05">W</tspan><tspan x="0" y="139.57">TIME TO:</tspan><tspan class="cls-8" x="161.91" y="139.57"> </tspan><tspan class="cls-9" x="179.89" y="139.57">W1</tspan></tspan></text><rect class="cls-10" x="117.32" y="208.92" width="40.21" height="46.33"/><rect class="cls-10" x="351.49" y="254.83" width="45.3" height="45.3"/><rect class="cls-10" x="288.42" y="302.5" width="69.94" height="45.3"/><rect class="cls-1" width="512" height="512"/></g></g></svg>