<svg xmlns="http://www.w3.org/2000/svg" viewBox="0 0 512 512"><defs><style>.cls-1,.cls-10,.cls-2,.cls-3,.cls-4{fill:none;}.cls-1,.cls-2,.cls-3,.cls-4{stroke:#231f20;}.cls-1,.cls-2,.cls-3,.cls-4,.cls-5{stroke-miterlimit:10;stroke-width:5px;}.cls-2{stroke-dasharray:19.65 19.65;}.cls-3{stroke-dasharray:13.49 13.49;}.cls-4{stroke-dasharray:19.37 19.37;}.cls-5{fill:#999;stroke:#000;}.cls-6,.cls-7,.cls-8,.cls-9{font-size:28.48px;font-family:New-Gulim, New Gulim;}.cls-6{letter-spacing:-0.06em;}.cls-7{letter-spacing:-0.06em;}.cls-9{letter-spacing:-0.06em;}</style></defs><g id="Layer_2" data-name="Layer 2"><g id="G_G_DABP--_X" data-name="G*G*DABP--****X"><polyline class="cls-1" points="75.76 161.89 65.8 161 58.82 168.16"/><path class="cls-2" d="M45.11,182.24l-9.71,10v89.6s8,19.2,10.4,20S75.4,333,75.4,333l39.2,17.6H249L277,333l60-1.6,17.6,10.4,41,1.62"/><polyline class="cls-1" points="405.41 343.81 415.4 344.2 422.6 337.26"/><polyline class="cls-3" points="432.31 327.89 437.8 322.6 449.83 318.82"/><polyline class="cls-1" points="456.26 316.8 465.8 313.8 469.81 304.64"/><polyline class="cls-4" points="477.57 286.89 482.6 275.4 457 182.6 424.2 161 369.8 150.6 323.4 163.4 293.8 165.8 248.2 171.4 214.6 171.4 165.8 181.8 119.4 165.8 85.41 162.76"/><rect class="cls-5" x="263.53" y="233.04" width="27.75" height="36.76"/><text class="cls-6" transform="translate(226.67 261.5)">(P) T</text><rect class="cls-5" x="241.53" y="326.3" width="27.75" height="36.76"/><text class="cls-7" transform="translate(246.33 354.76)">B</text><rect class="cls-5" x="452.01" y="217.44" width="49.99" height="36.76"/><text class="cls-8" transform="translate(459.75 245.9)">B3</text><rect class="cls-5" x="231.5" y="150.6" width="49.99" height="36.76"/><text class="cls-8" transform="translate(239.25 179.06)">B1</text><rect class="cls-5" x="459.01" y="256" width="35.99" height="36.76"/><text class="cls-9" transform="translate(467.61 284.46)">N</text><rect class="cls-5" x="10.4" y="203.39" width="49.99" height="36.76"/><text class="cls-8" transform="translate(18.15 231.85)">B2</text><rect class="cls-5" x="17.4" y="241.95" width="35.99" height="36.76"/><text class="cls-9" transform="translate(26.01 270.41)">N</text><rect class="cls-10" width="512" height="512"/></g></g></svg>