<svg xmlns="http://www.w3.org/2000/svg" viewBox="0 0 512 512"><defs><style>.cls-1,.cls-2{fill:none;}.cls-1{stroke:#000;stroke-miterlimit:10;stroke-width:3px;}</style></defs><g id="Layer_2" data-name="Layer 2"><g id="G_G_GL2---_X" data-name="G*G*GL2---****X"><path class="cls-1" d="M34.61,239.5C16,239.5,19,272.5,19,272.5H26.7s-1.58-23.1,7.91-23.1,7.9,23.1,7.9,23.1h7.73S53.22,239.5,34.61,239.5Z"/><path class="cls-1" d="M71.23,239.5c-18.61,0-15.63,33-15.63,33h7.73s-1.59-23.1,7.9-23.1,7.91,23.1,7.91,23.1h7.73S89.84,239.5,71.23,239.5Z"/><path class="cls-1" d="M107.86,239.5c-18.61,0-15.63,33-15.63,33H100s-1.59-23.1,7.9-23.1,7.9,23.1,7.9,23.1h7.73S126.47,239.5,107.86,239.5Z"/><path class="cls-1" d="M144.48,239.5c-18.6,0-15.63,33-15.63,33h7.73s-1.59-23.1,7.9-23.1,7.91,23.1,7.91,23.1h7.73S163.09,239.5,144.48,239.5Z"/><path class="cls-1" d="M181.11,239.5c-18.61,0-15.63,33-15.63,33h7.73s-1.59-23.1,7.9-23.1,7.9,23.1,7.9,23.1h7.73S199.72,239.5,181.11,239.5Z"/><path class="cls-1" d="M217.74,239.5c-18.61,0-15.64,33-15.64,33h7.73s-1.58-23.1,7.91-23.1,7.9,23.1,7.9,23.1h7.73S236.35,239.5,217.74,239.5Z"/><path class="cls-1" d="M254.36,239.5c-18.61,0-15.63,33-15.63,33h7.73s-1.59-23.1,7.9-23.1,7.91,23.1,7.91,23.1H270S273,239.5,254.36,239.5Z"/><path class="cls-1" d="M291,239.5c-18.61,0-15.63,33-15.63,33h7.72s-1.58-23.1,7.91-23.1,7.9,23.1,7.9,23.1h7.73S309.6,239.5,291,239.5Z"/><path class="cls-1" d="M327.61,239.5c-18.61,0-15.63,33-15.63,33h7.73s-1.59-23.1,7.9-23.1,7.91,23.1,7.91,23.1h7.73S346.22,239.5,327.61,239.5Z"/><path class="cls-1" d="M364.24,239.5c-18.61,0-15.63,33-15.63,33h7.73s-1.59-23.1,7.9-23.1,7.9,23.1,7.9,23.1h7.73S382.85,239.5,364.24,239.5Z"/><path class="cls-1" d="M400.87,239.5c-18.61,0-15.64,33-15.64,33H393s-1.59-23.1,7.91-23.1,7.9,23.1,7.9,23.1h7.73S419.48,239.5,400.87,239.5Z"/><path class="cls-1" d="M437.49,239.5c-18.61,0-15.63,33-15.63,33h7.73s-1.59-23.1,7.9-23.1,7.91,23.1,7.91,23.1h7.72S456.1,239.5,437.49,239.5Z"/><path class="cls-1" d="M474.12,239.5c-18.61,0-15.63,33-15.63,33h7.72s-1.58-23.1,7.91-23.1,7.9,23.1,7.9,23.1h7.73S492.73,239.5,474.12,239.5Z"/><rect class="cls-2" width="512" height="512"/></g></g></svg>