<?xml version="1.0" encoding="UTF-8"?><svg xmlns="http://www.w3.org/2000/svg" xmlns:xlink="http://www.w3.org/1999/xlink" viewBox="0 0 512 512"><defs><style>.e{fill:#fff;}.f{stroke:#000;stroke-miterlimit:10;stroke-width:10px;}.f,.g{fill:none;}.h{clip-path:url(#d);}</style><clipPath id="d"><rect class="g" x="215.94" y="-3.87" width="80.11" height="519.74" transform="translate(222.12 -104.45) rotate(39.63)"/></clipPath></defs><g id="a"/><g id="b"><g id="c"><g><g><line class="f" x1="59.4" y1="430.6" x2="390.9" y2="30.31"/><line class="f" x1="452.6" y1="81.4" x2="121.1" y2="481.69"/></g><g class="h"><g><g><rect x="381.63" y="64.15" width="14" height="14" transform="translate(63.52 295.65) rotate(-45)"/><path d="M388.63,61.96l9.19,9.19-9.19,9.19-9.19-9.19,9.19-9.19m0-1.41l-10.61,10.61,10.61,10.61,10.61-10.61-10.61-10.61h0Z"/></g><g><g><rect class="e" x="395.01" y="77.53" width="14" height="14" transform="translate(57.97 309.02) rotate(-45)"/><path d="M402.01,75.34l9.19,9.19-9.19,9.19-9.19-9.19,9.19-9.19m0-1.41l-10.61,10.61,10.61,10.61,10.61-10.61-10.61-10.61h0Z"/></g><polygon points="391.41 84.53 402.01 95.14 412.62 84.53 391.41 84.53"/></g><g><g><rect class="e" x="421.77" y="104.29" width="14" height="14" transform="translate(46.88 335.76) rotate(-45)"/><path d="M428.77,102.09l9.19,9.19-9.19,9.19-9.19-9.19,9.19-9.19m0-1.41l-10.61,10.61,10.61,10.61,10.61-10.61-10.61-10.61h0Z"/></g><polygon points="418.16 111.29 428.77 121.89 439.37 111.29 418.16 111.29"/></g><g><rect x="408.39" y="90.91" width="14" height="14" transform="translate(52.43 322.4) rotate(-45)"/><path d="M415.39,88.72l9.19,9.19-9.19,9.19-9.19-9.19,9.19-9.19m0-1.41l-10.61,10.61,10.61,10.61,10.61-10.61-10.61-10.61h0Z"/></g><g><g><rect class="e" x="368.26" y="50.77" width="14" height="14" transform="translate(69.06 282.28) rotate(-45)"/><path d="M375.26,48.58l9.19,9.19-9.19,9.19-9.19-9.19,9.19-9.19m0-1.41l-10.61,10.61,10.61,10.61,10.61-10.61-10.61-10.61h0Z"/></g><polygon points="364.65 57.77 375.26 68.38 385.86 57.77 364.65 57.77"/></g><g><rect x="435.15" y="117.66" width="14" height="14" transform="translate(41.34 349.14) rotate(-45)"/><path d="M442.15,115.47l9.19,9.19-9.19,9.19-9.19-9.19,9.19-9.19m0-1.41l-10.61,10.61,10.61,10.61,10.61-10.61-10.61-10.61h0Z"/></g><g><rect x="408.38" y="64.16" width="14" height="14" transform="translate(71.34 314.56) rotate(-45)"/><path d="M415.38,61.97l9.19,9.19-9.19,9.19-9.19-9.19,9.19-9.19m0-1.41l-10.61,10.61,10.61,10.61,10.61-10.61-10.61-10.61h0Z"/></g><g><rect x="381.62" y="37.41" width="14" height="14" transform="translate(82.43 287.81) rotate(-45)"/><path d="M388.62,35.21l9.19,9.19-9.19,9.19-9.19-9.19,9.19-9.19m0-1.41l-10.61,10.61,10.61,10.61,10.61-10.61-10.61-10.61h0Z"/></g><g><g><rect class="e" x="421.76" y="77.54" width="14" height="14" transform="translate(65.8 327.94) rotate(-45)"/><path d="M428.76,75.35l9.19,9.19-9.19,9.19-9.19-9.19,9.19-9.19m0-1.41l-10.61,10.61,10.61,10.61,10.61-10.61-10.61-10.61h0Z"/></g><polygon points="418.15 84.54 428.76 95.15 439.36 84.54 418.15 84.54"/></g><g><g><rect class="e" x="448.51" y="104.3" width="14" height="14" transform="translate(54.71 354.69) rotate(-45)"/><path d="M455.51,102.1l9.19,9.19-9.19,9.19-9.19-9.19,9.19-9.19m0-1.41l-10.61,10.61,10.61,10.61,10.61-10.61-10.61-10.61h0Z"/></g><polygon points="444.91 111.3 455.51 121.9 466.12 111.3 444.91 111.3"/></g><g><g><rect class="e" x="395" y="50.78" width="14" height="14" transform="translate(76.88 301.18) rotate(-45)"/><path d="M402,48.59l9.19,9.19-9.19,9.19-9.19-9.19,9.19-9.19m0-1.41l-10.61,10.61,10.61,10.61,10.61-10.61-10.61-10.61h0Z"/></g><polygon points="391.4 57.78 402 68.39 412.61 57.78 391.4 57.78"/></g><g><rect x="435.14" y="90.92" width="14" height="14" transform="translate(60.26 341.32) rotate(-45)"/><path d="M442.14,88.73l9.19,9.19-9.19,9.19-9.19-9.19,9.19-9.19m0-1.41l-10.61,10.61,10.61,10.61,10.61-10.61-10.61-10.61h0Z"/></g><g><rect x="354.9" y="90.89" width="14" height="14" transform="translate(36.78 284.57) rotate(-45)"/><path d="M361.9,88.7l9.19,9.19-9.19,9.19-9.19-9.19,9.19-9.19m0-1.41l-10.61,10.61,10.61,10.61,10.61-10.61-10.61-10.61h0Z"/></g><g><g><rect class="e" x="368.28" y="104.27" width="14" height="14" transform="translate(31.23 297.94) rotate(-45)"/><path d="M375.28,102.07l9.19,9.19-9.19,9.19-9.19-9.19,9.19-9.19m0-1.41l-10.61,10.61,10.61,10.61,10.61-10.61-10.61-10.61h0Z"/></g><polygon points="364.67 111.27 375.28 121.87 385.88 111.27 364.67 111.27"/></g><g><g><rect class="e" x="395.03" y="131.02" width="14" height="14" transform="translate(20.16 324.71) rotate(-45)"/><path d="M402.03,128.83l9.19,9.19-9.19,9.19-9.19-9.19,9.19-9.19m0-1.41l-10.61,10.61,10.61,10.61,10.61-10.61-10.61-10.61h0Z"/></g><polygon points="391.43 138.02 402.03 148.63 412.64 138.02 391.43 138.02"/></g><g><rect x="381.65" y="117.64" width="14" height="14" transform="translate(25.69 311.32) rotate(-45)"/><path d="M388.65,115.45l9.19,9.19-9.19,9.19-9.19-9.19,9.19-9.19m0-1.41l-10.61,10.61,10.61,10.61,10.61-10.61-10.61-10.61h0Z"/></g><g><g><rect class="e" x="341.52" y="77.51" width="14" height="14" transform="translate(42.32 271.19) rotate(-45)"/><path d="M348.52,75.32l9.19,9.19-9.19,9.19-9.19-9.19,9.19-9.19m0-1.41l-10.61,10.61,10.61,10.61,10.61-10.61-10.61-10.61h0Z"/></g><polygon points="337.91 84.51 348.52 95.12 359.13 84.51 337.91 84.51"/></g><g><rect x="408.41" y="144.4" width="14" height="14" transform="translate(14.61 338.08) rotate(-45)"/><path d="M415.41,142.21l9.19,9.19-9.19,9.19-9.19-9.19,9.19-9.19m0-1.41l-10.61,10.61,10.61,10.61,10.61-10.61-10.61-10.61h0Z"/></g><g><rect x="381.64" y="90.9" width="14" height="14" transform="translate(44.61 303.5) rotate(-45)"/><path d="M388.64,88.71l9.19,9.19-9.19,9.19-9.19-9.19,9.19-9.19m0-1.41l-10.61,10.61,10.61,10.61,10.61-10.61-10.61-10.61h0Z"/></g><g><rect x="354.89" y="64.14" width="14" height="14" transform="translate(55.69 276.73) rotate(-45)"/><path d="M361.89,61.95l9.19,9.19-9.19,9.19-9.19-9.19,9.19-9.19m0-1.41l-10.61,10.61,10.61,10.61,10.61-10.61-10.61-10.61h0Z"/></g><g><g><rect class="e" x="395.02" y="104.28" width="14" height="14" transform="translate(39.05 316.85) rotate(-45)"/><path d="M402.02,102.08l9.19,9.19-9.19,9.19-9.19-9.19,9.19-9.19m0-1.41l-10.61,10.61,10.61,10.61,10.61-10.61-10.61-10.61h0Z"/></g><polygon points="391.42 111.28 402.02 121.88 412.63 111.28 391.42 111.28"/></g><g><g><rect class="e" x="421.78" y="131.03" width="14" height="14" transform="translate(27.98 343.62) rotate(-45)"/><path d="M428.78,128.84l9.19,9.19-9.19,9.19-9.19-9.19,9.19-9.19m0-1.41l-10.61,10.61,10.61,10.61,10.61-10.61-10.61-10.61h0Z"/></g><polygon points="418.17 138.03 428.78 148.64 439.38 138.03 418.17 138.03"/></g><g><g><rect class="e" x="368.27" y="77.52" width="14" height="14" transform="translate(50.15 290.12) rotate(-45)"/><path d="M375.27,75.33l9.19,9.19-9.19,9.19-9.19-9.19,9.19-9.19m0-1.41l-10.61,10.61,10.61,10.61,10.61-10.61-10.61-10.61h0Z"/></g><polygon points="364.66 84.52 375.27 95.13 385.87 84.52 364.66 84.52"/></g><g><rect x="408.4" y="117.65" width="14" height="14" transform="translate(33.51 330.22) rotate(-45)"/><path d="M415.4,115.46l9.19,9.19-9.19,9.19-9.19-9.19,9.19-9.19m0-1.41l-10.61,10.61,10.61,10.61,10.61-10.61-10.61-10.61h0Z"/></g><g><rect x="328.16" y="117.62" width="14" height="14" transform="translate(10.04 273.48) rotate(-45)"/><path d="M335.16,115.43l9.19,9.19-9.19,9.19-9.19-9.19,9.19-9.19m0-1.41l-10.61,10.61,10.61,10.61,10.61-10.61-10.61-10.61h0Z"/></g><g><g><rect class="e" x="341.54" y="131" width="14" height="14" transform="translate(4.5 286.88) rotate(-45)"/><path d="M348.54,128.81l9.19,9.19-9.19,9.19-9.19-9.19,9.19-9.19m0-1.41l-10.61,10.61,10.61,10.61,10.61-10.61-10.61-10.61h0Z"/></g><polygon points="337.93 138 348.54 148.61 359.15 138 337.93 138"/></g><g><g><rect class="e" x="368.3" y="157.76" width="14" height="14" transform="translate(-6.58 313.64) rotate(-45)"/><path d="M375.3,155.57l9.19,9.19-9.19,9.19-9.19-9.19,9.19-9.19m0-1.41l-10.61,10.61,10.61,10.61,10.61-10.61-10.61-10.61h0Z"/></g><polygon points="364.69 164.76 375.3 175.37 385.9 164.76 364.69 164.76"/></g><g><rect x="354.92" y="144.38" width="14" height="14" transform="translate(-1.04 300.25) rotate(-45)"/><path d="M361.92,142.19l9.19,9.19-9.19,9.19-9.19-9.19,9.19-9.19m0-1.41l-10.61,10.61,10.61,10.61,10.61-10.61-10.61-10.61h0Z"/></g><g><g><rect class="e" x="314.78" y="104.25" width="14" height="14" transform="translate(15.58 260.1) rotate(-45)"/><path d="M321.78,102.05l9.19,9.19-9.19,9.19-9.19-9.19,9.19-9.19m0-1.41l-10.61,10.61,10.61,10.61,10.61-10.61-10.61-10.61h0Z"/></g><polygon points="311.18 111.25 321.78 121.85 332.39 111.25 311.18 111.25"/></g><g><rect x="381.67" y="171.14" width="14" height="14" transform="translate(-12.12 327.02) rotate(-45)"/><path d="M388.67,168.94l9.19,9.19-9.19,9.19-9.19-9.19,9.19-9.19m0-1.41l-10.61,10.61,10.61,10.61,10.61-10.61-10.61-10.61h0Z"/></g><g><rect x="354.91" y="117.63" width="14" height="14" transform="translate(17.86 292.4) rotate(-45)"/><path d="M361.91,115.44l9.19,9.19-9.19,9.19-9.19-9.19,9.19-9.19m0-1.41l-10.61,10.61,10.61,10.61,10.61-10.61-10.61-10.61h0Z"/></g><g><rect x="328.15" y="90.88" width="14" height="14" transform="translate(28.95 265.66) rotate(-45)"/><path d="M335.15,88.69l9.19,9.19-9.19,9.19-9.19-9.19,9.19-9.19m0-1.41l-10.61,10.61,10.61,10.61,10.61-10.61-10.61-10.61h0Z"/></g><g><g><rect class="e" x="368.29" y="131.01" width="14" height="14" transform="translate(12.33 305.8) rotate(-45)"/><path d="M375.29,128.82l9.19,9.19-9.19,9.19-9.19-9.19,9.19-9.19m0-1.41l-10.61,10.61,10.61,10.61,10.61-10.61-10.61-10.61h0Z"/></g><polygon points="364.68 138.01 375.29 148.62 385.89 138.01 364.68 138.01"/></g><g><g><rect class="e" x="395.04" y="157.77" width="14" height="14" transform="translate(1.25 332.55) rotate(-45)"/><path d="M402.04,155.58l9.19,9.19-9.19,9.19-9.19-9.19,9.19-9.19m0-1.41l-10.61,10.61,10.61,10.61,10.61-10.61-10.61-10.61h0Z"/></g><polygon points="391.44 164.77 402.04 175.38 412.65 164.77 391.44 164.77"/></g><g><g><rect class="e" x="341.53" y="104.26" width="14" height="14" transform="translate(23.4 279.02) rotate(-45)"/><path d="M348.53,102.06l9.19,9.19-9.19,9.19-9.19-9.19,9.19-9.19m0-1.41l-10.61,10.61,10.61,10.61,10.61-10.61-10.61-10.61h0Z"/></g><polygon points="337.92 111.26 348.53 121.86 359.14 111.26 337.92 111.26"/></g><g><rect x="381.66" y="144.39" width="14" height="14" transform="translate(6.79 319.18) rotate(-45)"/><path d="M388.66,142.2l9.19,9.19-9.19,9.19-9.19-9.19,9.19-9.19m0-1.41l-10.61,10.61,10.61,10.61,10.61-10.61-10.61-10.61h0Z"/></g><g><rect x="301.43" y="144.36" width="14" height="14" transform="translate(-16.69 262.42) rotate(-45)"/><path d="M308.43,142.17l9.19,9.19-9.19,9.19-9.19-9.19,9.19-9.19m0-1.41l-10.61,10.61,10.61,10.61,10.61-10.61-10.61-10.61h0Z"/></g><g><g><rect class="e" x="314.8" y="157.74" width="14" height="14" transform="translate(-22.23 275.8) rotate(-45)"/><path d="M321.8,155.55l9.19,9.19-9.19,9.19-9.19-9.19,9.19-9.19m0-1.41l-10.61,10.61,10.61,10.61,10.61-10.61-10.61-10.61h0Z"/></g><polygon points="311.2 164.74 321.8 175.35 332.41 164.74 311.2 164.74"/></g><g><g><rect class="e" x="341.56" y="184.5" width="14" height="14" transform="translate(-33.32 302.56) rotate(-45)"/><path d="M348.56,182.3l9.19,9.19-9.19,9.19-9.19-9.19,9.19-9.19m0-1.41l-10.61,10.61,10.61,10.61,10.61-10.61-10.61-10.61h0Z"/></g><polygon points="337.95 191.5 348.56 202.1 359.17 191.5 337.95 191.5"/></g><g><rect x="328.18" y="171.12" width="14" height="14" transform="translate(-27.78 289.18) rotate(-45)"/><path d="M335.18,168.92l9.19,9.19-9.19,9.19-9.19-9.19,9.19-9.19m0-1.41l-10.61,10.61,10.61,10.61,10.61-10.61-10.61-10.61h0Z"/></g><g><g><rect class="e" x="288.05" y="130.98" width="14" height="14" transform="translate(-11.15 249.05) rotate(-45)"/><path d="M295.05,128.79l9.19,9.19-9.19,9.19-9.19-9.19,9.19-9.19m0-1.41l-10.61,10.61,10.61,10.61,10.61-10.61-10.61-10.61h0Z"/></g><polygon points="284.44 137.98 295.05 148.59 305.65 137.98 284.44 137.98"/></g><g><rect x="354.94" y="197.87" width="14" height="14" transform="translate(-38.86 315.93) rotate(-45)"/><path d="M361.94,195.68l9.19,9.19-9.19,9.19-9.19-9.19,9.19-9.19m0-1.41l-10.61,10.61,10.61,10.61,10.61-10.61-10.61-10.61h0Z"/></g><g><rect x="328.17" y="144.37" width="14" height="14" transform="translate(-8.87 281.34) rotate(-45)"/><path d="M335.17,142.18l9.19,9.19-9.19,9.19-9.19-9.19,9.19-9.19m0-1.41l-10.61,10.61,10.61,10.61,10.61-10.61-10.61-10.61h0Z"/></g><g><rect x="301.42" y="117.62" width="14" height="14" transform="translate(2.21 254.57) rotate(-45)"/><path d="M308.42,115.42l9.19,9.19-9.19,9.19-9.19-9.19,9.19-9.19m0-1.41l-10.61,10.61,10.61,10.61,10.61-10.61-10.61-10.61h0Z"/></g><g><g><rect class="e" x="341.55" y="157.75" width="14" height="14" transform="translate(-14.41 294.72) rotate(-45)"/><path d="M348.55,155.56l9.19,9.19-9.19,9.19-9.19-9.19,9.19-9.19m0-1.41l-10.61,10.61,10.61,10.61,10.61-10.61-10.61-10.61h0Z"/></g><polygon points="337.94 164.75 348.55 175.36 359.16 164.75 337.94 164.75"/></g><g><g><rect class="e" x="368.31" y="184.51" width="14" height="14" transform="translate(-25.49 321.48) rotate(-45)"/><path d="M375.31,182.31l9.19,9.19-9.19,9.19-9.19-9.19,9.19-9.19m0-1.41l-10.61,10.61,10.61,10.61,10.61-10.61-10.61-10.61h0Z"/></g><polygon points="364.7 191.51 375.31 202.11 385.91 191.51 364.7 191.51"/></g><g><g><rect class="e" x="314.79" y="130.99" width="14" height="14" transform="translate(-3.32 267.96) rotate(-45)"/><path d="M321.79,128.8l9.19,9.19-9.19,9.19-9.19-9.19,9.19-9.19m0-1.41l-10.61,10.61,10.61,10.61,10.61-10.61-10.61-10.61h0Z"/></g><polygon points="311.19 137.99 321.79 148.6 332.4 137.99 311.19 137.99"/></g><g><rect x="354.93" y="171.13" width="14" height="14" transform="translate(-19.95 308.09) rotate(-45)"/><path d="M361.93,168.93l9.19,9.19-9.19,9.19-9.19-9.19,9.19-9.19m0-1.41l-10.61,10.61,10.61,10.61,10.61-10.61-10.61-10.61h0Z"/></g><g><rect x="274.69" y="171.1" width="14" height="14" transform="translate(-43.43 251.36) rotate(-45)"/><path d="M281.69,168.91l9.19,9.19-9.19,9.19-9.19-9.19,9.19-9.19m0-1.41l-10.61,10.61,10.61,10.61,10.61-10.61-10.61-10.61h0Z"/></g><g><g><rect class="e" x="288.07" y="184.48" width="14" height="14" transform="translate(-48.97 264.73) rotate(-45)"/><path d="M295.07,182.28l9.19,9.19-9.19,9.19-9.19-9.19,9.19-9.19m0-1.41l-10.61,10.61,10.61,10.61,10.61-10.61-10.61-10.61h0Z"/></g><polygon points="284.46 191.48 295.07 202.08 305.67 191.48 284.46 191.48"/></g><g><g><rect class="e" x="314.82" y="211.23" width="14" height="14" transform="translate(-60.05 291.48) rotate(-45)"/><path d="M321.82,209.04l9.19,9.19-9.19,9.19-9.19-9.19,9.19-9.19m0-1.41l-10.61,10.61,10.61,10.61,10.61-10.61-10.61-10.61h0Z"/></g><polygon points="311.22 218.23 321.82 228.84 332.43 218.23 311.22 218.23"/></g><g><rect x="301.45" y="197.85" width="14" height="14" transform="translate(-54.51 278.1) rotate(-45)"/><path d="M308.45,195.66l9.19,9.19-9.19,9.19-9.19-9.19,9.19-9.19m0-1.41l-10.61,10.61,10.61,10.61,10.61-10.61-10.61-10.61h0Z"/></g><g><g><rect class="e" x="261.31" y="157.72" width="14" height="14" transform="translate(-37.89 237.97) rotate(-45)"/><path d="M268.31,155.53l9.19,9.19-9.19,9.19-9.19-9.19,9.19-9.19m0-1.41l-10.61,10.61,10.61,10.61,10.61-10.61-10.61-10.61h0Z"/></g><polygon points="257.7 164.72 268.31 175.33 278.92 164.72 257.7 164.72"/></g><g><rect x="328.2" y="224.61" width="14" height="14" transform="translate(-65.59 304.86) rotate(-45)"/><path d="M335.2,222.42l9.19,9.19-9.19,9.19-9.19-9.19,9.19-9.19m0-1.41l-10.61,10.61,10.61,10.61,10.61-10.61-10.61-10.61h0Z"/></g><g><rect x="301.44" y="171.11" width="14" height="14" transform="translate(-35.6 270.26) rotate(-45)"/><path d="M308.44,168.91l9.19,9.19-9.19,9.19-9.19-9.19,9.19-9.19m0-1.41l-10.61,10.61,10.61,10.61,10.61-10.61-10.61-10.61h0Z"/></g><g><rect x="274.68" y="144.35" width="14" height="14" transform="translate(-24.52 243.51) rotate(-45)"/><path d="M281.68,142.16l9.19,9.19-9.19,9.19-9.19-9.19,9.19-9.19m0-1.41l-10.61,10.61,10.61,10.61,10.61-10.61-10.61-10.61h0Z"/></g><g><g><rect class="e" x="314.81" y="184.49" width="14" height="14" transform="translate(-41.14 283.64) rotate(-45)"/><path d="M321.81,182.29l9.19,9.19-9.19,9.19-9.19-9.19,9.19-9.19m0-1.41l-10.61,10.61,10.61,10.61,10.61-10.61-10.61-10.61h0Z"/></g><polygon points="311.21 191.49 321.81 202.09 332.42 191.49 311.21 191.49"/></g><g><g><rect class="e" x="341.57" y="211.24" width="14" height="14" transform="translate(-52.23 310.4) rotate(-45)"/><path d="M348.57,209.05l9.19,9.19-9.19,9.19-9.19-9.19,9.19-9.19m0-1.41l-10.61,10.61,10.61,10.61,10.61-10.61-10.61-10.61h0Z"/></g><polygon points="337.96 218.24 348.57 228.85 359.18 218.24 337.96 218.24"/></g><g><g><rect class="e" x="288.06" y="157.73" width="14" height="14" transform="translate(-30.06 256.89) rotate(-45)"/><path d="M295.06,155.54l9.19,9.19-9.19,9.19-9.19-9.19,9.19-9.19m0-1.41l-10.61,10.61,10.61,10.61,10.61-10.61-10.61-10.61h0Z"/></g><polygon points="284.45 164.73 295.06 175.34 305.66 164.73 284.45 164.73"/></g><g><rect x="328.19" y="197.86" width="14" height="14" transform="translate(-46.68 297.02) rotate(-45)"/><path d="M335.19,195.67l9.19,9.19-9.19,9.19-9.19-9.19,9.19-9.19m0-1.41l-10.61,10.61,10.61,10.61,10.61-10.61-10.61-10.61h0Z"/></g><g><rect x="247.95" y="197.83" width="14" height="14" transform="translate(-70.17 240.27) rotate(-45)"/><path d="M254.95,195.64l9.19,9.19-9.19,9.19-9.19-9.19,9.19-9.19m0-1.41l-10.61,10.61,10.61,10.61,10.61-10.61-10.61-10.61h0Z"/></g><g><g><rect class="e" x="261.33" y="211.21" width="14" height="14" transform="translate(-75.71 253.65) rotate(-45)"/><path d="M268.33,209.02l9.19,9.19-9.19,9.19-9.19-9.19,9.19-9.19m0-1.41l-10.61,10.61,10.61,10.61,10.61-10.61-10.61-10.61h0Z"/></g><polygon points="257.72 218.21 268.33 228.82 278.94 218.21 257.72 218.21"/></g><g><g><rect class="e" x="288.09" y="237.97" width="14" height="14" transform="translate(-86.79 280.42) rotate(-45)"/><path d="M295.09,235.78l9.19,9.19-9.19,9.19-9.19-9.19,9.19-9.19m0-1.41l-10.61,10.61,10.61,10.61,10.61-10.61-10.61-10.61h0Z"/></g><polygon points="284.48 244.97 295.09 255.57 305.69 244.97 284.48 244.97"/></g><g><rect x="274.71" y="224.59" width="14" height="14" transform="translate(-81.25 267.04) rotate(-45)"/><path d="M281.71,222.4l9.19,9.19-9.19,9.19-9.19-9.19,9.19-9.19m0-1.41l-10.61,10.61,10.61,10.61,10.61-10.61-10.61-10.61h0Z"/></g><g><g><rect class="e" x="234.58" y="184.46" width="14" height="14" transform="translate(-64.62 226.9) rotate(-45)"/><path d="M241.58,182.26l9.19,9.19-9.19,9.19-9.19-9.19,9.19-9.19m0-1.41l-10.61,10.61,10.61,10.61,10.61-10.61-10.61-10.61h0Z"/></g><polygon points="230.97 191.46 241.58 202.06 252.18 191.46 230.97 191.46"/></g><g><rect x="301.46" y="251.35" width="14" height="14" transform="translate(-92.33 293.79) rotate(-45)"/><path d="M308.47,249.15l9.19,9.19-9.19,9.19-9.19-9.19,9.19-9.19m0-1.41l-10.61,10.61,10.61,10.61,10.61-10.61-10.61-10.61h0Z"/></g><g><rect x="274.7" y="197.84" width="14" height="14" transform="translate(-62.34 259.2) rotate(-45)"/><path d="M281.7,195.65l9.19,9.19-9.19,9.19-9.19-9.19,9.19-9.19m0-1.41l-10.61,10.61,10.61,10.61,10.61-10.61-10.61-10.61h0Z"/></g><g><rect x="247.94" y="171.09" width="14" height="14" transform="translate(-51.26 232.43) rotate(-45)"/><path d="M254.94,168.9l9.19,9.19-9.19,9.19-9.19-9.19,9.19-9.19m0-1.41l-10.61,10.61,10.61,10.61,10.61-10.61-10.61-10.61h0Z"/></g><g><g><rect class="e" x="288.08" y="211.22" width="14" height="14" transform="translate(-67.88 272.58) rotate(-45)"/><path d="M295.08,209.03l9.19,9.19-9.19,9.19-9.19-9.19,9.19-9.19m0-1.41l-10.61,10.61,10.61,10.61,10.61-10.61-10.61-10.61h0Z"/></g><polygon points="284.47 218.22 295.08 228.83 305.68 218.22 284.47 218.22"/></g><g><g><rect class="e" x="314.83" y="237.98" width="14" height="14" transform="translate(-78.96 299.32) rotate(-45)"/><path d="M321.83,235.79l9.19,9.19-9.19,9.19-9.19-9.19,9.19-9.19m0-1.41l-10.61,10.61,10.61,10.61,10.61-10.61-10.61-10.61h0Z"/></g><polygon points="311.23 244.98 321.83 255.58 332.44 244.98 311.23 244.98"/></g><g><g><rect class="e" x="261.32" y="184.47" width="14" height="14" transform="translate(-56.8 245.81) rotate(-45)"/><path d="M268.32,182.27l9.19,9.19-9.19,9.19-9.19-9.19,9.19-9.19m0-1.41l-10.61,10.61,10.61,10.61,10.61-10.61-10.61-10.61h0Z"/></g><polygon points="257.71 191.47 268.32 202.07 278.93 191.47 257.71 191.47"/></g><g><rect x="301.46" y="224.6" width="14" height="14" transform="translate(-73.42 285.94) rotate(-45)"/><path d="M308.46,222.41l9.19,9.19-9.19,9.19-9.19-9.19,9.19-9.19m0-1.41l-10.61,10.61,10.61,10.61,10.61-10.61-10.61-10.61h0Z"/></g><g><rect x="221.22" y="224.57" width="14" height="14" transform="translate(-96.9 229.19) rotate(-45)"/><path d="M228.22,222.38l9.19,9.19-9.19,9.19-9.19-9.19,9.19-9.19m0-1.41l-10.61,10.61,10.61,10.61,10.61-10.61-10.61-10.61h0Z"/></g><g><g><rect class="e" x="234.6" y="237.95" width="14" height="14" transform="translate(-102.44 242.57) rotate(-45)"/><path d="M241.6,235.76l9.19,9.19-9.19,9.19-9.19-9.19,9.19-9.19m0-1.41l-10.61,10.61,10.61,10.61,10.61-10.61-10.61-10.61h0Z"/></g><polygon points="230.99 244.95 241.6 255.55 252.2 244.95 230.99 244.95"/></g><g><g><rect class="e" x="261.35" y="264.7" width="14" height="14" transform="translate(-113.53 269.31) rotate(-45)"/><path d="M268.35,262.51l9.19,9.19-9.19,9.19-9.19-9.19,9.19-9.19m0-1.41l-10.61,10.61,10.61,10.61,10.61-10.61-10.61-10.61h0Z"/></g><polygon points="257.74 271.7 268.35 282.31 278.96 271.7 257.74 271.7"/></g><g><rect x="247.97" y="251.33" width="14" height="14" transform="translate(-107.98 255.96) rotate(-45)"/><path d="M254.97,249.13l9.19,9.19-9.19,9.19-9.19-9.19,9.19-9.19m0-1.41l-10.61,10.61,10.61,10.61,10.61-10.61-10.61-10.61h0Z"/></g><g><g><rect class="e" x="207.84" y="211.19" width="14" height="14" transform="translate(-91.36 215.83) rotate(-45)"/><path d="M214.84,209l9.19,9.19-9.19,9.19-9.19-9.19,9.19-9.19m0-1.41l-10.61,10.61,10.61,10.61,10.61-10.61-10.61-10.61h0Z"/></g><polygon points="204.23 218.19 214.84 228.8 225.45 218.19 204.23 218.19"/></g><g><rect x="274.73" y="278.08" width="14" height="14" transform="translate(-119.07 282.69) rotate(-45)"/><path d="M281.73,275.89l9.19,9.19-9.19,9.19-9.19-9.19,9.19-9.19m0-1.41l-10.61,10.61,10.61,10.61,10.61-10.61-10.61-10.61h0Z"/></g><g><rect x="247.96" y="224.58" width="14" height="14" transform="translate(-89.08 248.11) rotate(-45)"/><path d="M254.96,222.39l9.19,9.19-9.19,9.19-9.19-9.19,9.19-9.19m0-1.41l-10.61,10.61,10.61,10.61,10.61-10.61-10.61-10.61h0Z"/></g><g><rect x="221.21" y="197.82" width="14" height="14" transform="translate(-77.99 221.36) rotate(-45)"/><path d="M228.21,195.63l9.19,9.19-9.19,9.19-9.19-9.19,9.19-9.19m0-1.41l-10.61,10.61,10.61,10.61,10.61-10.61-10.61-10.61h0Z"/></g><g><g><rect class="e" x="261.34" y="237.96" width="14" height="14" transform="translate(-94.62 261.49) rotate(-45)"/><path d="M268.34,235.77l9.19,9.19-9.19,9.19-9.19-9.19,9.19-9.19m0-1.41l-10.61,10.61,10.61,10.61,10.61-10.61-10.61-10.61h0Z"/></g><polygon points="257.73 244.96 268.34 255.56 278.95 244.96 257.73 244.96"/></g><g><g><rect class="e" x="288.1" y="264.71" width="14" height="14" transform="translate(-105.7 288.23) rotate(-45)"/><path d="M295.1,262.52l9.19,9.19-9.19,9.19-9.19-9.19,9.19-9.19m0-1.41l-10.61,10.61,10.61,10.61,10.61-10.61-10.61-10.61h0Z"/></g><polygon points="284.49 271.71 295.1 282.32 305.7 271.71 284.49 271.71"/></g><g><g><rect class="e" x="234.59" y="211.2" width="14" height="14" transform="translate(-83.53 234.74) rotate(-45)"/><path d="M241.59,209.01l9.19,9.19-9.19,9.19-9.19-9.19,9.19-9.19m0-1.41l-10.61,10.61,10.61,10.61,10.61-10.61-10.61-10.61h0Z"/></g><polygon points="230.98 218.2 241.59 228.81 252.19 218.2 230.98 218.2"/></g><g><rect x="274.72" y="251.34" width="14" height="14" transform="translate(-100.16 274.88) rotate(-45)"/><path d="M281.72,249.14l9.19,9.19-9.19,9.19-9.19-9.19,9.19-9.19m0-1.41l-10.61,10.61,10.61,10.61,10.61-10.61-10.61-10.61h0Z"/></g><g><rect x="221.23" y="251.32" width="14" height="14" transform="translate(-115.81 237.03) rotate(-45)"/><path d="M228.23,249.12l9.19,9.19-9.19,9.19-9.19-9.19,9.19-9.19m0-1.41l-10.61,10.61,10.61,10.61,10.61-10.61-10.61-10.61h0Z"/></g><g><rect x="194.47" y="224.56" width="14" height="14" transform="translate(-104.73 210.28) rotate(-45)"/><path d="M201.47,222.37l9.19,9.19-9.19,9.19-9.19-9.19,9.19-9.19m0-1.41l-10.61,10.61,10.61,10.61,10.61-10.61-10.61-10.61h0Z"/></g><g><g><rect class="e" x="234.6" y="264.69" width="14" height="14" transform="translate(-121.35 250.44) rotate(-45)"/><path d="M241.6,262.5l9.19,9.19-9.19,9.19-9.19-9.19,9.19-9.19m0-1.41l-10.61,10.61,10.61,10.61,10.61-10.61-10.61-10.61h0Z"/></g><polygon points="231 271.69 241.6 282.3 252.21 271.69 231 271.69"/></g><g><g><rect class="e" x="261.36" y="291.45" width="14" height="14" transform="translate(-132.43 277.15) rotate(-45)"/><path d="M268.36,289.26l9.19,9.19-9.19,9.19-9.19-9.19,9.19-9.19m0-1.41l-10.61,10.61,10.61,10.61,10.61-10.61-10.61-10.61h0Z"/></g><polygon points="257.75 298.45 268.36 309.06 278.97 298.45 257.75 298.45"/></g><g><g><rect class="e" x="207.85" y="237.94" width="14" height="14" transform="translate(-110.27 223.66) rotate(-45)"/><path d="M214.85,235.75l9.19,9.19-9.19,9.19-9.19-9.19,9.19-9.19m0-1.41l-10.61,10.61,10.61,10.61,10.61-10.61-10.61-10.61h0Z"/></g><polygon points="204.24 244.94 214.85 255.54 225.46 244.94 204.24 244.94"/></g><g><rect x="247.98" y="278.07" width="14" height="14" transform="translate(-126.89 263.81) rotate(-45)"/><path d="M254.98,275.88l9.19,9.19-9.19,9.19-9.19-9.19,9.19-9.19m0-1.41l-10.61,10.61,10.61,10.61,10.61-10.61-10.61-10.61h0Z"/></g><g><rect x="181.11" y="264.67" width="14" height="14" transform="translate(-137.01 212.59) rotate(-45)"/><path d="M188.11,262.48l9.19,9.19-9.19,9.19-9.19-9.19,9.19-9.19m0-1.41l-10.61,10.61,10.61,10.61,10.61-10.61-10.61-10.61h0Z"/></g><g><g><rect class="e" x="194.49" y="278.05" width="14" height="14" transform="translate(-142.55 225.97) rotate(-45)"/><path d="M201.49,275.86l9.19,9.19-9.19,9.19-9.19-9.19,9.19-9.19m0-1.41l-10.61,10.61,10.61,10.61,10.61-10.61-10.61-10.61h0Z"/></g><polygon points="190.88 285.05 201.49 295.66 212.1 285.05 190.88 285.05"/></g><g><g><rect class="e" x="221.25" y="304.81" width="14" height="14" transform="translate(-153.63 252.72) rotate(-45)"/><path d="M228.25,302.62l9.19,9.19-9.19,9.19-9.19-9.19,9.19-9.19m0-1.41l-10.61,10.61,10.61,10.61,10.61-10.61-10.61-10.61h0Z"/></g><polygon points="217.64 311.81 228.25 322.41 238.85 311.81 217.64 311.81"/></g><g><rect x="207.87" y="291.43" width="14" height="14" transform="translate(-148.09 239.34) rotate(-45)"/><path d="M214.87,289.24l9.19,9.19-9.19,9.19-9.19-9.19,9.19-9.19m0-1.41l-10.61,10.61,10.61,10.61,10.61-10.61-10.61-10.61h0Z"/></g><g><g><rect class="e" x="167.73" y="251.3" width="14" height="14" transform="translate(-131.46 199.21) rotate(-45)"/><path d="M174.73,249.1l9.19,9.19-9.19,9.19-9.19-9.19,9.19-9.19m0-1.41l-10.61,10.61,10.61,10.61,10.61-10.61-10.61-10.61h0Z"/></g><polygon points="164.13 258.3 174.73 268.9 185.34 258.3 164.13 258.3"/></g><g><rect x="234.62" y="318.19" width="14" height="14" transform="translate(-159.17 266.11) rotate(-45)"/><path d="M241.62,315.99l9.19,9.19-9.19,9.19-9.19-9.19,9.19-9.19m0-1.41l-10.61,10.61,10.61,10.61,10.61-10.61-10.61-10.61h0Z"/></g><g><rect x="207.86" y="264.68" width="14" height="14" transform="translate(-129.18 231.5) rotate(-45)"/><path d="M214.86,262.49l9.19,9.19-9.19,9.19-9.19-9.19,9.19-9.19m0-1.41l-10.61,10.61,10.61,10.61,10.61-10.61-10.61-10.61h0Z"/></g><g><rect x="181.1" y="237.93" width="14" height="14" transform="translate(-118.1 204.74) rotate(-45)"/><path d="M188.1,235.74l9.19,9.19-9.19,9.19-9.19-9.19,9.19-9.19m0-1.41l-10.61,10.61,10.61,10.61,10.61-10.61-10.61-10.61h0Z"/></g><g><g><rect class="e" x="221.24" y="278.06" width="14" height="14" transform="translate(-134.72 244.88) rotate(-45)"/><path d="M228.24,275.87l9.19,9.19-9.19,9.19-9.19-9.19,9.19-9.19m0-1.41l-10.61,10.61,10.61,10.61,10.61-10.61-10.61-10.61h0Z"/></g><polygon points="217.63 285.06 228.24 295.67 238.84 285.06 217.63 285.06"/></g><g><g><rect class="e" x="247.99" y="304.82" width="14" height="14" transform="translate(-145.81 271.66) rotate(-45)"/><path d="M254.99,302.63l9.19,9.19-9.19,9.19-9.19-9.19,9.19-9.19m0-1.41l-10.61,10.61,10.61,10.61,10.61-10.61-10.61-10.61h0Z"/></g><polygon points="244.39 311.82 254.99 322.42 265.6 311.82 244.39 311.82"/></g><g><g><rect class="e" x="194.48" y="251.31" width="14" height="14" transform="translate(-123.64 218.12) rotate(-45)"/><path d="M201.48,249.11l9.19,9.19-9.19,9.19-9.19-9.19,9.19-9.19m0-1.41l-10.61,10.61,10.61,10.61,10.61-10.61-10.61-10.61h0Z"/></g><polygon points="190.87 258.31 201.48 268.91 212.09 258.31 190.87 258.31"/></g><g><rect x="234.61" y="291.44" width="14" height="14" transform="translate(-140.26 258.28) rotate(-45)"/><path d="M241.61,289.25l9.19,9.19-9.19,9.19-9.19-9.19,9.19-9.19m0-1.41l-10.61,10.61,10.61,10.61,10.61-10.61-10.61-10.61h0Z"/></g><g><rect x="154.38" y="291.41" width="14" height="14" transform="translate(-163.74 201.51) rotate(-45)"/><path d="M161.38,289.22l9.19,9.19-9.19,9.19-9.19-9.19,9.19-9.19m0-1.41l-10.61,10.61,10.61,10.61,10.61-10.61-10.61-10.61h0Z"/></g><g><g><rect class="e" x="167.75" y="304.79" width="14" height="14" transform="translate(-169.28 214.89) rotate(-45)"/><path d="M174.75,302.6l9.19,9.19-9.19,9.19-9.19-9.19,9.19-9.19m0-1.41l-10.61,10.61,10.61,10.61,10.61-10.61-10.61-10.61h0Z"/></g><polygon points="164.15 311.79 174.75 322.39 185.36 311.79 164.15 311.79"/></g><g><g><rect class="e" x="194.51" y="331.54" width="14" height="14" transform="translate(-180.36 241.64) rotate(-45)"/><path d="M201.51,329.35l9.19,9.19-9.19,9.19-9.19-9.19,9.19-9.19m0-1.41l-10.61,10.61,10.61,10.61,10.61-10.61-10.61-10.61h0Z"/></g><polygon points="190.9 338.54 201.51 349.15 212.12 338.54 190.9 338.54"/></g><g><rect x="181.13" y="318.17" width="14" height="14" transform="translate(-174.82 228.26) rotate(-45)"/><path d="M188.13,315.97l9.19,9.19-9.19,9.19-9.19-9.19,9.19-9.19m0-1.41l-10.61,10.61,10.61,10.61,10.61-10.61-10.61-10.61h0Z"/></g><g><g><rect class="e" x="141" y="278.03" width="14" height="14" transform="translate(-158.2 188.13) rotate(-45)"/><path d="M148,275.84l9.19,9.19-9.19,9.19-9.19-9.19,9.19-9.19m0-1.41l-10.61,10.61,10.61,10.61,10.61-10.61-10.61-10.61h0Z"/></g><polygon points="137.39 285.03 148 295.64 158.61 285.03 137.39 285.03"/></g><g><rect x="207.89" y="344.92" width="14" height="14" transform="translate(-185.91 255.02) rotate(-45)"/><path d="M214.89,342.73l9.19,9.19-9.19,9.19-9.19-9.19,9.19-9.19m0-1.41l-10.61,10.61,10.61,10.61,10.61-10.61-10.61-10.61h0Z"/></g><g><rect x="181.12" y="291.42" width="14" height="14" transform="translate(-155.91 220.43) rotate(-45)"/><path d="M188.12,289.23l9.19,9.19-9.19,9.19-9.19-9.19,9.19-9.19m0-1.41l-10.61,10.61,10.61,10.61,10.61-10.61-10.61-10.61h0Z"/></g><g><rect x="154.37" y="264.66" width="14" height="14" transform="translate(-144.83 193.67) rotate(-45)"/><path d="M161.37,262.47l9.19,9.19-9.19,9.19-9.19-9.19,9.19-9.19m0-1.41l-10.61,10.61,10.61,10.61,10.61-10.61-10.61-10.61h0Z"/></g><g><g><rect class="e" x="194.5" y="304.8" width="14" height="14" transform="translate(-161.46 233.81) rotate(-45)"/><path d="M201.5,302.61l9.19,9.19-9.19,9.19-9.19-9.19,9.19-9.19m0-1.41l-10.61,10.61,10.61,10.61,10.61-10.61-10.61-10.61h0Z"/></g><polygon points="190.89 311.8 201.5 322.4 212.11 311.8 190.89 311.8"/></g><g><g><rect class="e" x="221.26" y="331.55" width="14" height="14" transform="translate(-172.54 260.55) rotate(-45)"/><path d="M228.26,329.36l9.19,9.19-9.19,9.19-9.19-9.19,9.19-9.19m0-1.41l-10.61,10.61,10.61,10.61,10.61-10.61-10.61-10.61h0Z"/></g><polygon points="217.65 338.55 228.26 349.16 238.86 338.55 217.65 338.55"/></g><g><g><rect class="e" x="167.74" y="278.04" width="14" height="14" transform="translate(-150.37 207.05) rotate(-45)"/><path d="M174.74,275.85l9.19,9.19-9.19,9.19-9.19-9.19,9.19-9.19m0-1.41l-10.61,10.61,10.61,10.61,10.61-10.61-10.61-10.61h0Z"/></g><polygon points="164.14 285.04 174.74 295.65 185.35 285.04 164.14 285.04"/></g><g><rect x="207.88" y="318.18" width="14" height="14" transform="translate(-167 247.17) rotate(-45)"/><path d="M214.88,315.98l9.19,9.19-9.19,9.19-9.19-9.19,9.19-9.19m0-1.41l-10.61,10.61,10.61,10.61,10.61-10.61-10.61-10.61h0Z"/></g><g><rect x="127.64" y="318.15" width="14" height="14" transform="translate(-190.47 190.43) rotate(-45)"/><path d="M134.64,315.95l9.19,9.19-9.19,9.19-9.19-9.19,9.19-9.19m0-1.41l-10.61,10.61,10.61,10.61,10.61-10.61-10.61-10.61h0Z"/></g><g><g><rect class="e" x="141.02" y="331.52" width="14" height="14" transform="translate(-196.02 203.81) rotate(-45)"/><path d="M148.02,329.33l9.19,9.19-9.19,9.19-9.19-9.19,9.19-9.19m0-1.41l-10.61,10.61,10.61,10.61,10.61-10.61-10.61-10.61h0Z"/></g><polygon points="137.41 338.52 148.02 349.13 158.63 338.52 137.41 338.52"/></g><g><g><rect class="e" x="167.77" y="358.28" width="14" height="14" transform="translate(-207.1 230.57) rotate(-45)"/><path d="M174.77,356.09l9.19,9.19-9.19,9.19-9.19-9.19,9.19-9.19m0-1.41l-10.61,10.61,10.61,10.61,10.61-10.61-10.61-10.61h0Z"/></g><polygon points="164.17 365.28 174.77 375.89 185.38 365.28 164.17 365.28"/></g><g><rect x="154.4" y="344.9" width="14" height="14" transform="translate(-201.56 217.19) rotate(-45)"/><path d="M161.4,342.71l9.19,9.19-9.19,9.19-9.19-9.19,9.19-9.19m0-1.41l-10.61,10.61,10.61,10.61,10.61-10.61-10.61-10.61h0Z"/></g><g><g><rect class="e" x="114.26" y="304.77" width="14" height="14" transform="translate(-184.94 177.06) rotate(-45)"/><path d="M121.26,302.58l9.19,9.19-9.19,9.19-9.19-9.19,9.19-9.19m0-1.41l-10.61,10.61,10.61,10.61,10.61-10.61-10.61-10.61h0Z"/></g><polygon points="110.66 311.77 121.26 322.37 131.87 311.77 110.66 311.77"/></g><g><rect x="181.15" y="371.66" width="14" height="14" transform="translate(-212.64 243.95) rotate(-45)"/><path d="M188.15,369.47l9.19,9.19-9.19,9.19-9.19-9.19,9.19-9.19m0-1.41l-10.61,10.61,10.61,10.61,10.61-10.61-10.61-10.61h0Z"/></g><g><rect x="154.39" y="318.16" width="14" height="14" transform="translate(-182.65 209.35) rotate(-45)"/><path d="M161.39,315.96l9.19,9.19-9.19,9.19-9.19-9.19,9.19-9.19m0-1.41l-10.61,10.61,10.61,10.61,10.61-10.61-10.61-10.61h0Z"/></g><g><rect x="127.63" y="291.4" width="14" height="14" transform="translate(-171.57 182.6) rotate(-45)"/><path d="M134.63,289.21l9.19,9.19-9.19,9.19-9.19-9.19,9.19-9.19m0-1.41l-10.61,10.61,10.61,10.61,10.61-10.61-10.61-10.61h0Z"/></g><g><g><rect class="e" x="167.76" y="331.53" width="14" height="14" transform="translate(-188.19 222.72) rotate(-45)"/><path d="M174.76,329.34l9.19,9.19-9.19,9.19-9.19-9.19,9.19-9.19m0-1.41l-10.61,10.61,10.61,10.61,10.61-10.61-10.61-10.61h0Z"/></g><polygon points="164.16 338.53 174.76 349.14 185.37 338.53 164.16 338.53"/></g><g><g><rect class="e" x="194.52" y="358.29" width="14" height="14" transform="translate(-199.28 249.49) rotate(-45)"/><path d="M201.52,356.1l9.19,9.19-9.19,9.19-9.19-9.19,9.19-9.19m0-1.41l-10.61,10.61,10.61,10.61,10.61-10.61-10.61-10.61h0Z"/></g><polygon points="190.91 365.29 201.52 375.9 212.13 365.29 190.91 365.29"/></g><g><g><rect class="e" x="141.01" y="304.78" width="14" height="14" transform="translate(-177.11 195.98) rotate(-45)"/><path d="M148.01,302.59l9.19,9.19-9.19,9.19-9.19-9.19,9.19-9.19m0-1.41l-10.61,10.61,10.61,10.61,10.61-10.61-10.61-10.61h0Z"/></g><polygon points="137.4 311.78 148.01 322.38 158.62 311.78 137.4 311.78"/></g><g><rect x="181.14" y="344.91" width="14" height="14" transform="translate(-193.73 236.11) rotate(-45)"/><path d="M188.14,342.72l9.19,9.19-9.19,9.19-9.19-9.19,9.19-9.19m0-1.41l-10.61,10.61,10.61,10.61,10.61-10.61-10.61-10.61h0Z"/></g><g><rect x="100.9" y="344.88" width="14" height="14" transform="translate(-217.21 179.36) rotate(-45)"/><path d="M107.9,342.69l9.19,9.19-9.19,9.19-9.19-9.19,9.19-9.19m0-1.41l-10.61,10.61,10.61,10.61,10.61-10.61-10.61-10.61h0Z"/></g><g><g><rect class="e" x="114.28" y="358.26" width="14" height="14" transform="translate(-222.76 192.74) rotate(-45)"/><path d="M121.28,356.07l9.19,9.19-9.19,9.19-9.19-9.19,9.19-9.19m0-1.41l-10.61,10.61,10.61,10.61,10.61-10.61-10.61-10.61h0Z"/></g><polygon points="110.68 365.26 121.28 375.87 131.89 365.26 110.68 365.26"/></g><g><g><rect class="e" x="141.04" y="385.02" width="14" height="14" transform="translate(-233.84 219.5) rotate(-45)"/><path d="M148.04,382.82l9.19,9.19-9.19,9.19-9.19-9.19,9.19-9.19m0-1.41l-10.61,10.61,10.61,10.61,10.61-10.61-10.61-10.61h0Z"/></g><polygon points="137.43 392.02 148.04 402.62 158.64 392.02 137.43 392.02"/></g><g><rect x="127.66" y="371.64" width="14" height="14" transform="translate(-228.3 206.12) rotate(-45)"/><path d="M134.66,369.45l9.19,9.19-9.19,9.19-9.19-9.19,9.19-9.19m0-1.41l-10.61,10.61,10.61,10.61,10.61-10.61-10.61-10.61h0Z"/></g><g><g><rect class="e" x="87.53" y="331.5" width="14" height="14" transform="translate(-211.67 165.98) rotate(-45)"/><path d="M94.53,329.31l9.19,9.19-9.19,9.19-9.19-9.19,9.19-9.19m0-1.41l-10.61,10.61,10.61,10.61,10.61-10.61-10.61-10.61h0Z"/></g><polygon points="83.92 338.5 94.53 349.11 105.13 338.5 83.92 338.5"/></g><g><rect x="154.42" y="398.39" width="14" height="14" transform="translate(-239.38 232.87) rotate(-45)"/><path d="M161.42,396.2l9.19,9.19-9.19,9.19-9.19-9.19,9.19-9.19m0-1.41l-10.61,10.61,10.61,10.61,10.61-10.61-10.61-10.61h0Z"/></g><g><rect x="127.65" y="344.89" width="14" height="14" transform="translate(-209.39 198.28) rotate(-45)"/><path d="M134.65,342.7l9.19,9.19-9.19,9.19-9.19-9.19,9.19-9.19m0-1.41l-10.61,10.61,10.61,10.61,10.61-10.61-10.61-10.61h0Z"/></g><g><rect x="100.89" y="318.14" width="14" height="14" transform="translate(-198.3 171.52) rotate(-45)"/><path d="M107.89,315.94l9.19,9.19-9.19,9.19-9.19-9.19,9.19-9.19m0-1.41l-10.61,10.61,10.61,10.61,10.61-10.61-10.61-10.61h0Z"/></g><g><g><rect class="e" x="141.03" y="358.27" width="14" height="14" transform="translate(-214.93 211.66) rotate(-45)"/><path d="M148.03,356.08l9.19,9.19-9.19,9.19-9.19-9.19,9.19-9.19m0-1.41l-10.61,10.61,10.61,10.61,10.61-10.61-10.61-10.61h0Z"/></g><polygon points="137.42 365.27 148.03 375.88 158.63 365.27 137.42 365.27"/></g><g><g><rect class="e" x="167.78" y="385.03" width="14" height="14" transform="translate(-226.01 238.41) rotate(-45)"/><path d="M174.78,382.83l9.19,9.19-9.19,9.19-9.19-9.19,9.19-9.19m0-1.41l-10.61,10.61,10.61,10.61,10.61-10.61-10.61-10.61h0Z"/></g><polygon points="164.18 392.03 174.78 402.63 185.39 392.03 164.18 392.03"/></g><g><g><rect class="e" x="114.27" y="331.51" width="14" height="14" transform="translate(-203.84 184.89) rotate(-45)"/><path d="M121.27,329.32l9.19,9.19-9.19,9.19-9.19-9.19,9.19-9.19m0-1.41l-10.61,10.61,10.61,10.61,10.61-10.61-10.61-10.61h0Z"/></g><polygon points="110.67 338.51 121.27 349.12 131.88 338.51 110.67 338.51"/></g><g><rect x="154.41" y="371.65" width="14" height="14" transform="translate(-220.47 225.04) rotate(-45)"/><path d="M161.41,369.46l9.19,9.19-9.19,9.19-9.19-9.19,9.19-9.19m0-1.41l-10.61,10.61,10.61,10.61,10.61-10.61-10.61-10.61h0Z"/></g><g><rect x="74.17" y="371.62" width="14" height="14" transform="translate(-243.96 168.31) rotate(-45)"/><path d="M81.17,369.43l9.19,9.19-9.19,9.19-9.19-9.19,9.19-9.19m0-1.41l-10.61,10.61,10.61,10.61,10.61-10.61-10.61-10.61h0Z"/></g><g><g><rect class="e" x="87.55" y="385" width="14" height="14" transform="translate(-249.49 181.67) rotate(-45)"/><path d="M94.55,382.8l9.19,9.19-9.19,9.19-9.19-9.19,9.19-9.19m0-1.41l-10.61,10.61,10.61,10.61,10.61-10.61-10.61-10.61h0Z"/></g><polygon points="83.94 392 94.55 402.6 105.15 392 83.94 392"/></g><g><g><rect class="e" x="114.3" y="411.75" width="14" height="14" transform="translate(-260.57 208.41) rotate(-45)"/><path d="M121.3,409.56l9.19,9.19-9.19,9.19-9.19-9.19,9.19-9.19m0-1.41l-10.61,10.61,10.61,10.61,10.61-10.61-10.61-10.61h0Z"/></g><polygon points="110.7 418.75 121.3 429.36 131.91 418.75 110.7 418.75"/></g><g><rect x="100.92" y="398.37" width="14" height="14" transform="translate(-255.03 195.04) rotate(-45)"/><path d="M107.92,396.18l9.19,9.19-9.19,9.19-9.19-9.19,9.19-9.19m0-1.41l-10.61,10.61,10.61,10.61,10.61-10.61-10.61-10.61h0Z"/></g><g><g><rect class="e" x="60.79" y="358.24" width="14" height="14" transform="translate(-238.42 154.93) rotate(-45)"/><path d="M67.79,356.05l9.19,9.19-9.19,9.19-9.19-9.19,9.19-9.19m0-1.41l-10.61,10.61,10.61,10.61,10.61-10.61-10.61-10.61h0Z"/></g><polygon points="57.18 365.24 67.79 375.85 78.4 365.24 57.18 365.24"/></g><g><rect x="127.68" y="425.13" width="14" height="14" transform="translate(-266.12 221.8) rotate(-45)"/><path d="M134.68,422.94l9.19,9.19-9.19,9.19-9.19-9.19,9.19-9.19m0-1.41l-10.61,10.61,10.61,10.61,10.61-10.61-10.61-10.61h0Z"/></g><g><rect x="100.91" y="371.63" width="14" height="14" transform="translate(-236.12 187.2) rotate(-45)"/><path d="M107.91,369.44l9.19,9.19-9.19,9.19-9.19-9.19,9.19-9.19m0-1.41l-10.61,10.61,10.61,10.61,10.61-10.61-10.61-10.61h0Z"/></g><g><rect x="74.16" y="344.87" width="14" height="14" transform="translate(-225.05 160.46) rotate(-45)"/><path d="M81.16,342.68l9.19,9.19-9.19,9.19-9.19-9.19,9.19-9.19m0-1.41l-10.61,10.61,10.61,10.61,10.61-10.61-10.61-10.61h0Z"/></g><g><g><rect class="e" x="114.29" y="385.01" width="14" height="14" transform="translate(-241.67 200.58) rotate(-45)"/><path d="M121.29,382.81l9.19,9.19-9.19,9.19-9.19-9.19,9.19-9.19m0-1.41l-10.61,10.61,10.61,10.61,10.61-10.61-10.61-10.61h0Z"/></g><polygon points="110.69 392.01 121.29 402.61 131.9 392.01 110.69 392.01"/></g><g><g><rect class="e" x="141.05" y="411.76" width="14" height="14" transform="translate(-252.74 227.33) rotate(-45)"/><path d="M148.05,409.57l9.19,9.19-9.19,9.19-9.19-9.19,9.19-9.19m0-1.41l-10.61,10.61,10.61,10.61,10.61-10.61-10.61-10.61h0Z"/></g><polygon points="137.44 418.76 148.05 429.37 158.65 418.76 137.44 418.76"/></g><g><g><rect class="e" x="87.54" y="358.25" width="14" height="14" transform="translate(-230.58 173.83) rotate(-45)"/><path d="M94.54,356.06l9.19,9.19-9.19,9.19-9.19-9.19,9.19-9.19m0-1.41l-10.61,10.61,10.61,10.61,10.61-10.61-10.61-10.61h0Z"/></g><polygon points="83.93 365.25 94.54 375.86 105.14 365.25 83.93 365.25"/></g><g><rect x="127.67" y="398.38" width="14" height="14" transform="translate(-247.2 213.95) rotate(-45)"/><path d="M134.67,396.19l9.19,9.19-9.19,9.19-9.19-9.19,9.19-9.19m0-1.41l-10.61,10.61,10.61,10.61,10.61-10.61-10.61-10.61h0Z"/></g><g><rect x="47.43" y="398.35" width="14" height="14" transform="translate(-270.68 157.21) rotate(-45)"/><path d="M54.43,396.16l9.19,9.19-9.19,9.19-9.19-9.19,9.19-9.19m0-1.41l-10.61,10.61,10.61,10.61,10.61-10.61-10.61-10.61h0Z"/></g><g><g><rect class="e" x="60.81" y="411.73" width="14" height="14" transform="translate(-276.23 170.6) rotate(-45)"/><path d="M67.81,409.54l9.19,9.19-9.19,9.19-9.19-9.19,9.19-9.19m0-1.41l-10.61,10.61,10.61,10.61,10.61-10.61-10.61-10.61h0Z"/></g><polygon points="57.2 418.73 67.81 429.34 78.42 418.73 57.2 418.73"/></g><g><g><rect class="e" x="87.57" y="438.49" width="14" height="14" transform="translate(-287.31 197.35) rotate(-45)"/><path d="M94.57,436.3l9.19,9.19-9.19,9.19-9.19-9.19,9.19-9.19m0-1.41l-10.61,10.61,10.61,10.61,10.61-10.61-10.61-10.61h0Z"/></g><polygon points="83.96 445.49 94.57 456.1 105.17 445.49 83.96 445.49"/></g><g><rect x="74.19" y="425.11" width="14" height="14" transform="translate(-281.78 183.99) rotate(-45)"/><path d="M81.19,422.92l9.19,9.19-9.19,9.19-9.19-9.19,9.19-9.19m0-1.41l-10.61,10.61,10.61,10.61,10.61-10.61-10.61-10.61h0Z"/></g><g><g><rect class="e" x="34.05" y="384.98" width="14" height="14" transform="translate(-265.15 143.84) rotate(-45)"/><path d="M41.05,382.78l9.19,9.19-9.19,9.19-9.19-9.19,9.19-9.19m0-1.41l-10.61,10.61,10.61,10.61,10.61-10.61-10.61-10.61h0Z"/></g><polygon points="30.45 391.98 41.05 402.58 51.66 391.98 30.45 391.98"/></g><g><rect x="100.94" y="451.87" width="14" height="14" transform="translate(-292.85 210.73) rotate(-45)"/><path d="M107.94,449.67l9.19,9.19-9.19,9.19-9.19-9.19,9.19-9.19m0-1.41l-10.61,10.61,10.61,10.61,10.61-10.61-10.61-10.61h0Z"/></g><g><rect x="74.18" y="398.36" width="14" height="14" transform="translate(-262.87 176.14) rotate(-45)"/><path d="M81.18,396.17l9.19,9.19-9.19,9.19-9.19-9.19,9.19-9.19m0-1.41l-10.61,10.61,10.61,10.61,10.61-10.61-10.61-10.61h0Z"/></g><g><rect x="47.42" y="371.61" width="14" height="14" transform="translate(-251.78 149.37) rotate(-45)"/><path d="M54.42,369.42l9.19,9.19-9.19,9.19-9.19-9.19,9.19-9.19m0-1.41l-10.61,10.61,10.61,10.61,10.61-10.61-10.61-10.61h0Z"/></g><g><g><rect class="e" x="87.56" y="411.74" width="14" height="14" transform="translate(-268.4 189.5) rotate(-45)"/><path d="M94.56,409.55l9.19,9.19-9.19,9.19-9.19-9.19,9.19-9.19m0-1.41l-10.61,10.61,10.61,10.61,10.61-10.61-10.61-10.61h0Z"/></g><polygon points="83.95 418.74 94.56 429.35 105.16 418.74 83.95 418.74"/></g><g><g><rect class="e" x="114.31" y="438.5" width="14" height="14" transform="translate(-279.48 216.26) rotate(-45)"/><path d="M121.31,436.31l9.19,9.19-9.19,9.19-9.19-9.19,9.19-9.19m0-1.41l-10.61,10.61,10.61,10.61,10.61-10.61-10.61-10.61h0Z"/></g><polygon points="110.71 445.5 121.31 456.11 131.92 445.5 110.71 445.5"/></g><g><g><rect class="e" x="60.8" y="384.99" width="14" height="14" transform="translate(-257.33 162.77) rotate(-45)"/><path d="M67.8,382.79l9.19,9.19-9.19,9.19-9.19-9.19,9.19-9.19m0-1.41l-10.61,10.61,10.61,10.61,10.61-10.61-10.61-10.61h0Z"/></g><polygon points="57.19 391.99 67.8 402.59 78.41 391.99 57.19 391.99"/></g><g><rect x="100.93" y="425.12" width="14" height="14" transform="translate(-273.94 202.89) rotate(-45)"/><path d="M107.93,422.93l9.19,9.19-9.19,9.19-9.19-9.19,9.19-9.19m0-1.41l-10.61,10.61,10.61,10.61,10.61-10.61-10.61-10.61h0Z"/></g><g><rect class="e" x="194.7" y="385.21" width="14" height="14" transform="translate(-218.25 257.49) rotate(-45)"/><path d="M201.7,383.02l9.19,9.19-9.19,9.19-9.19-9.19,9.19-9.19m0-1.41l-10.61,10.61,10.61,10.61,10.61-10.61-10.61-10.61h0Z"/></g><polygon points="191.09 392.21 201.7 402.81 212.31 392.21 191.09 392.21"/><g><rect class="e" x="167.97" y="411.94" width="14" height="14" transform="translate(-244.99 246.42) rotate(-45)"/><path d="M174.97,409.75l9.19,9.19-9.19,9.19-9.19-9.19,9.19-9.19m0-1.41l-10.61,10.61,10.61,10.61,10.61-10.61-10.61-10.61h0Z"/></g><polygon points="164.36 418.94 174.97 429.55 185.57 418.94 164.36 418.94"/><g><rect x="181.33" y="398.58" width="14" height="14" transform="translate(-231.62 251.96) rotate(-45)"/><path d="M188.33,396.38l9.19,9.19-9.19,9.19-9.19-9.19,9.19-9.19m0-1.41l-10.61,10.61,10.61,10.61,10.61-10.61-10.61-10.61h0Z"/></g><g><rect class="e" x="141.23" y="438.68" width="14" height="14" transform="translate(-271.73 235.35) rotate(-45)"/><path d="M148.23,436.49l9.19,9.19-9.19,9.19-9.19-9.19,9.19-9.19m0-1.41l-10.61,10.61,10.61,10.61,10.61-10.61-10.61-10.61h0Z"/></g><polygon points="137.62 445.68 148.23 456.29 158.84 445.68 137.62 445.68"/><g><rect x="154.6" y="425.31" width="14" height="14" transform="translate(-258.36 240.89) rotate(-45)"/><path d="M161.6,423.12l9.19,9.19-9.19,9.19-9.19-9.19,9.19-9.19m0-1.41l-10.61,10.61,10.61,10.61,10.61-10.61-10.61-10.61h0Z"/></g><g><rect class="e" x="114.49" y="465.42" width="14" height="14" transform="translate(-298.46 224.27) rotate(-45)"/><path d="M121.49,463.22l9.19,9.19-9.19,9.19-9.19-9.19,9.19-9.19m0-1.41l-10.61,10.61,10.61,10.61,10.61-10.61-10.61-10.61h0Z"/></g><polygon points="110.89 472.42 121.49 483.02 132.1 472.42 110.89 472.42"/><g><rect x="127.86" y="452.05" width="14" height="14" transform="translate(-285.09 229.8) rotate(-45)"/><path d="M134.86,449.86l9.19,9.19-9.19,9.19-9.19-9.19,9.19-9.19m0-1.41l-10.61,10.61,10.61,10.61,10.61-10.61-10.61-10.61h0Z"/></g></g></g></g><rect class="g" width="512" height="512"/></g></g></svg>