<?xml version="1.0" encoding="UTF-8"?><svg xmlns="http://www.w3.org/2000/svg" viewBox="0 0 512 512"><defs><style>.d{font-size:34.09px;}.d,.e{font-family:Gulim, Gulim;}.f,.g{fill:none;}.f,.h{stroke:#000;stroke-miterlimit:10;stroke-width:5px;}.e{font-size:29.31px;}.h{fill:#fff;}</style></defs><g id="a"/><g id="b"><g id="c"><line class="f" x1="182.04" y1="220.5" x2="332.04" y2="220.5"/><g><text class="d" transform="translate(29.48 245.59)"><tspan x="0" y="0">FINAL CL</tspan></text><g><text class="d" transform="translate(62.25 284.61)"><tspan x="0" y="0">PL</tspan></text><path d="M58.31,264.18c.25-.02,.48,.03,.69,.14,.23,.13,.37,.31,.41,.52,.06,.23,.01,.47-.16,.72-1.51,2.04-2.59,3.97-3.24,5.78-.69,1.93-1.04,4.06-1.04,6.42s.31,4.6,.94,6.47c.67,1.96,1.77,3.81,3.31,5.55,.21,.23,.3,.49,.28,.78-.02,.25-.14,.46-.35,.64-.21,.17-.45,.25-.72,.23-.29-.02-.56-.15-.79-.4-1.62-1.71-2.81-3.77-3.59-6.16-.67-2.14-1.01-4.51-1.01-7.11,0-2.43,.36-4.69,1.07-6.79,.73-2.16,1.91-4.3,3.53-6.42,.17-.23,.39-.36,.66-.38Z"/><path d="M155.18,270.97c.73,2.1,1.1,4.36,1.1,6.79,0,2.6-.35,4.97-1.04,7.11-.78,2.39-1.96,4.44-3.56,6.16-.25,.25-.52,.39-.82,.4-.27,.02-.51-.06-.72-.23-.21-.17-.33-.39-.35-.64-.02-.29,.08-.55,.31-.78,1.51-1.73,2.6-3.58,3.27-5.55,.65-1.87,.98-4.03,.98-6.47s-.36-4.49-1.07-6.42c-.65-1.81-1.72-3.74-3.21-5.78-.19-.25-.25-.49-.19-.72,.04-.21,.18-.39,.41-.52,.21-.12,.44-.16,.69-.14,.27,.02,.5,.14,.69,.38,1.59,2.12,2.76,4.26,3.49,6.42Z"/><g><rect class="h" x="112.59" y="259.5" width="27.98" height="36.17"/><text class="e" transform="translate(117.43 288.7) scale(1.07 1)"><tspan x="0" y="0">T</tspan></text></g></g></g><rect class="g" width="512" height="512"/><g><text class="d" transform="translate(337.41 245.59)"><tspan x="0" y="0">FINAL CL</tspan></text><g><text class="d" transform="translate(370.18 284.61)"><tspan x="0" y="0">PL</tspan></text><path d="M366.24,264.18c.25-.02,.48,.03,.69,.14,.23,.13,.37,.31,.41,.52,.06,.23,.01,.47-.16,.72-1.51,2.04-2.59,3.97-3.24,5.78-.69,1.93-1.04,4.06-1.04,6.42s.31,4.6,.94,6.47c.67,1.96,1.77,3.81,3.31,5.55,.21,.23,.3,.49,.28,.78-.02,.25-.14,.46-.35,.64-.21,.17-.45,.25-.72,.23-.29-.02-.56-.15-.79-.4-1.62-1.71-2.81-3.77-3.59-6.16-.67-2.14-1.01-4.51-1.01-7.11,0-2.43,.36-4.69,1.07-6.79,.73-2.16,1.91-4.3,3.53-6.42,.17-.23,.39-.36,.66-.38Z"/><path d="M463.1,270.97c.73,2.1,1.1,4.36,1.1,6.79,0,2.6-.35,4.97-1.04,7.11-.78,2.39-1.96,4.44-3.56,6.16-.25,.25-.52,.39-.82,.4-.27,.02-.51-.06-.72-.23-.21-.17-.33-.39-.35-.64-.02-.29,.08-.55,.31-.78,1.51-1.73,2.6-3.58,3.27-5.55,.65-1.87,.98-4.03,.98-6.47s-.36-4.49-1.07-6.42c-.65-1.81-1.72-3.74-3.21-5.78-.19-.25-.25-.49-.19-.72,.04-.21,.18-.39,.41-.52,.21-.12,.44-.16,.69-.14,.27,.02,.5,.14,.69,.38,1.59,2.12,2.76,4.26,3.49,6.42Z"/><g><rect class="h" x="420.52" y="259.5" width="27.98" height="36.17"/><text class="e" transform="translate(425.36 288.7) scale(1.07 1)"><tspan x="0" y="0">T</tspan></text></g></g></g></g></g></svg>