<svg xmlns="http://www.w3.org/2000/svg" viewBox="0 0 512 512"><defs><style>.cls-1,.cls-2{fill:none;}.cls-1{stroke:#000;stroke-miterlimit:10;stroke-width:8px;}</style></defs><g id="Layer_2" data-name="Layer 2"><g id="G_G_DAF---_X" data-name="G*G*DAF---****X"><circle cx="56.35" cy="253.47" r="11.2"/><polygon class="cls-1" points="56.34 287.6 93.14 234.27 19.55 234.27 56.34 287.6"/><circle cx="129.03" cy="253.47" r="11.2"/><polygon class="cls-1" points="129.03 287.6 165.83 234.27 92.23 234.27 129.03 287.6"/><circle cx="201.72" cy="253.47" r="11.2"/><polygon class="cls-1" points="201.72 287.6 238.51 234.27 164.91 234.27 201.72 287.6"/><circle cx="274.4" cy="253.47" r="11.2"/><polygon class="cls-1" points="274.4 287.6 311.2 234.27 237.6 234.27 274.4 287.6"/><circle cx="347.08" cy="253.47" r="11.2"/><polygon class="cls-1" points="347.08 287.6 383.88 234.27 310.29 234.27 347.08 287.6"/><circle cx="419.77" cy="253.47" r="11.2"/><polygon class="cls-1" points="419.77 287.6 456.57 234.27 382.97 234.27 419.77 287.6"/><line class="cls-1" x1="19.55" y1="222.4" x2="481.25" y2="222.4"/><line class="cls-1" x1="19.55" y1="289.6" x2="481.25" y2="289.6"/><polyline class="cls-1" points="492.45 234.27 455.65 234.27 492.45 287.6"/><path d="M481.25,253.47a11.21,11.21,0,0,0,11.2,11.2v-22.4A11.2,11.2,0,0,0,481.25,253.47Z"/><rect class="cls-2" width="512" height="512"/></g></g></svg>