<?xml version="1.0" encoding="UTF-8"?><svg xmlns="http://www.w3.org/2000/svg" viewBox="0 0 512 512"><defs><style>.d{stroke-width:10px;}.d,.e,.f{fill:none;}.d,.f{stroke:#000;stroke-miterlimit:10;}.f{stroke-width:7px;}</style></defs><g id="a"/><g id="b"><g id="c"><g><polygon class="d" points="79.6 88 20.8 194.8 92.8 424 491.2 300.4 398.2 110.2 79.6 88"/><g><g><path d="M248.42,219.07c.22,.19,.33,.44,.33,.73,0,.27-.11,.5-.33,.69-.22,.22-.51,.33-.87,.33h-7.37v24.18c0,.34-.12,.62-.36,.83-.22,.19-.47,.29-.76,.29-.31,0-.58-.1-.8-.29-.22-.22-.33-.5-.33-.83v-24.18h-7.7c-.58,0-.87-.34-.87-1.02s.29-1.02,.87-1.02h17.32c.36,0,.65,.1,.87,.29Z"/><path d="M261.73,218.6c.36-.27,.77-.4,1.23-.4,.41,0,.8,.13,1.16,.4,.39,.29,.68,.71,.87,1.27l9,24.61c.12,.36,.11,.7-.04,1.02-.12,.27-.33,.45-.62,.54-.29,.1-.58,.08-.87-.04-.29-.17-.51-.44-.65-.8l-3.05-8.46h-11.65l-3.09,8.46c-.15,.36-.38,.63-.69,.8-.27,.15-.54,.17-.83,.07-.29-.1-.51-.29-.65-.58-.15-.29-.13-.63,.04-1.02l8.97-24.61c.19-.56,.48-.98,.87-1.27Zm6.28,16.15l-5.01-13.79h-.11l-5.05,13.79h10.16Z"/><path d="M279.89,218.45c.22-.19,.48-.29,.8-.29,.29,0,.54,.1,.76,.29,.24,.22,.36,.52,.36,.91v25.59c0,.36-.12,.65-.36,.87-.22,.19-.47,.29-.76,.29-.31,0-.58-.1-.8-.29-.22-.22-.33-.51-.33-.87v-25.59c0-.39,.11-.69,.33-.91Z"/><path d="M266.14,266.46c.22,.19,.33,.44,.33,.73,0,.27-.11,.5-.33,.69-.22,.22-.51,.33-.87,.33h-7.37v24.18c0,.34-.12,.62-.36,.83-.22,.19-.47,.29-.76,.29-.31,0-.58-.1-.8-.29-.22-.22-.33-.5-.33-.83v-24.18h-7.7c-.58,0-.87-.34-.87-1.02s.29-1.02,.87-1.02h17.31c.36,0,.65,.1,.87,.29Z"/></g><rect class="f" x="238.96" y="255.58" width="34.07" height="39.26"/></g></g><rect class="e" width="512" height="512"/></g></g></svg>