<?xml version="1.0" encoding="UTF-8"?><svg xmlns="http://www.w3.org/2000/svg" viewBox="0 0 512 512"><defs><style>.d{font-family:New-Gulim, New Gulim;font-size:31.79px;letter-spacing:.02em;}.e,.f{fill:none;}.f{stroke:#000;stroke-miterlimit:10;stroke-width:7px;}</style></defs><g id="a"/><g id="b"><g id="c"><polygon class="f" points="14 110.8 30 104.4 123.6 101.2 143.6 110.8 143.6 122.8 154 139.6 206 139.6 218 150.8 208.4 158 206 181.2 276.4 202 295.6 221.2 342.8 211.6 437.2 211.6 448.4 270.8 435.6 292.4 386.8 302 398 332.4 448.4 332.4 458 342 458 360.4 489.2 381.2 498 391.6 488.4 410.8 287.6 410.8 266 383.6 267.6 342.8 238.8 322.8 236.4 310 188.4 309.2 150 322 99.6 302.8 74 272.4 75.6 248.7 47.6 248.7 26.8 122 14 110.8"/><g><text class="d" transform="translate(203.72 263.3)"><tspan x="0" y="0" xml:space="preserve">AO  T</tspan></text><rect class="f" x="263.25" y="234.81" width="35.03" height="40.37"/></g><rect class="e" width="512" height="512"/></g></g></svg>