<svg xmlns="http://www.w3.org/2000/svg" viewBox="0 0 512 512"><defs><style>.cls-1{font-size:29.89px;}.cls-1,.cls-4{font-family:New-Gulim, New Gulim;}.cls-2,.cls-5,.cls-6,.cls-7{fill:none;}.cls-2,.cls-5,.cls-6{stroke:#231f20;stroke-width:7px;}.cls-2,.cls-3,.cls-5,.cls-6{stroke-miterlimit:10;}.cls-3{fill:#999;stroke:#000;stroke-width:5px;}.cls-4{font-size:29.44px;letter-spacing:-0.06em;}.cls-5{stroke-dasharray:6.82 11.7;}.cls-6{stroke-dasharray:6.9 11.83;}</style></defs><g id="Layer_2" data-name="Layer 2"><g id="G_G_PM----_X" data-name="G*G*PM----****X"><text class="cls-1" transform="translate(237.84 126.23)">M</text><text class="cls-1" transform="translate(237.84 408.07)">M</text><text class="cls-1" transform="translate(468.13 267.07)">M</text><text class="cls-1" transform="translate(19.58 265.07)">M</text><polyline class="cls-2" points="231.22 122.97 196.02 129.41 116.02 118.43 60.82 123.92 34.42 159.77 34.42 236.57"/><polyline class="cls-2" points="273.42 118.43 426.22 118.43 451.82 129.41 470.94 151.97 470.94 191.17 483.02 212.77 483.02 236.57"/><rect class="cls-3" x="69.94" y="99.43" width="34.5" height="38"/><text class="cls-4" transform="translate(78.18 128.85) scale(0.93 1)">N</text><path class="cls-2" d="M34.42,277.57l-12,36,23,45.6,12.8,12s12.24,20,11.72,20,161.28,9.6,161.28,9.6"/><polyline class="cls-2" points="273.42 400.77 448.62 391.97 459.02 382.37 459.02 358.37 470.94 347.97 479.02 277.57"/><line class="cls-2" x1="104.44" y1="311.17" x2="107.32" y2="309.19"/><line class="cls-5" x1="116.97" y1="302.58" x2="249.61" y2="211.65"/><polyline class="cls-2" points="254.44 208.35 257.32 206.37 260.22 208.33"/><line class="cls-6" x1="270.03" y1="214.94" x2="404.82" y2="305.9"/><line class="cls-2" x1="409.72" y1="309.21" x2="412.62" y2="311.17"/><rect class="cls-3" x="404.68" y="99.43" width="34.5" height="38"/><text class="cls-4" transform="translate(412.92 128.85) scale(0.93 1)">N</text><rect class="cls-7" width="512" height="512"/></g></g></svg>