<svg xmlns="http://www.w3.org/2000/svg" viewBox="0 0 512 512"><defs><style>.cls-1{font-size:33.34px;}.cls-1,.cls-3{font-family:Gulim;}.cls-2{fill:#999;}.cls-2,.cls-4{stroke:#000;stroke-miterlimit:10;stroke-width:4px;}.cls-3{font-size:31.53px;}.cls-4,.cls-5{fill:none;}</style></defs><g id="Layer_2" data-name="Layer 2"><g id="G_G_GLP---_X" data-name="G*G*GLP---****X"><text class="cls-1" transform="translate(37.53 267.8)">PL</text><path d="M35.1,242.68a1.15,1.15,0,0,1,.68.14.8.8,0,0,1,.4.51.82.82,0,0,1-.16.7,22.57,22.57,0,0,0-3.17,5.65,18.43,18.43,0,0,0-1,6.28,19.71,19.71,0,0,0,.93,6.33A15.8,15.8,0,0,0,36,267.71a1,1,0,0,1,.28.77.91.91,0,0,1-.34.62,1,1,0,0,1-.71.23,1.12,1.12,0,0,1-.77-.4,15.74,15.74,0,0,1-3.51-6,23,23,0,0,1-1-7,20.4,20.4,0,0,1,1-6.64A22.25,22.25,0,0,1,34.45,243,.84.84,0,0,1,35.1,242.68Z"/><path d="M122.6,249.32a19.89,19.89,0,0,1,1.08,6.64,22.39,22.39,0,0,1-1,7,15.94,15.94,0,0,1-3.48,6,1.21,1.21,0,0,1-.8.4,1,1,0,0,1-.7-.23.87.87,0,0,1-.34-.62,1,1,0,0,1,.3-.77,16.22,16.22,0,0,0,3.21-5.42,19.42,19.42,0,0,0,1-6.33,18,18,0,0,0-1-6.28,22.7,22.7,0,0,0-3.14-5.65.8.8,0,0,1-.18-.7.74.74,0,0,1,.4-.51,1.12,1.12,0,0,1,.68-.14.91.91,0,0,1,.67.36A22.63,22.63,0,0,1,122.6,249.32Z"/><rect class="cls-2" x="81.07" y="236.55" width="31.43" height="38.91"/><text class="cls-3" transform="translate(86.51 267.95) scale(1.12 1)">T</text><text class="cls-1" transform="translate(395.65 267.8)">PL</text><path d="M393.22,242.68a1.13,1.13,0,0,1,.68.14.77.77,0,0,1,.4.51.82.82,0,0,1-.16.7,22.89,22.89,0,0,0-3.17,5.65,18.43,18.43,0,0,0-1,6.28,19.72,19.72,0,0,0,.92,6.33,16,16,0,0,0,3.23,5.42,1,1,0,0,1,.28.77.87.87,0,0,1-.34.62,1,1,0,0,1-.71.23,1.12,1.12,0,0,1-.77-.4,15.74,15.74,0,0,1-3.51-6,23.34,23.34,0,0,1-1-7,20.67,20.67,0,0,1,1-6.64,22.25,22.25,0,0,1,3.45-6.28A.84.84,0,0,1,393.22,242.68Z"/><path d="M480.72,249.32A19.89,19.89,0,0,1,481.8,256a22.39,22.39,0,0,1-1,7,15.94,15.94,0,0,1-3.48,6,1.21,1.21,0,0,1-.8.4,1,1,0,0,1-.7-.23.87.87,0,0,1-.34-.62,1,1,0,0,1,.31-.77,16.36,16.36,0,0,0,3.2-5.42,19.42,19.42,0,0,0,.95-6.33,18,18,0,0,0-1.05-6.28,22.7,22.7,0,0,0-3.14-5.65.8.8,0,0,1-.18-.7.74.74,0,0,1,.4-.51,1.13,1.13,0,0,1,.68-.14.91.91,0,0,1,.67.36A22.63,22.63,0,0,1,480.72,249.32Z"/><rect class="cls-2" x="439.19" y="236.55" width="31.43" height="38.91"/><text class="cls-3" transform="translate(444.63 267.95) scale(1.12 1)">T</text><line class="cls-4" x1="134.38" y1="256" x2="377.08" y2="256"/><rect class="cls-5" width="512" height="512"/></g></g></svg>