<svg xmlns="http://www.w3.org/2000/svg" viewBox="0 0 512 512"><defs><style>.cls-1,.cls-5{fill:none;}.cls-1{stroke:#231f20;stroke-width:4.5px;}.cls-1,.cls-2{stroke-miterlimit:10;}.cls-2{fill:#999;stroke:#000;stroke-width:5px;}.cls-3,.cls-4{font-size:31.42px;font-family:New-Gulim, New Gulim;}.cls-3{letter-spacing:-0.06em;}.cls-4{letter-spacing:-0.06em;}</style></defs><g id="Layer_2" data-name="Layer 2"><g id="G_G_GAF---_X" data-name="G*G*GAF---****X"><polyline class="cls-1" points="324.21 358 306.02 358 306.02 375.13 288.55 375.13 288.55 355.75"/><polyline class="cls-1" points="361.37 358 343.18 358 343.18 375.13 325.7 375.13 325.7 355.75"/><polyline class="cls-1" points="398.53 358 380.34 358 380.34 375.13 362.86 375.13 362.86 355.75"/><polyline class="cls-1" points="287.06 358 268.87 358 268.87 375.13 251.39 375.13 251.39 355.75"/><polyline class="cls-1" points="324.21 358 306.02 358 306.02 375.13 288.55 375.13 288.55 355.75"/><polyline class="cls-1" points="361.37 358 343.18 358 343.18 375.13 325.7 375.13 325.7 355.75"/><polyline class="cls-1" points="249.9 358 231.71 358 231.71 375.13 214.23 375.13 214.23 355.75"/><polyline class="cls-1" points="287.06 358 268.87 358 268.87 375.13 251.39 375.13 251.39 355.75"/><polyline class="cls-1" points="324.21 358 306.02 358 306.02 375.13 288.55 375.13 288.55 355.75"/><polyline class="cls-1" points="212.75 358 194.56 358 194.56 375.13 177.08 375.13 177.08 355.75"/><polyline class="cls-1" points="249.9 358 231.71 358 231.71 375.13 214.23 375.13 214.23 355.75"/><polyline class="cls-1" points="287.06 358 268.87 358 268.87 375.13 251.39 375.13 251.39 355.75"/><polyline class="cls-1" points="175.59 358 157.4 358 157.4 375.13 139.92 375.13 139.92 355.75"/><polyline class="cls-1" points="212.75 358 194.56 358 194.56 375.13 177.08 375.13 177.08 355.75"/><polyline class="cls-1" points="249.9 358 231.71 358 231.71 375.13 214.23 375.13 214.23 355.75"/><path class="cls-1" d="M139.6,357.16a96.84,96.84,0,0,1-16.34-3.42l-4.89,16.42a125.07,125.07,0,0,1-17.49-6.74l8.4-17.47"/><path class="cls-1" d="M175.59,358H157.4v17.13H153c-1.48,0-3.1-.07-4.64-.1-.78,0-1.56,0-2.34-.07l-2.34-.18c-1.56-.14-3.12-.19-4.67-.42l2.16-19.26"/><polyline class="cls-1" points="212.75 358 194.56 358 194.56 375.13 177.08 375.13 177.08 355.75"/><path class="cls-1" d="M107.08,347.36a97.45,97.45,0,0,1-14.28-8.65l-10,13.89a120.52,120.52,0,0,1-14.29-12.11l13.66-13.74"/><path class="cls-1" d="M139.6,357.16a96.84,96.84,0,0,1-16.34-3.42l-4.89,16.42a125.07,125.07,0,0,1-17.49-6.74l8.4-17.47"/><path class="cls-1" d="M175.59,358H157.4v17.13H153c-1.48,0-3.1-.07-4.64-.1-.78,0-1.56,0-2.34-.07l-2.34-.18c-1.56-.14-3.12-.19-4.67-.42l2.16-19.26"/><path class="cls-1" d="M79.6,327.36a97.15,97.15,0,0,1-10.67-12.85l-14,9.85a119,119,0,0,1-9.55-16.13l17.42-8.51"/><path class="cls-1" d="M107.08,347.36a97.45,97.45,0,0,1-14.28-8.65l-10,13.89a120.52,120.52,0,0,1-14.29-12.11l13.66-13.74"/><path class="cls-1" d="M139.6,357.16a96.84,96.84,0,0,1-16.34-3.42l-4.89,16.42a125.07,125.07,0,0,1-17.49-6.74l8.4-17.47"/><path class="cls-1" d="M60.17,299.48a97.94,97.94,0,0,1-5.84-15.63l-16.48,4.66a112.64,112.64,0,0,1-3.67-18.38l19.25-2.27"/><path class="cls-1" d="M79.6,327.36a97.15,97.15,0,0,1-10.67-12.85l-14,9.85a119,119,0,0,1-9.55-16.13l17.42-8.51"/><path class="cls-1" d="M107.08,347.36a97.45,97.45,0,0,1-14.28-8.65l-10,13.89a120.52,120.52,0,0,1-14.29-12.11l13.66-13.74"/><path class="cls-1" d="M51,266.77a111.12,111.12,0,0,1-.38-16.72l-17.11-1a121,121,0,0,1,2.55-18.56L55,234.64"/><path class="cls-1" d="M60.17,299.48a97.94,97.94,0,0,1-5.84-15.63l-16.48,4.66a112.64,112.64,0,0,1-3.67-18.38l19.25-2.27"/><path class="cls-1" d="M79.6,327.36a97.15,97.15,0,0,1-10.67-12.85l-14,9.85a119,119,0,0,1-9.55-16.13l17.42-8.51"/><path class="cls-1" d="M53.13,232.83a98.28,98.28,0,0,1,5.08-15.89l-15.82-6.57a125.39,125.39,0,0,1,8.52-16.69l16.51,10.15"/><path class="cls-1" d="M51,266.77a111.12,111.12,0,0,1-.38-16.72l-17.11-1a121,121,0,0,1,2.55-18.56L55,234.64"/><path class="cls-1" d="M60.17,299.48a97.94,97.94,0,0,1-5.84-15.63l-16.48,4.66a112.64,112.64,0,0,1-3.67-18.38l19.25-2.27"/><path class="cls-1" d="M66.24,201.51A98.13,98.13,0,0,1,76.3,188.17l-12.79-11.4A125.42,125.42,0,0,1,77,163.8l12.28,15"/><path class="cls-1" d="M53.13,232.83a98.28,98.28,0,0,1,5.08-15.89l-15.82-6.57a125.39,125.39,0,0,1,8.52-16.69l16.51,10.15"/><path class="cls-1" d="M51,266.77a111.12,111.12,0,0,1-.38-16.72l-17.11-1a121,121,0,0,1,2.55-18.56L55,234.64"/><path class="cls-1" d="M89,176.21a97,97,0,0,1,13.86-9.31l-8.35-15a124.9,124.9,0,0,1,17-7.84l6.66,18.2"/><path class="cls-1" d="M66.24,201.51A98.13,98.13,0,0,1,76.3,188.17l-12.79-11.4A125.42,125.42,0,0,1,77,163.8l12.28,15"/><path class="cls-1" d="M53.13,232.83a98.28,98.28,0,0,1,5.08-15.89l-15.82-6.57a125.39,125.39,0,0,1,8.52-16.69l16.51,10.15"/><path class="cls-1" d="M118.67,159.75a95.61,95.61,0,0,1,16.15-4.2l-2.94-16.88a115.52,115.52,0,0,1,18.64-1.75l.31,19.37"/><path class="cls-1" d="M89,176.21a97,97,0,0,1,13.86-9.31l-8.35-15a124.9,124.9,0,0,1,17-7.84l6.66,18.2"/><path class="cls-1" d="M66.24,201.51A98.13,98.13,0,0,1,76.3,188.17l-12.79-11.4A125.42,125.42,0,0,1,77,163.8l12.28,15"/><polyline class="cls-1" points="152.16 154.01 170.33 154 170.33 136.87 187.81 136.87 187.81 156.25"/><path class="cls-1" d="M118.67,159.75a95.61,95.61,0,0,1,16.15-4.2l-2.94-16.88a115.52,115.52,0,0,1,18.64-1.75l.31,19.37"/><path class="cls-1" d="M89,176.21a97,97,0,0,1,13.86-9.31l-8.35-15a124.9,124.9,0,0,1,17-7.84l6.66,18.2"/><polyline class="cls-1" points="189.29 154 207.49 154 207.49 136.87 224.97 136.87 224.97 156.25"/><polyline class="cls-1" points="152.16 154.01 170.33 154 170.33 136.87 187.81 136.87 187.81 156.25"/><path class="cls-1" d="M118.67,159.75a95.61,95.61,0,0,1,16.15-4.2l-2.94-16.88a115.52,115.52,0,0,1,18.64-1.75l.31,19.37"/><polyline class="cls-1" points="226.45 154 244.64 154 244.64 136.87 262.12 136.87 262.12 156.25"/><polyline class="cls-1" points="189.29 154 207.49 154 207.49 136.87 224.97 136.87 224.97 156.25"/><polyline class="cls-1" points="152.14 154 170.33 154 170.33 136.87 187.81 136.87 187.81 156.25"/><polyline class="cls-1" points="263.61 154 281.8 154 281.8 136.87 299.28 136.87 299.28 156.25"/><polyline class="cls-1" points="226.45 154 244.64 154 244.64 136.87 262.12 136.87 262.12 156.25"/><polyline class="cls-1" points="189.29 154 207.49 154 207.49 136.87 224.97 136.87 224.97 156.25"/><polyline class="cls-1" points="300.76 154 318.96 154 318.96 136.87 336.43 136.87 336.43 156.25"/><polyline class="cls-1" points="263.61 154 281.8 154 281.8 136.87 299.28 136.87 299.28 156.25"/><polyline class="cls-1" points="226.45 154 244.64 154 244.64 136.87 262.12 136.87 262.12 156.25"/><polyline class="cls-1" points="337.92 154 356.11 154 356.11 136.87 373.59 136.87 373.59 156.25"/><polyline class="cls-1" points="300.76 154 318.96 154 318.96 136.87 336.43 136.87 336.43 156.25"/><polyline class="cls-1" points="263.61 154 281.8 154 281.8 136.87 299.28 136.87 299.28 156.25"/><path class="cls-1" d="M373.91,154.84a96.84,96.84,0,0,1,16.34,3.42l4.89-16.42a125.68,125.68,0,0,1,17.5,6.74l-8.4,17.47"/><path class="cls-1" d="M337.92,154h18.19V136.87h4.37c1.48,0,3.1.07,4.64.1.78,0,1.56,0,2.34.07l2.34.18c1.56.14,3.12.19,4.67.42l-2.16,19.26"/><polyline class="cls-1" points="300.76 154 318.96 154 318.96 136.87 336.43 136.87 336.43 156.25"/><path class="cls-1" d="M406.43,164.64a97.45,97.45,0,0,1,14.28,8.65l10-13.89A121.42,121.42,0,0,1,445,171.51l-13.67,13.74"/><path class="cls-1" d="M373.91,154.84a96.84,96.84,0,0,1,16.34,3.42l4.89-16.42a125.68,125.68,0,0,1,17.5,6.74l-8.4,17.47"/><path class="cls-1" d="M337.92,154h18.19V136.87h4.37c1.48,0,3.1.07,4.64.1.78,0,1.56,0,2.34.07l2.34.18c1.56.14,3.12.19,4.67.42l-2.16,19.26"/><path class="cls-1" d="M433.91,184.64a97.15,97.15,0,0,1,10.67,12.85l14-9.85a119.94,119.94,0,0,1,9.54,16.13l-17.42,8.51"/><path class="cls-1" d="M406.43,164.64a97.45,97.45,0,0,1,14.28,8.65l10-13.89A121.42,121.42,0,0,1,445,171.51l-13.67,13.74"/><path class="cls-1" d="M373.91,154.84a96.84,96.84,0,0,1,16.34,3.42l4.89-16.42a125.68,125.68,0,0,1,17.5,6.74l-8.4,17.47"/><path class="cls-1" d="M453.34,212.52a97.94,97.94,0,0,1,5.84,15.63l16.48-4.66a112.64,112.64,0,0,1,3.67,18.38l-19.25,2.27"/><path class="cls-1" d="M433.91,184.64a97.15,97.15,0,0,1,10.67,12.85l14-9.85a119.94,119.94,0,0,1,9.54,16.13l-17.42,8.51"/><path class="cls-1" d="M406.43,164.64a97.45,97.45,0,0,1,14.28,8.65l10-13.89A121.42,121.42,0,0,1,445,171.51l-13.67,13.74"/><path class="cls-1" d="M462.49,245.23a112.46,112.46,0,0,1,.39,16.72l17.1,1a121,121,0,0,1-2.55,18.56l-18.94-4.13"/><path class="cls-1" d="M453.34,212.52a97.94,97.94,0,0,1,5.84,15.63l16.48-4.66a112.64,112.64,0,0,1,3.67,18.38l-19.25,2.27"/><path class="cls-1" d="M433.91,184.64a97.15,97.15,0,0,1,10.67,12.85l14-9.85a119.94,119.94,0,0,1,9.54,16.13l-17.42,8.51"/><path class="cls-1" d="M460.39,279.17a99.32,99.32,0,0,1-5.09,15.89l15.82,6.57a125.39,125.39,0,0,1-8.52,16.69l-16.51-10.15"/><path class="cls-1" d="M462.49,245.23a112.46,112.46,0,0,1,.39,16.72l17.1,1a121,121,0,0,1-2.55,18.56l-18.94-4.13"/><path class="cls-1" d="M453.34,212.52a97.94,97.94,0,0,1,5.84,15.63l16.48-4.66a112.64,112.64,0,0,1,3.67,18.38l-19.25,2.27"/><path class="cls-1" d="M447.27,310.49a98.13,98.13,0,0,1-10.06,13.34L450,335.23a125.42,125.42,0,0,1-13.51,13l-12.28-15"/><path class="cls-1" d="M460.39,279.17a99.32,99.32,0,0,1-5.09,15.89l15.82,6.57a125.39,125.39,0,0,1-8.52,16.69l-16.51-10.15"/><path class="cls-1" d="M462.49,245.23a112.46,112.46,0,0,1,.39,16.72l17.1,1a121,121,0,0,1-2.55,18.56l-18.94-4.13"/><path class="cls-1" d="M424.56,335.79a97,97,0,0,1-13.86,9.31l8.35,15a124.9,124.9,0,0,1-17,7.84l-6.66-18.2"/><path class="cls-1" d="M447.27,310.49a98.13,98.13,0,0,1-10.06,13.34L450,335.23a125.42,125.42,0,0,1-13.51,13l-12.28-15"/><path class="cls-1" d="M460.39,279.17a99.32,99.32,0,0,1-5.09,15.89l15.82,6.57a125.39,125.39,0,0,1-8.52,16.69l-16.51-10.15"/><path class="cls-1" d="M394.84,352.25a95.61,95.61,0,0,1-16.15,4.2l2.94,16.88A115.52,115.52,0,0,1,363,375.08l-.31-19.37"/><path class="cls-1" d="M424.56,335.79a97,97,0,0,1-13.86,9.31l8.35,15a124.9,124.9,0,0,1-17,7.84l-6.66-18.2"/><path class="cls-1" d="M447.27,310.49a98.13,98.13,0,0,1-10.06,13.34L450,335.23a125.42,125.42,0,0,1-13.51,13l-12.28-15"/><polyline class="cls-1" points="361.35 357.99 343.18 358 343.18 375.13 325.7 375.13 325.7 355.75"/><path class="cls-1" d="M394.84,352.25a95.61,95.61,0,0,1-16.15,4.2l2.94,16.88A115.52,115.52,0,0,1,363,375.08l-.31-19.37"/><path class="cls-1" d="M424.56,335.79a97,97,0,0,1-13.86,9.31l8.35,15a124.9,124.9,0,0,1-17,7.84l-6.66-18.2"/><rect class="cls-2" x="454.15" y="224.93" width="35.8" height="40.57"/><text class="cls-3" transform="translate(461.69 256.34)">N</text><rect class="cls-2" x="22.05" y="224.93" width="35.8" height="40.57"/><text class="cls-4" transform="translate(29.59 256.34)">N</text><rect class="cls-5" width="512" height="512"/></g></g></svg>