<svg xmlns="http://www.w3.org/2000/svg" viewBox="0 0 512 512"><defs><style>.cls-1{fill:#231f20;}.cls-2{fill:#999;stroke:#000;stroke-miterlimit:10;stroke-width:5px;}.cls-3{font-size:33.8px;font-family:New-Gulim, New Gulim;letter-spacing:-0.06em;}.cls-4{fill:none;}</style></defs><g id="Layer_2" data-name="Layer 2"><g id="G_G_SAE---_X" data-name="G*G*SAE---****X"><path class="cls-1" d="M491.33,272.11q-5.55.93-11,1.31c-3.67.23-7.37.28-11,.16.31-1,.68-2,1-2.95l.7-3,.36-1.49c.11-.5.14-1,.22-1.51l.43-3a107,107,0,0,1,9.82,4.69c1.61.87,3.26,1.81,4.82,2.77s3.09,2,4.62,3m13.91,3.06c-1.45-1.14-2.91-2.23-4.38-3.29s-3-2.08-4.57-3.06q-4.62-2.94-9.34-5.34a95.35,95.35,0,0,0-9.71-4.28,102.38,102.38,0,0,0-9.84-3.2,52.8,52.8,0,0,1-4.68,21q5.11.73,10.44,1c3.54.21,7,.21,10.55.08s7.2-.42,10.77-.91S501.62,276,505.24,275.17Z"/><path class="cls-1" d="M478.57,301.39a158.49,158.49,0,0,1-21.14-6.15c1.28-1.8,2.65-3.56,3.88-5.38L463,287.1l.87-1.38c.29-.46.5-1,.76-1.42,1.26,1.3,2.54,2.66,3.73,4s2.35,2.75,3.5,4.17q3.45,4.27,6.67,8.9m11.85,7.91q-2.94-4.71-6.11-9.07c-2.12-2.91-4.27-5.7-6.63-8.44s-4.74-5.32-7.21-7.79c-1.24-1.23-2.45-2.42-3.77-3.6s-2.64-2.32-4-3.43a75.21,75.21,0,0,1-13,19.72,175,175,0,0,0,19.72,7.58A163.6,163.6,0,0,0,490.42,309.3Z"/><path class="cls-1" d="M457.77,324.89q-10-5.16-19.13-11l5.36-4.51,5.05-4.74a220,220,0,0,1,8.72,20.27m9.45,10.65c-2.32-6.93-4.93-13.64-7.8-20.08a192.94,192.94,0,0,0-9.74-18.77,121.18,121.18,0,0,1-19.21,17.11c5.67,4.05,11.6,7.94,17.75,11.61S460.64,332.39,467.22,335.54Z"/><path class="cls-1" d="M432.78,343.17c-5.86-4.45-11.59-9.23-17.07-14.06,2.09-1.2,4.22-2.34,6.23-3.65l3.05-1.9,1.53-.95,1.47-1q.7,2.67,1.37,5.36c.42,1.77.83,3.56,1.22,5.35q1.19,5.37,2.2,10.86m7.43,12.15q-.85-5.35-1.88-10.62c-.67-3.5-1.41-7-2.24-10.47-1.65-7-3.48-13.74-5.62-20.43a182.79,182.79,0,0,1-23,14.07c2.55,2.43,5.16,4.85,7.8,7.23s5.3,4.66,8,6.95C428.75,346.62,434.41,351.13,440.21,355.32Z"/><path class="cls-1" d="M405.55,357.4q-7.87-7.92-15.19-16.1l6.76-2.87,6.63-3.09c.8,7.26,1.4,14.64,1.8,22.06m5.77,13a368.17,368.17,0,0,0-3.84-42.55c-4,2.15-8.21,4.05-12.39,6l-6.38,2.71c-2.12.92-4.33,1.69-6.48,2.54,4.52,5.38,9.25,10.79,14.08,16S406.15,365.38,411.32,370.42Z"/><path class="cls-1" d="M377,368.27q-7-8.7-13.47-17.55l7.08-2.2c2.36-.73,4.67-1.6,7-2.39,0,7.32-.23,14.77-.62,22.14m4.38,13.55c.49-7.13.79-14.35.94-21.44q.12-5.34.12-10.62c0-3.57-.07-7.12-.17-10.65a279.81,279.81,0,0,1-26.69,8.65c4,5.78,8.2,11.6,12.48,17.25S376.75,376.26,381.34,381.82Z"/><path class="cls-1" d="M347.54,376.33q-6.17-9.3-11.89-18.69l7.3-1.56,7.24-1.75c-.73,7.29-1.61,14.65-2.65,22m3.16,13.88c1.09-7.1,2-14.21,2.86-21.26.4-3.54.78-7.05,1.11-10.58s.61-7.09.87-10.61l-3.4.94-3.43.84-6.87,1.67c-4.63,1-9.22,2-13.9,2.82C335,366.36,342.58,378.29,350.7,390.21Z"/><path class="cls-1" d="M317.61,381.85c-3.59-6.42-7.07-13-10.4-19.56,5-.56,9.89-1.38,14.82-2.12q-2,10.8-4.42,21.68m2,14.09q2.46-10.5,4.54-20.93c1.39-6.95,2.63-14,3.75-21-9.29,1.79-18.72,3-28.16,4.1,3.08,6.42,6.26,12.68,9.57,19S316.1,389.77,319.65,395.94Z"/><path class="cls-1" d="M287.37,385.06c-3.11-6.74-6.09-13.41-8.94-20.23,2.5-.1,5-.32,7.49-.48s5-.31,7.48-.58c-1.88,7.17-3.89,14.2-6,21.29m1,14.21c4.29-13.6,8.09-27.44,11.41-41.14-4.73.44-9.46,1-14.21,1.24-2.38.15-4.75.35-7.13.46l-7.14.29q3.92,9.86,8.18,19.68C282.33,386.35,285.29,392.78,288.37,399.27Z"/><path class="cls-1" d="M257,386.16q-3.94-10.44-7.51-20.86l7.51.1,7.51-.1q-3.57,10.43-7.51,20.86m0,14.24q3.92-10,7.5-20.1c2.38-6.69,4.65-13.39,6.8-20.18-2.38.13-4.76.16-7.15.18l-7.15.1-7.15-.1c-2.39,0-4.77-.05-7.15-.18,2.15,6.79,4.42,13.49,6.8,20.18S254.39,393.7,257,400.4Z"/><path class="cls-1" d="M226.63,385.06c-2.14-7.09-4.15-14.12-6-21.29,2.49.27,5,.41,7.48.58s5,.38,7.49.48c-2.85,6.82-5.83,13.49-8.94,20.23m-1,14.21c3.08-6.49,6-12.92,8.89-19.47s5.57-13.11,8.18-19.68l-7.14-.29c-2.38-.11-4.75-.31-7.13-.46-4.75-.27-9.48-.8-14.21-1.24C217.54,371.83,221.34,385.67,225.63,399.27Z"/><path class="cls-1" d="M196.39,381.85Q194,371,192,360.17c4.93.74,9.85,1.56,14.82,2.12-3.33,6.54-6.81,13.14-10.4,19.56m-2,14.09c3.55-6.17,7-12.51,10.3-18.8s6.49-12.59,9.57-19c-9.44-1.07-18.87-2.31-28.16-4.1,1.12,7,2.36,14,3.75,21S192.71,388.94,194.35,395.94Z"/><path class="cls-1" d="M166.46,376.33c-1-7.35-1.92-14.71-2.65-22l7.24,1.75,7.3,1.56q-5.73,9.39-11.89,18.69m-3.16,13.88c8.12-11.92,15.67-23.85,22.76-36.18-4.68-.78-9.27-1.86-13.9-2.82l-6.87-1.67-3.43-.84-3.4-.94q.39,5.28.87,10.61c.33,3.53.71,7,1.11,10.58C161.26,376,162.21,383.11,163.3,390.21Z"/><path class="cls-1" d="M137,368.27c-.39-7.37-.58-14.82-.62-22.14,2.34.79,4.65,1.66,7,2.39l7.08,2.2Q144,359.57,137,368.27m-4.38,13.55Q139.55,373.48,146,365c4.28-5.65,8.46-11.47,12.48-17.25a279.81,279.81,0,0,1-26.69-8.65c-.1,3.53-.15,7.08-.17,10.65s0,7.06.12,10.62C131.87,367.47,132.17,374.69,132.66,381.82Z"/><path class="cls-1" d="M108.45,357.4c.4-7.42,1-14.8,1.8-22.06l6.63,3.09,6.76,2.87q-7.32,8.16-15.19,16.1m-5.77,13q7.75-7.56,15-15.35c4.83-5.17,9.56-10.58,14.08-16-2.15-.85-4.36-1.62-6.48-2.54l-6.38-2.71c-4.18-1.94-8.37-3.84-12.39-6A368.17,368.17,0,0,0,102.68,370.42Z"/><path class="cls-1" d="M81.22,343.17q1-5.49,2.2-10.86c.39-1.79.8-3.58,1.22-5.35s.9-3.58,1.37-5.36l1.47,1,1.53.95,3,1.9c2,1.31,4.14,2.45,6.23,3.65-5.48,4.83-11.21,9.61-17.07,14.06m-7.43,12.15c5.8-4.19,11.46-8.7,16.91-13.27q4.08-3.44,8-6.95c2.64-2.38,5.25-4.8,7.8-7.23a182.79,182.79,0,0,1-23-14.07c-2.14,6.69-4,13.46-5.62,20.43-.83,3.5-1.57,7-2.24,10.47S74.36,351.75,73.79,355.32Z"/><path class="cls-1" d="M56.23,324.89A220,220,0,0,1,65,304.62l5,4.74,5.36,4.51q-9.15,5.86-19.13,11m-9.45,10.65q9.87-4.73,19-10.13c6.15-3.67,12.08-7.56,17.75-11.61a121.18,121.18,0,0,1-19.21-17.11,191.8,191.8,0,0,0-9.74,18.77C51.71,321.9,49.1,328.61,46.78,335.54Z"/><path class="cls-1" d="M35.43,301.39q3.21-4.63,6.67-8.9,1.73-2.13,3.5-4.17c1.19-1.36,2.47-2.72,3.73-4,.26.47.47,1,.76,1.42L51,287.1l1.73,2.76c1.23,1.82,2.6,3.58,3.88,5.38a158.49,158.49,0,0,1-21.14,6.15M23.58,309.3a163.6,163.6,0,0,0,21-5,175,175,0,0,0,19.72-7.58,75.21,75.21,0,0,1-13-19.72q-2,1.66-4,3.43c-1.32,1.18-2.53,2.37-3.77,3.6q-3.7,3.71-7.21,7.79c-2.36,2.74-4.51,5.53-6.63,8.44S25.54,306.16,23.58,309.3Z"/><path class="cls-1" d="M22.67,272.11q2.29-1.59,4.62-3c1.56-1,3.21-1.9,4.82-2.77a107,107,0,0,1,9.82-4.69l.43,3c.08.5.11,1,.22,1.51l.36,1.49.7,3c.28,1,.65,2,1,2.95-3.59.12-7.29.07-11-.16s-7.27-.69-11-1.31M8.76,275.17q5.43,1.26,10.76,2c3.57.49,7.23.76,10.77.91s7,.13,10.55-.08,7-.55,10.44-1a52.8,52.8,0,0,1-4.68-21,102.38,102.38,0,0,0-9.84,3.2,95.35,95.35,0,0,0-9.71,4.28q-4.71,2.4-9.34,5.34c-1.53,1-3.11,2-4.57,3.06S10.21,274,8.76,275.17Z"/><path class="cls-1" d="M22.67,239.89q5.55-.93,11-1.31c3.67-.23,7.37-.28,11-.16-.31,1-.68,2-1,3l-.7,3-.36,1.49c-.11.5-.14,1-.22,1.51l-.43,3a107,107,0,0,1-9.82-4.69c-1.61-.87-3.26-1.81-4.82-2.77s-3.09-2-4.62-3M8.76,236.83c1.45,1.14,2.91,2.23,4.38,3.29s3,2.08,4.57,3.06q4.62,2.94,9.34,5.34a95.35,95.35,0,0,0,9.71,4.28A102.38,102.38,0,0,0,46.6,256a52.8,52.8,0,0,1,4.68-21q-5.12-.74-10.44-1c-3.54-.21-7-.21-10.55-.08s-7.2.42-10.77.91S12.38,236,8.76,236.83Z"/><path class="cls-1" d="M35.43,210.61a158.49,158.49,0,0,1,21.14,6.15c-1.28,1.8-2.65,3.56-3.88,5.38L51,224.9l-.87,1.38c-.29.46-.5.95-.76,1.42-1.26-1.3-2.54-2.66-3.73-4s-2.35-2.75-3.5-4.17q-3.45-4.27-6.67-8.9M23.58,202.7q2.94,4.71,6.11,9.07c2.12,2.91,4.27,5.7,6.63,8.44s4.74,5.32,7.21,7.79c1.24,1.23,2.45,2.42,3.77,3.6s2.64,2.32,4,3.43a75.21,75.21,0,0,1,13-19.72,175,175,0,0,0-19.72-7.58A163.6,163.6,0,0,0,23.58,202.7Z"/><path class="cls-1" d="M56.23,187.11q10,5.16,19.13,11L70,202.64l-5,4.74a220,220,0,0,1-8.72-20.27m-9.45-10.65c2.32,6.93,4.93,13.64,7.8,20.08a192.94,192.94,0,0,0,9.74,18.77A121.18,121.18,0,0,1,83.53,198.2c-5.67-4-11.6-7.94-17.75-11.61S53.36,179.61,46.78,176.46Z"/><path class="cls-1" d="M81.22,168.83c5.86,4.45,11.59,9.23,17.07,14.06-2.09,1.2-4.22,2.34-6.23,3.65l-3,1.9-1.53.95-1.47,1q-.7-2.67-1.37-5.36c-.42-1.77-.83-3.56-1.22-5.35q-1.19-5.37-2.2-10.86m-7.43-12.15q.85,5.35,1.88,10.62c.67,3.5,1.41,7,2.24,10.47,1.65,7,3.48,13.74,5.62,20.43a182.79,182.79,0,0,1,23-14.07c-2.55-2.43-5.16-4.85-7.8-7.23s-5.3-4.66-8-7C85.25,165.38,79.59,160.87,73.79,156.68Z"/><path class="cls-1" d="M108.45,154.6q7.88,7.92,15.19,16.1l-6.76,2.87-6.63,3.09c-.8-7.26-1.4-14.64-1.8-22.06m-5.77-13a368.17,368.17,0,0,0,3.84,42.55c4-2.15,8.21-4,12.39-6l6.38-2.71c2.12-.92,4.33-1.69,6.48-2.54-4.52-5.38-9.25-10.79-14.08-16S107.85,146.62,102.68,141.58Z"/><path class="cls-1" d="M137,143.73q7,8.7,13.47,17.55l-7.08,2.2c-2.36.73-4.67,1.6-7,2.39,0-7.32.23-14.77.62-22.14m-4.38-13.55c-.49,7.13-.79,14.35-.94,21.44q-.12,5.34-.12,10.62c0,3.57.07,7.12.17,10.65a279.81,279.81,0,0,1,26.69-8.65c-4-5.78-8.2-11.6-12.48-17.25S137.25,135.74,132.66,130.18Z"/><path class="cls-1" d="M166.46,135.67q6.16,9.3,11.89,18.69l-7.3,1.56-7.24,1.75c.73-7.29,1.61-14.65,2.65-22m-3.16-13.88c-1.09,7.1-2,14.21-2.86,21.26-.4,3.54-.78,7-1.11,10.58s-.61,7.09-.87,10.61l3.4-.94,3.43-.84,6.87-1.67c4.63-1,9.22-2,13.9-2.82C179,145.64,171.42,133.71,163.3,121.79Z"/><path class="cls-1" d="M196.39,130.15c3.59,6.42,7.07,13,10.4,19.56-5,.56-9.89,1.38-14.82,2.12q2-10.8,4.42-21.68m-2-14.09q-2.46,10.5-4.54,20.93c-1.39,6.95-2.63,14-3.75,21,9.29-1.79,18.72-3,28.16-4.1-3.08-6.42-6.26-12.68-9.57-19S197.9,122.23,194.35,116.06Z"/><path class="cls-1" d="M226.63,126.94c3.11,6.74,6.09,13.41,8.94,20.23-2.5.1-5,.32-7.49.48s-5,.31-7.48.58c1.88-7.17,3.89-14.2,6-21.29m-1-14.21c-4.29,13.6-8.09,27.44-11.41,41.14,4.73-.44,9.46-1,14.21-1.24,2.38-.15,4.75-.35,7.13-.46l7.14-.29q-3.91-9.85-8.18-19.68C231.67,125.65,228.71,119.22,225.63,112.73Z"/><path class="cls-1" d="M257,125.84q3.94,10.44,7.51,20.86l-7.51-.1-7.51.1q3.57-10.42,7.51-20.86m0-14.24q-3.92,10.05-7.5,20.1c-2.38,6.69-4.65,13.39-6.8,20.18,2.38-.13,4.76-.16,7.15-.18l7.15-.1,7.15.1c2.39,0,4.77.05,7.15.18-2.15-6.79-4.42-13.49-6.8-20.18S259.61,118.3,257,111.6Z"/><path class="cls-1" d="M287.37,126.94c2.14,7.09,4.15,14.12,6,21.29-2.49-.27-5-.41-7.48-.58s-5-.38-7.49-.48c2.85-6.82,5.83-13.49,8.94-20.23m1-14.21c-3.08,6.49-6,12.92-8.89,19.47s-5.57,13.11-8.18,19.68l7.14.29c2.38.11,4.75.31,7.13.46,4.75.27,9.48.8,14.21,1.24C296.46,140.17,292.66,126.33,288.37,112.73Z"/><path class="cls-1" d="M317.61,130.15Q320,141,322,151.83c-4.93-.74-9.85-1.56-14.82-2.12,3.33-6.54,6.81-13.14,10.4-19.56m2-14.09c-3.55,6.17-7,12.51-10.3,18.8s-6.49,12.59-9.57,19c9.44,1.07,18.87,2.31,28.16,4.1-1.12-7-2.36-14-3.75-21S321.29,123.06,319.65,116.06Z"/><path class="cls-1" d="M347.54,135.67c1,7.35,1.92,14.71,2.65,22L343,155.92l-7.3-1.56q5.73-9.39,11.89-18.69m3.16-13.88C342.58,133.71,335,145.64,327.94,158c4.68.78,9.27,1.86,13.9,2.82l6.87,1.67,3.43.84,3.4.94q-.39-5.28-.87-10.61c-.33-3.53-.71-7-1.11-10.58C352.74,136,351.79,128.89,350.7,121.79Z"/><path class="cls-1" d="M377,143.73c.39,7.37.58,14.82.62,22.14-2.34-.79-4.65-1.66-7-2.39l-7.08-2.2q6.5-8.85,13.47-17.55m4.38-13.55Q374.46,138.52,368,147c-4.28,5.65-8.46,11.47-12.48,17.25a279.81,279.81,0,0,1,26.69,8.65c.1-3.53.15-7.08.17-10.65s0-7.06-.12-10.62C382.13,144.53,381.83,137.31,381.34,130.18Z"/><path class="cls-1" d="M405.55,154.6c-.4,7.42-1,14.8-1.8,22.06l-6.63-3.09-6.76-2.87q7.32-8.16,15.19-16.1m5.77-13q-7.76,7.56-15,15.35c-4.83,5.17-9.56,10.58-14.08,16,2.15.85,4.36,1.62,6.48,2.54l6.38,2.71c4.18,1.94,8.37,3.84,12.39,6A368.17,368.17,0,0,0,411.32,141.58Z"/><path class="cls-1" d="M432.78,168.83q-1,5.49-2.2,10.86c-.39,1.79-.8,3.58-1.22,5.35s-.9,3.58-1.37,5.36l-1.47-1-1.53-.95-3.05-1.9c-2-1.31-4.14-2.45-6.23-3.65,5.48-4.83,11.21-9.61,17.07-14.06m7.43-12.15c-5.8,4.19-11.46,8.7-16.91,13.27q-4.08,3.44-8,7c-2.64,2.38-5.25,4.8-7.8,7.23a182.79,182.79,0,0,1,23,14.07c2.14-6.69,4-13.46,5.62-20.43.83-3.5,1.57-7,2.24-10.47S439.64,160.25,440.21,156.68Z"/><path class="cls-1" d="M457.77,187.11a220,220,0,0,1-8.72,20.27L444,202.64l-5.36-4.51q9.15-5.87,19.13-11m9.45-10.65q-9.87,4.72-19,10.13c-6.15,3.67-12.08,7.56-17.75,11.61a121.18,121.18,0,0,1,19.21,17.11,191.8,191.8,0,0,0,9.74-18.77C462.29,190.1,464.9,183.39,467.22,176.46Z"/><path class="cls-1" d="M478.57,210.61q-3.21,4.63-6.67,8.9-1.72,2.13-3.5,4.17c-1.19,1.36-2.47,2.72-3.73,4-.26-.47-.47-1-.76-1.42L463,224.9l-1.73-2.76c-1.23-1.82-2.6-3.58-3.88-5.38a158.49,158.49,0,0,1,21.14-6.15m11.85-7.91a163.6,163.6,0,0,0-21,5,175,175,0,0,0-19.72,7.58,75.21,75.21,0,0,1,13,19.72q2-1.67,4-3.43c1.32-1.18,2.53-2.37,3.77-3.6q3.7-3.7,7.21-7.79c2.36-2.74,4.51-5.53,6.63-8.44S488.46,205.84,490.42,202.7Z"/><path class="cls-1" d="M491.33,239.89q-2.29,1.59-4.62,3c-1.56,1-3.21,1.9-4.82,2.77a107,107,0,0,1-9.82,4.69l-.43-3c-.08-.5-.11-1-.22-1.51l-.36-1.49-.7-3c-.28-1-.65-2-1-3,3.59-.12,7.29-.07,11,.16s7.27.69,11,1.31m13.91-3.06q-5.43-1.26-10.76-2c-3.57-.49-7.23-.76-10.77-.91s-7-.13-10.55.08-7,.55-10.44,1a52.8,52.8,0,0,1,4.68,21,102.38,102.38,0,0,0,9.84-3.2,95.35,95.35,0,0,0,9.71-4.28q4.71-2.4,9.34-5.34c1.53-1,3.11-2,4.57-3.06S503.79,238,505.24,236.83Z"/><rect class="cls-2" x="443.81" y="234.18" width="38.51" height="43.64"/><text class="cls-3" transform="translate(451.92 267.97)">N</text><rect class="cls-2" x="26.6" y="234.18" width="38.51" height="43.64"/><text class="cls-3" transform="translate(34.71 267.97)">N</text><rect class="cls-4" width="512" height="512"/></g></g></svg>