<svg xmlns="http://www.w3.org/2000/svg" viewBox="0 0 512 512"><defs><style>.cls-1,.cls-8{fill:none;}.cls-1{stroke:#231f20;stroke-width:5px;}.cls-1,.cls-5{stroke-miterlimit:10;}.cls-2{font-size:25.73px;}.cls-2,.cls-3,.cls-4,.cls-6,.cls-7{font-family:Gulim;}.cls-3{font-size:34.44px;}.cls-4{font-size:36.17px;}.cls-5{fill:#999;stroke:#000;stroke-width:4px;}.cls-6{font-size:34.21px;}.cls-7{font-size:36.17px;}</style></defs><g id="Layer_2" data-name="Layer 2"><g id="G_G_SLB---_X" data-name="G*G*SLB---****X"><polyline class="cls-1" points="355.65 118.61 388.88 125.63 425.59 155.61 448.93 189.7 449.83 290.54 421.15 367.11 360.53 404.28 293.56 412.34 197.87 392.11"/><text class="cls-2" transform="translate(290.16 117) rotate(11.94)">PT.N</text><path d="M317.16,86.84a21.93,21.93,0,0,1,1.21,7.2,24.61,24.61,0,0,1-1.06,7.55,17.32,17.32,0,0,1-3.74,6.55,1.4,1.4,0,0,1-.87.44,1,1,0,0,1-.77-.25,1,1,0,0,1-.37-.67,1.07,1.07,0,0,1,.33-.83,17.73,17.73,0,0,0,3.44-5.9,20.73,20.73,0,0,0,1-6.88,19.36,19.36,0,0,0-1.17-6.8,24.92,24.92,0,0,0-3.44-6.11.91.91,0,0,1-.21-.77.85.85,0,0,1,.43-.55,1.26,1.26,0,0,1,.74-.16,1,1,0,0,1,.73.4A24.25,24.25,0,0,1,317.16,86.84Z"/><text class="cls-3" transform="translate(119.7 55.4) rotate(-0.27)">BRIDGEHEAD LINE</text><text class="cls-4" transform="translate(226.47 101.73) rotate(-2.74)">PL</text><path d="M222.69,78a1.36,1.36,0,0,1,.75.12.85.85,0,0,1,.46.53,1,1,0,0,1-.13.77,24.61,24.61,0,0,0-3.15,6.29,20.2,20.2,0,0,0-.77,6.86,21.18,21.18,0,0,0,1.33,6.81A17.32,17.32,0,0,0,225,105.1a1.1,1.1,0,0,1,.34.81,1,1,0,0,1-.33.7,1.12,1.12,0,0,1-.76.28,1.29,1.29,0,0,1-.86-.39,17.05,17.05,0,0,1-4.11-6.34,25.11,25.11,0,0,1-1.43-7.49,22.33,22.33,0,0,1,.79-7.25,24.32,24.32,0,0,1,3.41-7A1,1,0,0,1,222.69,78Z"/><rect class="cls-5" x="273.08" y="66" width="34.1" height="42.21" transform="translate(-3.83 13.96) rotate(-2.74)"/><text class="cls-6" transform="translate(279.62 100.63) rotate(-2.74) scale(1.12 1)">T</text><text class="cls-7" transform="translate(121.68 443.44) rotate(17.34)">PL</text><path d="M126.25,419.93a1.31,1.31,0,0,1,.65.36.85.85,0,0,1,.25.66.92.92,0,0,1-.39.68,24.43,24.43,0,0,0-5.11,4.83,19.93,19.93,0,0,0-3.08,6.17,21.5,21.5,0,0,0-1.09,6.85,17.47,17.47,0,0,0,1.59,6.67,1.08,1.08,0,0,1,0,.88,1,1,0,0,1-.55.53,1.08,1.08,0,0,1-.81,0,1.3,1.3,0,0,1-.67-.66,17.14,17.14,0,0,1-1.68-7.37,24.94,24.94,0,0,1,1.22-7.52,22.22,22.22,0,0,1,3.24-6.54,23.84,23.84,0,0,1,5.6-5.38A.9.9,0,0,1,126.25,419.93Z"/><path d="M232.34,457.13a21.53,21.53,0,0,1-.35,7.29,24.33,24.33,0,0,1-2.64,7.15,17.3,17.3,0,0,1-5,5.61,1.4,1.4,0,0,1-.94.24,1,1,0,0,1-.7-.4,1,1,0,0,1-.22-.74,1,1,0,0,1,.5-.74,17.7,17.7,0,0,0,4.62-5A21,21,0,0,0,230,464a19.59,19.59,0,0,0,.3-6.9,24.86,24.86,0,0,0-2.07-6.7.89.89,0,0,1,0-.79.8.8,0,0,1,.54-.45,1.2,1.2,0,0,1,.75,0,1,1,0,0,1,.64.54A24.5,24.5,0,0,1,232.34,457.13Z"/><rect class="cls-5" x="169.41" y="430.52" width="34.1" height="42.21" transform="translate(143.1 -35.05) rotate(17.34)"/><text class="cls-6" transform="translate(171.97 460.65) rotate(17.34) scale(1.12 1)">T</text><text class="cls-3" transform="matrix(0.97, 0.24, -0.24, 0.97, 28.76, 379.8)">BRIDGEHEAD LINE</text><rect class="cls-8" width="512" height="512"/></g></g></svg>