<?xml version="1.0" encoding="UTF-8"?><svg xmlns="http://www.w3.org/2000/svg" viewBox="0 0 512 512"><defs><style>.d,.e,.f{fill:none;}.d,.f,.g{stroke:#000;stroke-miterlimit:10;}.d,.g{stroke-width:5px;}.f{stroke-width:7px;}.h{font-family:New-Gulim, New Gulim;font-size:33.8px;letter-spacing:-.06em;}.g{fill:#fff;}</style></defs><g id="a"/><g id="b"><g id="c"><g><polygon class="f" points="38.96 134.76 70.22 113.39 190.81 101.6 289.07 111.92 439.44 111.92 470.7 124.45 482.05 158.35 472.19 365.44 449.86 397.87 401.47 410.4 260.51 397.87 82.13 410.4 38.96 399.35 24.25 377.24 28.54 167.19 38.96 134.76"/><g><g><path d="M235.1,218.91c.22-.19,.48-.29,.79-.29,.29,0,.54,.1,.76,.29,.24,.22,.36,.52,.36,.9v22.35c0,.43,.12,.79,.36,1.08,.29,.34,.7,.5,1.23,.5h11.1c.36,0,.65,.1,.87,.29,.19,.19,.29,.43,.29,.72,0,.27-.1,.49-.29,.69-.22,.22-.5,.32-.87,.32h-11.5c-1.11,0-1.97-.36-2.6-1.08-.55-.65-.83-1.44-.83-2.38v-22.5c0-.38,.11-.69,.32-.9Z"/><path d="M256.42,220.93c-.17-.19-.25-.42-.25-.68,0-.29,.08-.53,.25-.72,.19-.19,.47-.29,.83-.29h15.72c.82,0,1.33,.24,1.55,.72,.24,.46,.14,.96-.29,1.51l-16.55,22.28h15.47c.34,0,.62,.1,.87,.29,.19,.19,.29,.43,.29,.72,0,.27-.1,.49-.29,.69-.22,.22-.5,.32-.87,.32h-16.73c-.79,0-1.27-.31-1.44-.94-.17-.6,0-1.23,.5-1.88l16.08-21.7h-14.31c-.34,0-.61-.11-.83-.32Z"/><path d="M262.92,266.6c.22,.19,.32,.43,.32,.72,0,.26-.11,.49-.32,.69-.22,.22-.5,.32-.87,.32h-7.32v24.01c0,.34-.12,.61-.36,.83-.22,.19-.47,.29-.76,.29-.31,0-.58-.1-.79-.29-.22-.22-.32-.49-.32-.83v-24.01h-7.64c-.58,0-.87-.34-.87-1.01s.29-1.01,.87-1.01h17.2c.36,0,.65,.1,.87,.29Z"/></g><rect class="d" x="237.03" y="260.16" width="33.84" height="39"/></g><g><rect class="g" x="460.35" y="233.18" width="38.51" height="43.64"/><text class="h" transform="translate(468.45 266.97)"><tspan x="0" y="0">N</tspan></text></g><g><rect class="g" x="13.15" y="244.03" width="38.51" height="43.64"/><text class="h" transform="translate(21.25 277.81)"><tspan x="0" y="0">N</tspan></text></g></g><rect class="e" width="512" height="512"/></g></g></svg>