<svg xmlns="http://www.w3.org/2000/svg" viewBox="0 0 512 512"><defs><style>.cls-1,.cls-2,.cls-3,.cls-6,.cls-7{fill:none;}.cls-1,.cls-2,.cls-3{stroke:lime;stroke-width:7px;}.cls-1,.cls-2,.cls-3,.cls-4,.cls-6{stroke-miterlimit:10;}.cls-2{stroke-dasharray:6.82 11.7;}.cls-3{stroke-dasharray:6.9 11.83;}.cls-4{fill:#999;stroke:#000;}.cls-4,.cls-6{stroke-width:5px;}.cls-5{font-size:29.44px;font-family:New-Gulim, New Gulim;letter-spacing:-0.06em;}.cls-6{stroke:#231f20;}</style></defs><g id="Layer_2" data-name="Layer 2"><g id="G_G_PC----_X" data-name="G*G*PC----****X"><polygon class="cls-1" points="101.12 227.35 153.12 249.75 187.52 223.35 202.72 208.15 286.72 186.55 397.92 227.35 441.92 270.55 465.92 308.95 487.52 367.35 481.12 402.55 409.92 422.55 313.92 422.55 221.92 369.75 169.12 371.35 101.12 392.15 59.52 392.95 37.92 359.35 27.52 314.55 60.32 246.55 69.92 238.55 101.12 227.35"/><line class="cls-1" x1="103.43" y1="191.15" x2="106.32" y2="189.17"/><line class="cls-2" x1="115.96" y1="182.56" x2="248.61" y2="91.63"/><polyline class="cls-1" points="253.43 88.33 256.32 86.35 259.22 88.31"/><line class="cls-3" x1="269.02" y1="94.92" x2="403.81" y2="185.88"/><line class="cls-1" x1="408.72" y1="189.19" x2="411.62" y2="191.15"/><rect class="cls-4" x="467.23" y="325.95" width="34.5" height="38"/><text class="cls-5" transform="translate(475.47 355.37) scale(0.93 1)">N</text><rect class="cls-4" x="10.28" y="290.75" width="34.5" height="38"/><text class="cls-5" transform="translate(18.52 320.17) scale(0.93 1)">N</text><rect class="cls-4" x="240.28" y="157.95" width="34.5" height="38"/><text class="cls-5" transform="translate(248.09 187.37) scale(0.93 1)">H</text><rect class="cls-4" x="240.28" y="387.65" width="34.5" height="38"/><text class="cls-5" transform="translate(248.09 417.07) scale(0.93 1)">H</text><rect class="cls-6" x="246.06" y="300.67" width="9.08" height="9.08"/><rect class="cls-6" x="255.72" y="300.67" width="9.08" height="9.08"/><rect class="cls-6" x="265.39" y="300.67" width="9.08" height="9.08"/><rect class="cls-7" width="512" height="512"/></g></g></svg>