<svg xmlns="http://www.w3.org/2000/svg" viewBox="0 0 512 512"><defs><style>.cls-1,.cls-2,.cls-5{fill:none;}.cls-1,.cls-2,.cls-3{stroke:#000;stroke-miterlimit:10;}.cls-1{stroke-width:7px;}.cls-2,.cls-3{stroke-width:5px;}.cls-3{fill:#999;}.cls-4{font-size:33.8px;font-family:New-Gulim, New Gulim;letter-spacing:-0.06em;}</style></defs><g id="Layer_2" data-name="Layer 2"><g id="G_G_GAE---_X" data-name="G*G*GAE---****X"><polygon class="cls-1" points="38.96 134.76 70.22 113.39 190.81 101.6 289.07 111.92 439.44 111.92 470.7 124.45 482.05 158.35 472.19 365.44 449.86 397.87 401.47 410.4 260.5 397.87 82.13 410.4 38.96 399.35 24.25 377.24 28.54 167.19 38.96 134.76"/><path d="M229.51,229.15a1,1,0,0,1,.76-.21,1,1,0,0,1,.72.28,1,1,0,0,1,.36.8v13.23h6.23V229.91c0-.63.35-.94,1-.94s1.08.33,1.08,1v13.31h10.93a1.15,1.15,0,0,1,.79.25.87.87,0,0,1,0,1.3,1,1,0,0,1-.76.29h-28.3a.72.72,0,0,1-.61-.29.85.85,0,0,1-.18-.65,1.1,1.1,0,0,1,.29-.65,1.14,1.14,0,0,1,.79-.25h6.52V229.87A.86.86,0,0,1,229.51,229.15Zm18.21-9.88a3.37,3.37,0,0,1,1.11,2.67v8.11a16.9,16.9,0,0,1-.9,5.37,11.93,11.93,0,0,1-1.94,4,1,1,0,0,1-1.52,0,.94.94,0,0,1-.18-1.48,10.38,10.38,0,0,0,1.62-3.1,15.2,15.2,0,0,0,.76-4.87v-7.93a1.61,1.61,0,0,0-.61-1.37,2.49,2.49,0,0,0-1.59-.47H225c-.65,0-1-.31-1-.94s.32-.9,1-.9h19.76A4.58,4.58,0,0,1,247.72,219.27Z"/><path d="M276.15,219.42a.81.81,0,0,1-.9.93h-7.14v1.88a11.3,11.3,0,0,0,2.7,7.43,19,19,0,0,0,5.77,4.47,1.1,1.1,0,0,1,.58.68,1.05,1.05,0,0,1-.11.8,1.13,1.13,0,0,1-.65.5,1.26,1.26,0,0,1-1-.14,21.51,21.51,0,0,1-5.3-4A11.88,11.88,0,0,1,267,227a13.13,13.13,0,0,1-3.13,5.19,18.61,18.61,0,0,1-5.41,4.15,1.15,1.15,0,0,1-.87.07,1,1,0,0,1-.57-.47.85.85,0,0,1-.11-.72,1,1,0,0,1,.58-.65,17.41,17.41,0,0,0,5.84-4.69A12,12,0,0,0,266,222.3v-2h-7.14c-.67,0-1-.31-1-.93s.33-.9,1-.9h16.37A.8.8,0,0,1,276.15,219.42Zm-14.24,23.79a1.9,1.9,0,0,0,.36,1.34,2.2,2.2,0,0,0,1.4.32H283.1a.8.8,0,0,1,.91.9c0,.63-.3.94-.91.94H263.31a3.9,3.9,0,0,1-2.56-.79,3,3,0,0,1-1-2.42v-4.79a1.22,1.22,0,0,1,.33-.91,1,1,0,0,1,.75-.28,1,1,0,0,1,.72.28,1.17,1.17,0,0,1,.37.91Zm20.65-4.07a1,1,0,0,1-.72.29,1,1,0,0,1-.75-.29,1.18,1.18,0,0,1-.33-.87V227.89h-6a1.29,1.29,0,0,1-.87-.29.9.9,0,0,1-.32-.61.87.87,0,0,1,.25-.65,1,1,0,0,1,.76-.25h6.16v-7.65a.94.94,0,0,1,.33-.75,1.09,1.09,0,0,1,.75-.26,1,1,0,0,1,.72.26.81.81,0,0,1,.36.72v19.86A1.11,1.11,0,0,1,282.56,239.14Z"/><path d="M262.92,266.6a.91.91,0,0,1,.33.72.88.88,0,0,1-.33.68,1.14,1.14,0,0,1-.86.33h-7.32v24a1.07,1.07,0,0,1-.36.83,1.13,1.13,0,0,1-.76.29,1.15,1.15,0,0,1-.79-.29,1.12,1.12,0,0,1-.33-.83v-24h-7.64c-.58,0-.87-.34-.87-1s.29-1,.87-1h17.2A1.2,1.2,0,0,1,262.92,266.6Z"/><rect class="cls-2" x="237.03" y="260.16" width="33.84" height="39"/><rect class="cls-3" x="460.35" y="233.18" width="38.51" height="43.64"/><text class="cls-4" transform="translate(468.45 266.97)">N</text><rect class="cls-3" x="13.15" y="244.03" width="38.51" height="43.64"/><text class="cls-4" transform="translate(21.25 277.81)">N</text><rect class="cls-5" width="512" height="512"/></g></g></svg>