<?xml version="1.0" encoding="UTF-8"?><svg xmlns="http://www.w3.org/2000/svg" xmlns:xlink="http://www.w3.org/1999/xlink" viewBox="0 0 512 512"><defs><style>.e{stroke-width:4px;}.e,.f{stroke:#000;stroke-miterlimit:10;}.e,.f,.g{fill:none;}.f{stroke-width:10px;}.h{clip-path:url(#d);}</style><clipPath id="d"><rect class="g" x="221.85" y="-13.53" width="71.7" height="546.02" transform="translate(227.37 -104.96) rotate(40.05)"/></clipPath></defs><g id="a"/><g id="b"><g id="c"><g><line class="f" x1="403.56" y1="25.13" x2="52.1" y2="443.31"/><line class="f" x1="463.45" y1="75.46" x2="111.99" y2="493.65"/><g class="h"><g><g><line class="e" x1="59.99" y1="439" x2="61.15" y2="549.06"/><line class="e" x1="46.15" y1="455.47" x2="47.31" y2="565.53"/><line class="e" x1="73.83" y1="422.53" x2="74.99" y2="532.59"/><line class="e" x1="87.68" y1="406.06" x2="88.84" y2="516.12"/><line class="e" x1="101.52" y1="389.59" x2="102.68" y2="499.65"/><line class="e" x1="115.36" y1="373.11" x2="116.52" y2="483.18"/><line class="e" x1="129.21" y1="356.64" x2="130.37" y2="466.71"/><line class="e" x1="143.05" y1="340.17" x2="144.21" y2="450.23"/><line class="e" x1="156.89" y1="323.7" x2="158.05" y2="433.76"/><line class="e" x1="170.73" y1="307.23" x2="171.89" y2="417.29"/><line class="e" x1="184.58" y1="290.76" x2="185.74" y2="400.82"/><line class="e" x1="198.42" y1="274.29" x2="199.58" y2="384.35"/><line class="e" x1="212.26" y1="257.82" x2="213.42" y2="367.88"/><line class="e" x1="226.1" y1="241.35" x2="227.26" y2="351.41"/><line class="e" x1="239.95" y1="224.88" x2="241.11" y2="334.94"/><line class="e" x1="253.79" y1="208.41" x2="254.95" y2="318.47"/><line class="e" x1="267.63" y1="191.94" x2="268.79" y2="302"/><line class="e" x1="281.48" y1="175.47" x2="282.64" y2="285.53"/><line class="e" x1="295.32" y1="159" x2="296.48" y2="269.06"/><line class="e" x1="309.16" y1="142.53" x2="310.32" y2="252.59"/><line class="e" x1="323" y1="126.05" x2="324.16" y2="236.12"/><line class="e" x1="336.85" y1="109.58" x2="338.01" y2="219.65"/><line class="e" x1="350.69" y1="93.11" x2="351.85" y2="203.17"/><line class="e" x1="364.53" y1="76.64" x2="365.69" y2="186.7"/><line class="e" x1="378.37" y1="60.17" x2="379.53" y2="170.23"/><line class="e" x1="392.22" y1="43.7" x2="393.38" y2="153.76"/><line class="e" x1="406.06" y1="27.23" x2="407.22" y2="137.29"/><line class="e" x1="419.9" y1="10.76" x2="421.06" y2="120.82"/><line class="e" x1="433.75" y1="-5.71" x2="434.91" y2="104.35"/><line class="e" x1="449.18" y1="-19.18" x2="450.34" y2="90.88"/></g><g><line class="e" x1="164.11" y1="426.18" x2="70.25" y2="427.17"/><line class="e" x1="152.4" y1="440.12" x2="58.54" y2="441.1"/><line class="e" x1="140.69" y1="454.05" x2="46.83" y2="455.04"/><line class="e" x1="128.98" y1="467.98" x2="35.12" y2="468.97"/><line class="e" x1="117.27" y1="481.92" x2="23.41" y2="482.9"/><line class="e" x1="175.82" y1="412.25" x2="81.96" y2="413.24"/><line class="e" x1="187.53" y1="398.32" x2="93.67" y2="399.3"/><line class="e" x1="199.24" y1="384.38" x2="105.38" y2="385.37"/><line class="e" x1="210.95" y1="370.45" x2="117.09" y2="371.44"/><line class="e" x1="222.66" y1="356.52" x2="128.8" y2="357.51"/><line class="e" x1="234.37" y1="342.58" x2="140.51" y2="343.57"/><line class="e" x1="246.08" y1="328.65" x2="152.22" y2="329.64"/><line class="e" x1="257.79" y1="314.72" x2="163.93" y2="315.71"/><line class="e" x1="269.5" y1="300.78" x2="175.64" y2="301.77"/><line class="e" x1="281.21" y1="286.85" x2="187.35" y2="287.84"/><line class="e" x1="292.92" y1="272.92" x2="199.06" y2="273.91"/><line class="e" x1="304.63" y1="258.98" x2="210.77" y2="259.97"/><line class="e" x1="316.34" y1="245.05" x2="222.48" y2="246.04"/><line class="e" x1="328.05" y1="231.12" x2="234.19" y2="232.11"/><line class="e" x1="339.76" y1="217.18" x2="245.9" y2="218.17"/><line class="e" x1="351.47" y1="203.25" x2="257.61" y2="204.24"/><line class="e" x1="363.18" y1="189.32" x2="269.32" y2="190.31"/><line class="e" x1="374.89" y1="175.39" x2="281.03" y2="176.37"/><line class="e" x1="386.6" y1="161.45" x2="292.74" y2="162.44"/><line class="e" x1="398.31" y1="147.52" x2="304.45" y2="148.51"/><line class="e" x1="410.02" y1="133.59" x2="316.16" y2="134.57"/><line class="e" x1="421.73" y1="119.65" x2="327.87" y2="120.64"/><line class="e" x1="433.44" y1="105.72" x2="339.58" y2="106.71"/><line class="e" x1="445.15" y1="91.79" x2="351.29" y2="92.78"/><line class="e" x1="456.86" y1="77.85" x2="363" y2="78.84"/><line class="e" x1="468.57" y1="63.92" x2="374.71" y2="64.91"/><line class="e" x1="480.28" y1="49.99" x2="386.42" y2="50.98"/><line class="e" x1="491.99" y1="36.05" x2="398.13" y2="37.04"/></g></g></g></g><rect class="g" width="512" height="512"/></g></g></svg>