<svg xmlns="http://www.w3.org/2000/svg" viewBox="0 0 512 512"><defs><style>.cls-1,.cls-4{fill:none;}.cls-1,.cls-2{stroke:#000;stroke-miterlimit:10;}.cls-1{stroke-width:7px;}.cls-2{fill:#999;stroke-width:5px;}.cls-3{font-size:30px;font-family:New-Gulim, New Gulim;letter-spacing:-0.06em;}</style></defs><g id="Layer_2" data-name="Layer 2"><g id="G_G_GAG---_X" data-name="G*G*GAG---****X"><path class="cls-1" d="M31.35,200.8v60.8l10.4,17.6v9.6l20,30.4,17.6,38.4,61.6,36s242.4-51.2,245.6-51.2,48.8,8.8,48.8,8.8L477,322.4v-164l-17.6-29.6-43.2-10.4-29.6,9.6-16,28-32.8,24L289,188.8,181,178.4l-88.8-31.2-28,9.6Z"/><rect class="cls-2" x="17.96" y="232.03" width="34.18" height="38.73"/><text class="cls-3" transform="translate(25.16 262.02)">N</text><rect class="cls-2" x="459.85" y="207.23" width="34.18" height="38.73"/><text class="cls-3" transform="translate(467.05 237.22)">N</text><rect class="cls-2" x="240.53" y="234.04" width="29.23" height="38.73"/><text class="cls-3" transform="translate(247.01 264.02)">T</text><rect class="cls-4" width="512" height="512"/></g></g></svg>