<svg xmlns="http://www.w3.org/2000/svg" viewBox="0 0 512 512"><defs><style>.cls-1,.cls-6,.cls-7,.cls-8{fill:none;}.cls-1,.cls-6,.cls-7{stroke:#231f20;stroke-width:7px;}.cls-1,.cls-4,.cls-6,.cls-7{stroke-miterlimit:10;}.cls-2,.cls-4{fill:#999;}.cls-3{font-size:29.89px;}.cls-3,.cls-5{font-family:New-Gulim, New Gulim;}.cls-4{stroke:#000;stroke-width:5px;}.cls-5{font-size:29.44px;letter-spacing:-0.06em;}.cls-6{stroke-dasharray:6.82 11.7;}.cls-7{stroke-dasharray:6.9 11.83;}</style></defs><g id="Layer_2" data-name="Layer 2"><g id="G_G_PY----_X" data-name="G*G*PY----****X"><polygon class="cls-1" points="231.09 138.98 175.89 147.78 59.89 186.18 35.09 268.58 83.09 333.38 84.69 345.38 145.49 370.18 384.69 370.18 426.29 358.98 456.69 326.98 474.29 300.58 468.69 234.18 449.49 184.58 391.89 153.38 339.89 138.98 231.09 138.98"/><line class="cls-1" x1="183.09" y1="131.78" x2="218.29" y2="158.98"/><line class="cls-1" x1="215.07" y1="128.42" x2="186.3" y2="162.34"/><line class="cls-1" x1="277.71" y1="125.38" x2="312.91" y2="152.58"/><line class="cls-1" x1="309.69" y1="122.02" x2="280.92" y2="155.94"/><line class="cls-1" x1="439.09" y1="196.18" x2="474.29" y2="223.38"/><line class="cls-1" x1="471.07" y1="192.82" x2="442.3" y2="226.75"/><line class="cls-1" x1="378.64" y1="351.38" x2="413.84" y2="378.58"/><line class="cls-1" x1="410.63" y1="348.02" x2="381.86" y2="381.94"/><line class="cls-1" x1="280.92" y1="356.58" x2="316.12" y2="383.78"/><line class="cls-1" x1="312.91" y1="353.22" x2="284.14" y2="387.14"/><line class="cls-1" x1="218.29" y1="351.38" x2="253.49" y2="378.58"/><line class="cls-1" x1="250.27" y1="348.02" x2="221.5" y2="381.94"/><line class="cls-1" x1="120.99" y1="356.58" x2="156.19" y2="383.78"/><line class="cls-1" x1="152.97" y1="353.22" x2="124.2" y2="387.14"/><line class="cls-1" x1="47.64" y1="313.97" x2="91.87" y2="318.8"/><line class="cls-1" x1="73.17" y1="294.41" x2="66.34" y2="338.36"/><line class="cls-1" x1="37.07" y1="207.18" x2="58.22" y2="246.32"/><line class="cls-1" x1="67.67" y1="217.08" x2="27.61" y2="236.42"/><line class="cls-1" x1="82.84" y1="159.24" x2="119.07" y2="185.06"/><line class="cls-1" x1="114.68" y1="154.64" x2="87.24" y2="189.66"/><line class="cls-1" x1="468.06" y1="283.73" x2="474.09" y2="327.8"/><line class="cls-1" x1="493.22" y1="303.75" x2="448.92" y2="307.77"/><rect class="cls-2" x="235.89" y="122.02" width="32.63" height="32.63"/><text class="cls-3" transform="translate(239.92 146.37)">M</text><rect class="cls-4" x="103.74" y="148.88" width="34.5" height="38"/><text class="cls-5" transform="translate(111.98 178.3) scale(0.93 1)">N</text><line class="cls-1" x1="102.92" y1="307.15" x2="105.81" y2="305.17"/><line class="cls-6" x1="115.46" y1="298.56" x2="248.1" y2="207.63"/><polyline class="cls-1" points="252.92 204.33 255.81 202.35 258.71 204.31"/><line class="cls-7" x1="268.51" y1="210.92" x2="403.31" y2="301.88"/><line class="cls-1" x1="408.21" y1="305.19" x2="411.11" y2="307.15"/><rect class="cls-4" x="378.99" y="133.58" width="34.5" height="38"/><text class="cls-5" transform="translate(387.24 163) scale(0.93 1)">N</text><rect class="cls-2" x="18.78" y="238.44" width="32.63" height="32.63"/><text class="cls-3" transform="translate(22.81 262.79)">M</text><rect class="cls-2" x="455.45" y="238.44" width="32.63" height="32.63"/><text class="cls-3" transform="translate(459.49 262.79)">M</text><rect class="cls-2" x="240.7" y="358.67" width="32.63" height="32.63"/><text class="cls-3" transform="translate(244.74 383.02)">M</text><rect class="cls-8" width="512" height="512"/></g></g></svg>