<svg xmlns="http://www.w3.org/2000/svg" viewBox="0 0 512 512"><defs><style>.cls-1,.cls-2,.cls-4{fill:none;}.cls-1,.cls-2{stroke:#000;stroke-miterlimit:10;}.cls-1{stroke-width:5px;}.cls-2{stroke-width:3px;}.cls-3{font-size:39.71px;font-family:Gulim;}</style></defs><g id="Layer_2" data-name="Layer 2"><g id="G_G_GLC---_X" data-name="G*G*GLC---****X"><path class="cls-1" d="M60.77,268.77a23.53,23.53,0,0,1,22.29-23.5,23.53,23.53,0,0,1,22.29,23.5,23.53,23.53,0,0,1,22.4-23.51,23.54,23.54,0,0,1,22.4,23.51,23.54,23.54,0,0,1,22.4-23.51A23.54,23.54,0,0,1,195,268.77a23.54,23.54,0,0,1,22.4-23.51,23.54,23.54,0,0,1,22.4,23.51,22.43,22.43,0,1,1,44.8,0,22.43,22.43,0,1,1,44.8,0,22.43,22.43,0,1,1,44.8,0,23.52,23.52,0,0,1,20.4-23.32A23.53,23.53,0,0,1,415,268.77a23.53,23.53,0,0,1,23.53-23.54A23.52,23.52,0,0,1,415,221.7,23.54,23.54,0,0,1,394.55,245a23.53,23.53,0,0,1-20.4-23.32,22.43,22.43,0,1,1-44.8,0,22.43,22.43,0,1,1-44.8,0,22.43,22.43,0,1,1-44.8,0,23.53,23.53,0,0,1-22.4,23.5A23.53,23.53,0,0,1,195,221.7a23.53,23.53,0,0,1-22.4,23.5,23.53,23.53,0,0,1-22.4-23.5,23.53,23.53,0,0,1-22.4,23.5,23.52,23.52,0,0,1-22.4-23.5,23.54,23.54,0,0,1-22.29,23.5,23.54,23.54,0,0,1-22.29-23.5"/><rect class="cls-2" x="19.03" y="239.63" width="43.02" height="50.67"/><text class="cls-3" transform="translate(26 280.03) scale(1.05 1)">N</text><rect class="cls-2" x="449.96" y="239.63" width="43.02" height="50.67"/><text class="cls-3" transform="translate(456.93 280.03) scale(1.05 1)">N</text><rect class="cls-4" width="512" height="512"/><line class="cls-1" x1="449.96" y1="245.23" x2="435.84" y2="245.23"/></g></g></svg>