<svg xmlns="http://www.w3.org/2000/svg" viewBox="0 0 512 512"><defs><style>.cls-1{fill:#999;stroke-miterlimit:10;}.cls-1,.cls-4{stroke:#000;stroke-width:5px;}.cls-2{font-size:26.92px;}.cls-2,.cls-3{font-family:Gulim;}.cls-3{font-size:29.45px;}.cls-4,.cls-5{fill:none;}.cls-4{stroke-linejoin:bevel;}</style></defs><g id="Layer_2" data-name="Layer 2"><g id="G_G_GLF---_X" data-name="G*G*GLF---****X"><rect class="cls-1" x="419.84" y="222.23" width="30.16" height="35.2"/><text class="cls-2" transform="translate(425.51 249.36)">N</text><rect class="cls-1" x="65.24" y="222.23" width="30.16" height="35.2"/><text class="cls-2" transform="translate(70.91 249.36)">N</text><text class="cls-3" transform="translate(423.75 285.34)">FLOT</text><text class="cls-3" transform="translate(14.91 285.34)">FLOT</text><path class="cls-4" d="M419.84,275.67s-4.2-14-16.12-14-16.12,14-16.12,14-4.2-14-16.12-14-16.12,14-16.12,14-4.19-14-16.12-14-16.11,14-16.11,14-4.2-14-16.12-14-16.12,14-16.12,14-4.2-14-16.12-14-16.12,14-16.12,14-4.19-14-16.12-14-16.12,14-16.12,14-4.19-14-16.11-14-16.12,14-16.12,14-4.2-14-16.12-14-16.12,14-16.12,14-4.2-14-16.12-14-16.12,14-16.12,14-4.19-14-16.12-14-16.11,14-16.11,14"/><rect class="cls-5" width="512" height="512"/></g></g></svg>