<?xml version="1.0" encoding="UTF-8"?><svg xmlns="http://www.w3.org/2000/svg" viewBox="0 0 512 512"><defs><style>.d{stroke-width:10px;}.d,.e{stroke:#000;stroke-miterlimit:10;}.d,.f{fill:none;}.e{fill:#fff;stroke-width:4px;}.g{font-family:Gulim, Gulim;font-size:40px;}</style></defs><g id="a"/><g id="b"><g id="c"><rect class="f" width="512" height="512"/><g><g><text class="g" transform="translate(105.59 50.06) scale(.87 1)"><tspan x="0" y="0">HOLDING LINE</tspan></text><g><text class="g" transform="translate(172.87 104.9)"><tspan x="0" y="0">PL</tspan></text><path d="M169.92,74.56c.3-.02,.57,.03,.82,.17,.27,.16,.43,.36,.48,.61,.07,.27,.01,.56-.19,.85-1.78,2.41-3.06,4.69-3.83,6.83-.82,2.28-1.23,4.8-1.23,7.58,0,2.89,.37,5.44,1.11,7.64,.79,2.32,2.09,4.5,3.9,6.55,.25,.27,.36,.58,.33,.92-.02,.3-.16,.55-.41,.75-.25,.2-.53,.29-.85,.27-.35-.02-.66-.18-.93-.48-1.91-2.02-3.32-4.45-4.24-7.27-.79-2.53-1.19-5.32-1.19-8.39,0-2.87,.42-5.54,1.26-8.02,.87-2.55,2.25-5.07,4.16-7.58,.2-.27,.46-.42,.78-.44Z"/><path d="M282.06,82.38c.97,2.44,1.51,5.09,1.63,7.96,.13,3.07-.17,5.88-.88,8.44-.8,2.86-2.1,5.33-3.9,7.44-.28,.31-.6,.48-.95,.52-.32,.04-.61-.04-.87-.24-.26-.19-.4-.44-.44-.73-.04-.34,.07-.65,.33-.94,1.7-2.12,2.9-4.35,3.59-6.7,.68-2.24,.96-4.8,.84-7.68s-.64-5.28-1.57-7.52c-.86-2.1-2.21-4.33-4.07-6.66-.23-.29-.32-.57-.26-.84,.04-.25,.19-.46,.46-.63,.24-.15,.51-.21,.81-.2,.32,0,.6,.15,.84,.41,1.98,2.42,3.46,4.89,4.43,7.4Z"/><g><rect class="e" x="225.27" y="67.16" width="37.95" height="46.98"/><text class="g" transform="translate(231.22 105.08) scale(1.12 1)"><tspan x="0" y="0">T</tspan></text></g></g></g><g><text class="g" transform="translate(82.41 432.19) scale(.87 1)"><tspan x="0" y="0">HOLDING LINE</tspan></text><g><text class="g" transform="translate(149.69 487.04)"><tspan x="0" y="0">PL</tspan></text><path d="M146.73,456.7c.3-.02,.57,.03,.82,.17,.27,.16,.43,.36,.48,.61,.07,.27,.01,.56-.19,.85-1.78,2.41-3.06,4.69-3.83,6.83-.82,2.28-1.23,4.8-1.23,7.58,0,2.89,.37,5.44,1.11,7.64,.79,2.32,2.09,4.5,3.9,6.55,.25,.27,.36,.58,.33,.92-.02,.3-.16,.55-.41,.75-.25,.2-.53,.29-.85,.27-.35-.02-.66-.18-.93-.48-1.91-2.02-3.32-4.45-4.24-7.27-.79-2.53-1.19-5.32-1.19-8.39,0-2.87,.42-5.54,1.26-8.02,.87-2.55,2.25-5.07,4.16-7.58,.2-.27,.46-.42,.78-.44Z"/><path d="M258.87,464.52c.97,2.44,1.51,5.09,1.63,7.96,.13,3.07-.17,5.88-.88,8.44-.8,2.86-2.1,5.33-3.9,7.44-.28,.31-.6,.48-.95,.52-.32,.04-.61-.04-.87-.24-.26-.19-.4-.44-.44-.73-.04-.34,.07-.65,.33-.94,1.7-2.12,2.9-4.35,3.59-6.7,.68-2.24,.96-4.8,.84-7.68s-.64-5.28-1.57-7.52c-.86-2.1-2.21-4.33-4.07-6.66-.23-.29-.32-.57-.26-.84,.04-.25,.19-.46,.46-.63,.24-.15,.51-.21,.81-.2,.32,0,.6,.15,.84,.41,1.98,2.42,3.46,4.89,4.43,7.4Z"/><g><rect class="e" x="202.08" y="449.3" width="37.95" height="46.98"/><text class="g" transform="translate(208.04 487.21) scale(1.12 1)"><tspan x="0" y="0">T</tspan></text></g></g></g><path class="d" d="M208.96,132.36h126.57s58.06,0,70.84,16.26c12.77,16.26,23.23,33.68,23.23,70.84v101.03c0,31.35-20.08,63.87-81.46,63.87H214.76"/></g></g></g></svg>