<svg xmlns="http://www.w3.org/2000/svg" viewBox="0 0 512 512"><defs><style>.cls-1{font-size:34.06px;}.cls-1,.cls-2,.cls-4{font-family:Gulim;}.cls-2{font-size:34.58px;}.cls-3{fill:#999;}.cls-3,.cls-5{stroke:#000;stroke-miterlimit:10;stroke-width:4px;}.cls-4{font-size:32.71px;}.cls-5,.cls-6{fill:none;}</style></defs><g id="Layer_2" data-name="Layer 2"><g id="G_G_GLL---_X" data-name="G*G*GLL---****X"><text class="cls-1" transform="translate(46.41 244.97)">LL</text><text class="cls-1" transform="translate(424.31 244.97)">LL</text><text class="cls-2" transform="translate(29.53 287.11)">PL</text><path d="M27,264.31a1.19,1.19,0,0,1,.7.15.77.77,0,0,1,.42.53.88.88,0,0,1-.16.73,23.48,23.48,0,0,0-3.29,5.86,19.24,19.24,0,0,0-1.05,6.51,20.86,20.86,0,0,0,.95,6.57,16.55,16.55,0,0,0,3.36,5.63,1,1,0,0,1,.28.79.87.87,0,0,1-.35.64,1,1,0,0,1-.73.24,1.18,1.18,0,0,1-.8-.41,16.32,16.32,0,0,1-3.64-6.25,24,24,0,0,1-1-7.21,21.4,21.4,0,0,1,1.08-6.89,23,23,0,0,1,3.58-6.5A.86.86,0,0,1,27,264.31Z"/><path d="M117.77,271.2a20.87,20.87,0,0,1,1.12,6.89,23.38,23.38,0,0,1-1.06,7.21,16.52,16.52,0,0,1-3.61,6.25,1.29,1.29,0,0,1-.83.41,1,1,0,0,1-.73-.24.9.9,0,0,1-.35-.64,1,1,0,0,1,.32-.79,16.92,16.92,0,0,0,3.32-5.63,20,20,0,0,0,1-6.57,18.76,18.76,0,0,0-1.09-6.51,23.61,23.61,0,0,0-3.26-5.86.84.84,0,0,1-.19-.73.8.8,0,0,1,.42-.53,1.2,1.2,0,0,1,.7-.15,1,1,0,0,1,.7.39A23.33,23.33,0,0,1,117.77,271.2Z"/><rect class="cls-3" x="74.69" y="255.9" width="32.6" height="40.36"/><text class="cls-4" transform="translate(80.33 288.48) scale(1.12 1)">T</text><text class="cls-2" transform="translate(400.97 287.11)">PL</text><path d="M398.45,264.31a1.2,1.2,0,0,1,.7.15.79.79,0,0,1,.41.53.82.82,0,0,1-.16.73,23.42,23.42,0,0,0-3.28,5.86,19,19,0,0,0-1.06,6.51,20.57,20.57,0,0,0,1,6.57,16.68,16.68,0,0,0,3.35,5.63,1,1,0,0,1,.29.79.9.9,0,0,1-.35.64,1,1,0,0,1-.73.24,1.18,1.18,0,0,1-.8-.41,16.19,16.19,0,0,1-3.64-6.25,23.7,23.7,0,0,1-1-7.21,21.4,21.4,0,0,1,1.09-6.89,22.71,22.71,0,0,1,3.58-6.5A.86.86,0,0,1,398.45,264.31Z"/><path d="M489.2,271.2a20.61,20.61,0,0,1,1.12,6.89,23.38,23.38,0,0,1-1.05,7.21,16.52,16.52,0,0,1-3.61,6.25,1.31,1.31,0,0,1-.83.41,1,1,0,0,1-.74-.24.9.9,0,0,1-.35-.64,1,1,0,0,1,.32-.79,16.75,16.75,0,0,0,3.32-5.63,20,20,0,0,0,1-6.57,18.76,18.76,0,0,0-1.08-6.51,23.94,23.94,0,0,0-3.26-5.86.84.84,0,0,1-.19-.73.79.79,0,0,1,.41-.53,1.24,1.24,0,0,1,.71-.15,1,1,0,0,1,.7.39A23,23,0,0,1,489.2,271.2Z"/><rect class="cls-3" x="446.13" y="255.9" width="32.6" height="40.36"/><text class="cls-4" transform="translate(451.77 288.48) scale(1.12 1)">T</text><line class="cls-5" x1="129.98" y1="255.9" x2="381.71" y2="255.9"/><rect class="cls-6" width="512" height="512"/></g></g></svg>