<svg xmlns="http://www.w3.org/2000/svg" viewBox="0 0 512 512"><defs><style>.cls-1,.cls-4{fill:none;}.cls-1,.cls-2{stroke:#000;stroke-miterlimit:10;stroke-width:5px;}.cls-2{fill:#999;}.cls-3{font-size:37.32px;font-family:Gulim;}</style></defs><g id="Layer_2" data-name="Layer 2"><g id="G_G_OLKA--_X" data-name="G*G*OLKA--****X"><path class="cls-1" d="M491.49,252.09s-40,14.22-105.84,14.22-131.19-14.22-131.19-14.22-65.36-14.21-131.19-14.21S17.43,252.09,17.43,252.09"/><rect class="cls-2" x="212.92" y="223.27" width="39.62" height="45.03" transform="translate(37.67 -30.85) rotate(8.25)"/><text class="cls-3" transform="translate(217.91 256.96) rotate(8.25)">N</text><polygon class="cls-2" points="291.14 258.08 291.37 257.88 290.99 257.82 271.8 224.89 261.96 283.06 291.29 258.34 291.14 258.08"/><polygon class="cls-2" points="291.52 258.14 291.37 257.88 291.75 257.95 320.7 233.16 310.86 291.33 291.29 258.34 291.52 258.14"/><polyline class="cls-1" points="478.78 240.86 494.57 251.25 484.81 266.83"/><rect class="cls-4" width="512" height="512"/></g></g></svg>