<svg xmlns="http://www.w3.org/2000/svg" viewBox="0 0 512 512"><defs><style>.cls-1,.cls-2,.cls-3{fill:none;}.cls-1,.cls-2{stroke:#000;stroke-miterlimit:10;}.cls-1{stroke-width:5px;}.cls-2{stroke-width:3px;}</style></defs><g id="Layer_2" data-name="Layer 2"><g id="G_G_GLA---_X" data-name="G*G*GLA---****X"><line class="cls-1" x1="53.22" y1="237.6" x2="19.35" y2="271.47"/><line class="cls-1" x1="53.22" y1="271.47" x2="19.35" y2="237.6"/><line class="cls-1" x1="67.62" y1="254.53" x2="115.62" y2="254.53"/><line class="cls-1" x1="159.31" y1="237.6" x2="125.44" y2="271.47"/><line class="cls-1" x1="159.31" y1="271.47" x2="125.44" y2="237.6"/><line class="cls-1" x1="173.71" y1="254.53" x2="221.71" y2="254.53"/><line class="cls-1" x1="265.39" y1="237.6" x2="231.53" y2="271.47"/><line class="cls-1" x1="265.39" y1="271.47" x2="231.53" y2="237.6"/><line class="cls-1" x1="279.79" y1="254.53" x2="327.79" y2="254.53"/><line class="cls-1" x1="371.48" y1="237.6" x2="337.62" y2="271.47"/><line class="cls-1" x1="371.48" y1="271.47" x2="337.62" y2="237.6"/><line class="cls-1" x1="385.88" y1="254.53" x2="433.88" y2="254.53"/><path class="cls-2" d="M445,194.67s-15.2-.27-15.2,12.53S445,220,445,220"/><path class="cls-2" d="M445,243.28s-15.2-.26-15.2,12.54,15.2,12.8,15.2,12.8"/><path class="cls-2" d="M477.45,219s15.2-.27,15.2,12.53-15.2,12.8-15.2,12.8"/><path class="cls-2" d="M477.45,267.59s15.2-.26,15.2,12.54-15.2,12.8-15.2,12.8"/><path class="cls-2" d="M462.76,194.67s-14.69-.26-14.69,12.11,14.69,12.35,14.69,12.35,14.69-.26,14.69,12.11-14.69,12.38-14.69,12.38-14.69-.17-14.69,12.2,14.69,12.37,14.69,12.37,14.69.17,14.69,12.54-14.69,12.37-14.69,12.37-10.88.23-14.08,6"/><path class="cls-2" d="M445,292s-15.2-.27-15.2,12.53,15.2,12.8,15.2,12.8"/><rect class="cls-3" width="512" height="512"/></g></g></svg>