<svg xmlns="http://www.w3.org/2000/svg" viewBox="0 0 512 512"><defs><style>.cls-1,.cls-4{fill:none;}.cls-1,.cls-2{stroke:#000;stroke-miterlimit:10;}.cls-1{stroke-width:10px;}.cls-2{fill:#ff0;stroke-width:7px;}.cls-3{font-size:45px;font-family:Gulim;}</style></defs><g id="Layer_2" data-name="Layer 2"><g id="G_G_GL5C--_X" data-name="G*G*GL5C--****X"><line class="cls-1" x1="16" y1="304.1" x2="496" y2="304.1"/><rect class="cls-2" x="116" y="207.9" width="280" height="80" rx="40"/><rect class="cls-2" x="122.72" y="217.72" width="46.23" height="60"/><text class="cls-3" transform="translate(132.74 266.09)">T</text><rect class="cls-2" x="338.97" y="217.72" width="46.23" height="60"/><text class="cls-3" transform="translate(348.99 266.09)">T</text><rect class="cls-2" x="183.08" y="218.07" width="50" height="60"/><text class="cls-3" transform="translate(191.64 264)">H</text><rect class="cls-2" x="261.02" y="218.07" width="50" height="60"/><text class="cls-3" transform="translate(269.87 264)">C</text><path d="M249.13,228.51a2.11,2.11,0,0,1,1.09.2,1.18,1.18,0,0,1,.64.75,1.13,1.13,0,0,1-.25,1,33,33,0,0,0-5.1,8.34,25.13,25.13,0,0,0-1.63,9.25,27,27,0,0,0,1.48,9.34,23.35,23.35,0,0,0,5.2,8,1.39,1.39,0,0,1,.45,1.12,1.31,1.31,0,0,1-.55.92,1.64,1.64,0,0,1-1.14.33,1.87,1.87,0,0,1-1.23-.58,22.71,22.71,0,0,1-5.65-8.88,31.63,31.63,0,0,1-1.58-10.25,28,28,0,0,1,1.68-9.79,31.88,31.88,0,0,1,5.55-9.25A1.33,1.33,0,0,1,249.13,228.51Z"/><path d="M328.36,238.3a27.14,27.14,0,0,1,1.74,9.79,30.57,30.57,0,0,1-1.64,10.25,23,23,0,0,1-5.59,8.88,2.11,2.11,0,0,1-1.29.58,1.64,1.64,0,0,1-1.14-.33,1.26,1.26,0,0,1-.54-.92,1.31,1.31,0,0,1,.49-1.12,23.48,23.48,0,0,0,5.15-8,26.09,26.09,0,0,0,1.54-9.34,24.34,24.34,0,0,0-1.69-9.25,33,33,0,0,0-5.05-8.34,1.11,1.11,0,0,1-.29-1,1.15,1.15,0,0,1,.64-.75,2.09,2.09,0,0,1,1.09-.2,1.5,1.5,0,0,1,1.09.54A32.3,32.3,0,0,1,328.36,238.3Z"/><rect class="cls-4" width="512" height="512"/></g></g></svg>