<?xml version="1.0" encoding="UTF-8"?><svg xmlns="http://www.w3.org/2000/svg" viewBox="0 0 512 512"><defs><style>.d{stroke:#000;stroke-width:5px;}.d,.e,.f{fill:none;}.d,.f{stroke-miterlimit:10;}.f{stroke:#231f20;stroke-width:7px;}</style></defs><g id="a"/><g id="b"><g id="c"><g><polygon class="f" points="43.2 66.08 24.8 76.48 15.2 100.48 25.6 123.68 43.2 143.68 36 177.28 58.4 254.38 36.8 350.88 45.6 374.08 484.8 374.08 496.8 346.88 496.8 307.68 443.2 178.88 440.8 131.68 465.6 110.88 464.8 88.48 260.8 66.08 135.2 54.88 43.2 66.08"/><g><g><path d="M157.82,381.66c.34-.25,.73-.38,1.16-.38,.39,0,.75,.13,1.09,.38,.36,.27,.64,.67,.82,1.2l8.48,23.17c.11,.34,.1,.66-.03,.96-.11,.25-.31,.42-.58,.51-.27,.09-.55,.08-.82-.03-.27-.16-.48-.41-.62-.75l-2.87-7.96h-10.97l-2.91,7.96c-.14,.34-.35,.59-.65,.75-.25,.14-.51,.16-.79,.07-.27-.09-.48-.27-.62-.55s-.13-.59,.03-.96l8.44-23.17c.18-.52,.46-.92,.82-1.2Zm5.91,15.21l-4.72-12.99h-.1l-4.75,12.99h9.57Z"/><path d="M172.13,381.53c.21-.18,.46-.27,.75-.27,.27,0,.51,.09,.72,.27,.23,.21,.34,.49,.34,.85v24.1c0,.34-.11,.62-.34,.82-.21,.18-.44,.27-.72,.27-.3,0-.55-.09-.75-.27-.21-.21-.31-.48-.31-.82v-24.1c0-.36,.1-.65,.31-.85Z"/><path d="M189.68,381.83c2.21,0,3.98,.72,5.3,2.15,1.18,1.32,1.78,2.91,1.78,4.75,0,1.39-.36,2.62-1.09,3.69-.73,1.05-1.71,1.79-2.94,2.22,.77,.07,1.46,.4,2.05,.99,.71,.68,1.06,1.58,1.06,2.7,0,1.78,.08,3.32,.24,4.61,.16,1.19,.39,2.19,.68,3.01,.14,.37,.14,.7,0,.99-.14,.25-.35,.43-.65,.55-.27,.09-.55,.09-.82,0-.3-.11-.5-.32-.62-.62-.34-.91-.6-2.13-.79-3.66-.14-1.34-.21-2.87-.21-4.58,0-.96-.41-1.71-1.23-2.26-.75-.52-1.67-.79-2.77-.79h-8.85v10.8c0,.37-.11,.65-.34,.85-.21,.21-.44,.31-.72,.31-.3,0-.55-.1-.75-.31s-.31-.49-.31-.85v-21.26c0-.91,.26-1.67,.79-2.29,.59-.68,1.41-1.03,2.46-1.03h7.72Zm3.62,10.29c.87-.96,1.3-2.08,1.3-3.38s-.43-2.46-1.3-3.42c-.98-1.05-2.27-1.57-3.86-1.57h-7.11c-.5,0-.89,.16-1.16,.48-.23,.27-.34,.63-.34,1.06v8.44h8.61c1.59,0,2.88-.54,3.86-1.61Z"/><path d="M200.19,381.53c.21-.18,.46-.27,.75-.27,.27,0,.51,.09,.72,.27,.23,.21,.34,.49,.34,.85v10.15h14.77v-10.15c0-.36,.1-.65,.31-.85,.21-.18,.46-.27,.75-.27,.27,0,.51,.09,.72,.27,.23,.21,.34,.49,.34,.85v24.1c0,.34-.11,.62-.34,.82-.21,.18-.44,.27-.72,.27-.3,0-.55-.09-.75-.27-.21-.21-.31-.48-.31-.82v-12.03h-14.77v12.03c0,.34-.11,.62-.34,.82-.21,.18-.44,.27-.72,.27-.3,0-.55-.09-.75-.27-.21-.21-.31-.48-.31-.82v-24.1c0-.36,.1-.65,.31-.85Z"/><path d="M239.82,382.11c.18,.18,.27,.41,.27,.68,0,.25-.09,.47-.27,.65-.21,.21-.47,.31-.79,.31h-12.1c-.5,0-.89,.16-1.16,.48-.23,.27-.34,.63-.34,1.06v7.72h12.41c.34,0,.62,.09,.82,.27,.18,.18,.27,.41,.27,.68,0,.25-.09,.47-.27,.65-.21,.21-.48,.31-.82,.31h-12.41v8.65c0,.41,.11,.75,.34,1.03,.27,.32,.66,.48,1.16,.48h12.54c.34,0,.62,.09,.82,.27,.18,.18,.27,.41,.27,.68,0,.25-.09,.47-.27,.65-.21,.21-.48,.31-.82,.31h-12.92c-1.05,0-1.87-.34-2.46-1.03-.52-.62-.79-1.37-.79-2.26v-18.56c0-.91,.26-1.67,.79-2.29,.59-.68,1.41-1.03,2.46-1.03h12.48c.32,0,.58,.09,.79,.27Z"/><path d="M249.92,381.66c.34-.25,.73-.38,1.16-.38,.39,0,.75,.13,1.09,.38,.36,.27,.64,.67,.82,1.2l8.48,23.17c.11,.34,.1,.66-.03,.96-.11,.25-.31,.42-.58,.51-.27,.09-.55,.08-.82-.03-.27-.16-.48-.41-.62-.75l-2.87-7.96h-10.97l-2.91,7.96c-.14,.34-.35,.59-.65,.75-.25,.14-.51,.16-.79,.07-.27-.09-.48-.27-.62-.55s-.13-.59,.03-.96l8.44-23.17c.18-.52,.46-.92,.82-1.2Zm5.91,15.21l-4.72-12.99h-.1l-4.75,12.99h9.57Z"/><path d="M271.65,381.83c3.74,0,6.67,1.25,8.78,3.76,1.98,2.3,2.97,5.24,2.97,8.82s-.99,6.52-2.97,8.82c-2.12,2.51-5.05,3.76-8.78,3.76h-4.89c-1.05,0-1.87-.34-2.46-1.03-.52-.62-.79-1.37-.79-2.26v-18.56c0-.91,.26-1.67,.79-2.29,.59-.68,1.41-1.03,2.46-1.03h4.89Zm0,23.24c3.05,0,5.45-1.06,7.18-3.18,1.62-1.94,2.43-4.43,2.43-7.49s-.81-5.58-2.43-7.52c-1.73-2.1-4.12-3.14-7.18-3.14h-4.51c-.5,0-.89,.16-1.16,.48-.23,.27-.34,.63-.34,1.06v18.29c0,.41,.11,.75,.34,1.03,.27,.32,.66,.48,1.16,.48h4.51Z"/><path d="M296.46,381.53c.21-.18,.46-.27,.75-.27,.27,0,.51,.09,.72,.27,.23,.21,.34,.49,.34,.85v21.19c0,.41,.11,.75,.34,1.03,.27,.32,.66,.48,1.16,.48h10.53c.34,0,.62,.09,.82,.27,.18,.18,.27,.41,.27,.68,0,.25-.09,.47-.27,.65-.21,.21-.48,.31-.82,.31h-10.9c-1.05,0-1.87-.34-2.46-1.03-.52-.62-.79-1.37-.79-2.26v-21.33c0-.36,.1-.65,.31-.85Z"/><path d="M313.74,381.53c.21-.18,.46-.27,.75-.27,.27,0,.51,.09,.72,.27,.23,.21,.34,.49,.34,.85v24.1c0,.34-.11,.62-.34,.82-.21,.18-.44,.27-.72,.27-.3,0-.55-.09-.75-.27-.21-.21-.31-.48-.31-.82v-24.1c0-.36,.1-.65,.31-.85Z"/><path d="M321.35,381.25c.68-.09,1.21,.15,1.57,.72l1.16,1.71,12,19.96v-21.46c0-.3,.1-.54,.31-.72,.21-.14,.46-.21,.75-.21s.55,.08,.75,.24c.23,.16,.34,.39,.34,.68v23.93c0,.78-.31,1.24-.92,1.4-.62,.18-1.06,.03-1.33-.44l-1.91-2.8-11.59-19.11v21.23c0,.39-.11,.69-.34,.92-.21,.21-.46,.31-.75,.31-.3-.02-.55-.14-.75-.34-.21-.23-.31-.52-.31-.89v-23.75c0-.8,.34-1.25,1.03-1.37Z"/><path d="M359.17,382.11c.18,.18,.27,.41,.27,.68,0,.25-.09,.47-.27,.65-.21,.21-.47,.31-.79,.31h-12.1c-.5,0-.89,.16-1.16,.48-.23,.27-.34,.63-.34,1.06v7.72h12.41c.34,0,.62,.09,.82,.27,.18,.18,.27,.41,.27,.68,0,.25-.09,.47-.27,.65-.21,.21-.48,.31-.82,.31h-12.41v8.65c0,.41,.11,.75,.34,1.03,.27,.32,.66,.48,1.16,.48h12.54c.34,0,.62,.09,.82,.27,.18,.18,.27,.41,.27,.68,0,.25-.09,.47-.27,.65-.21,.21-.48,.31-.82,.31h-12.92c-1.05,0-1.87-.34-2.46-1.03-.52-.62-.79-1.37-.79-2.26v-18.56c0-.91,.26-1.67,.79-2.29,.59-.68,1.41-1.03,2.46-1.03h12.48c.32,0,.58,.09,.79,.27Z"/><path d="M214.62,421.88c.27-.02,.52,.03,.75,.17,.25,.16,.4,.37,.44,.62,.07,.27,.01,.56-.17,.85-1.64,2.42-2.81,4.69-3.52,6.84-.75,2.28-1.13,4.81-1.13,7.59s.34,5.45,1.03,7.66c.73,2.32,1.93,4.51,3.59,6.56,.23,.27,.33,.58,.31,.92-.02,.3-.15,.55-.38,.75-.23,.21-.49,.3-.79,.27-.32-.02-.6-.18-.85-.48-1.75-2.03-3.05-4.45-3.9-7.28-.73-2.53-1.09-5.33-1.09-8.41,0-2.87,.39-5.55,1.16-8.03,.8-2.55,2.07-5.08,3.83-7.59,.18-.27,.42-.42,.72-.44Z"/><path d="M234.84,427.56c1.18,1.32,1.78,2.95,1.78,4.89s-.59,3.5-1.78,4.82c-1.3,1.48-3.05,2.22-5.26,2.22h-7.93v10.53c0,.34-.11,.62-.34,.82-.21,.18-.44,.27-.72,.27-.3,0-.55-.09-.75-.27-.21-.21-.31-.48-.31-.82v-21.33c0-.91,.26-1.67,.79-2.29,.59-.68,1.41-1.03,2.46-1.03h6.8c2.21,0,3.96,.73,5.26,2.19Zm-1.67,8.44c.87-.98,1.3-2.15,1.3-3.52s-.43-2.61-1.3-3.59c-.96-1.07-2.24-1.61-3.86-1.61h-6.15c-.5,0-.89,.16-1.16,.48-.23,.27-.34,.63-.34,1.06v8.78h7.66c1.62,0,2.91-.54,3.86-1.61Z"/><path d="M239.99,425.06c.21-.18,.46-.27,.75-.27,.27,0,.51,.09,.72,.27,.23,.21,.34,.49,.34,.85v21.19c0,.41,.11,.75,.34,1.03,.27,.32,.66,.48,1.16,.48h10.53c.34,0,.62,.09,.82,.27,.18,.18,.27,.41,.27,.68,0,.25-.09,.47-.27,.65-.21,.21-.48,.31-.82,.31h-10.9c-1.05,0-1.87-.34-2.46-1.03-.52-.62-.79-1.37-.79-2.26v-21.33c0-.36,.1-.65,.31-.85Z"/><path d="M281.45,425.64c.21,.18,.31,.41,.31,.68,0,.25-.1,.47-.31,.65-.21,.21-.48,.31-.82,.31h-6.94v22.76c0,.32-.11,.58-.34,.79-.21,.18-.44,.27-.72,.27-.3,0-.55-.09-.75-.27-.21-.21-.31-.47-.31-.79v-22.76h-7.25c-.55,0-.82-.32-.82-.96s.27-.96,.82-.96h16.3c.34,0,.62,.09,.82,.27Z"/><path d="M298.81,429.92c.8,2.48,1.2,5.16,1.2,8.03,0,3.08-.38,5.88-1.13,8.41-.84,2.83-2.13,5.25-3.86,7.28-.27,.3-.57,.46-.89,.48-.3,.02-.56-.07-.79-.27-.23-.21-.35-.46-.38-.75-.02-.34,.09-.65,.34-.92,1.64-2.05,2.83-4.24,3.55-6.56,.71-2.21,1.06-4.76,1.06-7.66s-.39-5.31-1.16-7.59c-.71-2.14-1.87-4.42-3.49-6.84-.21-.3-.27-.58-.21-.85,.04-.25,.19-.46,.44-.62,.23-.14,.48-.19,.75-.17,.3,.02,.55,.17,.75,.44,1.73,2.51,3,5.04,3.79,7.59Z"/></g><rect class="d" x="257" y="418.66" width="33.37" height="38.46"/></g></g><rect class="e" width="512" height="512"/></g></g></svg>