<?xml version="1.0" encoding="UTF-8"?><svg xmlns="http://www.w3.org/2000/svg" viewBox="0 0 512 512"><defs><style>.d{stroke-width:10px;}.d,.e,.f{fill:none;}.d,.f{stroke:#000;stroke-miterlimit:10;}.f{stroke-width:7px;}</style></defs><g id="a"/><g id="b"><g id="c"><g><polygon class="d" points="32.12 128.01 64.8 105.45 190.84 93 293.54 103.89 450.71 103.89 483.38 117.12 495.25 152.91 484.94 371.54 461.6 405.77 411.03 419 263.68 405.77 77.24 419 32.12 407.33 16.75 383.99 21.23 162.25 32.12 128.01"/><g><g><path d="M235.57,218.6c.36-.27,.77-.4,1.23-.4,.41,0,.8,.13,1.16,.4,.39,.29,.68,.71,.87,1.27l9,24.61c.12,.36,.11,.7-.04,1.02-.12,.27-.33,.45-.62,.54-.29,.1-.58,.08-.87-.04-.29-.17-.51-.44-.65-.8l-3.05-8.46h-11.65l-3.09,8.46c-.15,.36-.38,.63-.69,.8-.27,.15-.54,.17-.83,.07-.29-.1-.51-.29-.65-.58-.15-.29-.13-.63,.04-1.02l8.97-24.61c.19-.56,.48-.98,.87-1.27Zm6.28,16.15l-5.01-13.79h-.11l-5.05,13.79h10.16Z"/><path d="M266.33,219.07c.22,.19,.33,.44,.33,.73,0,.27-.11,.5-.33,.69-.22,.22-.51,.33-.87,.33h-7.37v24.18c0,.34-.12,.62-.36,.83-.22,.19-.47,.29-.76,.29-.31,0-.58-.1-.8-.29-.22-.22-.33-.5-.33-.83v-24.18h-7.7c-.58,0-.87-.34-.87-1.02s.29-1.02,.87-1.02h17.32c.36,0,.65,.1,.87,.29Z"/><path d="M269.66,218.45c.22-.17,.48-.25,.8-.25,.29,0,.54,.08,.76,.25,.24,.19,.36,.46,.36,.8v13.79l14.27-14.45c.27-.29,.57-.44,.91-.44,.31-.02,.59,.06,.83,.25,.22,.19,.33,.44,.33,.73s-.15,.59-.44,.91l-9.62,9.77,10.85,14.52c.22,.31,.3,.63,.25,.94-.05,.27-.21,.48-.47,.65-.27,.15-.54,.19-.83,.15-.34-.05-.61-.22-.8-.51l-10.64-14.23-4.65,4.72v8.86c0,.36-.12,.65-.36,.87-.22,.19-.47,.29-.76,.29-.32,0-.58-.1-.8-.29-.22-.22-.33-.51-.33-.87v-25.67c0-.34,.11-.6,.33-.8Z"/><path d="M266.13,266.46c.22,.19,.33,.44,.33,.73,0,.27-.11,.5-.33,.69-.22,.22-.51,.33-.87,.33h-7.37v24.18c0,.34-.12,.62-.36,.83-.22,.19-.47,.29-.76,.29-.31,0-.58-.1-.8-.29-.22-.22-.33-.5-.33-.83v-24.18h-7.7c-.58,0-.87-.34-.87-1.02s.29-1.02,.87-1.02h17.31c.36,0,.65,.1,.87,.29Z"/></g><rect class="f" x="238.96" y="255.58" width="34.07" height="39.26"/></g></g><rect class="e" width="512" height="512"/></g></g></svg>