<svg xmlns="http://www.w3.org/2000/svg" viewBox="0 0 512 512"><defs><style>.cls-1,.cls-2,.cls-5{fill:none;}.cls-1,.cls-2,.cls-3{stroke:#000;stroke-miterlimit:10;}.cls-1{stroke-width:7px;}.cls-2,.cls-3{stroke-width:5px;}.cls-3{fill:#999;}.cls-4{font-size:33.8px;font-family:New-Gulim, New Gulim;letter-spacing:-0.06em;}</style></defs><g id="Layer_2" data-name="Layer 2"><g id="G_G_GAA---_X" data-name="G*G*GAA---****X"><polygon class="cls-1" points="38.96 134.76 70.22 113.39 190.81 101.6 289.07 111.92 439.44 111.92 470.7 124.45 482.05 158.35 472.19 365.44 449.86 397.87 401.47 410.4 260.5 397.87 82.13 410.4 38.96 399.35 24.25 377.24 28.54 167.19 38.96 134.76"/><path d="M224.15,219.16a.82.82,0,0,1-.91.94H216.1v1.12a9,9,0,0,0,2.67,6.49,16.23,16.23,0,0,0,5.7,3.6,1,1,0,0,1,.61.58,1.17,1.17,0,0,1-.07.8,1.13,1.13,0,0,1-.65.54,1.37,1.37,0,0,1-1-.08,20.23,20.23,0,0,1-5.27-3.24,9.49,9.49,0,0,1-3.1-4.29,11.39,11.39,0,0,1-3,4.51,17.46,17.46,0,0,1-5.52,3.35,1.23,1.23,0,0,1-.87,0,1.07,1.07,0,0,1-.57-.54,1,1,0,0,1-.08-.72,1,1,0,0,1,.62-.58,16.25,16.25,0,0,0,5.91-3.82,9.23,9.23,0,0,0,2.49-6.49V220.1h-7.14c-.67,0-1-.31-1-.94s.33-.9,1-.9h16.36A.8.8,0,0,1,224.15,219.16Zm4.93,16.7a1.12,1.12,0,0,1,.76-.25,1,1,0,0,1,.72.25,1,1,0,0,1,.36.79v7.5a2.3,2.3,0,0,1-.75,1.8,2.94,2.94,0,0,1-2.13.76H210.63a2.59,2.59,0,0,1-2-.76,2.62,2.62,0,0,1-.68-1.87v-7.43a1,1,0,0,1,.32-.79,1.16,1.16,0,0,1,1.44,0,1,1,0,0,1,.36.79v2.24h18.68v-2.24A1,1,0,0,1,229.08,235.86Zm-19,4.87v2.92a1.26,1.26,0,0,0,.29.9,1.53,1.53,0,0,0,1.08.32h16a1.42,1.42,0,0,0,1-.29,1.17,1.17,0,0,0,.29-.9v-3Zm20.48-7.14a1,1,0,0,1-.72.28,1.05,1.05,0,0,1-.76-.28,1.15,1.15,0,0,1-.32-.83V218.44a1,1,0,0,1,.32-.75,1.13,1.13,0,0,1,.76-.26,1,1,0,0,1,.72.26.81.81,0,0,1,.36.72v14.35A1.07,1.07,0,0,1,230.56,233.59Z"/><path d="M254.41,219.09a2.7,2.7,0,0,1,1,2.2v1.34c0,2.64-1.29,4.91-3.89,6.81q-4.18,3-11,3.28c-.77,0-1.17-.26-1.19-.86s.35-.92,1.11-.94q6.06-.25,9.6-2.67a6.68,6.68,0,0,0,3.35-5.66v-1a1.34,1.34,0,0,0-.47-1.12,1.82,1.82,0,0,0-1.19-.36H240.93c-.67,0-1-.31-1-.94s.3-.9,1-.9h11A3.7,3.7,0,0,1,254.41,219.09Zm10.35,17.2a2.54,2.54,0,0,1,.83,2v1.44a2.23,2.23,0,0,1-.79,1.77,3,3,0,0,1-2.09.72H245.62a1.59,1.59,0,0,0-1.05.29,1.13,1.13,0,0,0-.25.83v1a.84.84,0,0,0,.32.75,1.55,1.55,0,0,0,.94.22h19.83a1.3,1.3,0,0,1,.83.25,1.17,1.17,0,0,1,.29.65,1,1,0,0,1-.25.65.92.92,0,0,1-.72.29H245a2.85,2.85,0,0,1-2-.69,2.43,2.43,0,0,1-.79-1.87V243a2.55,2.55,0,0,1,.76-1.95,2.77,2.77,0,0,1,2-.69h17.16a1.79,1.79,0,0,0,1-.21.7.7,0,0,0,.4-.65v-.94a1.13,1.13,0,0,0-.33-.9,1.75,1.75,0,0,0-1.08-.25H243.17c-.73,0-1.09-.31-1.09-.94s.34-.9,1.09-.9h19.14A3.73,3.73,0,0,1,264.76,236.29Zm.47-3.46a1,1,0,0,1-.72.25,1.11,1.11,0,0,1-.76-.25,1,1,0,0,1-.32-.75V230.2h-6.38a1.27,1.27,0,0,1-.87-.29.91.91,0,0,1-.29-.65.85.85,0,0,1,.33-.65,1.4,1.4,0,0,1,.9-.25h6.31V224h-6a1.39,1.39,0,0,1-.94-.32.92.92,0,0,1-.32-.62.76.76,0,0,1,.22-.64,1,1,0,0,1,.79-.29h6.24v-3.64a1.07,1.07,0,0,1,.32-.83,1.11,1.11,0,0,1,.76-.26,1,1,0,0,1,.72.26,1,1,0,0,1,.36.82v13.56A.92.92,0,0,1,265.23,232.83Z"/><path d="M293.48,219.42a.81.81,0,0,1-.9.93h-7.14v5.85a21.93,21.93,0,0,0,2.38,10.23,15.18,15.18,0,0,0,6.09,6.57,1,1,0,0,1,.58.68,1.12,1.12,0,0,1-.07.79,1,1,0,0,1-.65.51,1.25,1.25,0,0,1-1-.15,15.7,15.7,0,0,1-5.34-5.08,18.36,18.36,0,0,1-3.06-7.28,19.4,19.4,0,0,1-3.1,7.28,14.54,14.54,0,0,1-5.45,5.08.91.91,0,0,1-.83,0,1,1,0,0,1-.54-.5,1.08,1.08,0,0,1-.11-.8,1.1,1.1,0,0,1,.62-.65,14,14,0,0,0,5.95-6.41,22,22,0,0,0,2.41-10.28v-5.88h-7.14c-.67,0-1-.31-1-.93s.34-.9,1-.9h16.37A.8.8,0,0,1,293.48,219.42Zm6.42,27.87a1,1,0,0,1-.72.29,1,1,0,0,1-.76-.29,1.13,1.13,0,0,1-.33-.83V218.41a1,1,0,0,1,.33-.76,1.25,1.25,0,0,1,.76-.22,1.23,1.23,0,0,1,.72.22.93.93,0,0,1,.36.76v28.05A1.08,1.08,0,0,1,299.9,247.29Z"/><path d="M262.92,266.6a.91.91,0,0,1,.33.72.88.88,0,0,1-.33.68,1.14,1.14,0,0,1-.86.33h-7.32v24a1.07,1.07,0,0,1-.36.83,1.13,1.13,0,0,1-.76.29,1.15,1.15,0,0,1-.79-.29,1.12,1.12,0,0,1-.33-.83v-24h-7.64c-.58,0-.87-.34-.87-1s.29-1,.87-1h17.2A1.2,1.2,0,0,1,262.92,266.6Z"/><rect class="cls-2" x="237.03" y="260.16" width="33.84" height="39"/><rect class="cls-3" x="460.35" y="233.18" width="38.51" height="43.64"/><text class="cls-4" transform="translate(468.45 266.97)">N</text><rect class="cls-3" x="13.15" y="244.03" width="38.51" height="43.64"/><text class="cls-4" transform="translate(21.25 277.81)">N</text><rect class="cls-5" width="512" height="512"/></g></g></svg>