<?xml version="1.0" encoding="UTF-8"?><svg xmlns="http://www.w3.org/2000/svg" viewBox="0 0 512 512"><defs><style>.d{letter-spacing:-.06em;}.d,.e{font-family:New-Gulim, New Gulim;font-size:38.22px;}.f,.g{fill:none;}.g{stroke:#000;stroke-miterlimit:10;stroke-width:7px;}.e{letter-spacing:-.06em;}</style></defs><g id="a"/><g id="b"><g id="c"><polygon class="g" points="129.8 96.8 171.4 86.4 449 96.8 502 142.4 502 174.4 435.4 206.4 394.6 260.8 437 293.6 446.6 324.8 446.6 362.4 417 404.8 328.2 425.6 282.6 425.6 265 405.6 240.2 393.6 196.2 393.6 152.2 381.6 74.6 405.6 10 370.4 103.4 275.2 130.6 237.6 120.2 210.4 129.8 96.8"/><text class="d" transform="translate(214.73 192.97)"><tspan x="0" y="0">ASLT</tspan><tspan x="7.14" y="48.73">PSN</tspan></text><rect class="g" x="238.48" y="254" width="35.03" height="40.37"/><rect class="f" width="512" height="512"/><text class="e" transform="translate(244.88 288.33)"><tspan x="0" y="0">T</tspan></text></g></g></svg>