<svg xmlns="http://www.w3.org/2000/svg" viewBox="0 0 512 512"><defs><style>.cls-1,.cls-4,.cls-5{fill:none;}.cls-1{stroke:lime;}.cls-1,.cls-2,.cls-4{stroke-miterlimit:10;stroke-width:5px;}.cls-2{fill:#999;stroke:#000;}.cls-3{font-size:29.44px;font-family:New-Gulim, New Gulim;letter-spacing:-0.06em;}.cls-4{stroke:#231f20;}</style></defs><g id="Layer_2" data-name="Layer 2"><g id="G_M_OFD---_X" data-name="G*M*OFD---****X"><polygon class="cls-1" points="469.48 276.88 454.27 345.68 445.48 354.48 405.48 354.48 367.07 335.28 347.07 321.68 251.07 322.48 190.28 328.88 160.68 340.08 132.68 338.48 98.28 354.48 71.08 354.48 53.48 337.68 46.27 322.48 46.27 266.48 46.27 232.88 46.27 188.08 55.88 152.88 85.47 152.88 127.88 170.48 177.47 188.88 248.68 188.88 377.48 167.28 411.88 152.88 436.68 152.88 452.68 170.48 452.68 198.48 464.68 242.48 469.48 276.88"/><rect class="cls-2" x="448.48" y="234.68" width="34.5" height="38"/><text class="cls-3" transform="translate(456.72 264.1) scale(0.93 1)">N</text><rect class="cls-2" x="29.03" y="236.23" width="34.5" height="38"/><text class="cls-3" transform="translate(37.27 265.65) scale(0.93 1)">N</text><rect class="cls-2" x="241.79" y="155.63" width="34.5" height="38"/><text class="cls-3" transform="translate(249.61 185.05) scale(0.93 1)">H</text><rect class="cls-2" x="240.77" y="321.12" width="34.5" height="38"/><text class="cls-3" transform="translate(246.35 350.54) scale(0.93 1)">W</text><rect class="cls-4" x="241.78" y="249.14" width="9.08" height="9.08"/><rect class="cls-4" x="251.45" y="249.14" width="9.08" height="9.08"/><rect class="cls-4" x="261.11" y="249.14" width="9.08" height="9.08"/><rect class="cls-5" width="512" height="512"/></g></g></svg>