<svg xmlns="http://www.w3.org/2000/svg" viewBox="0 0 512 512"><defs><style>.cls-1,.cls-4{fill:none;}.cls-1{stroke:lime;}.cls-1,.cls-2{stroke-miterlimit:10;stroke-width:5px;}.cls-2{fill:#999;stroke:#000;}.cls-3{font-size:28.61px;font-family:Gulim;}</style></defs><g id="Layer_2" data-name="Layer 2"><g id="G_M_OGZ---_X" data-name="G*M*OGZ---****X"><polyline class="cls-1" points="159.09 377.85 170.53 356.48 203.35 358.75 211.75 381.49"/><polyline class="cls-1" points="106.42 374.21 117.87 352.84 150.68 355.11 159.09 377.85"/><polyline class="cls-1" points="53.76 370.57 65.2 349.2 98.02 351.47 106.42 374.21"/><polyline class="cls-1" points="211.75 381.49 223.2 360.12 256.01 362.38 264.42 385.12"/><polyline class="cls-1" points="159.09 377.85 170.53 356.48 203.35 358.75 211.75 381.49"/><polyline class="cls-1" points="106.42 374.21 117.87 352.84 150.68 355.11 159.09 377.85"/><polyline class="cls-1" points="264.42 385.12 275.87 363.76 308.68 366.02 317.08 388.76"/><polyline class="cls-1" points="211.75 381.49 223.2 360.12 256.01 362.38 264.42 385.12"/><polyline class="cls-1" points="159.09 377.85 170.53 356.48 203.35 358.75 211.75 381.49"/><polyline class="cls-1" points="317.08 388.76 328.53 367.39 361.35 369.66 369.75 392.4"/><polyline class="cls-1" points="264.42 385.12 275.87 363.76 308.68 366.02 317.08 388.76"/><polyline class="cls-1" points="211.75 381.49 223.2 360.12 256.01 362.38 264.42 385.12"/><polyline class="cls-1" points="369.75 392.4 381.2 371.03 414.01 373.3 422.41 396.04"/><polyline class="cls-1" points="317.08 388.76 328.53 367.39 361.35 369.66 369.75 392.4"/><polyline class="cls-1" points="264.42 385.12 275.87 363.76 308.68 366.02 317.08 388.76"/><polyline class="cls-1" points="369.75 392.4 381.2 371.03 414.01 373.3 422.41 396.04"/><polyline class="cls-1" points="317.08 388.76 328.53 367.39 361.35 369.66 369.75 392.4"/><polyline class="cls-1" points="422.41 396.04 433.71 374.66 439.07 375.03 439.56 369.68 462.48 361.94"/><polyline class="cls-1" points="466.91 313.75 445.73 302.64 448.5 272.6 471.34 265.55"/><polyline class="cls-1" points="462.48 361.94 441.3 350.84 444.06 320.8 466.91 313.75"/><polyline class="cls-1" points="471.34 265.55 450.17 254.44 452.93 224.41 475.78 217.35"/><polyline class="cls-1" points="466.91 313.75 445.73 302.64 448.5 272.6 471.34 265.55"/><polyline class="cls-1" points="462.48 361.94 441.3 350.84 444.06 320.8 466.91 313.75"/><polyline class="cls-1" points="471.34 265.55 450.17 254.44 452.93 224.41 475.78 217.35"/><polyline class="cls-1" points="466.91 313.75 445.73 302.64 448.5 272.6 471.34 265.55"/><polyline class="cls-1" points="475.78 217.35 454.66 205.56 455.2 199.73 449.42 198.8 443.27 175.42"/><polyline class="cls-1" points="390.61 166.92 377.17 187.15 344.36 181.85 337.95 158.43"/><polyline class="cls-1" points="443.27 175.42 429.82 195.64 397.01 190.35 390.61 166.92"/><polyline class="cls-1" points="337.95 158.43 324.51 178.65 291.7 173.36 285.3 149.94"/><polyline class="cls-1" points="390.61 166.92 377.17 187.15 344.36 181.85 337.95 158.43"/><polyline class="cls-1" points="443.27 175.42 429.82 195.64 397.01 190.35 390.61 166.92"/><polyline class="cls-1" points="285.3 149.94 271.86 170.16 239.05 164.87 232.64 141.44"/><polyline class="cls-1" points="337.95 158.43 324.51 178.65 291.7 173.36 285.3 149.94"/><polyline class="cls-1" points="390.61 166.92 377.17 187.15 344.36 181.85 337.95 158.43"/><polyline class="cls-1" points="232.64 141.44 219.2 161.67 186.39 156.37 179.99 132.95"/><polyline class="cls-1" points="285.3 149.94 271.86 170.16 239.05 164.87 232.64 141.44"/><polyline class="cls-1" points="337.95 158.43 324.51 178.65 291.7 173.36 285.3 149.94"/><polyline class="cls-1" points="179.99 132.95 166.54 153.17 133.73 147.88 127.33 124.46"/><polyline class="cls-1" points="232.64 141.44 219.2 161.67 186.39 156.37 179.99 132.95"/><polyline class="cls-1" points="285.3 149.94 271.86 170.16 239.05 164.87 232.64 141.44"/><polyline class="cls-1" points="127.33 124.46 113.89 144.68 81.08 139.39 74.67 115.96"/><polyline class="cls-1" points="179.99 132.95 166.54 153.17 133.73 147.88 127.33 124.46"/><polyline class="cls-1" points="232.64 141.44 219.2 161.67 186.39 156.37 179.99 132.95"/><polyline class="cls-1" points="127.33 124.46 113.89 144.68 81.08 139.39 74.67 115.96"/><polyline class="cls-1" points="179.99 132.95 166.54 153.17 133.73 147.88 127.33 124.46"/><polyline class="cls-1" points="74.67 115.96 65.18 145.58 36.22 148.71"/><polyline class="cls-1" points="36.22 195.69 58.33 204.54 58.33 233.81 36.22 242.66"/><polyline class="cls-1" points="36.22 148.71 58.33 157.56 58.33 186.83 36.22 195.69"/><polyline class="cls-1" points="36.22 242.66 58.33 251.51 58.33 280.78 36.22 289.64"/><polyline class="cls-1" points="36.22 195.69 58.33 204.54 58.33 233.81 36.22 242.66"/><polyline class="cls-1" points="36.22 148.71 58.33 157.56 58.33 186.83 36.22 195.69"/><polyline class="cls-1" points="36.22 289.64 58.33 298.49 58.33 327.76 36.22 336.61"/><polyline class="cls-1" points="36.22 242.66 58.33 251.51 58.33 280.78 36.22 289.64"/><polyline class="cls-1" points="36.22 195.69 58.33 204.54 58.33 233.81 36.22 242.66"/><rect class="cls-2" x="243.01" y="238.35" width="25.97" height="35.31"/><text class="cls-3" transform="translate(247.67 266.85)">T</text><rect class="cls-4" width="512" height="512"/></g></g></svg>