<?xml version="1.0" encoding="UTF-8"?><svg xmlns="http://www.w3.org/2000/svg" viewBox="0 0 512 512"><defs><style>.d{fill:#ff0;}.d,.e{stroke-width:10px;}.d,.e,.f{stroke:#000;}.d,.f{stroke-miterlimit:10;}.e{stroke-linejoin:round;}.e,.g{fill:none;}.h{font-size:51.65px;}.h,.i{font-family:Gulim, Gulim;}.f{fill:#fff;stroke-width:5px;}.i{font-size:50.92px;}</style></defs><g id="a"/><g id="b"><g id="c"><path class="d" d="M316.25,182.54V67.58h-50.6v114.96c-17.01,9.06-28.6,26.97-28.6,47.59,0,29.76,24.13,53.89,53.89,53.89s53.89-24.13,53.89-53.89c0-20.62-11.58-38.53-28.6-47.59Z"/><g><rect class="f" x="382.01" y="66.08" width="85" height="65"/><text class="h" transform="translate(406.95 118.16) scale(.93 1)"><tspan x="0" y="0">H</tspan></text></g><rect class="f" x="382.01" y="226.26" width="85" height="65"/><text class="h" transform="translate(407.71 278.34) scale(.93 1)"><tspan x="0" y="0">N</tspan></text><text class="h" transform="translate(407.71 278.34) scale(.93 1)"><tspan x="0" y="0">N</tspan></text><text class="h" transform="translate(407.71 278.34) scale(.93 1)"><tspan x="0" y="0">N</tspan></text><g><rect class="f" x="114.89" y="226.26" width="85" height="65"/><text class="h" transform="translate(143.4 278.34) scale(.93 1)"><tspan x="0" y="0">T</tspan></text></g><g><rect class="f" x="114.89" y="63.58" width="85" height="65"/><text class="h" transform="translate(135.89 115.66) scale(.93 1)"><tspan x="0" y="0">W</tspan></text></g><g><rect class="f" x="44.99" y="325.01" width="85" height="65"/><text class="h" transform="translate(68.9 377.09) scale(.93 1)"><tspan x="0" y="0">Q</tspan></text></g><polyline class="e" points="284.35 381.06 284.35 448.42 157.39 370.23"/><polyline points="178.64 364.22 140.26 357.51 140.26 357.51 161.02 390.48"/><g><rect class="f" x="246.28" y="316.81" width="85" height="65"/><text class="h" transform="translate(273.76 368.89) scale(.93 1)"><tspan x="0" y="0">Y</tspan></text></g><text class="h" transform="translate(271.53 247.57) scale(.93 1)"><tspan x="0" y="0">C</tspan></text><text class="i" transform="translate(107.56 202.2) scale(.94 1)"><tspan x="0" y="0">CML</tspan></text><rect class="g" width="512" height="512"/></g></g></svg>