<svg xmlns="http://www.w3.org/2000/svg" viewBox="0 0 512 512"><defs><style>.cls-1{fill:lime;}.cls-2{fill:none;}</style></defs><g id="Layer_2" data-name="Layer 2"><g id="G_M_OAR---_X" data-name="G*M*OAR---****X"><path class="cls-1" d="M34.55,276.46h7.84s-4.35-36.8,22.88-36.8,22.88,36.8,22.88,36.8H96s-4.35-36.8,22.88-36.8,22.88,36.8,22.88,36.8h7.84s-4.35-36.8,22.88-36.8,22.88,36.8,22.88,36.8h7.84s-4.35-36.8,22.88-36.8S249,276.46,249,276.46h7.84s-4.35-36.8,22.88-36.8,22.88,36.8,22.88,36.8h7.84s-4.36-36.8,22.88-36.8,22.88,36.8,22.88,36.8H364s-4.36-36.8,22.88-36.8,22.88,36.8,22.88,36.8h7.84s-4.36-36.8,22.88-36.8,22.87,36.8,22.87,36.8h7.85s-4.36-36.8,22.88-36.8c.62,0,1.21,0,1.8.08V234.5H16.13V240C38.4,243.86,34.55,276.46,34.55,276.46Z"/><circle class="cls-1" cx="64.55" cy="263.1" r="14.4"/><circle class="cls-1" cx="118.23" cy="263.1" r="14.4"/><circle class="cls-1" cx="171.91" cy="263.1" r="14.4"/><circle class="cls-1" cx="225.59" cy="263.1" r="14.4"/><circle class="cls-1" cx="279.27" cy="263.1" r="14.4"/><circle class="cls-1" cx="332.96" cy="263.1" r="14.4"/><circle class="cls-1" cx="386.64" cy="263.1" r="14.4"/><circle class="cls-1" cx="440.32" cy="263.1" r="14.4"/><path class="cls-1" d="M25.27,263.1a14.39,14.39,0,0,0-9.14-13.39v26.78A14.39,14.39,0,0,0,25.27,263.1Z"/><path class="cls-1" d="M494,248.7a14.4,14.4,0,1,0,0,28.8,14.57,14.57,0,0,0,1.87-.14V248.83A14.56,14.56,0,0,0,494,248.7Z"/><rect class="cls-2" width="512" height="512"/></g></g></svg>