<svg xmlns="http://www.w3.org/2000/svg" viewBox="0 0 512 512"><defs><style>.cls-1,.cls-2{fill:none;}.cls-1{stroke:lime;stroke-miterlimit:10;stroke-width:10px;}</style></defs><g id="Layer_2" data-name="Layer 2"><g id="G_M_OWL---_X" data-name="G*M*OWL---****X"><line class="cls-1" x1="19.2" y1="233" x2="62.47" y2="276.27"/><line class="cls-1" x1="19.2" y1="276.2" x2="62.4" y2="233"/><line class="cls-1" x1="73.85" y1="233" x2="117.11" y2="276.27"/><line class="cls-1" x1="73.85" y1="276.2" x2="117.05" y2="233"/><line class="cls-1" x1="128.49" y1="233" x2="171.76" y2="276.27"/><line class="cls-1" x1="128.49" y1="276.2" x2="171.69" y2="233"/><line class="cls-1" x1="183.14" y1="233" x2="226.4" y2="276.27"/><line class="cls-1" x1="183.14" y1="276.2" x2="226.34" y2="233"/><line class="cls-1" x1="237.78" y1="233" x2="281.05" y2="276.27"/><line class="cls-1" x1="237.78" y1="276.2" x2="280.98" y2="233"/><line class="cls-1" x1="292.43" y1="233" x2="335.7" y2="276.27"/><line class="cls-1" x1="292.43" y1="276.2" x2="335.63" y2="233"/><line class="cls-1" x1="347.07" y1="233" x2="390.34" y2="276.27"/><line class="cls-1" x1="347.07" y1="276.2" x2="390.27" y2="233"/><line class="cls-1" x1="401.72" y1="233" x2="444.99" y2="276.27"/><line class="cls-1" x1="401.72" y1="276.2" x2="444.92" y2="233"/><polyline class="cls-1" points="467.2 276.2 488.8 254.6 467.2 233"/><line class="cls-1" x1="16.2" y1="279" x2="496.2" y2="279"/><rect class="cls-2" width="512" height="512"/></g></g></svg>