<svg xmlns="http://www.w3.org/2000/svg" viewBox="0 0 512 512"><defs><style>.cls-1,.cls-2{fill:none;}.cls-1{stroke:#000;stroke-miterlimit:10;stroke-width:10px;}</style></defs><g id="Layer_2" data-name="Layer 2"><g id="G_M_BDD---_X" data-name="G*M*BDD---****X"><polygon points="463.92 83.11 485.33 101.44 463.92 120.08 463.92 83.11"/><polygon points="463.92 391.92 485.33 410.25 463.92 428.89 463.92 391.92"/><polyline class="cls-1" points="472.53 101.59 55.73 101.59 26.67 119.41 52.27 135.67 26.67 151.94 52.27 168.21 26.67 184.47 52.27 200.74 26.67 217 52.27 233.27 26.67 249.54 52.27 265.81 26.67 282.07 52.27 298.34 26.67 314.61 52.27 330.87 26.67 347.14 52.27 363.4 26.67 379.67 52.27 395.94 31.16 409.35 474.13 409.35"/><rect class="cls-2" width="512" height="512"/></g></g></svg>