<?xml version="1.0" encoding="UTF-8"?><svg xmlns="http://www.w3.org/2000/svg" viewBox="0 0 512 512"><defs><style>.d,.e,.f{fill:none;}.d,.f{stroke-width:10px;}.d,.f,.g{stroke:#000;}.d,.g{stroke-miterlimit:10;}.h{font-size:96.87px;}.h,.i{font-family:Gulim, Gulim;}.f{stroke-linecap:round;stroke-linejoin:round;}.i{font-size:51.65px;}.g{fill:#fff;stroke-width:5px;}</style></defs><g id="a"/><g id="b"><g id="c"><rect class="g" x="364.16" y="126.98" width="120" height="65"/><text class="i" transform="translate(380.27 179.07) scale(1.07 1)"><tspan x="0" y="0">T</tspan></text><rect class="g" x="364.16" y="291.02" width="120" height="65"/><text class="i" transform="translate(377.02 343.1) scale(1.07 1)"><tspan x="0" y="0">N</tspan></text><rect class="g" x="27.84" y="198.98" width="120" height="65"/><text class="i" transform="translate(47.16 251.07) scale(1.07 1)"><tspan x="0" y="0">W1</tspan></text><rect class="g" x="28.23" y="126.98" width="120" height="65"/><text class="i" transform="translate(89.87 179.07) scale(1.07 1)"><tspan x="0" y="0">W</tspan></text><rect class="d" x="158.09" y="129.98" width="195" height="233.19"/><polygon class="f" points="253.29 457.89 158.09 366.17 353.09 366.17 253.29 457.89"/><text class="h" transform="translate(156.71 218.91) scale(.95 1)"><tspan x="0" y="0">DCN</tspan><tspan x="75.4" y="116.25">T</tspan></text><g><rect class="g" x="195.59" y="54.11" width="120" height="65"/><text class="i" transform="translate(235.36 106.2) scale(1.07 1)"><tspan x="0" y="0">H</tspan></text></g><rect class="e" width="512" height="512"/></g></g></svg>