<svg xmlns="http://www.w3.org/2000/svg" viewBox="0 0 512 512"><defs><style>.cls-1,.cls-3{fill:none;}.cls-1{stroke:lime;stroke-miterlimit:10;stroke-width:5px;}.cls-2{font-size:25.74px;font-family:New-Gulim, New Gulim;}</style></defs><g id="Layer_2" data-name="Layer 2"><g id="G_M_OU----_X" data-name="G*M*OU----****X"><polyline class="cls-1" points="44.76 235.2 44.76 190.4 54.36 155.2 83.96 155.2 126.36 172.8 175.96 191.2 247.16 191.2 375.96 169.6 410.36 155.2 435.16 155.2 451.16 172.8 451.16 200.8 463.16 244.8"/><polyline class="cls-1" points="44.76 268.8 44.76 324.8 51.96 340 69.56 356.8 96.76 356.8 131.16 340.8 159.16 342.4 188.76 331.2 249.56 324.8 345.56 324 365.56 337.6 403.96 356.8 443.96 356.8 452.76 348 467.96 279.2"/><text class="cls-2" transform="translate(16.95 259.49)">UXO</text><text class="cls-2" transform="translate(440.86 268.8)">UXO</text><rect class="cls-3" width="512" height="512"/></g></g></svg>