<svg xmlns="http://www.w3.org/2000/svg" viewBox="0 0 512 512"><defs><style>.cls-1,.cls-2{fill:none;}.cls-1{stroke:lime;stroke-miterlimit:10;stroke-width:10px;}</style></defs><g id="Layer_2" data-name="Layer 2"><g id="G_M_OWCD--_X" data-name="G*M*OWCD--****X"><ellipse class="cls-1" cx="35.03" cy="256" rx="12" ry="22.5"/><ellipse class="cls-1" cx="75.86" cy="256" rx="12" ry="22.5"/><ellipse class="cls-1" cx="116.68" cy="256" rx="12" ry="22.5"/><ellipse class="cls-1" cx="157.51" cy="256" rx="12" ry="22.5"/><ellipse class="cls-1" cx="198.33" cy="256" rx="12" ry="22.5"/><ellipse class="cls-1" cx="239.16" cy="256" rx="12" ry="22.5"/><ellipse class="cls-1" cx="279.98" cy="256" rx="12" ry="22.5"/><ellipse class="cls-1" cx="320.8" cy="256" rx="12" ry="22.5"/><ellipse class="cls-1" cx="361.63" cy="256" rx="12" ry="22.5"/><ellipse class="cls-1" cx="402.45" cy="256" rx="12" ry="22.5"/><ellipse class="cls-1" cx="443.28" cy="256" rx="12" ry="22.5"/><path class="cls-1" d="M490.1,278.5c-6.62,0-12-10.07-12-22.5s5.38-22.5,12-22.5Z"/><line class="cls-1" x1="34.97" y1="278.5" x2="494.97" y2="278.5"/><line class="cls-1" x1="23.03" y1="256" x2="496.2" y2="256"/><rect class="cls-2" width="512" height="512"/></g></g></svg>