<svg xmlns="http://www.w3.org/2000/svg" viewBox="0 0 512 512"><defs><style>.cls-1,.cls-2{fill:none;}.cls-1{stroke:#000;stroke-miterlimit:10;stroke-width:10px;}</style></defs><g id="Layer_2" data-name="Layer 2"><g id="G_M_SL----_X" data-name="G*M*SL----****X"><polyline class="cls-1" points="21 262.7 21 243.1 51 243.1 51 268.9 81 268.9 81 243.1 111 243.1 111 268.9 141 268.9 141 243.1 171 243.1 171 268.9 201 268.9 201 243.1 231 243.1 231 268.9 261 268.9 261 243.1 291 243.1 291 268.9 321 268.9 321 243.1 351 243.1 351 268.9 381 268.9 381 243.1 411 243.1 411 268.9 441 268.9 441 243.1 471 243.1 471 268.9 496 268.9"/><rect class="cls-2" width="512" height="512"/></g></g></svg>