<svg xmlns="http://www.w3.org/2000/svg" viewBox="0 0 512 512"><defs><style>.cls-1,.cls-2,.cls-3{fill:none;}.cls-1,.cls-2{stroke:#000;stroke-miterlimit:10;}.cls-1{stroke-width:10px;}.cls-2{stroke-width:5px;}</style></defs><g id="Layer_2" data-name="Layer 2"><g id="G_M_BCD---_X" data-name="G*M*BCD---****X"><line class="cls-1" x1="16" y1="177.09" x2="146.02" y2="177.09"/><line class="cls-1" x1="190.99" y1="177.09" x2="321.01" y2="177.09"/><line class="cls-1" x1="365.98" y1="177.09" x2="496" y2="177.09"/><line class="cls-1" x1="16" y1="334.91" x2="146.02" y2="334.91"/><line class="cls-1" x1="321.01" y1="334.91" x2="190.99" y2="334.91"/><line class="cls-1" x1="365.98" y1="334.91" x2="496" y2="334.91"/><polyline class="cls-2" points="246.55 165.05 265.45 174.59 248.8 183.3 265.45 192.01 248.8 200.72 265.45 209.43 248.8 218.14 265.45 226.85 248.8 235.56 265.45 244.27 248.8 252.98 265.45 261.69 248.8 270.4 265.45 279.11 248.8 287.82 265.45 296.53 248.8 305.24 265.45 313.95 248.8 322.66 262.57 329.84 249.05 339.38 258.13 346.95"/><rect class="cls-3" width="512" height="512"/></g></g></svg>