<svg xmlns="http://www.w3.org/2000/svg" xmlns:xlink="http://www.w3.org/1999/xlink" viewBox="0 0 512 512"><defs><style>.cls-1,.cls-2{fill:none;}.cls-2,.cls-3,.cls-4{stroke:#231f20;}.cls-3,.cls-4{stroke-miterlimit:10;}.cls-3{stroke-width:7px;fill:url(#_10_lpi_10_2);}.cls-4{fill:#ff0;stroke-width:2px;}.cls-5{font-size:20px;letter-spacing:-0.06em;}.cls-5,.cls-6{font-family:New-Gulim, New Gulim;}.cls-6{font-size:25px;letter-spacing:-0.06em;}</style><pattern id="_10_lpi_10_2" data-name="10 lpi 10% 2" width="72" height="72" patternUnits="userSpaceOnUse" viewBox="0 0 72 72"><rect class="cls-1" width="72" height="72"/><line class="cls-2" x1="78.82" y1="72.09" x2="71.81" y2="79.1"/><line class="cls-2" x1="107.91" y1="71.84" x2="71.78" y2="107.97"/><line class="cls-2" x1="136.67" y1="71.92" x2="71.66" y2="136.94"/><line class="cls-2" x1="93.41" y1="71.92" x2="71.82" y2="93.51"/><line class="cls-2" x1="122.25" y1="71.92" x2="71.66" y2="122.52"/><line class="cls-2" x1="6.82" y1="72.09" x2="-0.19" y2="79.1"/><line class="cls-2" x1="35.91" y1="71.84" x2="-0.22" y2="107.97"/><line class="cls-2" x1="64.67" y1="71.92" x2="-0.34" y2="136.94"/><line class="cls-2" x1="21.41" y1="71.92" x2="-0.18" y2="93.51"/><line class="cls-2" x1="50.25" y1="71.92" x2="-0.34" y2="122.52"/><line class="cls-2" x1="78.82" y1="0.09" x2="71.81" y2="7.1"/><line class="cls-2" x1="107.91" y1="-0.16" x2="71.78" y2="35.97"/><line class="cls-2" x1="136.67" y1="-0.08" x2="71.66" y2="64.94"/><line class="cls-2" x1="93.41" y1="-0.08" x2="71.82" y2="21.51"/><line class="cls-2" x1="122.25" y1="-0.08" x2="71.66" y2="50.52"/><line class="cls-2" x1="6.82" y1="0.09" x2="-0.19" y2="7.1"/><line class="cls-2" x1="35.91" y1="-0.16" x2="-0.22" y2="35.97"/><line class="cls-2" x1="64.67" y1="-0.08" x2="-0.34" y2="64.94"/><line class="cls-2" x1="72.34" y1="21.09" x2="21.28" y2="72.16"/><line class="cls-2" x1="71.88" y1="50.4" x2="50.84" y2="71.44"/><line class="cls-2" x1="21.41" y1="-0.08" x2="-0.18" y2="21.51"/><line class="cls-2" x1="50.25" y1="-0.08" x2="-0.34" y2="50.52"/><line class="cls-2" x1="72.34" y1="6.67" x2="6.86" y2="72.16"/><line class="cls-2" x1="71.88" y1="35.98" x2="35.7" y2="72.16"/><line class="cls-2" x1="71.88" y1="64.82" x2="64.78" y2="71.92"/><line class="cls-2" x1="0.34" y1="21.09" x2="-50.72" y2="72.16"/><line class="cls-2" x1="-0.12" y1="50.4" x2="-21.16" y2="71.44"/><line class="cls-2" x1="0.34" y1="6.67" x2="-65.14" y2="72.16"/><line class="cls-2" x1="-0.12" y1="35.98" x2="-36.3" y2="72.16"/><line class="cls-2" x1="-0.12" y1="64.82" x2="-7.22" y2="71.92"/><line class="cls-2" x1="72.34" y1="-50.91" x2="21.28" y2="0.16"/><line class="cls-2" x1="72.34" y1="-65.33" x2="6.86" y2="0.16"/><line class="cls-2" x1="71.88" y1="-36.02" x2="35.7" y2="0.16"/><line class="cls-2" x1="71.88" y1="-7.18" x2="64.78" y2="-0.08"/><line class="cls-2" x1="0.34" y1="-50.91" x2="-50.72" y2="0.16"/><line class="cls-2" x1="0.34" y1="-65.33" x2="-65.14" y2="0.16"/><line class="cls-2" x1="-0.12" y1="-36.02" x2="-36.3" y2="0.16"/><line class="cls-2" x1="-0.12" y1="-7.18" x2="-7.22" y2="-0.08"/></pattern></defs><g id="Layer_2" data-name="Layer 2"><g id="G_M_NB----_X" data-name="G*M*NB----****X"><polygon class="cls-3" points="47.63 142.93 74.3 134.93 128.17 134.93 248.7 122.13 348.97 102.4 432.7 112 477.5 177.6 477.5 219.73 500.1 281.6 475.37 314.13 359.63 314.13 320.17 336 319.1 358.4 297.77 397.87 254.6 409.6 224.17 387.73 139.37 367.47 44.43 326.93 14.57 234.67 11.9 174.4 47.63 142.93"/><polygon class="cls-4" points="282.67 293.53 264 256.11 264 213.73 248 213.73 248 256.11 229.33 293.53 282.67 293.53"/><text class="cls-5" transform="translate(249.72 284.19) scale(0.93 1)">B</text><text class="cls-6" transform="translate(186.93 262.99) scale(0.93 1)">BIO</text><rect class="cls-1" width="512" height="512"/></g></g></svg>