<?xml version="1.0" encoding="UTF-8"?><svg xmlns="http://www.w3.org/2000/svg" viewBox="0 0 512 512"><defs><style>.d{fill:#ff0;}.d,.e{stroke-width:10px;}.d,.e,.f{stroke:#000;}.d,.f{stroke-miterlimit:10;}.e{stroke-linejoin:round;}.e,.g{fill:none;}.h{font-family:Gulim, Gulim;font-size:51.65px;}.f{fill:#fff;stroke-width:5px;}</style></defs><g id="a"/><g id="b"><g id="c"><g><path class="d" d="M206.3,167.32c0-38.66,33.58-70,75-70s75,31.34,75,70H206.3Z"/><rect class="d" x="256.3" y="167.98" width="50" height="150"/><g><rect class="f" x="374.53" y="95.82" width="85" height="65"/><text class="h" transform="translate(399.47 147.91) scale(.93 1)"><tspan x="0" y="0">H</tspan></text></g><rect class="f" x="374.53" y="256" width="85" height="65"/><text class="h" transform="translate(400.22 308.08) scale(.93 1)"><tspan x="0" y="0">N</tspan></text><text class="h" transform="translate(400.22 308.08) scale(.93 1)"><tspan x="0" y="0">N</tspan></text><text class="h" transform="translate(400.22 308.08) scale(.93 1)"><tspan x="0" y="0">N</tspan></text><text class="h" transform="translate(264.49 260) scale(.93 1)"><tspan x="0" y="0">N</tspan></text><g><rect class="f" x="107.4" y="256" width="85" height="65"/><text class="h" transform="translate(135.92 308.08) scale(.93 1)"><tspan x="0" y="0">T</tspan></text></g><g><rect class="f" x="107.4" y="174.66" width="85" height="65"/><text class="h" transform="translate(135.49 226.74) scale(.93 1)"><tspan x="0" y="0">V</tspan></text></g><g><rect class="f" x="107.4" y="93.32" width="85" height="65"/><text class="h" transform="translate(128.4 145.41) scale(.93 1)"><tspan x="0" y="0">W</tspan></text></g><g><rect class="f" x="238.8" y="20.49" width="85" height="65"/><text class="h" transform="translate(264.05 72.57) scale(.93 1)"><tspan x="0" y="0">C</tspan></text></g><g><rect class="f" x="37.51" y="354.75" width="85" height="65"/><text class="h" transform="translate(61.42 406.83) scale(.93 1)"><tspan x="0" y="0">Q</tspan></text></g><polyline class="e" points="276.87 410.81 276.87 478.16 149.9 399.97"/><polyline points="171.15 393.97 132.77 387.25 132.77 387.25 153.53 420.22"/><g><rect class="f" x="238.8" y="346.55" width="85" height="65"/><text class="h" transform="translate(266.28 398.63) scale(.93 1)"><tspan x="0" y="0">Y</tspan></text></g></g><rect class="g" width="512" height="512"/></g></g></svg>