<svg xmlns="http://www.w3.org/2000/svg" viewBox="0 0 512 512"><defs><style>.cls-1,.cls-5{fill:none;}.cls-1{stroke:#231f20;stroke-width:3px;}.cls-1,.cls-2{stroke-miterlimit:10;}.cls-2{fill:#999;stroke:#000;stroke-width:5px;}.cls-3,.cls-4{font-size:32.28px;font-family:New-Gulim, New Gulim;}.cls-3{letter-spacing:-0.06em;}.cls-4{letter-spacing:-0.06em;}</style></defs><g id="Layer_2" data-name="Layer 2"><g id="G_M_SP----_X" data-name="G*M*SP----****X"><line class="cls-1" x1="28.65" y1="249.01" x2="28.65" y2="275.64"/><line class="cls-1" x1="28.65" y1="255.72" x2="9.45" y2="255.72"/><line class="cls-1" x1="28.65" y1="268.93" x2="9.45" y2="268.93"/><line class="cls-1" x1="29.65" y1="278.15" x2="47.35" y2="296.82"/><line class="cls-1" x1="34.11" y1="282.85" x2="20.18" y2="296.06"/><line class="cls-1" x1="42.89" y1="292.11" x2="28.96" y2="305.32"/><line class="cls-1" x1="47.35" y1="296.82" x2="65.05" y2="315.49"/><line class="cls-1" x1="51.81" y1="301.52" x2="37.88" y2="314.73"/><line class="cls-1" x1="60.59" y1="310.78" x2="46.65" y2="323.99"/><polyline class="cls-1" points="67.7 316.63 76.74 316.63 94.66 323.35"/><line class="cls-1" x1="74.78" y1="316.63" x2="73.06" y2="335.82"/><line class="cls-1" x1="88.77" y1="321.14" x2="82.02" y2="339.11"/><line class="cls-1" x1="94.66" y1="323.35" x2="118.03" y2="332.13"/><line class="cls-1" x1="100.55" y1="325.56" x2="93.8" y2="343.54"/><line class="cls-1" x1="112.14" y1="329.92" x2="105.39" y2="347.89"/><line class="cls-1" x1="118.03" y1="332.13" x2="141.41" y2="340.9"/><line class="cls-1" x1="123.92" y1="334.34" x2="117.18" y2="352.31"/><line class="cls-1" x1="135.52" y1="338.69" x2="128.77" y2="356.67"/><line class="cls-1" x1="141.41" y1="340.9" x2="164.79" y2="349.68"/><line class="cls-1" x1="147.3" y1="343.12" x2="140.55" y2="361.09"/><line class="cls-1" x1="158.9" y1="347.47" x2="152.15" y2="365.44"/><polyline class="cls-1" points="164.79 349.68 180.29 355.5 186.4 356.14"/><line class="cls-1" x1="170.68" y1="351.89" x2="163.93" y2="369.87"/><line class="cls-1" x1="180.57" y1="355.53" x2="177.64" y2="374.53"/><line class="cls-1" x1="186.4" y1="356.14" x2="211.23" y2="358.73"/><line class="cls-1" x1="192.66" y1="356.79" x2="190.66" y2="375.89"/><line class="cls-1" x1="204.97" y1="358.08" x2="202.98" y2="377.18"/><line class="cls-1" x1="211.23" y1="358.73" x2="236.07" y2="361.33"/><line class="cls-1" x1="217.49" y1="359.39" x2="215.49" y2="378.48"/><line class="cls-1" x1="229.81" y1="360.68" x2="227.81" y2="379.77"/><polyline class="cls-1" points="236.07 361.33 243.35 362.09 260.07 362.09"/><line class="cls-1" x1="242.32" y1="361.98" x2="240.33" y2="381.08"/><line class="cls-1" x1="253.78" y1="362.09" x2="253.78" y2="381.29"/><polyline class="cls-1" points="260.07 362.09 280.19 362.09 283.89 361.62"/><line class="cls-1" x1="266.37" y1="362.09" x2="266.37" y2="381.29"/><line class="cls-1" x1="278.75" y1="362.09" x2="278.75" y2="381.29"/><line class="cls-1" x1="283.89" y1="361.62" x2="308.65" y2="358.45"/><line class="cls-1" x1="290.13" y1="360.82" x2="292.56" y2="379.87"/><line class="cls-1" x1="302.41" y1="359.25" x2="304.85" y2="378.3"/><line class="cls-1" x1="308.65" y1="358.45" x2="333.42" y2="355.29"/><line class="cls-1" x1="314.9" y1="357.66" x2="317.33" y2="376.7"/><line class="cls-1" x1="327.18" y1="356.08" x2="329.62" y2="375.13"/><polyline class="cls-1" points="333.42 355.29 337.75 354.73 359.25 354.18"/><line class="cls-1" x1="340.58" y1="354.66" x2="341.07" y2="373.85"/><line class="cls-1" x1="352.96" y1="354.34" x2="353.45" y2="373.54"/><line class="cls-1" x1="359.25" y1="354.18" x2="383.49" y2="353.56"/><line class="cls-1" x1="365.54" y1="354.02" x2="366.03" y2="373.21"/><line class="cls-1" x1="377.92" y1="353.7" x2="378.41" y2="372.89"/><polyline class="cls-1" points="383.49 353.56 384 353.54 402.94 344.15"/><line class="cls-1" x1="386.31" y1="352.4" x2="394.87" y2="369.59"/><line class="cls-1" x1="397.34" y1="346.93" x2="406.04" y2="364.04"/><path class="cls-1" d="M402.94,344.15l11.11-5.52c3.69-1.87,7.47-3.57,11-5.72"/><line class="cls-1" x1="408.54" y1="341.37" x2="417.4" y2="358.4"/><line class="cls-1" x1="419.56" y1="335.9" x2="428.57" y2="352.85"/><line class="cls-1" x1="425.06" y1="332.91" x2="446.62" y2="320.59"/><line class="cls-1" x1="430.49" y1="329.81" x2="439.63" y2="346.69"/><line class="cls-1" x1="441.19" y1="323.69" x2="450.45" y2="340.51"/><polyline class="cls-1" points="446.62 320.59 462.21 311.68 465.17 308.56"/><line class="cls-1" x1="452.06" y1="317.48" x2="461.45" y2="334.23"/><line class="cls-1" x1="462.04" y1="311.78" x2="473.11" y2="327.57"/><line class="cls-1" x1="465.17" y1="308.56" x2="482.35" y2="290.44"/><line class="cls-1" x1="469.5" y1="303.99" x2="483.43" y2="317.2"/><line class="cls-1" x1="478.02" y1="295" x2="491.95" y2="308.21"/><line class="cls-1" x1="483.35" y1="287.93" x2="483.35" y2="262.78"/><line class="cls-1" x1="483.35" y1="281.59" x2="502.55" y2="281.59"/><line class="cls-1" x1="483.35" y1="269.12" x2="502.55" y2="269.12"/><polyline class="cls-1" points="483.35 262.78 483.35 247.92 480.79 241.53"/><line class="cls-1" x1="483.35" y1="256.44" x2="502.55" y2="256.44"/><line class="cls-1" x1="483.11" y1="247.31" x2="501.02" y2="240.41"/><line class="cls-1" x1="480.79" y1="241.53" x2="471.45" y2="218.18"/><line class="cls-1" x1="478.44" y1="235.65" x2="496.26" y2="228.51"/><line class="cls-1" x1="473.8" y1="224.07" x2="491.63" y2="216.93"/><line class="cls-1" x1="471.45" y1="218.18" x2="462.1" y2="194.84"/><line class="cls-1" x1="469.09" y1="212.3" x2="486.92" y2="205.17"/><line class="cls-1" x1="464.46" y1="200.72" x2="482.28" y2="193.59"/><line class="cls-1" x1="462.1" y1="194.84" x2="452.76" y2="171.49"/><line class="cls-1" x1="459.75" y1="188.95" x2="477.57" y2="181.82"/><line class="cls-1" x1="455.11" y1="177.37" x2="472.94" y2="170.24"/><line class="cls-1" x1="450.74" y1="169.46" x2="427.58" y2="160.05"/><line class="cls-1" x1="444.91" y1="167.09" x2="452.14" y2="149.3"/><line class="cls-1" x1="433.42" y1="162.42" x2="440.65" y2="144.63"/><line class="cls-1" x1="427.58" y1="160.05" x2="404.42" y2="150.63"/><line class="cls-1" x1="421.75" y1="157.68" x2="428.98" y2="139.89"/><line class="cls-1" x1="410.26" y1="153" x2="417.49" y2="135.22"/><polyline class="cls-1" points="404.42 150.63 401.35 149.38 383.13 149.38"/><line class="cls-1" x1="400.98" y1="149.38" x2="402.81" y2="130.18"/><line class="cls-1" x1="389.43" y1="149.38" x2="389.43" y2="130.18"/><line class="cls-1" x1="383.13" y1="149.38" x2="358.13" y2="149.38"/><line class="cls-1" x1="376.83" y1="149.38" x2="376.83" y2="130.18"/><line class="cls-1" x1="364.43" y1="149.38" x2="364.43" y2="130.18"/><polyline class="cls-1" points="358.13 149.38 332.5 149.38 332.4 149.37"/><line class="cls-1" x1="351.83" y1="149.38" x2="351.83" y2="130.18"/><line class="cls-1" x1="339.42" y1="149.38" x2="339.42" y2="130.18"/><line class="cls-1" x1="332.4" y1="149.37" x2="307.06" y2="145.42"/><line class="cls-1" x1="325.54" y1="148.3" x2="328.49" y2="129.33"/><line class="cls-1" x1="313.29" y1="146.39" x2="316.24" y2="127.42"/><line class="cls-1" x1="307.06" y1="145.42" x2="282.36" y2="141.58"/><line class="cls-1" x1="300.84" y1="144.46" x2="303.79" y2="125.48"/><line class="cls-1" x1="288.58" y1="142.55" x2="291.54" y2="123.58"/><polyline class="cls-1" points="282.36 141.58 262.22 138.44 260.59 138.74"/><line class="cls-1" x1="276.13" y1="140.61" x2="279.08" y2="121.64"/><line class="cls-1" x1="263.88" y1="138.7" x2="266.83" y2="119.73"/><line class="cls-1" x1="260.59" y1="138.74" x2="236.02" y2="143.14"/><line class="cls-1" x1="254.4" y1="139.85" x2="250.99" y2="120.95"/><line class="cls-1" x1="242.21" y1="142.03" x2="238.76" y2="123.15"/><line class="cls-1" x1="236.02" y1="143.14" x2="211.45" y2="147.54"/><line class="cls-1" x1="229.83" y1="144.25" x2="226.33" y2="125.37"/><line class="cls-1" x1="217.65" y1="146.43" x2="214.1" y2="127.57"/><line class="cls-1" x1="211.45" y1="147.54" x2="186.89" y2="151.95"/><line class="cls-1" x1="205.26" y1="148.65" x2="201.67" y2="129.79"/><line class="cls-1" x1="193.08" y1="150.84" x2="189.44" y2="131.99"/><polyline class="cls-1" points="186.89 151.95 174.6 154.15 162.4 156.76"/><line class="cls-1" x1="180.7" y1="153.06" x2="177.02" y2="134.21"/><line class="cls-1" x1="168.55" y1="155.45" x2="164.83" y2="136.61"/><line class="cls-1" x1="162.4" y1="156.76" x2="138" y2="161.98"/><line class="cls-1" x1="156.25" y1="158.08" x2="152.48" y2="139.25"/><line class="cls-1" x1="144.15" y1="160.67" x2="140.33" y2="141.85"/><line class="cls-1" x1="138" y1="161.98" x2="113.59" y2="167.21"/><line class="cls-1" x1="131.85" y1="163.3" x2="127.98" y2="144.49"/><line class="cls-1" x1="119.74" y1="165.89" x2="115.83" y2="147.09"/><polyline class="cls-1" points="113.59 167.21 94.46 171.3 94 171.83"/><line class="cls-1" x1="107.44" y1="168.52" x2="103.48" y2="149.73"/><line class="cls-1" x1="95.56" y1="171.06" x2="91.07" y2="152.39"/><line class="cls-1" x1="94" y1="171.83" x2="78.5" y2="189.82"/><line class="cls-1" x1="90.71" y1="175.65" x2="76.16" y2="163.12"/><line class="cls-1" x1="82.61" y1="185.04" x2="68.07" y2="172.51"/><line class="cls-1" x1="78.5" y1="189.82" x2="62.18" y2="208.75"/><line class="cls-1" x1="74.39" y1="194.59" x2="59.84" y2="182.05"/><line class="cls-1" x1="66.29" y1="203.98" x2="51.75" y2="191.45"/><line class="cls-1" x1="62.18" y1="208.75" x2="45.86" y2="227.69"/><line class="cls-1" x1="58.07" y1="213.53" x2="43.52" y2="200.99"/><line class="cls-1" x1="49.97" y1="222.92" x2="35.43" y2="210.39"/><line class="cls-1" x1="45.86" y1="227.69" x2="29.54" y2="246.63"/><line class="cls-1" x1="41.74" y1="232.47" x2="27.2" y2="219.93"/><line class="cls-1" x1="33.65" y1="241.86" x2="19.1" y2="229.32"/><rect class="cls-2" x="240.28" y="229.37" width="31.45" height="41.67"/><text class="cls-3" transform="translate(247.24 261.63)">T</text><rect class="cls-2" x="240.28" y="340.86" width="31.45" height="41.67"/><text class="cls-4" transform="translate(245.71 373.12)">B</text><rect class="cls-5" width="512" height="512"/></g></g></svg>