<?xml version="1.0" encoding="UTF-8"?><svg xmlns="http://www.w3.org/2000/svg" viewBox="0 0 512 512"><defs><style>.d{font-family:Gulim, Gulim;font-size:28.61px;}.e,.f{fill:none;}.g{fill:#fff;stroke:#000;}.g,.f{stroke-miterlimit:10;stroke-width:5px;}.f{stroke:lime;}</style></defs><g id="a"/><g id="b"><g id="c"><g><rect class="g" x="244.74" y="177.2" width="25.97" height="35.31"/><text class="d" transform="translate(249.4 205.71)"><tspan x="0" y="0">T</tspan></text><rect class="g" x="237.23" y="214.27" width="41.14" height="35.31"/><text class="d" transform="translate(241.26 242.77)"><tspan x="0" y="0">T1</tspan></text><text class="d" transform="translate(221.86 165.97)"><tspan x="0" y="0">FREE</tspan></text><rect class="g" x="227.87" y="254.71" width="59.86" height="35.31"/><text class="d" transform="translate(236.79 283.21)"><tspan x="0" y="0">W1</tspan></text></g><rect class="e" width="512" height="512"/><polygon class="f" points="67 328.02 105.8 281.61 121.07 340.15 202.46 358.36 241.27 311.95 256.53 370.49 346.85 391.01 385.65 344.59 400.91 403.14 487.21 422.45 487.21 322.9 433.79 297 487.21 271.09 487.21 226.74 433.79 200.84 487.21 174.93 487.21 89.55 438.38 89.55 408.19 130.58 377.99 89.55 300.86 89.55 270.67 130.58 240.47 89.55 151.98 89.55 121.79 130.58 91.59 89.55 24.79 89.55 24.79 130.58 72.21 156.48 24.79 182.39 24.79 226.74 72.21 252.64 24.79 278.55 24.79 319.58 67 328.02"/></g></g></svg>