<?xml version="1.0" encoding="UTF-8"?><svg xmlns="http://www.w3.org/2000/svg" viewBox="0 0 512 512"><defs><style>.d{font-family:Gulim, Gulim;font-size:28.61px;}.e,.f{fill:none;}.g{fill:#fff;stroke:#000;}.g,.f{stroke-miterlimit:10;stroke-width:5px;}.f{stroke:lime;}</style></defs><g id="a"/><g id="b"><g id="c"><g><g><polyline class="f" points="159.09 377.85 170.53 356.48 203.35 358.75 211.75 381.49"/><polyline class="f" points="106.42 374.21 117.87 352.84 150.68 355.11 159.09 377.85"/><polyline class="f" points="53.76 370.57 65.2 349.21 98.02 351.47 106.42 374.21"/></g><g><polyline class="f" points="211.75 381.49 223.2 360.12 256.01 362.38 264.42 385.12"/><polyline class="f" points="159.09 377.85 170.53 356.48 203.35 358.75 211.75 381.49"/><polyline class="f" points="106.42 374.21 117.87 352.84 150.68 355.11 159.09 377.85"/></g><g><polyline class="f" points="264.42 385.12 275.87 363.76 308.68 366.02 317.08 388.76"/><polyline class="f" points="211.75 381.49 223.2 360.12 256.01 362.38 264.42 385.12"/><polyline class="f" points="159.09 377.85 170.53 356.48 203.35 358.75 211.75 381.49"/></g><g><polyline class="f" points="317.08 388.76 328.53 367.39 361.35 369.66 369.75 392.4"/><polyline class="f" points="264.42 385.12 275.87 363.76 308.68 366.02 317.08 388.76"/><polyline class="f" points="211.75 381.49 223.2 360.12 256.01 362.38 264.42 385.12"/></g><g><polyline class="f" points="369.75 392.4 381.2 371.03 414.01 373.3 422.41 396.04"/><polyline class="f" points="317.08 388.76 328.53 367.39 361.35 369.66 369.75 392.4"/><polyline class="f" points="264.42 385.12 275.87 363.76 308.68 366.02 317.08 388.76"/></g><g><polyline class="f" points="369.75 392.4 381.2 371.03 414.01 373.3 422.41 396.04"/><polyline class="f" points="317.08 388.76 328.53 367.39 361.35 369.66 369.75 392.4"/></g><polyline class="f" points="422.41 396.04 433.71 374.66 439.07 375.03 439.56 369.68 462.48 361.94"/><g><polyline class="f" points="466.91 313.75 445.73 302.64 448.5 272.6 471.34 265.55"/><polyline class="f" points="462.48 361.94 441.3 350.84 444.06 320.8 466.91 313.75"/></g><g><polyline class="f" points="471.34 265.55 450.17 254.44 452.93 224.4 475.78 217.35"/><polyline class="f" points="466.91 313.75 445.73 302.64 448.5 272.6 471.34 265.55"/><polyline class="f" points="462.48 361.94 441.3 350.84 444.06 320.8 466.91 313.75"/></g><g><polyline class="f" points="471.34 265.55 450.17 254.44 452.93 224.4 475.78 217.35"/><polyline class="f" points="466.91 313.75 445.73 302.64 448.5 272.6 471.34 265.55"/></g><polyline class="f" points="475.78 217.35 454.66 205.56 455.2 199.73 449.42 198.8 443.27 175.42"/><g><polyline class="f" points="390.61 166.92 377.17 187.15 344.36 181.85 337.95 158.43"/><polyline class="f" points="443.27 175.42 429.82 195.64 397.01 190.35 390.61 166.92"/></g><g><polyline class="f" points="337.95 158.43 324.51 178.65 291.7 173.36 285.3 149.94"/><polyline class="f" points="390.61 166.92 377.17 187.15 344.36 181.85 337.95 158.43"/><polyline class="f" points="443.27 175.42 429.82 195.64 397.01 190.35 390.61 166.92"/></g><g><polyline class="f" points="285.3 149.94 271.85 170.16 239.05 164.87 232.64 141.44"/><polyline class="f" points="337.95 158.43 324.51 178.65 291.7 173.36 285.3 149.94"/><polyline class="f" points="390.61 166.92 377.17 187.15 344.36 181.85 337.95 158.43"/></g><g><polyline class="f" points="232.64 141.44 219.2 161.67 186.39 156.37 179.99 132.95"/><polyline class="f" points="285.3 149.94 271.85 170.16 239.05 164.87 232.64 141.44"/><polyline class="f" points="337.95 158.43 324.51 178.65 291.7 173.36 285.3 149.94"/></g><g><polyline class="f" points="179.99 132.95 166.54 153.17 133.73 147.88 127.33 124.46"/><polyline class="f" points="232.64 141.44 219.2 161.67 186.39 156.37 179.99 132.95"/><polyline class="f" points="285.3 149.94 271.85 170.16 239.05 164.87 232.64 141.44"/></g><g><polyline class="f" points="127.33 124.46 113.89 144.68 81.08 139.39 74.67 115.96"/><polyline class="f" points="179.99 132.95 166.54 153.17 133.73 147.88 127.33 124.46"/><polyline class="f" points="232.64 141.44 219.2 161.67 186.39 156.37 179.99 132.95"/></g><g><polyline class="f" points="127.33 124.46 113.89 144.68 81.08 139.39 74.67 115.96"/><polyline class="f" points="179.99 132.95 166.54 153.17 133.73 147.88 127.33 124.46"/></g><polyline class="f" points="74.67 115.96 65.18 145.58 36.22 148.71"/><g><polyline class="f" points="36.22 195.69 58.33 204.54 58.33 233.81 36.22 242.66"/><polyline class="f" points="36.22 148.71 58.33 157.56 58.33 186.83 36.22 195.69"/></g><g><polyline class="f" points="36.22 242.66 58.33 251.51 58.33 280.78 36.22 289.64"/><polyline class="f" points="36.22 195.69 58.33 204.54 58.33 233.81 36.22 242.66"/><polyline class="f" points="36.22 148.71 58.33 157.56 58.33 186.83 36.22 195.69"/></g><g><polyline class="f" points="36.22 289.64 58.33 298.49 58.33 327.76 36.22 336.61 53.76 342.68 53.76 370.57"/><polyline class="f" points="36.22 242.66 58.33 251.51 58.33 280.78 36.22 289.64"/><polyline class="f" points="36.22 195.69 58.33 204.54 58.33 233.81 36.22 242.66"/></g></g><g><rect class="g" x="242.94" y="220.02" width="25.97" height="35.31"/><text class="d" transform="translate(247.6 248.53)"><tspan x="0" y="0">T</tspan></text><rect class="g" x="235.43" y="256.09" width="41.14" height="35.31"/><text class="d" transform="translate(239.46 284.6)"><tspan x="0" y="0">T1</tspan></text></g><rect class="e" width="512" height="512"/></g></g></svg>