<?xml version="1.0" encoding="UTF-8"?><svg xmlns="http://www.w3.org/2000/svg" viewBox="0 0 512 512"><defs><style>.d,.e,.f{fill:none;}.e{stroke-linejoin:bevel;stroke-width:2px;}.e,.f{stroke:lime;}.f{stroke-miterlimit:10;stroke-width:5px;}</style></defs><g id="a"/><g id="b"><g id="c"><g><g><polygon class="e" points="43.09 239.56 24.42 322.22 43.09 303.29 61.76 322.22 43.09 239.56"/><polyline class="e" points="68.31 260.62 62.44 250.22 23.74 250.22 17.88 260.62"/><line class="e" x1="45.5" y1="250.22" x2="71.89" y2="310.72"/><line class="e" x1="35.67" y1="272.44" x2="50.62" y2="272.44"/></g><g><polygon class="e" points="254.21 189.78 235.54 272.44 254.21 253.51 272.87 272.44 254.21 189.78"/><polyline class="e" points="279.42 210.84 273.56 200.44 234.86 200.44 228.99 210.84"/><line class="e" x1="256.62" y1="200.44" x2="283.01" y2="260.94"/><line class="e" x1="246.78" y1="222.66" x2="261.73" y2="222.66"/></g><g><polygon class="e" points="465.32 239.56 446.66 322.22 465.32 303.29 483.99 322.22 465.32 239.56"/><polyline class="e" points="490.54 260.62 484.67 250.22 445.98 250.22 440.11 260.62"/><line class="e" x1="467.73" y1="250.22" x2="494.12" y2="310.72"/><line class="e" x1="457.9" y1="272.44" x2="472.85" y2="272.44"/></g><polyline class="f" points="456.33 286.02 255.13 239.56 53.92 286.02"/></g><rect class="d" width="512" height="512"/></g></g></svg>