<?xml version="1.0" encoding="UTF-8"?><svg xmlns="http://www.w3.org/2000/svg" viewBox="0 0 512 512"><defs><style>.d,.e,.f{fill:none;}.d,.g,.f{stroke-miterlimit:10;}.d,.f{stroke:lime;}.h{font-family:Gulim, Gulim;font-size:28.61px;}.g{fill:#fff;stroke:#000;}.g,.f{stroke-width:5px;}</style></defs><g id="a"/><g id="b"><g id="c"><g><rect class="g" x="247.37" y="227.18" width="25.97" height="35.31"/><text class="h" transform="translate(252.03 255.69)"><tspan x="0" y="0">T</tspan></text><rect class="g" x="239.87" y="264.25" width="41.14" height="35.31"/><text class="h" transform="translate(243.89 292.76)"><tspan x="0" y="0">T1</tspan></text><rect class="g" x="230.5" y="304.69" width="59.86" height="35.31"/><text class="h" transform="translate(239.42 333.2)"><tspan x="0" y="0">W1</tspan></text></g><rect class="e" width="512" height="512"/><g><g><line class="d" x1="24.48" y1="124.79" x2="52.6" y2="96.67"/><line class="d" x1="25.11" y1="185.05" x2="103.14" y2="107.02"/><line class="d" x1="64.28" y1="206.75" x2="121.9" y2="149.13"/><line class="d" x1="40.37" y1="291.55" x2="202.51" y2="129.41"/><line class="d" x1="25.11" y1="367.69" x2="252.12" y2="140.67"/><line class="d" x1="32.31" y1="421.37" x2="267.44" y2="186.23"/><line class="d" x1="116.25" y1="398.31" x2="351.58" y2="162.97"/><line class="d" x1="152.99" y1="422.45" x2="393.8" y2="181.64"/><line class="d" x1="246.99" y1="389.33" x2="451.94" y2="184.38"/><line class="d" x1="275.11" y1="422.08" x2="486.62" y2="210.58"/><line class="d" x1="335.63" y1="422.45" x2="478.01" y2="280.07"/><line class="d" x1="410.27" y1="408.69" x2="455.2" y2="363.76"/></g><polygon class="f" points="445.32 183.98 406.51 230.39 391.25 171.85 309.85 153.64 271.05 200.05 255.79 141.51 165.47 120.99 126.66 167.41 111.4 108.86 25.11 89.55 25.11 189.1 78.53 215 25.11 240.91 25.11 285.26 78.53 311.16 25.11 337.07 25.11 422.45 73.93 422.45 104.13 381.42 134.32 422.45 211.45 422.45 241.65 381.42 271.84 422.45 360.33 422.45 390.53 381.42 420.72 422.45 487.52 422.45 487.52 381.42 440.1 355.52 487.52 329.61 487.52 285.26 440.1 259.36 487.52 233.45 487.52 192.42 445.32 183.98"/></g></g></g></svg>