<svg xmlns="http://www.w3.org/2000/svg" viewBox="0 0 512 512"><defs><style>.cls-1,.cls-2{fill:none;}.cls-1{stroke:lime;stroke-miterlimit:10;stroke-width:7px;}</style></defs><g id="Layer_2" data-name="Layer 2"><g id="G_M_OWCA--_X" data-name="G*M*OWCA--****X"><polyline class="cls-1" points="491.4 259.15 474.2 291 436.4 221 398.6 291 360.8 221 323 291 285.2 221 247.4 291 209.6 221 171.8 291 134 221 96.2 291 58.4 221 20.6 291"/><polyline class="cls-1" points="79.88 221.17 94.6 221.17 94.6 234.87"/><line class="cls-1" x1="75.6" y1="240" x2="94.6" y2="221"/><polyline class="cls-1" points="155.78 221.17 170.5 221.17 170.5 234.87"/><line class="cls-1" x1="151.5" y1="240" x2="170.5" y2="221"/><polyline class="cls-1" points="231.68 221.17 246.4 221.17 246.4 234.87"/><line class="cls-1" x1="227.4" y1="240" x2="246.4" y2="221"/><polyline class="cls-1" points="307.58 221.17 322.3 221.17 322.3 234.87"/><line class="cls-1" x1="303.3" y1="240" x2="322.3" y2="221"/><polyline class="cls-1" points="383.48 221.17 398.2 221.17 398.2 234.87"/><line class="cls-1" x1="379.2" y1="240" x2="398.2" y2="221"/><polyline class="cls-1" points="459.38 221.17 474.1 221.17 474.1 234.87"/><line class="cls-1" x1="455.1" y1="240" x2="474.1" y2="221"/><rect class="cls-2" width="512" height="512"/></g></g></svg>