<svg xmlns="http://www.w3.org/2000/svg" viewBox="0 0 512 512"><defs><style>.cls-1{fill:lime;}.cls-2,.cls-3,.cls-4{fill:none;}.cls-2,.cls-3{stroke:lime;stroke-width:10px;}.cls-2{stroke-miterlimit:10;}.cls-3{stroke-linejoin:bevel;}</style></defs><g id="Layer_2" data-name="Layer 2"><g id="G_M_OMPA--_X" data-name="G*M*OMPA--****X"><circle class="cls-1" cx="44.35" cy="265.61" r="20"/><circle class="cls-1" cx="96.31" cy="265.61" r="20"/><circle class="cls-1" cx="148.27" cy="265.61" r="20"/><circle class="cls-1" cx="200.23" cy="265.61" r="20"/><circle class="cls-1" cx="252.19" cy="265.61" r="20"/><circle class="cls-1" cx="304.15" cy="265.61" r="20"/><circle class="cls-1" cx="356.11" cy="265.61" r="20"/><circle class="cls-1" cx="408.07" cy="265.61" r="20"/><circle class="cls-1" cx="460.02" cy="265.61" r="20"/><line class="cls-2" x1="18.55" y1="265.61" x2="493.45" y2="265.61"/><path class="cls-3" d="M60.22,226.39s-4.13,29.39-15.87,29.39-15.88-29.39-15.88-29.39"/><path class="cls-3" d="M112.18,226.39s-4.13,29.39-15.87,29.39-15.88-29.39-15.88-29.39"/><path class="cls-3" d="M164.14,226.39s-4.13,29.39-15.87,29.39-15.88-29.39-15.88-29.39"/><path class="cls-3" d="M216.1,226.39s-4.13,29.39-15.87,29.39-15.88-29.39-15.88-29.39"/><path class="cls-3" d="M268.06,226.39s-4.13,29.39-15.87,29.39-15.88-29.39-15.88-29.39"/><path class="cls-3" d="M320,226.39s-4.13,29.39-15.87,29.39-15.88-29.39-15.88-29.39"/><path class="cls-3" d="M372,226.39s-4.13,29.39-15.87,29.39-15.88-29.39-15.88-29.39"/><path class="cls-3" d="M423.94,226.39s-4.13,29.39-15.87,29.39-15.88-29.39-15.88-29.39"/><path class="cls-3" d="M475.9,226.39s-4.13,29.39-15.88,29.39-15.87-29.39-15.87-29.39"/><rect class="cls-4" width="512" height="512"/></g></g></svg>