<svg xmlns="http://www.w3.org/2000/svg" viewBox="0 0 512 512"><defs><style>.cls-1,.cls-2,.cls-3{fill:none;}.cls-1,.cls-2{stroke:#000;stroke-miterlimit:10;}.cls-1{stroke-width:10px;}.cls-2{stroke-width:7px;}</style></defs><g id="Layer_2" data-name="Layer 2"><g id="G_S_ASA---_X" data-name="G*S*ASA---****X"><polygon class="cls-1" points="26.3 102.4 15.3 144 15.3 204 43.1 250.7 54.3 365.6 71.1 395.2 112.7 414.4 149.5 411.2 212.7 399.2 300.7 400 355.9 424 401.5 435.2 431.9 427.2 447.9 392.8 456.7 324 496.7 141.6 469.5 88 409.5 76.8 301.5 116.8 150.3 115.2 97.5 102.4 26.3 102.4"/><path d="M216.45,227.87c0,.66-.39,1-1.16,1H201v8.37a1.17,1.17,0,0,1-.39.91,1,1,0,0,1-.76.32,1.15,1.15,0,0,1-.8-.28,1.21,1.21,0,0,1-.36-.91v-8.41H184.15c-.72,0-1.05-.33-1-1s.43-1,1.2-1h30.9C216,226.87,216.42,227.21,216.45,227.87ZM212,214.77a3.57,3.57,0,0,1,1.23,2.9v1.2a17,17,0,0,1-.52,4.34,15.66,15.66,0,0,1-1.79,4.18h-2.39a13.66,13.66,0,0,0,1.91-4.34,18.4,18.4,0,0,0,.4-4.22v-1a1.82,1.82,0,0,0-.68-1.51,2.67,2.67,0,0,0-1.75-.52H186.93c-.71,0-1.07-.34-1.07-1a.93.93,0,0,1,1.07-1H208.8A4.87,4.87,0,0,1,212,214.77Zm-23.3,26.88a2,2,0,0,0,.4,1.47,2.29,2.29,0,0,0,1.51.36h22c.69,0,1,.33,1,1a.91.91,0,0,1-1,1h-22.9a3.25,3.25,0,0,1-2.51-1,3.49,3.49,0,0,1-.91-2.51v-5.34a1.43,1.43,0,0,1,.36-1.07,1.05,1.05,0,0,1,.83-.36,1,1,0,0,1,.8.36,1.46,1.46,0,0,1,.4,1.07Z"/><path d="M254.74,233.56a.91.91,0,0,1-1,1H239.25v10.63a1.16,1.16,0,0,1-.4.92,1,1,0,0,1-.75.32,1.15,1.15,0,0,1-.8-.28,1.24,1.24,0,0,1-.36-.92V234.6H222.48a.88.88,0,0,1-1-1c0-.66.41-1,1.15-1h31Q254.71,232.57,254.74,233.56ZM237.3,213.41a1.09,1.09,0,0,1,.8-.32,1,1,0,0,1,.75.32,1.26,1.26,0,0,1,.4,1,10.13,10.13,0,0,0,4.18,8.28,16.49,16.49,0,0,0,8.72,3.39,1.21,1.21,0,0,1,.92.43.92.92,0,0,1,.16.84,1.09,1.09,0,0,1-.48.72,1.69,1.69,0,0,1-1.15.24A20.15,20.15,0,0,1,243,225a12.78,12.78,0,0,1-4.93-5.69,12.28,12.28,0,0,1-4.9,5.69,20.66,20.66,0,0,1-8.85,3.31,1.27,1.27,0,0,1-1-.24,1.15,1.15,0,0,1-.44-.72,1.08,1.08,0,0,1,.24-.8,1.2,1.2,0,0,1,.92-.39,15.57,15.57,0,0,0,8.72-3.39,10.37,10.37,0,0,0,4.14-8.4A1.3,1.3,0,0,1,237.3,213.41Z"/><path d="M281.73,215.36c0,.69-.33,1-1,1h-7.88v6.45a24.23,24.23,0,0,0,2.63,11.31,16.68,16.68,0,0,0,6.73,7.25,1.2,1.2,0,0,1,.63.76,1.17,1.17,0,0,1-.08.87,1,1,0,0,1-.71.56,1.43,1.43,0,0,1-1.12-.16,17.41,17.41,0,0,1-5.89-5.61,20.19,20.19,0,0,1-3.39-8.05,21.38,21.38,0,0,1-3.42,8.05,16.19,16.19,0,0,1-6,5.61,1,1,0,0,1-.91,0,1.06,1.06,0,0,1-.6-.56,1.13,1.13,0,0,1-.12-.87,1.2,1.2,0,0,1,.68-.72,15.47,15.47,0,0,0,6.57-7.09,24.23,24.23,0,0,0,2.67-11.35V216.4h-7.89c-.74,0-1.1-.35-1.07-1s.37-1,1.11-1h18.08A.88.88,0,0,1,281.73,215.36Zm7.09,30.79a1.09,1.09,0,0,1-.8.32,1.13,1.13,0,0,1-.83-.32,1.24,1.24,0,0,1-.36-.92v-31a1.06,1.06,0,0,1,.36-.84,1.34,1.34,0,0,1,.83-.24,1.29,1.29,0,0,1,.8.24,1,1,0,0,1,.4.84v31A1.19,1.19,0,0,1,288.82,246.15Z"/><path d="M298.6,230.26a.85.85,0,0,1-1-1c0-.63.39-.95,1.08-.95,3.66,0,7.58-.06,11.75-.16q6.69-.17,10.39-.36a1.17,1.17,0,0,1,.92.2.92.92,0,0,1,.36.68,1,1,0,0,1-.24.67,1.17,1.17,0,0,1-.8.4l-9.8.28v1.59a9,9,0,0,1-.47,2.87,7,7,0,0,1-1.12,2.19,1,1,0,0,1-1.51.16q-.79-.6-.12-1.47a6.26,6.26,0,0,0,.59-1.52,7.33,7.33,0,0,0,.24-2v-1.75Zm19.55-14.54a4.42,4.42,0,0,1,0,8q-2.82,1.78-7.88,1.79t-7.93-1.79a4.45,4.45,0,0,1,0-8q2.84-1.78,7.93-1.79T318.15,215.72Zm-13.9,25.93a2.08,2.08,0,0,0,.4,1.47,2.44,2.44,0,0,0,1.56.36h21.58c.69,0,1,.33,1,1a.91.91,0,0,1-1,1H305.65a3.85,3.85,0,0,1-2.71-1,3.33,3.33,0,0,1-1.08-2.55v-5a1.16,1.16,0,0,1,1.2-1.2,1.11,1.11,0,0,1,.8.32,1.09,1.09,0,0,1,.39.88Zm-.2-24.53a2.75,2.75,0,0,0,0,5.21,13.44,13.44,0,0,0,6.22,1.16,13.27,13.27,0,0,0,6.17-1.16,2.73,2.73,0,0,0,0-5.21,13.27,13.27,0,0,0-6.17-1.16A13.44,13.44,0,0,0,304.05,217.12Zm23.07,20.59a1.22,1.22,0,0,1-.8.28,1.1,1.1,0,0,1-1.2-1.2v-3.07h-7.64a1.42,1.42,0,0,1-1-.32.82.82,0,0,1-.36-.67.91.91,0,0,1,.24-.72,1.33,1.33,0,0,1,.88-.28h7.88V214.28a1.05,1.05,0,0,1,.36-.83,1.2,1.2,0,0,1,.84-.28,1.17,1.17,0,0,1,.8.28.93.93,0,0,1,.39.8v22.54A1.2,1.2,0,0,1,327.12,237.71Z"/><path d="M267.12,267.48a1,1,0,0,1,.36.8,1,1,0,0,1-.36.76,1.32,1.32,0,0,1-.95.35h-8.09v26.53a1.18,1.18,0,0,1-.4.92,1.21,1.21,0,0,1-.83.31,1.28,1.28,0,0,1-.88-.31,1.25,1.25,0,0,1-.36-.92V269.39h-8.44q-1,0-1-1.11c0-.74.32-1.12,1-1.12h19A1.4,1.4,0,0,1,267.12,267.48Z"/><rect class="cls-2" x="238.48" y="260" width="35.03" height="40.37"/><rect class="cls-3" width="512" height="512"/></g></g></svg>