<?xml version="1.0" encoding="UTF-8"?><svg xmlns="http://www.w3.org/2000/svg" viewBox="0 0 512 512"><defs><style>.d{letter-spacing:-.06em;}.e{letter-spacing:-.06em;}.f{font-family:New-Gulim, New Gulim;font-size:40.78px;}.g{stroke-width:10px;}.g,.h,.i{fill:none;}.g,.i{stroke:#000;stroke-miterlimit:10;}.i{stroke-width:7px;}</style></defs><g id="a"/><g id="b"><g id="c"><polygon class="g" points="26.3 102.4 15.3 144 15.3 204 43.1 250.7 54.3 365.6 71.1 395.2 112.7 414.4 149.5 411.2 212.7 399.2 300.7 400 355.9 424 401.5 435.2 431.9 427.2 447.9 392.8 456.7 324 496.7 141.6 469.5 88 409.5 76.8 301.5 116.8 150.3 115.2 97.5 102.4 26.3 102.4"/><g><text class="f" transform="translate(168.21 192.44)"><tspan class="d"><tspan x="0" y="0">DETAINEE</tspan></tspan><tspan class="d"><tspan x="4.67" y="52">HOLDING</tspan></tspan><tspan class="d"><tspan x="40.11" y="104">AREA</tspan></tspan><tspan class="e"><tspan x="77.16" y="156">T</tspan></tspan></text><rect class="i" x="238.48" y="313.26" width="35.03" height="40.37"/></g><rect class="h" width="512" height="512"/></g></g></svg>