<svg xmlns="http://www.w3.org/2000/svg" viewBox="0 0 512 512"><defs><style>.cls-1,.cls-2,.cls-3{fill:none;}.cls-1,.cls-2{stroke:#000;stroke-miterlimit:10;}.cls-1{stroke-width:10px;}.cls-2{stroke-width:7px;}</style></defs><g id="Layer_2" data-name="Layer 2"><g id="G_S_AR----_X" data-name="G*S*AR----****X"><polygon class="cls-1" points="26.3 102.4 15.3 144 15.3 204 43.1 250.7 54.3 365.6 71.1 395.2 112.7 414.4 149.5 411.2 212.7 399.2 300.7 400 355.9 424 401.5 435.2 431.9 427.2 447.9 392.8 456.7 324 496.7 141.6 469.5 88 409.5 76.8 301.5 116.8 150.3 115.2 97.5 102.4 26.3 102.4"/><path d="M230.57,215.16a1.4,1.4,0,0,1,1,.32,1.09,1.09,0,0,1,.32.8,1.07,1.07,0,0,1-.32.76,1.32,1.32,0,0,1-1,.35H217.14a1.69,1.69,0,0,0-1.35.56,1.85,1.85,0,0,0-.4,1.24v9.08h13.66a1.36,1.36,0,0,1,1,.32,1,1,0,0,1,.32.75,1.05,1.05,0,0,1-.32.76,1.3,1.3,0,0,1-1,.36H215.39v13.42a1.21,1.21,0,0,1-1.23,1.27,1.28,1.28,0,0,1-.88-.31,1.3,1.3,0,0,1-.36-1V219a4,4,0,0,1,.92-2.67,3.58,3.58,0,0,1,2.87-1.2Z"/><path d="M242.74,215a2.2,2.2,0,0,1,1.35-.43,2.09,2.09,0,0,1,1.27.43,2.84,2.84,0,0,1,1,1.4l9.88,27a1.49,1.49,0,0,1,0,1.12,1.08,1.08,0,0,1-.68.59,1.33,1.33,0,0,1-1,0,1.76,1.76,0,0,1-.71-.88l-3.35-9.28H237.68l-3.39,9.28a1.68,1.68,0,0,1-.75.88,1.14,1.14,0,0,1-.92.07,1.18,1.18,0,0,1-.72-.63,1.3,1.3,0,0,1,0-1.12l9.84-27A2.84,2.84,0,0,1,242.74,215Zm6.89,17.73-5.5-15.14H244l-5.54,15.14Z"/><path d="M271.35,215.16a7.83,7.83,0,0,1,8.25,8.05,7.46,7.46,0,0,1-1.28,4.3,6.81,6.81,0,0,1-3.42,2.59,3.78,3.78,0,0,1,2.39,1.15,4.2,4.2,0,0,1,1.23,3.15,46.21,46.21,0,0,0,.28,5.38,17,17,0,0,0,.8,3.5,1.46,1.46,0,0,1,0,1.16,1.37,1.37,0,0,1-.76.63,1.41,1.41,0,0,1-.95,0,1.18,1.18,0,0,1-.72-.71,19.12,19.12,0,0,1-.92-4.26,53.15,53.15,0,0,1-.24-5.34,3,3,0,0,0-1.43-2.63,5.52,5.52,0,0,0-3.23-.92H261V243.8a1.26,1.26,0,0,1-.4,1,1.14,1.14,0,0,1-.84.35,1.18,1.18,0,0,1-.87-.35,1.35,1.35,0,0,1-.36-1V219a3.94,3.94,0,0,1,.92-2.67,3.56,3.56,0,0,1,2.86-1.2Zm4.23,12a5.95,5.95,0,0,0,0-7.92,5.87,5.87,0,0,0-4.5-1.84h-8.29a1.68,1.68,0,0,0-1.35.56,1.85,1.85,0,0,0-.4,1.24V229h10A5.83,5.83,0,0,0,275.58,227.15Z"/><path d="M301.09,217.71a8.23,8.23,0,0,1,2.07,5.7,8.11,8.11,0,0,1-2.07,5.61,7.75,7.75,0,0,1-6.14,2.59h-9.24v12.27a1.2,1.2,0,0,1-1.23,1.27,1.28,1.28,0,0,1-.88-.31,1.3,1.3,0,0,1-.36-1V219a4,4,0,0,1,.92-2.67,3.59,3.59,0,0,1,2.87-1.2H295A7.82,7.82,0,0,1,301.09,217.71Zm-1.95,9.84a6,6,0,0,0,1.51-4.1,6.12,6.12,0,0,0-1.51-4.18,5.75,5.75,0,0,0-4.5-1.88h-7.17a1.7,1.7,0,0,0-1.36.56,1.9,1.9,0,0,0-.4,1.24v10.23h8.93A5.74,5.74,0,0,0,299.14,227.55Z"/><path d="M267.12,267.48a1,1,0,0,1,.36.8,1,1,0,0,1-.36.76,1.32,1.32,0,0,1-.95.35h-8.09v26.53a1.18,1.18,0,0,1-.4.92,1.21,1.21,0,0,1-.83.31,1.28,1.28,0,0,1-.88-.31,1.25,1.25,0,0,1-.36-.92V269.39h-8.44q-1,0-1-1.11c0-.74.32-1.12,1-1.12h19A1.4,1.4,0,0,1,267.12,267.48Z"/><rect class="cls-2" x="238.48" y="260" width="35.03" height="40.37"/><rect class="cls-3" width="512" height="512"/></g></g></svg>