<svg xmlns="http://www.w3.org/2000/svg" viewBox="0 0 512 512"><defs><style>.cls-1,.cls-3{fill:none;}.cls-1{stroke:#000;stroke-miterlimit:10;stroke-width:5px;}.cls-2{font-size:31px;font-family:Gulim;}</style></defs><g id="Layer_2" data-name="Layer 2"><g id="G_S_LCM---_X" data-name="G*S*LCM---****X"><polygon class="cls-1" points="473.2 244.5 412.07 182.37 412.07 207.17 43.13 207.17 43.13 244.5 43.13 281.83 412.07 281.83 412.07 306.63 473.2 244.5"/><text class="cls-2" transform="translate(128.52 255.5)">H</text><rect class="cls-1" x="122.35" y="223.5" width="35" height="42"/><text class="cls-2" transform="translate(219.22 255.5)">A</text><rect class="cls-1" x="211.72" y="223.5" width="35" height="42"/><text class="cls-2" transform="translate(298.38 252.72)">H1</text><rect class="cls-1" x="291.1" y="223.5" width="55" height="42"/><path d="M224,307.83c0,.59-.13.89-.39.89h-7c-.24,0-.37-.3-.37-.89s.12-.87.37-.87h7Q224,307,224,307.83Z"/><text class="cls-2" transform="translate(175.28 319.61)">W</text><text class="cls-2" transform="translate(238.35 319.61)">W1</text><rect class="cls-1" x="167.65" y="287.63" width="43" height="42"/><rect class="cls-1" x="229.62" y="287.63" width="63" height="42"/><rect class="cls-3" width="512" height="512"/></g></g></svg>