<?xml version="1.0" encoding="UTF-8"?><svg xmlns="http://www.w3.org/2000/svg" viewBox="0 0 512 512"><defs><style>.d{stroke-width:10px;}.d,.e,.f{fill:none;}.d,.f{stroke:#000;stroke-miterlimit:10;}.f{stroke-width:7px;}</style></defs><g id="a"/><g id="b"><g id="c"><polygon class="d" points="26.3 102.4 15.3 144 15.3 204 43.1 250.7 54.3 365.6 71.1 395.2 112.7 414.4 149.5 411.2 212.7 399.2 300.7 400 355.9 424 401.5 435.2 431.9 427.2 447.9 392.8 456.7 324 496.7 141.6 469.5 88 409.5 76.8 301.5 116.8 150.3 115.2 97.5 102.4 26.3 102.4"/><g><g><path d="M232.25,215.16c4.35,0,7.77,1.46,10.24,4.38,2.31,2.68,3.47,6.11,3.47,10.28s-1.16,7.59-3.47,10.28c-2.47,2.92-5.88,4.38-10.24,4.38h-5.7c-1.22,0-2.18-.4-2.87-1.19-.61-.72-.92-1.59-.92-2.63v-21.63c0-1.06,.3-1.95,.92-2.67,.69-.8,1.65-1.19,2.87-1.19h5.7Zm0,27.08c3.56,0,6.35-1.23,8.36-3.7,1.89-2.26,2.83-5.16,2.83-8.72s-.94-6.5-2.83-8.76c-2.02-2.44-4.81-3.66-8.36-3.66h-5.26c-.58,0-1.04,.19-1.35,.56-.27,.32-.4,.73-.4,1.23v21.31c0,.48,.13,.88,.4,1.19,.32,.37,.77,.56,1.35,.56h5.26Z"/><path d="M265.93,216.88c1.22,1.19,1.99,2.77,2.31,4.74,.08,.5,0,.92-.24,1.23-.19,.29-.46,.46-.84,.52-.35,.03-.66-.07-.96-.28-.29-.21-.46-.53-.52-.96-.32-1.88-1.05-3.27-2.19-4.14-1.14-.85-2.75-1.27-4.82-1.27-2.23,0-3.98,.41-5.26,1.23-1.35,.88-2.03,2.14-2.03,3.78s.53,2.92,1.59,3.82c1.12,.96,3.12,1.73,6.02,2.31,3.8,.77,6.48,1.87,8.04,3.31,1.51,1.38,2.27,3.35,2.27,5.89s-1.04,4.49-3.11,5.97c-1.91,1.41-4.32,2.11-7.21,2.11-3.27,0-5.78-.69-7.53-2.07-1.91-1.46-3-3.73-3.27-6.81-.05-.42,.05-.77,.32-1.04,.21-.21,.48-.33,.8-.36,.34-.03,.64,.07,.88,.28,.27,.24,.42,.58,.48,1.04,.19,2.39,1.01,4.13,2.47,5.22,1.3,1.01,3.23,1.51,5.78,1.51,1.91,0,3.62-.44,5.14-1.31,1.83-1.04,2.75-2.46,2.75-4.26,0-1.96-.48-3.41-1.43-4.34-1.14-1.12-3.41-2.06-6.81-2.83-3.27-.77-5.63-1.7-7.09-2.79-1.73-1.33-2.59-3.19-2.59-5.58s.88-4.12,2.63-5.42c1.78-1.27,4.22-1.91,7.33-1.91s5.44,.8,7.09,2.39Z"/><path d="M281.04,214.96c.4-.29,.85-.44,1.35-.44,.45,0,.88,.15,1.27,.44,.42,.32,.74,.78,.96,1.39l9.88,27c.13,.4,.12,.77-.04,1.12-.13,.29-.36,.49-.68,.6-.32,.11-.64,.09-.96-.04-.32-.19-.56-.48-.72-.88l-3.35-9.28h-12.79l-3.38,9.28c-.16,.4-.41,.69-.76,.88-.29,.16-.6,.19-.92,.08-.32-.11-.56-.32-.72-.64-.16-.32-.15-.69,.04-1.12l9.84-27c.21-.61,.53-1.08,.96-1.39Zm6.89,17.72l-5.5-15.13h-.12l-5.54,15.13h11.15Z"/><path d="M267.12,267.48c.24,.21,.36,.48,.36,.8,0,.29-.12,.54-.36,.76-.24,.24-.56,.36-.96,.36h-8.08v26.53c0,.37-.13,.68-.4,.92-.24,.21-.52,.32-.84,.32-.35,0-.64-.11-.88-.32-.24-.24-.36-.54-.36-.92v-26.53h-8.44c-.64,0-.96-.37-.96-1.12s.32-1.12,.96-1.12h19c.4,0,.72,.11,.96,.32Z"/></g><rect class="f" x="238.48" y="260" width="35.03" height="40.37"/></g><rect class="e" width="512" height="512"/></g></g></svg>