<svg xmlns="http://www.w3.org/2000/svg" viewBox="0 0 512 512"><defs><style>.cls-1,.cls-2,.cls-5{fill:none;}.cls-1,.cls-2{stroke:#000;stroke-miterlimit:10;}.cls-1{stroke-width:5px;}.cls-2{stroke-width:4px;}.cls-3{fill:#999;}.cls-4{font-size:41.38px;font-family:Gulim;}</style></defs><g id="Layer_2" data-name="Layer 2"><g id="G_T_E-----_X" data-name="G*T*E-----****X"><polyline class="cls-1" points="23.47 328.56 33.27 312.39 49.2 321.55"/><polyline class="cls-1" points="271.49 28.38 250.98 64.98 231.32 27.91"/><polyline class="cls-1" points="338.75 42.69 309.13 72.41 300.19 31.41"/><polyline class="cls-1" points="165.55 47.36 196.77 75.39 203.42 33.96"/><polyline class="cls-1" points="106.5 82.6 144.12 101.17 139.36 59.48"/><polyline class="cls-1" points="63 133.2 104.5 139.43 87.26 101.17"/><path class="cls-1" d="M51.5,150.35l26.91,32.19-41.81,5.4C66.93,90.08,159.5,24,261.9,27.11c125.34,3.8,225.36,110.08,221.55,235.43S373.37,487.9,248,484.1A229.12,229.12,0,0,1,34,314.16"/><polyline class="cls-1" points="474.76 320.47 442.54 293.6 482.58 281.07"/><polyline class="cls-1" points="444.38 383.25 422.54 347.42 464.49 348.47"/><polyline class="cls-1" points="479.14 214.86 445.86 240.42 485.37 254.55"/><polyline class="cls-1" points="455.32 150.35 430.16 183.93 472.01 186.89"/><polyline class="cls-1" points="415.5 95.26 401.77 134.91 442.54 124.97"/><polyline class="cls-1" points="361.34 54.25 358.81 96.14 395.39 75.58"/><polyline class="cls-1" points="245.36 484.74 230.26 445.59 205.53 479.48"/><polyline class="cls-1" points="314.73 475.41 287.84 443.2 275.33 483.25"/><polyline class="cls-1" points="377.5 449.33 342.07 426.86 342.37 468.81"/><polyline class="cls-1" points="428.16 404.63 387.98 392.54 399.57 432.86"/><line class="cls-2" x1="42.13" y1="332.2" x2="72.45" y2="303.19"/><polyline class="cls-2" points="72.77 393.75 94.16 357.65 52.23 359.23"/><polyline class="cls-2" points="121.89 443.2 131.25 402.3 91.79 416.58"/><polyline class="cls-2" points="183.87 474.67 180.31 432.86 147.09 458.5"/><rect class="cls-3" x="471.06" y="247.16" width="25" height="40"/><text class="cls-4" transform="translate(477.72 281.81) scale(1.05 1)">I</text><rect class="cls-5" width="512" height="512"/></g></g></svg>