<svg xmlns="http://www.w3.org/2000/svg" viewBox="0 0 512 512"><defs><style>.cls-1,.cls-3{fill:none;}.cls-1{stroke:#000;stroke-miterlimit:10;stroke-width:6px;}.cls-2{font-size:35px;font-family:Gulim;}</style></defs><g id="Layer_2" data-name="Layer 2"><g id="G_T_J-----_X" data-name="G*T*J-----****X"><path class="cls-1" d="M32.07,234.89a127.76,127.76,0,0,1,126-106.62,129.14,129.14,0,0,1,15.7.95"/><line class="cls-1" x1="46.6" y1="256" x2="67.75" y2="256"/><line class="cls-1" x1="58.77" y1="175.65" x2="87.85" y2="199.19"/><line class="cls-1" x1="37.65" y1="213.39" x2="72.9" y2="225.86"/><line class="cls-1" x1="92.79" y1="146.21" x2="111.91" y2="178.36"/><line class="cls-1" x1="176.38" y1="129.59" x2="171.02" y2="166.61"/><line class="cls-1" x1="133.16" y1="130.72" x2="140.45" y2="167.4"/><path class="cls-1" d="M32.07,277.11a127.76,127.76,0,0,0,126,106.62,129.14,129.14,0,0,0,15.7-1"/><line class="cls-1" x1="58.77" y1="336.35" x2="87.85" y2="312.81"/><line class="cls-1" x1="37.65" y1="298.61" x2="72.9" y2="286.14"/><line class="cls-1" x1="92.79" y1="365.79" x2="111.91" y2="333.64"/><line class="cls-1" x1="176.38" y1="382.41" x2="171.02" y2="345.39"/><line class="cls-1" x1="133.16" y1="381.28" x2="140.45" y2="344.6"/><text class="cls-2" transform="translate(17.14 267.43)">C</text><text class="cls-2" transform="translate(289.02 268.39)">ENY</text><line class="cls-1" x1="280" y1="256" x2="154.99" y2="256"/><polyline class="cls-1" points="168.74 269.63 154.99 255.88 168.5 242.37"/><line class="cls-1" x1="491.73" y1="256" x2="366.72" y2="256"/><rect class="cls-3" width="512" height="512"/></g></g></svg>