<svg xmlns="http://www.w3.org/2000/svg" viewBox="0 0 512 512"><defs><style>.cls-1,.cls-3{fill:none;}.cls-1{stroke:#000;stroke-miterlimit:10;stroke-width:5px;}.cls-2{font-size:35px;font-family:Gulim;}</style></defs><g id="Layer_2" data-name="Layer 2"><g id="G_T_Q-----_X" data-name="G*T*Q-----****X"><path class="cls-1" d="M154.29,70.63q-6.53,3.59-12.78,7.6"/><path class="cls-1" d="M169.26,63.16q-7.65,3.44-15,7.47"/><path class="cls-1" d="M80.64,137.47q-4.71,6.9-8.89,14.17"/><path class="cls-1" d="M344,451.76q7.65-3.45,15-7.47"/><path class="cls-1" d="M113.52,99.71q6.2-5.62,12.82-10.74"/><path class="cls-1" d="M328.52,458q7.91-2.83,15.52-6.25"/><path class="cls-1" d="M141.51,78.23q-7.83,5-15.17,10.74"/><path class="cls-1" d="M50.59,311.58q2.37,9,5.5,17.75"/><path class="cls-1" d="M202.52,51.4q-9,2.37-17.75,5.5"/><path class="cls-1" d="M184.77,56.9q-7.91,2.84-15.51,6.26"/><path class="cls-1" d="M110.62,412.51q6.09,5.73,12.62,11"/><path class="cls-1" d="M263,470.35q7.49-.21,14.84-.94"/><path class="cls-1" d="M101.6,111.43q-5.1,5.41-9.82,11.17"/><path class="cls-1" d="M113.52,99.71q-6.19,5.63-11.92,11.72"/><path class="cls-1" d="M229.64,468.76q8.25,1,16.67,1.44"/><path class="cls-1" d="M246.31,470.2q5.13.26,10.34.26,3.19,0,6.38-.11"/><path class="cls-1" d="M78.44,374.15q4.61,7,9.72,13.61"/><path class="cls-1" d="M310.77,463.51q9-2.37,17.75-5.5"/><path class="cls-1" d="M88.16,387.76q4.56,5.88,9.51,11.43"/><path class="cls-1" d="M296.26,466.76q7.35-1.38,14.51-3.25"/><path class="cls-1" d="M277.87,469.41q9.31-.93,18.39-2.65"/><path class="cls-1" d="M217,48.15q-7.34,1.38-14.51,3.25"/><path class="cls-1" d="M69.82,359.82q4,7.33,8.62,14.33"/><path class="cls-1" d="M434.85,140.77q-4.59-7-9.71-13.62"/><path class="cls-1" d="M364.07,73.5q-8-4.68-16.44-8.67"/><path class="cls-1" d="M376.63,81.45q-6.13-4.19-12.56-8"/><path class="cls-1" d="M332.24,58.28q-7.78-3-15.86-5.32"/><path class="cls-1" d="M441.54,363.27q4.15-7.23,7.74-14.83"/><path class="cls-1" d="M347.63,64.83q-7.53-3.57-15.39-6.55"/><path class="cls-1" d="M465.2,301c1.12-5.43,2.05-10.93,2.75-16.5"/><path class="cls-1" d="M451.69,171.77q-3.75-8.53-8.21-16.67"/><path class="cls-1" d="M415.63,115.72q-6.19-6.93-13-13.31"/><path class="cls-1" d="M462.7,203.33q-2.37-9-5.5-17.75"/><path class="cls-1" d="M402.67,102.41q-6.07-5.75-12.61-11"/><path class="cls-1" d="M468.93,239.94q-.76-9.34-2.32-18.44"/><path class="cls-1" d="M359,444.29q6.53-3.6,12.77-7.61"/><path class="cls-1" d="M250.27,44.56q-7.5.22-14.84.95"/><path class="cls-1" d="M267,44.71c-3.43-.16-6.87-.25-10.34-.25-2.14,0-4.26,0-6.38.1"/><path class="cls-1" d="M421.52,392.32q5.88-7.19,11.13-14.88"/><path class="cls-1" d="M56.09,329.33q2.52,7,5.51,13.82"/><path class="cls-1" d="M61.6,343.15q3.76,8.53,8.22,16.67"/><path class="cls-1" d="M235.43,45.51q-9.33.91-18.4,2.64"/><path class="cls-1" d="M283.65,46.15q-8.23-1-16.66-1.44"/><path class="cls-1" d="M399.77,415.21q6.19-5.62,11.93-11.73"/><path class="cls-1" d="M316.38,53q-7.11-2.07-14.41-3.65"/><path class="cls-1" d="M371.78,436.68q7.83-5,15.17-10.73"/><path class="cls-1" d="M302,49.31q-9-2-18.32-3.16"/><path class="cls-1" d="M455.17,334.79q3.36-8.62,6-17.6"/><path class="cls-1" d="M462.7,203.33q2.34,8.94,3.91,18.17"/><path class="cls-1" d="M451.69,171.77q3,6.78,5.51,13.81"/><path class="cls-1" d="M465.2,301q-1.71,8.24-4.06,16.23"/><path class="cls-1" d="M415.63,115.72q5,5.55,9.51,11.43"/><path class="cls-1" d="M434.85,140.77q4.59,7,8.63,14.33"/><path class="cls-1" d="M455.17,334.79q-2.71,6.94-5.89,13.65"/><path class="cls-1" d="M110.62,412.51q-6.77-6.37-13-13.32"/><path class="cls-1" d="M376.63,81.45q6.92,4.72,13.43,10"/><path class="cls-1" d="M399.77,415.21C395.65,419,391.36,422.53,387,426"/><path class="cls-1" d="M211.33,465.61c6,1.3,12.12,2.37,18.31,3.15"/><path class="cls-1" d="M421.52,392.32q-4.72,5.74-9.82,11.16"/><path class="cls-1" d="M441.54,363.27q-4.17,7.28-8.89,14.17"/><path class="cls-1" d="M123.24,423.49q6.51,5.24,13.42,10"/><path class="cls-1" d="M149.23,441.41q8,4.68,16.43,8.68"/><path class="cls-1" d="M165.66,450.09q7.54,3.57,15.4,6.55"/><path class="cls-1" d="M181.06,456.64q7.78,3,15.86,5.31"/><path class="cls-1" d="M64,166.47q-3.18,6.71-5.89,13.66"/><path class="cls-1" d="M80.64,137.47q5.25-7.68,11.14-14.87"/><path class="cls-1" d="M64,166.47q3.58-7.58,7.73-14.83"/><path class="cls-1" d="M52.15,197.72q2.61-9,6-17.59"/><path class="cls-1" d="M196.92,462q7.1,2.08,14.41,3.66"/><path class="cls-1" d="M136.66,433.46q6.14,4.19,12.57,8"/><line class="cls-1" x1="263.77" y1="495.11" x2="263.03" y2="470.35"/><line class="cls-1" x1="249.52" y1="19.8" x2="250.27" y2="44.56"/><line class="cls-1" x1="268.19" y1="19.98" x2="266.99" y2="44.71"/><line class="cls-1" x1="245.1" y1="494.94" x2="246.31" y2="470.2"/><line class="cls-1" x1="226.51" y1="493.3" x2="229.64" y2="468.76"/><line class="cls-1" x1="286.79" y1="21.61" x2="283.65" y2="46.15"/><line class="cls-1" x1="206.07" y1="489.78" x2="211.33" y2="465.61"/><line class="cls-1" x1="307.23" y1="25.14" x2="301.97" y2="49.31"/><line class="cls-1" x1="323.31" y1="29.23" x2="316.38" y2="52.96"/><line class="cls-1" x1="189.99" y1="485.68" x2="196.92" y2="461.95"/><line class="cls-1" x1="341.01" y1="35.17" x2="332.24" y2="58.28"/><line class="cls-1" x1="172.28" y1="479.75" x2="181.06" y2="456.64"/><line class="cls-1" x1="155.1" y1="472.44" x2="165.66" y2="450.09"/><line class="cls-1" x1="358.19" y1="42.47" x2="347.63" y2="64.83"/><line class="cls-1" x1="376.54" y1="52.14" x2="364.07" y2="73.5"/><line class="cls-1" x1="136.75" y1="462.77" x2="149.23" y2="441.41"/><line class="cls-1" x1="136.66" y1="433.46" x2="122.72" y2="453.91"/><line class="cls-1" x1="390.57" y1="61" x2="376.63" y2="81.45"/><line class="cls-1" x1="405.57" y1="72.12" x2="390.06" y2="91.42"/><line class="cls-1" x1="123.24" y1="423.49" x2="107.72" y2="442.8"/><line class="cls-1" x1="419.66" y1="84.37" x2="402.67" y2="102.41"/><line class="cls-1" x1="110.62" y1="412.51" x2="93.64" y2="430.54"/><line class="cls-1" x1="434.12" y1="99.24" x2="415.63" y2="115.72"/><line class="cls-1" x1="97.67" y1="399.19" x2="79.17" y2="415.68"/><line class="cls-1" x1="444.73" y1="112" x2="425.14" y2="127.15"/><line class="cls-1" x1="88.16" y1="387.76" x2="68.57" y2="402.91"/><line class="cls-1" x1="78.44" y1="374.15" x2="57.74" y2="387.71"/><line class="cls-1" x1="455.56" y1="127.21" x2="434.85" y2="140.77"/><line class="cls-1" x1="465.16" y1="143.22" x2="443.48" y2="155.1"/><line class="cls-1" x1="69.82" y1="359.82" x2="48.13" y2="371.7"/><line class="cls-1" x1="474.33" y1="161.82" x2="451.69" y2="171.77"/><line class="cls-1" x1="61.6" y1="343.15" x2="38.97" y2="353.09"/><line class="cls-1" x1="56.09" y1="329.33" x2="32.83" y2="337.67"/><line class="cls-1" x1="480.47" y1="177.24" x2="457.2" y2="185.58"/><line class="cls-1" x1="50.59" y1="311.58" x2="26.69" y2="317.86"/><line class="cls-1" x1="486.61" y1="197.05" x2="462.7" y2="203.33"/><line class="cls-1" x1="491" y1="217.33" x2="466.61" y2="221.5"/><line class="cls-1" x1="493.6" y1="237.9" x2="468.93" y2="239.94"/><line class="cls-1" x1="492.49" y1="287.6" x2="467.95" y2="284.46"/><line class="cls-1" x1="489.4" y1="306.01" x2="465.2" y2="300.96"/><line class="cls-1" x1="28.42" y1="190.79" x2="52.15" y2="197.72"/><line class="cls-1" x1="461.14" y1="317.19" x2="484.87" y2="324.12"/><line class="cls-1" x1="58.13" y1="180.13" x2="35.1" y2="171.16"/><line class="cls-1" x1="478.19" y1="343.76" x2="455.17" y2="334.79"/><line class="cls-1" x1="41.66" y1="155.91" x2="64.02" y2="166.47"/><line class="cls-1" x1="449.28" y1="348.44" x2="471.63" y2="359"/><line class="cls-1" x1="463" y1="375.56" x2="441.54" y2="363.27"/><line class="cls-1" x1="71.75" y1="151.64" x2="50.29" y2="139.36"/><line class="cls-1" x1="60.19" y1="123.53" x2="80.64" y2="137.47"/><line class="cls-1" x1="432.65" y1="377.44" x2="453.1" y2="391.38"/><line class="cls-1" x1="440.68" y1="407.99" x2="421.52" y2="392.32"/><line class="cls-1" x1="91.78" y1="122.6" x2="72.61" y2="106.92"/><line class="cls-1" x1="411.7" y1="403.48" x2="429.73" y2="420.47"/><line class="cls-1" x1="83.56" y1="94.45" x2="101.6" y2="111.43"/><line class="cls-1" x1="416.41" y1="433.54" x2="399.77" y2="415.21"/><line class="cls-1" x1="113.52" y1="99.71" x2="96.89" y2="81.37"/><line class="cls-1" x1="111.19" y1="69.38" x2="126.34" y2="88.97"/><line class="cls-1" x1="386.95" y1="425.95" x2="402.1" y2="445.53"/><line class="cls-1" x1="128.14" y1="57.42" x2="141.51" y2="78.23"/><line class="cls-1" x1="385.16" y1="457.5" x2="371.78" y2="436.68"/><line class="cls-1" x1="370.89" y1="465.97" x2="359.01" y2="444.29"/><line class="cls-1" x1="142.41" y1="48.94" x2="154.29" y2="70.63"/><line class="cls-1" x1="354.18" y1="474.29" x2="344.04" y2="451.76"/><line class="cls-1" x1="159.12" y1="40.62" x2="169.26" y2="63.16"/><line class="cls-1" x1="336.86" y1="481.28" x2="328.52" y2="458.01"/><line class="cls-1" x1="176.43" y1="33.64" x2="184.77" y2="56.9"/><line class="cls-1" x1="317.05" y1="487.42" x2="310.77" y2="463.51"/><line class="cls-1" x1="196.25" y1="27.5" x2="202.52" y2="51.4"/><line class="cls-1" x1="300.86" y1="491.07" x2="296.26" y2="466.76"/><line class="cls-1" x1="212.43" y1="23.84" x2="217.03" y2="48.15"/><line class="cls-1" x1="232.96" y1="20.88" x2="235.43" y2="45.51"/><line class="cls-1" x1="280.33" y1="494.03" x2="277.87" y2="469.41"/><polyline class="cls-1" points="61.67 315.04 46.95 307.48 39.51 321.96"/><text class="cls-2" transform="translate(453 275.55)">R</text><rect class="cls-3" width="512" height="512"/></g></g></svg>