<svg xmlns="http://www.w3.org/2000/svg" viewBox="0 0 512 512"><defs><style>.cls-1,.cls-2,.cls-5{fill:none;}.cls-1{stroke:red;}.cls-1,.cls-2{stroke-miterlimit:10;stroke-width:10px;}.cls-2{stroke:blue;}.cls-3{fill:blue;}.cls-4{fill:red;}</style></defs><g id="Layer_2" data-name="Layer 2"><g id="WA-DPFS----L---"><line class="cls-1" x1="193.49" y1="250.75" x2="293.49" y2="250.75"/><line class="cls-2" x1="293.49" y1="250.75" x2="393.49" y2="250.75"/><polygon class="cls-3" points="318.49 250.75 341.98 290.75 368.49 250.75 318.49 250.75"/><line class="cls-2" x1="93.49" y1="250.75" x2="193.49" y2="250.75"/><polygon class="cls-3" points="118.49 250.75 141.98 290.75 168.49 250.75 118.49 250.75"/><path class="cls-4" d="M243.51,251.25h25c0-16.46-11.29-30-25-30s-25,13.54-25,30Z"/><line class="cls-1" x1="393.49" y1="250.75" x2="493.49" y2="250.75"/><path class="cls-4" d="M443.51,251.25h25c0-16.46-11.29-30-25-30s-25,13.54-25,30Z"/><line class="cls-1" x1="18.51" y1="250.75" x2="93.49" y2="250.75"/><path class="cls-4" d="M43.51,251.25h25c0-16.46-11.29-30-25-30s-25,13.54-25,30Z"/><rect class="cls-5" width="512" height="512"/></g></g></svg>