<svg xmlns="http://www.w3.org/2000/svg" viewBox="0 0 512 512"><defs><style>.cls-1,.cls-3{fill:none;}.cls-1{stroke:red;stroke-miterlimit:10;stroke-width:5px;}.cls-2{fill:red;}</style></defs><g id="Layer_2" data-name="Layer 2"><g id="WA-DPFW----L---"><line class="cls-1" x1="20.18" y1="246.27" x2="491.82" y2="246.27"/><path class="cls-2" d="M39.65,246.27H59.12a19.47,19.47,0,0,1-38.94,0Z"/><path class="cls-2" d="M128.45,246.27h19.47a19.47,19.47,0,0,1-38.94,0Z"/><path class="cls-2" d="M217.25,246.27h19.47a19.47,19.47,0,0,1-38.94,0Z"/><path class="cls-2" d="M306.05,246.27h19.47a19.47,19.47,0,0,1-38.94,0Z"/><path class="cls-2" d="M394.84,246.27H414.3a19.47,19.47,0,0,1-38.93,0Z"/><path class="cls-2" d="M482.46,265.73A19.56,19.56,0,0,1,463,246.27h19.47Z"/><rect class="cls-3" width="512" height="512"/></g></g></svg>