<svg xmlns="http://www.w3.org/2000/svg" viewBox="0 0 512 512"><defs><style>.cls-1,.cls-10,.cls-11,.cls-2,.cls-3,.cls-4,.cls-5,.cls-6,.cls-7,.cls-8,.cls-9{fill:none;}.cls-1,.cls-10,.cls-2,.cls-3,.cls-4,.cls-5,.cls-6,.cls-7,.cls-8,.cls-9{stroke:#088408;stroke-miterlimit:10;stroke-width:10px;}.cls-2{stroke-dasharray:46.03 7.67;}.cls-3{stroke-dasharray:15.34 7.67 46.03 7.67;}.cls-4{stroke-dasharray:23.93 3.99;}.cls-5{stroke-dasharray:58.88 9.81;}.cls-6{stroke-dasharray:19.63 9.81 58.88 9.81;}.cls-7{stroke-dasharray:57.61 9.6;}.cls-8{stroke-dasharray:19.2 9.6 57.61 9.6;}.cls-9{stroke-dasharray:40.06 6.68;}.cls-10{stroke-dasharray:13.35 6.68 40.06 6.68;}</style></defs><g id="Layer_2" data-name="Layer 2"><g id="WA-DBALPC---A--"><polyline class="cls-1" points="234.27 229.58 230.4 238.8 221.02 235.33"/><line class="cls-2" x1="213.83" y1="232.66" x2="167.07" y2="215.35"/><polyline class="cls-3" points="164.05 213.15 127.2 174 110.49 164.72"/><polyline class="cls-1" points="107.14 162.86 98.4 158 89.61 162.78"/><line class="cls-4" x1="86.11" y1="164.68" x2="63.34" y2="177.07"/><polyline class="cls-1" points="61.59 178.02 52.8 182.8 50.52 192.54"/><line class="cls-5" x1="48.28" y1="202.09" x2="33.72" y2="264.19"/><polyline class="cls-6" points="32.6 268.97 25.6 298.8 39.2 364.4 64.8 405.2 118.4 422.8 135.2 422.8 176.8 437.2 399.49 437.2"/><polyline class="cls-1" points="404.4 437.2 414.4 437.2 420.52 429.29"/><polyline class="cls-7" points="426.4 421.7 458.4 380.4 460.39 370.43"/><polyline class="cls-8" points="461.33 365.72 486.4 240.4 486.4 158 431.2 89.2 364 74.8 312.8 74.8 280 94 261.58 98.49"/><polyline class="cls-1" points="256.92 99.63 247.2 102 247.2 112"/><line class="cls-9" x1="247.2" y1="118.68" x2="247.2" y2="162.08"/><polyline class="cls-10" points="247.2 165.41 247.2 198.8 235.56 226.5"/><rect class="cls-11" width="512" height="512"/></g></g></svg>