<svg xmlns="http://www.w3.org/2000/svg" viewBox="0 0 512 512"><defs><style>.cls-1,.cls-2{fill:none;}.cls-1{stroke:#000;stroke-miterlimit:10;stroke-width:7px;}</style></defs><g id="Layer_2" data-name="Layer 2"><g id="WA-DPXSQ---L---"><line class="cls-1" x1="16.02" y1="412.36" x2="69.12" y2="379.5"/><polyline class="cls-1" points="87.93 349.4 92.33 391.42 56.69 368.72"/><line class="cls-1" x1="89.75" y1="366.74" x2="149.3" y2="329.89"/><polyline class="cls-1" points="168.1 299.79 172.51 341.81 136.87 319.12"/><line class="cls-1" x1="170.62" y1="316.7" x2="230.16" y2="279.86"/><polyline class="cls-1" points="248.97 249.75 253.38 291.77 217.74 269.08"/><line class="cls-1" x1="251.48" y1="266.67" x2="311.03" y2="229.82"/><polyline class="cls-1" points="329.84 199.72 334.24 241.74 298.61 219.04"/><line class="cls-1" x1="332.35" y1="216.63" x2="391.9" y2="179.78"/><polyline class="cls-1" points="410.71 149.68 415.11 191.7 379.47 169.01"/><line class="cls-1" x1="413.22" y1="166.59" x2="472.77" y2="129.75"/><polyline class="cls-1" points="491.58 99.64 495.98 141.66 460.34 118.97"/><rect class="cls-2" width="512" height="512"/></g></g></svg>