<svg xmlns="http://www.w3.org/2000/svg" viewBox="0 0 512 512"><defs><style>.cls-1,.cls-3{fill:none;}.cls-1{stroke:blue;stroke-miterlimit:10;stroke-width:5px;}.cls-2{fill:blue;}</style></defs><g id="Layer_2" data-name="Layer 2"><g id="WA-DPFC-FY-L---"><line class="cls-1" x1="102.6" y1="241.25" x2="141.2" y2="241.25"/><line class="cls-1" x1="108.25" y1="227.61" x2="135.55" y2="254.9"/><line class="cls-1" x1="283.65" y1="227.61" x2="310.94" y2="254.9"/><line class="cls-1" x1="20.18" y1="241.25" x2="88" y2="241.25"/><polygon class="cls-2" points="20.18 241.25 38.47 270.75 59.12 241.25 20.18 241.25"/><line class="cls-1" x1="278.5" y1="241.25" x2="317.1" y2="241.25"/><line class="cls-1" x1="155.4" y1="241.25" x2="263.9" y2="241.25"/><polygon class="cls-2" points="196.08 241.25 214.37 270.75 235.01 241.25 196.08 241.25"/><line class="cls-1" x1="338.59" y1="241.25" x2="447.09" y2="241.25"/><polygon class="cls-2" points="379.27 241.25 397.56 270.75 418.2 241.25 379.27 241.25"/><line class="cls-1" x1="466.83" y1="227.61" x2="494.13" y2="254.9"/><line class="cls-1" x1="461.69" y1="241.25" x2="480.48" y2="241.25"/><line class="cls-1" x1="467.09" y1="227.61" x2="494.38" y2="254.9"/><line class="cls-1" x1="461.43" y1="241.25" x2="500.03" y2="241.25"/><rect class="cls-3" width="512" height="512"/></g></g></svg>