<svg xmlns="http://www.w3.org/2000/svg" viewBox="0 0 512 512"><defs><style>.cls-1,.cls-2{fill:none;}.cls-1{stroke:#000;stroke-miterlimit:10;stroke-width:5px;}</style></defs><g id="Layer_2" data-name="Layer 2"><g id="WA-DPXR----L---"><polyline class="cls-1" points="18.6 253.99 32.6 264.4 48.03 247.8 63.47 264.4 78.9 247.8 94.33 264.4 109.77 247.8 125.2 264.4 140.63 247.8 156.07 264.4 171.5 247.8 186.93 264.4 202.37 247.8 217.8 264.4 233.23 247.8 248.67 264.4 264.1 247.8 279.53 264.4 294.97 247.8 310.4 264.4 325.83 247.8 341.27 264.4 356.7 247.8 372.13 264.4 387.57 247.8 403 264.4 418.43 247.8 433.87 264.4 449.3 247.8 464.73 264.4 482 247.6 493.4 253.99"/><rect class="cls-2" width="512" height="512"/></g></g></svg>