<svg xmlns="http://www.w3.org/2000/svg" viewBox="0 0 512 512"><defs><style>.cls-1,.cls-2,.cls-3{fill:none;}.cls-1,.cls-2{stroke:#bd9a38;stroke-miterlimit:10;stroke-width:5px;}.cls-2{fill-rule:evenodd;}</style></defs><g id="Layer_2" data-name="Layer 2"><g id="WA-DBAI-----A--"><line class="cls-1" x1="76.84" y1="165.8" x2="73.32" y2="154.89"/><line class="cls-1" x1="62.86" y1="158.26" x2="83.77" y2="151.52"/><line class="cls-1" x1="104.51" y1="156.88" x2="100.99" y2="145.96"/><line class="cls-1" x1="90.54" y1="149.34" x2="111.45" y2="142.59"/><line class="cls-1" x1="132.19" y1="147.95" x2="128.67" y2="137.04"/><line class="cls-1" x1="118.21" y1="140.41" x2="139.13" y2="133.67"/><line class="cls-1" x1="159.87" y1="139.03" x2="156.35" y2="128.12"/><line class="cls-1" x1="145.89" y1="131.49" x2="166.8" y2="124.75"/><line class="cls-1" x1="187.54" y1="130.11" x2="184.02" y2="119.19"/><line class="cls-1" x1="173.57" y1="122.56" x2="194.48" y2="115.82"/><line class="cls-1" x1="215.22" y1="121.18" x2="211.7" y2="110.27"/><polyline class="cls-2" points="201.24 113.64 223.01 106.62 223.29 106.67"/><line class="cls-1" x1="240.49" y1="120.82" x2="242.18" y2="109.48"/><line class="cls-1" x1="231.31" y1="107.86" x2="253.05" y2="111.1"/><line class="cls-1" x1="269.25" y1="125.1" x2="270.94" y2="113.76"/><line class="cls-1" x1="260.07" y1="112.14" x2="281.81" y2="115.38"/><line class="cls-1" x1="298.01" y1="129.39" x2="299.7" y2="118.05"/><line class="cls-1" x1="288.83" y1="116.43" x2="310.57" y2="119.66"/><line class="cls-1" x1="326.77" y1="133.67" x2="328.46" y2="122.33"/><line class="cls-1" x1="317.6" y1="120.71" x2="339.33" y2="123.95"/><line class="cls-1" x1="355.54" y1="137.95" x2="357.23" y2="126.61"/><line class="cls-1" x1="346.36" y1="124.99" x2="368.09" y2="128.23"/><line class="cls-1" x1="379.3" y1="146.1" x2="385.97" y2="136.77"/><line class="cls-1" x1="376.36" y1="129.9" x2="394.91" y2="143.16"/><line class="cls-1" x1="402.95" y1="163.02" x2="409.62" y2="153.69"/><line class="cls-1" x1="400.69" y1="147.3" x2="418.56" y2="160.08"/><line class="cls-1" x1="426.6" y1="179.94" x2="433.27" y2="170.61"/><line class="cls-1" x1="424.34" y1="164.22" x2="442.21" y2="177"/><line class="cls-1" x1="450.25" y1="196.86" x2="456.92" y2="187.53"/><line class="cls-1" x1="447.99" y1="181.14" x2="465.86" y2="193.92"/><line class="cls-1" x1="465.4" y1="226.49" x2="476.87" y2="226.49"/><line class="cls-1" x1="476.87" y1="215.37" x2="476.87" y2="237.61"/><line class="cls-1" x1="465.4" y1="255.93" x2="476.87" y2="255.93"/><line class="cls-1" x1="476.87" y1="244.81" x2="476.87" y2="267.05"/><line class="cls-1" x1="465.4" y1="285.36" x2="476.87" y2="285.36"/><line class="cls-1" x1="476.87" y1="274.24" x2="476.87" y2="296.49"/><line class="cls-1" x1="465.4" y1="314.8" x2="476.87" y2="314.8"/><polyline class="cls-2" points="476.87 303.68 476.87 322.56 475.32 327.19"/><line class="cls-1" x1="458.65" y1="340.93" x2="469.53" y2="344.56"/><line class="cls-1" x1="473.05" y1="334.01" x2="466.02" y2="355.11"/><line class="cls-1" x1="449.35" y1="368.86" x2="460.22" y2="372.48"/><line class="cls-1" x1="463.74" y1="361.93" x2="456.71" y2="383.04"/><line class="cls-1" x1="423.28" y1="388.25" x2="423.86" y2="399.7"/><line class="cls-1" x1="435.37" y1="399.12" x2="412.34" y2="400.28"/><line class="cls-1" x1="392.8" y1="389.78" x2="393.38" y2="401.23"/><line class="cls-1" x1="404.9" y1="400.65" x2="381.87" y2="401.81"/><line class="cls-1" x1="362.33" y1="391.31" x2="362.9" y2="402.77"/><line class="cls-1" x1="374.42" y1="402.19" x2="351.39" y2="403.35"/><line class="cls-1" x1="331.85" y1="392.85" x2="332.43" y2="404.3"/><line class="cls-1" x1="343.94" y1="403.72" x2="320.91" y2="404.88"/><line class="cls-1" x1="301.38" y1="394.38" x2="301.95" y2="405.83"/><line class="cls-1" x1="313.47" y1="405.25" x2="290.44" y2="406.41"/><line class="cls-1" x1="270.9" y1="395.92" x2="271.48" y2="407.37"/><line class="cls-1" x1="282.99" y1="406.79" x2="259.96" y2="407.95"/><line class="cls-1" x1="240.43" y1="397.45" x2="241" y2="408.9"/><line class="cls-1" x1="252.52" y1="408.32" x2="229.49" y2="409.48"/><line class="cls-1" x1="210.74" y1="398.94" x2="209.99" y2="410.46"/><polyline class="cls-2" points="222.04 409.86 209.26 410.5 197.91 407.26"/><line class="cls-1" x1="182.79" y1="391.03" x2="179.65" y2="402.06"/><line class="cls-1" x1="190.74" y1="405.22" x2="168.56" y2="398.9"/><line class="cls-1" x1="153.45" y1="382.67" x2="150.31" y2="393.69"/><line class="cls-1" x1="161.39" y1="396.85" x2="139.22" y2="390.53"/><line class="cls-1" x1="124.1" y1="374.3" x2="120.96" y2="385.33"/><line class="cls-1" x1="132.05" y1="388.49" x2="109.87" y2="382.17"/><line class="cls-1" x1="94.76" y1="365.94" x2="91.62" y2="376.96"/><line class="cls-1" x1="102.7" y1="380.13" x2="80.53" y2="373.8"/><line class="cls-1" x1="65.41" y1="357.57" x2="62.27" y2="368.6"/><line class="cls-1" x1="73.36" y1="371.76" x2="51.18" y2="365.44"/><line class="cls-1" x1="47.15" y1="332.79" x2="35.71" y2="331.98"/><line class="cls-1" x1="34.94" y1="342.73" x2="36.48" y2="321.22"/><line class="cls-1" x1="49.18" y1="304.32" x2="37.74" y2="303.51"/><line class="cls-1" x1="36.97" y1="314.27" x2="38.51" y2="292.75"/><line class="cls-1" x1="51.21" y1="275.86" x2="39.78" y2="275.04"/><line class="cls-1" x1="39.01" y1="285.8" x2="40.54" y2="264.28"/><line class="cls-1" x1="53.25" y1="247.39" x2="41.81" y2="246.57"/><line class="cls-1" x1="41.04" y1="257.33" x2="42.58" y2="235.81"/><line class="cls-1" x1="55.28" y1="218.92" x2="43.84" y2="218.1"/><line class="cls-1" x1="43.07" y1="228.86" x2="44.61" y2="207.34"/><line class="cls-1" x1="57.31" y1="190.45" x2="45.88" y2="189.63"/><line class="cls-1" x1="45.11" y1="200.39" x2="46.64" y2="178.87"/><rect class="cls-3" width="512" height="512"/></g></g></svg>