<svg xmlns="http://www.w3.org/2000/svg" viewBox="0 0 512 512"><defs><style>.cls-1,.cls-2{fill:none;}.cls-1{stroke:red;stroke-miterlimit:10;stroke-width:5px;}</style></defs><g id="Layer_2" data-name="Layer 2"><g id="WA-DPFWU---L---"><line class="cls-1" x1="24.86" y1="246.27" x2="487.14" y2="246.27"/><path class="cls-1" d="M44.33,246.27H63.8a19.47,19.47,0,0,1-38.94,0Z"/><path class="cls-1" d="M133.13,246.27H152.6a19.47,19.47,0,0,1-38.94,0Z"/><path class="cls-1" d="M221.93,246.27H241.4a19.47,19.47,0,0,1-38.94,0Z"/><path class="cls-1" d="M310.73,246.27H330.2a19.47,19.47,0,0,1-38.94,0Z"/><path class="cls-1" d="M399.52,246.27H419a19.47,19.47,0,0,1-38.93,0Z"/><path class="cls-1" d="M487.14,265.73a19.56,19.56,0,0,1-19.47-19.46h19.47"/><rect class="cls-2" width="512" height="512"/></g></g></svg>