<svg xmlns="http://www.w3.org/2000/svg" viewBox="0 0 512 512"><defs><style>.cls-1,.cls-2,.cls-5{fill:none;}.cls-1{stroke:red;}.cls-1,.cls-2{stroke-miterlimit:10;stroke-width:10px;}.cls-2{stroke:blue;}.cls-3{fill:blue;}.cls-4{fill:red;}</style></defs><g id="Layer_2" data-name="Layer 2"><g id="WA-DPFS-FG-L---"><line class="cls-1" x1="221.84" y1="250.34" x2="297.25" y2="250.34"/><line class="cls-2" x1="329.58" y1="250.34" x2="404.99" y2="250.34"/><polygon class="cls-3" points="340.35 250.34 365.65 293.44 394.22 250.34 340.35 250.34"/><line class="cls-2" x1="114.1" y1="250.34" x2="189.52" y2="250.34"/><polygon class="cls-3" points="124.88 250.34 150.18 293.44 178.75 250.34 124.88 250.34"/><path class="cls-4" d="M259.56,250.88h26.93c0-17.73-12.15-32.32-26.93-32.32s-26.93,14.59-26.93,32.32Z"/><line class="cls-1" x1="437.31" y1="250.34" x2="475.03" y2="250.34"/><path class="cls-4" d="M475,250.88,494.85,229c-5.1-6.64-12.29-10.43-19.82-10.43-14.77,0-26.93,14.59-26.93,32.32Z"/><line class="cls-1" x1="17.15" y1="250.34" x2="83.33" y2="250.34"/><path class="cls-4" d="M44.09,250.88H71c0-17.73-12.16-32.32-26.93-32.32s-26.94,14.59-26.94,32.32Z"/><circle class="cls-3" cx="98.72" cy="251.04" r="8.08"/><circle class="cls-4" cx="205.66" cy="251.04" r="8.08"/><circle class="cls-3" cx="313.42" cy="251.04" r="8.08"/><circle class="cls-4" cx="421.15" cy="251.04" r="8.08"/><rect class="cls-5" width="512" height="512"/></g></g></svg>