<svg xmlns="http://www.w3.org/2000/svg" viewBox="0 0 512 512"><defs><style>.cls-1,.cls-2,.cls-3{fill:none;}.cls-1{stroke:red;}.cls-1,.cls-2{stroke-miterlimit:10;stroke-width:10px;}.cls-2{stroke:blue;}</style></defs><g id="Layer_2" data-name="Layer 2"><g id="WA-DPFSU---L---"><line class="cls-1" x1="196.49" y1="250.75" x2="296.49" y2="250.75"/><line class="cls-2" x1="296.49" y1="250.75" x2="396.49" y2="250.75"/><polygon class="cls-2" points="321.49 250.75 344.98 290.75 371.49 250.75 321.49 250.75"/><line class="cls-2" x1="96.49" y1="250.75" x2="196.49" y2="250.75"/><polygon class="cls-2" points="121.49 250.75 144.98 290.75 171.49 250.75 121.49 250.75"/><path class="cls-1" d="M246.51,251.25h25c0-16.46-11.29-30-25-30s-25,13.54-25,30Z"/><line class="cls-1" x1="396.49" y1="250.75" x2="496.49" y2="250.75"/><path class="cls-1" d="M446.51,251.25h25c0-16.46-11.29-30-25-30s-25,13.54-25,30Z"/><line class="cls-1" x1="21.51" y1="250.75" x2="96.49" y2="250.75"/><path class="cls-1" d="M46.51,251.25h25c0-16.46-11.29-30-25-30s-25,13.54-25,30Z"/><rect class="cls-3" width="512" height="512"/></g></g></svg>