<svg xmlns="http://www.w3.org/2000/svg" viewBox="0 0 512 512"><defs><style>.cls-1,.cls-2{fill:none;}.cls-1{stroke:blue;stroke-miterlimit:10;stroke-width:1.5px;}</style></defs><g id="Layer_2" data-name="Layer 2"><g id="WA-DBAMV----A--"><path class="cls-1" d="M98,218l-3.47-7.18a24.49,24.49,0,0,1-1.14-9.9c.59-5.52,2.7-12,12.08-16.78A25.49,25.49,0,0,1,117,181a16.37,16.37,0,0,1,8.23,1.93,19.55,19.55,0,0,1,8,8.78c2.21,4.81,3.29,7.33,3.29,7.33"/><path class="cls-1" d="M67.91,239.54l-6-5.21A19.23,19.23,0,0,1,60,232a21.6,21.6,0,0,1-3-6.33,16.4,16.4,0,0,1-.67-4.38,15.86,15.86,0,0,1,.7-5,19.76,19.76,0,0,1,1.06-2.72,21.47,21.47,0,0,1,1.72-2.81,25.08,25.08,0,0,1,5.74-5.57A34,34,0,0,1,69,203a28.7,28.7,0,0,1,3.27-1.42,26.5,26.5,0,0,1,3-.83,24.56,24.56,0,0,1,2.68-.34,15.9,15.9,0,0,1,8.32,1.8,20,20,0,0,1,8.25,8.56C96.88,215.53,98,218,98,218"/><path class="cls-1" d="M39.54,272.35l-6-5.21s-13.19-13.5,0-28.71c12.43-14.38,24.46-7.41,28.35-4.12,4,3.41,6.08,5.23,6.08,5.23"/><path class="cls-1" d="M136.54,199l-3.25-7.29a22.85,22.85,0,0,1-.79-9.92,18.4,18.4,0,0,1,3.49-8.56A23.06,23.06,0,0,1,146,166a27.09,27.09,0,0,1,11.57-2.15,17.1,17.1,0,0,1,8,2.57,19.61,19.61,0,0,1,7.46,9.24c1.91,4.93,2.84,7.51,2.84,7.51"/><path class="cls-1" d="M98,218l-3.47-7.18a24.49,24.49,0,0,1-1.14-9.9c.59-5.52,2.7-12,12.08-16.78A25.49,25.49,0,0,1,117,181a16.37,16.37,0,0,1,8.23,1.93,19.55,19.55,0,0,1,8,8.78c2.21,4.81,3.29,7.33,3.29,7.33"/><path class="cls-1" d="M67.91,239.54l-6-5.21A19.23,19.23,0,0,1,60,232a21.6,21.6,0,0,1-3-6.33,16.4,16.4,0,0,1-.67-4.38,15.86,15.86,0,0,1,.7-5,19.76,19.76,0,0,1,1.06-2.72,21.47,21.47,0,0,1,1.72-2.81,25.08,25.08,0,0,1,5.74-5.57A34,34,0,0,1,69,203a28.7,28.7,0,0,1,3.27-1.42,26.5,26.5,0,0,1,3-.83,24.56,24.56,0,0,1,2.68-.34,15.9,15.9,0,0,1,8.32,1.8,20,20,0,0,1,8.25,8.56C96.88,215.53,98,218,98,218"/><path class="cls-1" d="M175.93,183.12l-2.8-7.47a23.45,23.45,0,0,1-.21-10c1.07-5.41,4.55-11.72,13.88-15.23a26.32,26.32,0,0,1,11.3-2,17.39,17.39,0,0,1,8,2.47,20.16,20.16,0,0,1,7.73,9c2.07,4.86,3.08,7.41,3.08,7.41"/><path class="cls-1" d="M136.54,199l-3.25-7.29a22.85,22.85,0,0,1-.79-9.92,18.4,18.4,0,0,1,3.49-8.56A23.06,23.06,0,0,1,146,166a27.09,27.09,0,0,1,11.57-2.15,17.1,17.1,0,0,1,8,2.57,19.61,19.61,0,0,1,7.46,9.24c1.91,4.93,2.84,7.51,2.84,7.51"/><path class="cls-1" d="M98,218l-3.47-7.18a24.49,24.49,0,0,1-1.14-9.9c.59-5.52,2.7-12,12.08-16.78A25.49,25.49,0,0,1,117,181a16.37,16.37,0,0,1,8.23,1.93,19.55,19.55,0,0,1,8,8.78c2.21,4.81,3.29,7.33,3.29,7.33"/><path class="cls-1" d="M216.86,167.39l-3-7.37a18.47,18.47,0,0,1-.6-2.93,24.89,24.89,0,0,1,0-7,19.82,19.82,0,0,1,3.34-8.5,21.22,21.22,0,0,1,3.74-4,24.63,24.63,0,0,1,5.53-3.49,32.31,32.31,0,0,1,3-1.25c1-.35,1.88-.68,2.78-.92a22.15,22.15,0,0,1,5-.77,18.14,18.14,0,0,1,4.39.42,17.27,17.27,0,0,1,3.72,1.22,20.36,20.36,0,0,1,8.74,8c2.65,4.58,4,7,4,7"/><path class="cls-1" d="M175.93,183.12l-2.8-7.47a23.45,23.45,0,0,1-.21-10c1.07-5.41,4.55-11.72,13.88-15.23a26.32,26.32,0,0,1,11.3-2,17.39,17.39,0,0,1,8,2.47,20.16,20.16,0,0,1,7.73,9c2.07,4.86,3.08,7.41,3.08,7.41"/><path class="cls-1" d="M136.54,199l-3.25-7.29a22.85,22.85,0,0,1-.79-9.92,18.4,18.4,0,0,1,3.49-8.56A23.06,23.06,0,0,1,146,166a27.09,27.09,0,0,1,11.57-2.15,17.1,17.1,0,0,1,8,2.57,19.61,19.61,0,0,1,7.46,9.24c1.91,4.93,2.84,7.51,2.84,7.51"/><path class="cls-1" d="M257.52,147.83l-3.92-6.94a24.69,24.69,0,0,1-1.77-9.8,21.14,21.14,0,0,1,.56-4.28,20,20,0,0,1,1.62-4.54,19.48,19.48,0,0,1,3.11-4.44,32.2,32.2,0,0,1,5-4.18,30.91,30.91,0,0,1,5.39-3,23.61,23.61,0,0,1,2.52-.87c.41-.12.82-.22,1.22-.31l1.5-.42a14.48,14.48,0,0,1,5.43-.42,12.34,12.34,0,0,1,4.15,1.29,13,13,0,0,1,3,2.21,15.35,15.35,0,0,1,2.05,2.6,20.14,20.14,0,0,1,2.1,4.67c1.52,5.06,2.26,7.7,2.26,7.7"/><path class="cls-1" d="M216.86,167.39l-3-7.37a18.47,18.47,0,0,1-.6-2.93,24.89,24.89,0,0,1,0-7,19.82,19.82,0,0,1,3.34-8.5,21.22,21.22,0,0,1,3.74-4,24.63,24.63,0,0,1,5.53-3.49,32.31,32.31,0,0,1,3-1.25c1-.35,1.88-.68,2.78-.92a22.15,22.15,0,0,1,5-.77,18.14,18.14,0,0,1,4.39.42,17.27,17.27,0,0,1,3.72,1.22,20.36,20.36,0,0,1,8.74,8c2.65,4.58,4,7,4,7"/><path class="cls-1" d="M175.93,183.12l-2.8-7.47a23.45,23.45,0,0,1-.21-10c1.07-5.41,4.55-11.72,13.88-15.23a26.32,26.32,0,0,1,11.3-2,17.39,17.39,0,0,1,8,2.47,20.16,20.16,0,0,1,7.73,9c2.07,4.86,3.08,7.41,3.08,7.41"/><path class="cls-1" d="M291.67,127.13l-2.23-7.66a16.86,16.86,0,0,1-.33-3,17.65,17.65,0,0,1,1.1-6.92,15.79,15.79,0,0,1,6.09-7.47,22.84,22.84,0,0,1,12.84-3.45,34.58,34.58,0,0,1,3.51.19c.54.06,1.07.13,1.57.21s1.13.2,1.66.31a20.35,20.35,0,0,1,5.61,2,15,15,0,0,1,6.29,6.18,18.11,18.11,0,0,1,1.49,11.78c-1,5.18-1.64,7.85-1.64,7.85"/><path class="cls-1" d="M257.52,147.83l-3.92-6.94a24.69,24.69,0,0,1-1.77-9.8,21.14,21.14,0,0,1,.56-4.28,20,20,0,0,1,1.62-4.54,19.48,19.48,0,0,1,3.11-4.44,32.2,32.2,0,0,1,5-4.18,30.91,30.91,0,0,1,5.39-3,23.61,23.61,0,0,1,2.52-.87c.41-.12.82-.22,1.22-.31l1.5-.42a14.48,14.48,0,0,1,5.43-.42,12.34,12.34,0,0,1,4.15,1.29,13,13,0,0,1,3,2.21,15.35,15.35,0,0,1,2.05,2.6,20.14,20.14,0,0,1,2.1,4.67c1.52,5.06,2.26,7.7,2.26,7.7"/><path class="cls-1" d="M216.86,167.39l-3-7.37a18.47,18.47,0,0,1-.6-2.93,24.89,24.89,0,0,1,0-7,19.82,19.82,0,0,1,3.34-8.5,21.22,21.22,0,0,1,3.74-4,24.63,24.63,0,0,1,5.53-3.49,32.31,32.31,0,0,1,3-1.25c1-.35,1.88-.68,2.78-.92a22.15,22.15,0,0,1,5-.77,18.14,18.14,0,0,1,4.39.42,17.27,17.27,0,0,1,3.72,1.22,20.36,20.36,0,0,1,8.74,8c2.65,4.58,4,7,4,7"/><path class="cls-1" d="M327.63,127.19l1.65-7.8a18.66,18.66,0,0,1,1.14-2.76,21.06,21.06,0,0,1,4.1-5.69,17.63,17.63,0,0,1,8.14-4.57,23.13,23.13,0,0,1,12.52.69c18.34,5.79,16.48,19.66,14.94,24.5-1.6,5-2.49,7.62-2.49,7.62"/><path class="cls-1" d="M291.67,127.13l-2.23-7.66a16.86,16.86,0,0,1-.33-3,17.65,17.65,0,0,1,1.1-6.92,15.79,15.79,0,0,1,6.09-7.47,22.84,22.84,0,0,1,12.84-3.45,34.58,34.58,0,0,1,3.51.19c.54.06,1.07.13,1.57.21s1.13.2,1.66.31a20.35,20.35,0,0,1,5.61,2,15,15,0,0,1,6.29,6.18,18.11,18.11,0,0,1,1.49,11.78c-1,5.18-1.64,7.85-1.64,7.85"/><path class="cls-1" d="M257.52,147.83l-3.92-6.94a24.69,24.69,0,0,1-1.77-9.8,21.14,21.14,0,0,1,.56-4.28,20,20,0,0,1,1.62-4.54,19.48,19.48,0,0,1,3.11-4.44,32.2,32.2,0,0,1,5-4.18,30.91,30.91,0,0,1,5.39-3,23.61,23.61,0,0,1,2.52-.87c.41-.12.82-.22,1.22-.31l1.5-.42a14.48,14.48,0,0,1,5.43-.42,12.34,12.34,0,0,1,4.15,1.29,13,13,0,0,1,3,2.21,15.35,15.35,0,0,1,2.05,2.6,20.14,20.14,0,0,1,2.1,4.67c1.52,5.06,2.26,7.7,2.26,7.7"/><path class="cls-1" d="M367.63,139.18l2.49-7.57a23.43,23.43,0,0,1,6.09-7.89c4.25-3.53,10.94-6.27,20.53-2.94,9.06,3.15,13,8.23,14.53,13.08a19.34,19.34,0,0,1-.43,11.87c-1.8,5-2.79,7.53-2.79,7.53"/><path class="cls-1" d="M327.63,127.19l1.65-7.8a18.66,18.66,0,0,1,1.14-2.76,21.06,21.06,0,0,1,4.1-5.69,17.63,17.63,0,0,1,8.14-4.57,23.13,23.13,0,0,1,12.52.69c18.34,5.79,16.48,19.66,14.94,24.5-1.6,5-2.49,7.62-2.49,7.62"/><path class="cls-1" d="M291.67,127.13l-2.23-7.66a16.86,16.86,0,0,1-.33-3,17.65,17.65,0,0,1,1.1-6.92,15.79,15.79,0,0,1,6.09-7.47,22.84,22.84,0,0,1,12.84-3.45,34.58,34.58,0,0,1,3.51.19c.54.06,1.07.13,1.57.21s1.13.2,1.66.31a20.35,20.35,0,0,1,5.61,2,15,15,0,0,1,6.29,6.18,18.11,18.11,0,0,1,1.49,11.78c-1,5.18-1.64,7.85-1.64,7.85"/><path class="cls-1" d="M408.05,153.26l2.79-7.47a22.7,22.7,0,0,1,6.41-7.62,17.92,17.92,0,0,1,8.57-3.56,22.32,22.32,0,0,1,12.64,2.4,26,26,0,0,1,9.84,7.77,16.37,16.37,0,0,1,2.24,4.17,14,14,0,0,1,.85,4,17.91,17.91,0,0,1-3.49,11.34c-3.09,4.29-4.74,6.47-4.74,6.47"/><path class="cls-1" d="M367.63,139.18l2.49-7.57a23.43,23.43,0,0,1,6.09-7.89c4.25-3.53,10.94-6.27,20.53-2.94,9.06,3.15,13,8.23,14.53,13.08a19.34,19.34,0,0,1-.43,11.87c-1.8,5-2.79,7.53-2.79,7.53"/><path class="cls-1" d="M327.63,127.19l1.65-7.8a18.66,18.66,0,0,1,1.14-2.76,21.06,21.06,0,0,1,4.1-5.69,17.63,17.63,0,0,1,8.14-4.57,23.13,23.13,0,0,1,12.52.69c18.34,5.79,16.48,19.66,14.94,24.5-1.6,5-2.49,7.62-2.49,7.62"/><path class="cls-1" d="M443.16,170.76l4.73-6.42a18.33,18.33,0,0,1,2.17-2,20.5,20.5,0,0,1,6.11-3.47A16.83,16.83,0,0,1,463,158a17.68,17.68,0,0,1,2.64.5,16.87,16.87,0,0,1,2.8,1,23.47,23.47,0,0,1,2.86,1.63,27.12,27.12,0,0,1,11.07,17.05,15.53,15.53,0,0,1-1.1,8.62,18.64,18.64,0,0,1-8.26,8.54c-4.68,2.47-7.13,3.68-7.13,3.68"/><path class="cls-1" d="M408.05,153.26l2.79-7.47a22.7,22.7,0,0,1,6.41-7.62,17.92,17.92,0,0,1,8.57-3.56,22.32,22.32,0,0,1,12.64,2.4,26,26,0,0,1,9.84,7.77,16.37,16.37,0,0,1,2.24,4.17,14,14,0,0,1,.85,4,17.91,17.91,0,0,1-3.49,11.34c-3.09,4.29-4.74,6.47-4.74,6.47"/><path class="cls-1" d="M367.63,139.18l2.49-7.57a23.43,23.43,0,0,1,6.09-7.89c4.25-3.53,10.94-6.27,20.53-2.94,9.06,3.15,13,8.23,14.53,13.08a19.34,19.34,0,0,1-.43,11.87c-1.8,5-2.79,7.53-2.79,7.53"/><path class="cls-1" d="M465.91,199l7.09-3.64a19.43,19.43,0,0,1,2.87-.85,22.08,22.08,0,0,1,7-.44c5.52.55,12.22,3.72,16.33,13.07a26,26,0,0,1,2.38,13.24,13.8,13.8,0,0,1-4.07,8.73,12,12,0,0,1-6.31,3,19.18,19.18,0,0,1-5.12.12c-5.25-.56-8-.9-8-.9"/><path class="cls-1" d="M443.16,170.76l4.73-6.42a18.33,18.33,0,0,1,2.17-2,20.5,20.5,0,0,1,6.11-3.47A16.83,16.83,0,0,1,463,158a17.68,17.68,0,0,1,2.64.5,16.87,16.87,0,0,1,2.8,1,23.47,23.47,0,0,1,2.86,1.63,27.12,27.12,0,0,1,11.07,17.05,15.53,15.53,0,0,1-1.1,8.62,18.64,18.64,0,0,1-8.26,8.54c-4.68,2.47-7.13,3.68-7.13,3.68"/><path class="cls-1" d="M408.05,153.26l2.79-7.47a22.7,22.7,0,0,1,6.41-7.62,17.92,17.92,0,0,1,8.57-3.56,22.32,22.32,0,0,1,12.64,2.4,26,26,0,0,1,9.84,7.77,16.37,16.37,0,0,1,2.24,4.17,14,14,0,0,1,.85,4,17.91,17.91,0,0,1-3.49,11.34c-3.09,4.29-4.74,6.47-4.74,6.47"/><path class="cls-1" d="M478.11,231.31l7.92.91a16.66,16.66,0,0,1,2.86.83,16.13,16.13,0,0,1,5.89,3.78,15.65,15.65,0,0,1,4.2,8.72,19.84,19.84,0,0,1,0,6,23.88,23.88,0,0,1-.74,3.37,33,33,0,0,1-1.36,3.6,31.88,31.88,0,0,1-3.48,5.94,24.11,24.11,0,0,1-3.89,4,16.11,16.11,0,0,1-7.91,3.35A18.87,18.87,0,0,1,470,269.22c-4.55-2.69-6.87-4.15-6.87-4.15"/><path class="cls-1" d="M465.91,199l7.09-3.64a19.43,19.43,0,0,1,2.87-.85,22.08,22.08,0,0,1,7-.44c5.52.55,12.22,3.72,16.33,13.07a26,26,0,0,1,2.38,13.24,13.8,13.8,0,0,1-4.07,8.73,12,12,0,0,1-6.31,3,19.18,19.18,0,0,1-5.12.12c-5.25-.56-8-.9-8-.9"/><path class="cls-1" d="M443.16,170.76l4.73-6.42a18.33,18.33,0,0,1,2.17-2,20.5,20.5,0,0,1,6.11-3.47A16.83,16.83,0,0,1,463,158a17.68,17.68,0,0,1,2.64.5,16.87,16.87,0,0,1,2.8,1,23.47,23.47,0,0,1,2.86,1.63,27.12,27.12,0,0,1,11.07,17.05,15.53,15.53,0,0,1-1.1,8.62,18.64,18.64,0,0,1-8.26,8.54c-4.68,2.47-7.13,3.68-7.13,3.68"/><path class="cls-1" d="M463.13,265.07l6.81,4.14a18.1,18.1,0,0,1,2.23,2,22.71,22.71,0,0,1,4.05,5.73A18,18,0,0,1,478,286a22.83,22.83,0,0,1-4.58,11.76c-5.77,8-11.87,10.2-16.93,10.13a19.49,19.49,0,0,1-11.19-4C441.14,300.72,439,299,439,299"/><path class="cls-1" d="M478.11,231.31l7.92.91a16.66,16.66,0,0,1,2.86.83,16.13,16.13,0,0,1,5.89,3.78,15.65,15.65,0,0,1,4.2,8.72,19.84,19.84,0,0,1,0,6,23.88,23.88,0,0,1-.74,3.37,33,33,0,0,1-1.36,3.6,31.88,31.88,0,0,1-3.48,5.94,24.11,24.11,0,0,1-3.89,4,16.11,16.11,0,0,1-7.91,3.35A18.87,18.87,0,0,1,470,269.22c-4.55-2.69-6.87-4.15-6.87-4.15"/><path class="cls-1" d="M465.91,199l7.09-3.64a19.43,19.43,0,0,1,2.87-.85,22.08,22.08,0,0,1,7-.44c5.52.55,12.22,3.72,16.33,13.07a26,26,0,0,1,2.38,13.24,13.8,13.8,0,0,1-4.07,8.73,12,12,0,0,1-6.31,3,19.18,19.18,0,0,1-5.12.12c-5.25-.56-8-.9-8-.9"/><path class="cls-1" d="M439,299l6.28,4.91a23.26,23.26,0,0,1,5.37,8.39c1.88,5.2,2.25,12.38-4.17,20.34-6.09,7.52-12.35,9.54-17.4,9.2a19.36,19.36,0,0,1-10.95-4.65c-4-3.47-6-5.31-6-5.31"/><path class="cls-1" d="M463.13,265.07l6.81,4.14a18.1,18.1,0,0,1,2.23,2,22.71,22.71,0,0,1,4.05,5.73A18,18,0,0,1,478,286a22.83,22.83,0,0,1-4.58,11.76c-5.77,8-11.87,10.2-16.93,10.13a19.49,19.49,0,0,1-11.19-4C441.14,300.72,439,299,439,299"/><path class="cls-1" d="M478.11,231.31l7.92.91a16.66,16.66,0,0,1,2.86.83,16.13,16.13,0,0,1,5.89,3.78,15.65,15.65,0,0,1,4.2,8.72,19.84,19.84,0,0,1,0,6,23.88,23.88,0,0,1-.74,3.37,33,33,0,0,1-1.36,3.6,31.88,31.88,0,0,1-3.48,5.94,24.11,24.11,0,0,1-3.89,4,16.11,16.11,0,0,1-7.91,3.35A18.87,18.87,0,0,1,470,269.22c-4.55-2.69-6.87-4.15-6.87-4.15"/><path class="cls-1" d="M412.11,331.89l6,5.29a22.84,22.84,0,0,1,4.83,8.72,18.43,18.43,0,0,1,.26,9.26A19.77,19.77,0,0,1,421,360.5a25.55,25.55,0,0,1-1.87,2.78,31.67,31.67,0,0,1-2.54,2.75,26.42,26.42,0,0,1-10.32,6.52,16.82,16.82,0,0,1-8.61.33,18.75,18.75,0,0,1-9.9-6.61c-3.26-4.16-4.89-6.36-4.89-6.36"/><path class="cls-1" d="M439,299l6.28,4.91a23.26,23.26,0,0,1,5.37,8.39c1.88,5.2,2.25,12.38-4.17,20.34-6.09,7.52-12.35,9.54-17.4,9.2a19.36,19.36,0,0,1-10.95-4.65c-4-3.47-6-5.31-6-5.31"/><path class="cls-1" d="M463.13,265.07l6.81,4.14a18.1,18.1,0,0,1,2.23,2,22.71,22.71,0,0,1,4.05,5.73A18,18,0,0,1,478,286a22.83,22.83,0,0,1-4.58,11.76c-5.77,8-11.87,10.2-16.93,10.13a19.49,19.49,0,0,1-11.19-4C441.14,300.72,439,299,439,299"/><path class="cls-1" d="M382.85,359.91l4.85,6.33a19.2,19.2,0,0,1,1.35,2.66,22.21,22.21,0,0,1,1.69,6.84,17,17,0,0,1-1.86,9.17,16.47,16.47,0,0,1-1.47,2.44,23.08,23.08,0,0,1-2.07,2.35,23.44,23.44,0,0,1-5.93,4.36,25.88,25.88,0,0,1-12.18,3.47,16.15,16.15,0,0,1-8.42-2.38,15.89,15.89,0,0,1-4.86-4.88,20.05,20.05,0,0,1-2.22-4.62c-1.65-5-2.44-7.65-2.44-7.65"/><path class="cls-1" d="M412.11,331.89l6,5.29a22.84,22.84,0,0,1,4.83,8.72,18.43,18.43,0,0,1,.26,9.26A19.77,19.77,0,0,1,421,360.5a25.55,25.55,0,0,1-1.87,2.78,31.67,31.67,0,0,1-2.54,2.75,26.42,26.42,0,0,1-10.32,6.52,16.82,16.82,0,0,1-8.61.33,18.75,18.75,0,0,1-9.9-6.61c-3.26-4.16-4.89-6.36-4.89-6.36"/><path class="cls-1" d="M439,299l6.28,4.91a23.26,23.26,0,0,1,5.37,8.39c1.88,5.2,2.25,12.38-4.17,20.34-6.09,7.52-12.35,9.54-17.4,9.2a19.36,19.36,0,0,1-10.95-4.65c-4-3.47-6-5.31-6-5.31"/><path class="cls-1" d="M349.29,378l2.4,7.6a18.85,18.85,0,0,1,.37,3,20.67,20.67,0,0,1-.78,7,16.53,16.53,0,0,1-1.78,4.06,16.3,16.3,0,0,1-3.23,3.89,22.4,22.4,0,0,1-11.94,5.21,25.73,25.73,0,0,1-12.15-.76,16.28,16.28,0,0,1-7.12-4.66,19.34,19.34,0,0,1-4.52-11c-.42-5.27-.57-8-.57-8"/><path class="cls-1" d="M382.85,359.91l4.85,6.33a19.2,19.2,0,0,1,1.35,2.66,22.21,22.21,0,0,1,1.69,6.84,17,17,0,0,1-1.86,9.17,16.47,16.47,0,0,1-1.47,2.44,23.08,23.08,0,0,1-2.07,2.35,23.44,23.44,0,0,1-5.93,4.36,25.88,25.88,0,0,1-12.18,3.47,16.15,16.15,0,0,1-8.42-2.38,15.89,15.89,0,0,1-4.86-4.88,20.05,20.05,0,0,1-2.22-4.62c-1.65-5-2.44-7.65-2.44-7.65"/><path class="cls-1" d="M412.11,331.89l6,5.29a22.84,22.84,0,0,1,4.83,8.72,18.43,18.43,0,0,1,.26,9.26A19.77,19.77,0,0,1,421,360.5a25.55,25.55,0,0,1-1.87,2.78,31.67,31.67,0,0,1-2.54,2.75,26.42,26.42,0,0,1-10.32,6.52,16.82,16.82,0,0,1-8.61.33,18.75,18.75,0,0,1-9.9-6.61c-3.26-4.16-4.89-6.36-4.89-6.36"/><path class="cls-1" d="M310,384.28l.54,8a23,23,0,0,1-2.67,9.59c-2.62,4.88-7.8,9.9-17.94,10.4-9.61.48-15.23-2.81-18.38-6.73a19.55,19.55,0,0,1-4-11.2c-.19-5.28-.22-8-.22-8"/><path class="cls-1" d="M349.29,378l2.4,7.6a18.85,18.85,0,0,1,.37,3,20.67,20.67,0,0,1-.78,7,16.53,16.53,0,0,1-1.78,4.06,16.3,16.3,0,0,1-3.23,3.89,22.4,22.4,0,0,1-11.94,5.21,25.73,25.73,0,0,1-12.15-.76,16.28,16.28,0,0,1-7.12-4.66,19.34,19.34,0,0,1-4.52-11c-.42-5.27-.57-8-.57-8"/><path class="cls-1" d="M382.85,359.91l4.85,6.33a19.2,19.2,0,0,1,1.35,2.66,22.21,22.21,0,0,1,1.69,6.84,17,17,0,0,1-1.86,9.17,16.47,16.47,0,0,1-1.47,2.44,23.08,23.08,0,0,1-2.07,2.35,23.44,23.44,0,0,1-5.93,4.36,25.88,25.88,0,0,1-12.18,3.47,16.15,16.15,0,0,1-8.42-2.38,15.89,15.89,0,0,1-4.86-4.88,20.05,20.05,0,0,1-2.22-4.62c-1.65-5-2.44-7.65-2.44-7.65"/><path class="cls-1" d="M267.28,386.28l.19,8a23.13,23.13,0,0,1-3.08,9.47,18.43,18.43,0,0,1-6.48,6.57,22.56,22.56,0,0,1-12.08,2.94,33.23,33.23,0,0,1-6.52-.68,22.54,22.54,0,0,1-5.08-1.78,16.47,16.47,0,0,1-6.44-5.49,19.43,19.43,0,0,1-3.13-11.48c.23-5.29.42-8,.42-8"/><path class="cls-1" d="M310,384.28l.54,8a23,23,0,0,1-2.67,9.59c-2.62,4.88-7.8,9.9-17.94,10.4-9.61.48-15.23-2.81-18.38-6.73a19.55,19.55,0,0,1-4-11.2c-.19-5.28-.22-8-.22-8"/><path class="cls-1" d="M349.29,378l2.4,7.6a18.85,18.85,0,0,1,.37,3,20.67,20.67,0,0,1-.78,7,16.53,16.53,0,0,1-1.78,4.06,16.3,16.3,0,0,1-3.23,3.89,22.4,22.4,0,0,1-11.94,5.21,25.73,25.73,0,0,1-12.15-.76,16.28,16.28,0,0,1-7.12-4.66,19.34,19.34,0,0,1-4.52-11c-.42-5.27-.57-8-.57-8"/><path class="cls-1" d="M225.08,385.78l-.44,8a23,23,0,0,1-3.84,9.2,19.49,19.49,0,0,1-3,3.29,18.12,18.12,0,0,1-4.11,2.68,22.26,22.26,0,0,1-12.46,1.74,30.2,30.2,0,0,1-6.49-1.38,23.36,23.36,0,0,1-4.91-2.35,17.74,17.74,0,0,1-3.5-2.91,15.92,15.92,0,0,1-2.29-3.32,19.24,19.24,0,0,1-1.67-11.78c.91-5.21,1.45-7.89,1.45-7.89"/><path class="cls-1" d="M267.28,386.28l.19,8a23.13,23.13,0,0,1-3.08,9.47,18.43,18.43,0,0,1-6.48,6.57,22.56,22.56,0,0,1-12.08,2.94,33.23,33.23,0,0,1-6.52-.68,22.54,22.54,0,0,1-5.08-1.78,16.47,16.47,0,0,1-6.44-5.49,19.43,19.43,0,0,1-3.13-11.48c.23-5.29.42-8,.42-8"/><path class="cls-1" d="M310,384.28l.54,8a23,23,0,0,1-2.67,9.59c-2.62,4.88-7.8,9.9-17.94,10.4-9.61.48-15.23-2.81-18.38-6.73a19.55,19.55,0,0,1-4-11.2c-.19-5.28-.22-8-.22-8"/><path class="cls-1" d="M183.87,381l-1.46,7.84a22.6,22.6,0,0,1-5,8.64,17.68,17.68,0,0,1-7.84,4.93,20.41,20.41,0,0,1-5.72.9,29.17,29.17,0,0,1-7-1c-1.2-.32-2.33-.67-3.38-1.06a29,29,0,0,1-2.9-1.36,23.36,23.36,0,0,1-4.52-3.1,15.63,15.63,0,0,1-4.7-7.16,18.91,18.91,0,0,1,.39-11.86c1.81-5,2.81-7.52,2.81-7.52"/><path class="cls-1" d="M225.08,385.78l-.44,8a23,23,0,0,1-3.84,9.2,19.49,19.49,0,0,1-3,3.29,18.12,18.12,0,0,1-4.11,2.68,22.26,22.26,0,0,1-12.46,1.74,30.2,30.2,0,0,1-6.49-1.38,23.36,23.36,0,0,1-4.91-2.35,17.74,17.74,0,0,1-3.5-2.91,15.92,15.92,0,0,1-2.29-3.32,19.24,19.24,0,0,1-1.67-11.78c.91-5.21,1.45-7.89,1.45-7.89"/><path class="cls-1" d="M267.28,386.28l.19,8a23.13,23.13,0,0,1-3.08,9.47,18.43,18.43,0,0,1-6.48,6.57,22.56,22.56,0,0,1-12.08,2.94,33.23,33.23,0,0,1-6.52-.68,22.54,22.54,0,0,1-5.08-1.78,16.47,16.47,0,0,1-6.44-5.49,19.43,19.43,0,0,1-3.13-11.48c.23-5.29.42-8,.42-8"/><path class="cls-1" d="M144.56,370.26l-2.81,7.46a22.81,22.81,0,0,1-6.44,7.66c-4.43,3.34-11,5.82-20.39,2.4a26.69,26.69,0,0,1-10-6,16.64,16.64,0,0,1-4.35-7.23,19.4,19.4,0,0,1,.59-11.87c1.88-4.94,2.91-7.48,2.91-7.48"/><path class="cls-1" d="M183.87,381l-1.46,7.84a22.6,22.6,0,0,1-5,8.64,17.68,17.68,0,0,1-7.84,4.93,20.41,20.41,0,0,1-5.72.9,29.17,29.17,0,0,1-7-1c-1.2-.32-2.33-.67-3.38-1.06a29,29,0,0,1-2.9-1.36,23.36,23.36,0,0,1-4.52-3.1,15.63,15.63,0,0,1-4.7-7.16,18.91,18.91,0,0,1,.39-11.86c1.81-5,2.81-7.52,2.81-7.52"/><path class="cls-1" d="M225.08,385.78l-.44,8a23,23,0,0,1-3.84,9.2,19.49,19.49,0,0,1-3,3.29,18.12,18.12,0,0,1-4.11,2.68,22.26,22.26,0,0,1-12.46,1.74,30.2,30.2,0,0,1-6.49-1.38,23.36,23.36,0,0,1-4.91-2.35,17.74,17.74,0,0,1-3.5-2.91,15.92,15.92,0,0,1-2.29-3.32,19.24,19.24,0,0,1-1.67-11.78c.91-5.21,1.45-7.89,1.45-7.89"/><path class="cls-1" d="M104.09,355.19l-2.91,7.43a18.26,18.26,0,0,1-1.58,2.53,22.81,22.81,0,0,1-4.94,5A18.55,18.55,0,0,1,86,373.57a22.58,22.58,0,0,1-12.68-2.77A26.82,26.82,0,0,1,70.16,369a31.22,31.22,0,0,1-2.65-2.05,19.17,19.17,0,0,1-3.84-4.23,18.55,18.55,0,0,1-2.1-4.28,13.17,13.17,0,0,1-.69-4,18.1,18.1,0,0,1,4-11.21c3.27-4.15,5-6.26,5-6.26"/><path class="cls-1" d="M144.56,370.26l-2.81,7.46a22.81,22.81,0,0,1-6.44,7.66c-4.43,3.34-11,5.82-20.39,2.4a26.69,26.69,0,0,1-10-6,16.64,16.64,0,0,1-4.35-7.23,19.4,19.4,0,0,1,.59-11.87c1.88-4.94,2.91-7.48,2.91-7.48"/><path class="cls-1" d="M183.87,381l-1.46,7.84a22.6,22.6,0,0,1-5,8.64,17.68,17.68,0,0,1-7.84,4.93,20.41,20.41,0,0,1-5.72.9,29.17,29.17,0,0,1-7-1c-1.2-.32-2.33-.67-3.38-1.06a29,29,0,0,1-2.9-1.36,23.36,23.36,0,0,1-4.52-3.1,15.63,15.63,0,0,1-4.7-7.16,18.91,18.91,0,0,1,.39-11.86c1.81-5,2.81-7.52,2.81-7.52"/><path class="cls-1" d="M69.9,336.9l-5,6.21a19,19,0,0,1-2.27,1.95,20.22,20.22,0,0,1-6.26,3.22,17.48,17.48,0,0,1-9.5,0,21.31,21.31,0,0,1-5.44-2.73,20.88,20.88,0,0,1-2.8-2.23,36,36,0,0,1-2.63-3c-.82-1.05-1.55-2.07-2.2-3.06a21.28,21.28,0,0,1-1.54-3,24.8,24.8,0,0,1-1.71-5.44,15,15,0,0,1-.07-4.71,15.93,15.93,0,0,1,1.06-3.93,18.24,18.24,0,0,1,8-8.66c4.63-2.53,7.07-3.79,7.07-3.79"/><path class="cls-1" d="M104.09,355.19l-2.91,7.43a18.26,18.26,0,0,1-1.58,2.53,22.81,22.81,0,0,1-4.94,5A18.55,18.55,0,0,1,86,373.57a22.58,22.58,0,0,1-12.68-2.77A26.82,26.82,0,0,1,70.16,369a31.22,31.22,0,0,1-2.65-2.05,19.17,19.17,0,0,1-3.84-4.23,18.55,18.55,0,0,1-2.1-4.28,13.17,13.17,0,0,1-.69-4,18.1,18.1,0,0,1,4-11.21c3.27-4.15,5-6.26,5-6.26"/><path class="cls-1" d="M144.56,370.26l-2.81,7.46a22.81,22.81,0,0,1-6.44,7.66c-4.43,3.34-11,5.82-20.39,2.4a26.69,26.69,0,0,1-10-6,16.64,16.64,0,0,1-4.35-7.23,19.4,19.4,0,0,1,.59-11.87c1.88-4.94,2.91-7.48,2.91-7.48"/><path class="cls-1" d="M46.65,307.79l-7,3.75S22.28,319,12.82,301.25c-8.94-16.78,1.88-25.49,6.35-27.94,4.64-2.54,7.08-3.79,7.08-3.79"/><path class="cls-1" d="M69.9,336.9l-5,6.21a19,19,0,0,1-2.27,1.95,20.22,20.22,0,0,1-6.26,3.22,17.48,17.48,0,0,1-9.5,0,21.31,21.31,0,0,1-5.44-2.73,20.88,20.88,0,0,1-2.8-2.23,36,36,0,0,1-2.63-3c-.82-1.05-1.55-2.07-2.2-3.06a21.28,21.28,0,0,1-1.54-3,24.8,24.8,0,0,1-1.71-5.44,15,15,0,0,1-.07-4.71,15.93,15.93,0,0,1,1.06-3.93,18.24,18.24,0,0,1,8-8.66c4.63-2.53,7.07-3.79,7.07-3.79"/><path class="cls-1" d="M104.09,355.19l-2.91,7.43a18.26,18.26,0,0,1-1.58,2.53,22.81,22.81,0,0,1-4.94,5A18.55,18.55,0,0,1,86,373.57a22.58,22.58,0,0,1-12.68-2.77A26.82,26.82,0,0,1,70.16,369a31.22,31.22,0,0,1-2.65-2.05,19.17,19.17,0,0,1-3.84-4.23,18.55,18.55,0,0,1-2.1-4.28,13.17,13.17,0,0,1-.69-4,18.1,18.1,0,0,1,4-11.21c3.27-4.15,5-6.26,5-6.26"/><rect class="cls-2" width="512" height="512"/></g></g></svg>