<svg xmlns="http://www.w3.org/2000/svg" viewBox="0 0 512 512"><defs><style>.cls-1,.cls-3{fill:none;}.cls-1{stroke:#ff80ff;stroke-miterlimit:10;stroke-width:5px;}.cls-2{fill:#ff80ff;}</style></defs><g id="Layer_2" data-name="Layer 2"><g id="WA-DPFO-FY-L---"><line class="cls-1" x1="432.58" y1="246.13" x2="491.82" y2="246.13"/><line class="cls-1" x1="224.6" y1="246.13" x2="368.14" y2="246.13"/><line class="cls-1" x1="171.82" y1="246.13" x2="213.8" y2="246.13"/><line class="cls-1" x1="20.18" y1="246.13" x2="161.94" y2="246.13"/><polygon class="cls-2" points="123.28 246.13 141.57 265.87 162.22 246.13 123.28 246.13"/><polygon class="cls-2" points="329.48 246.13 347.77 265.87 368.42 246.13 329.48 246.13"/><path class="cls-2" d="M245.85,246.4h19.47a19.47,19.47,0,0,1-38.94,0Z"/><path class="cls-2" d="M452.05,246.4h19.47a19.47,19.47,0,1,1-38.94,0Z"/><path class="cls-2" d="M39.65,246.4H59.12a19.47,19.47,0,0,1-38.94,0Z"/><line class="cls-1" x1="177.97" y1="231.29" x2="207.65" y2="260.98"/><line class="cls-1" x1="381.61" y1="246.13" x2="423.59" y2="246.13"/><line class="cls-1" x1="387.76" y1="231.29" x2="417.44" y2="260.98"/><rect class="cls-3" width="512" height="512"/></g></g></svg>