<svg xmlns="http://www.w3.org/2000/svg" viewBox="0 0 512 512"><defs><style>.cls-1,.cls-2{fill:none;}.cls-1{stroke:#ff80ff;stroke-miterlimit:10;stroke-width:5px;}</style></defs><g id="Layer_2" data-name="Layer 2"><g id="WA-DPFOU---L---"><line class="cls-1" x1="20.18" y1="246.13" x2="491.82" y2="246.13"/><polygon class="cls-1" points="106.56 246.13 124.84 265.87 145.49 246.13 106.56 246.13"/><polygon class="cls-1" points="279.3 246.13 297.59 265.87 318.24 246.13 279.3 246.13"/><polygon class="cls-1" points="452.05 246.13 470.34 265.87 490.98 246.13 452.05 246.13"/><path class="cls-1" d="M212.4,246.4h19.46a19.47,19.47,0,1,1-38.93,0Z"/><path class="cls-1" d="M385.14,246.4h19.47a19.47,19.47,0,1,1-38.93,0Z"/><path class="cls-1" d="M39.65,246.4H59.12a19.47,19.47,0,0,1-38.94,0Z"/><rect class="cls-2" width="512" height="512"/></g></g></svg>