<svg xmlns="http://www.w3.org/2000/svg" viewBox="0 0 512 512"><defs><style>.cls-1,.cls-2{fill:none;}.cls-1{stroke:#ff8000;stroke-miterlimit:10;stroke-width:5px;}</style></defs><g id="Layer_2" data-name="Layer 2"><g id="WA-DPXITCZ-L---"><line class="cls-1" x1="13.94" y1="234.29" x2="498.06" y2="234.29"/><line class="cls-1" x1="13.94" y1="277.19" x2="498.06" y2="277.19"/><line class="cls-1" x1="40.25" y1="234.81" x2="40.25" y2="277.71"/><line class="cls-1" x1="54.51" y1="234.29" x2="54.51" y2="277.19"/><line class="cls-1" x1="92.34" y1="234.29" x2="92.34" y2="277.19"/><line class="cls-1" x1="106.6" y1="234.29" x2="106.6" y2="277.19"/><line class="cls-1" x1="120.85" y1="234.29" x2="120.85" y2="277.19"/><line class="cls-1" x1="157.04" y1="234.81" x2="157.04" y2="277.71"/><line class="cls-1" x1="171.29" y1="234.29" x2="171.29" y2="277.19"/><line class="cls-1" x1="209.12" y1="234.29" x2="209.12" y2="277.19"/><line class="cls-1" x1="223.38" y1="234.29" x2="223.38" y2="277.19"/><line class="cls-1" x1="237.63" y1="234.29" x2="237.63" y2="277.19"/><line class="cls-1" x1="273.41" y1="234.81" x2="273.41" y2="277.71"/><line class="cls-1" x1="287.66" y1="234.29" x2="287.66" y2="277.19"/><line class="cls-1" x1="325.49" y1="234.29" x2="325.49" y2="277.19"/><line class="cls-1" x1="339.75" y1="234.29" x2="339.75" y2="277.19"/><line class="cls-1" x1="354" y1="234.29" x2="354" y2="277.19"/><line class="cls-1" x1="392.14" y1="234.81" x2="392.14" y2="277.71"/><line class="cls-1" x1="406.4" y1="234.29" x2="406.4" y2="277.19"/><line class="cls-1" x1="444.23" y1="234.29" x2="444.23" y2="277.19"/><line class="cls-1" x1="458.48" y1="234.29" x2="458.48" y2="277.19"/><line class="cls-1" x1="472.74" y1="234.29" x2="472.74" y2="277.19"/><rect class="cls-2" width="512" height="512"/></g></g></svg>