<svg xmlns="http://www.w3.org/2000/svg" viewBox="0 0 512 512"><defs><style>.cls-1,.cls-4{fill:none;}.cls-1{stroke:red;stroke-miterlimit:10;stroke-width:5px;}.cls-2{fill:blue;}.cls-3{fill:red;}</style></defs><g id="Layer_2" data-name="Layer 2"><g id="WA-DPFW-FY-L---"><line class="cls-1" x1="20.18" y1="241.25" x2="88" y2="241.25"/><line class="cls-2" x1="59.12" y1="241.25" x2="20.18" y2="241.25"/><line class="cls-1" x1="155.4" y1="241.25" x2="263.9" y2="241.25"/><line class="cls-2" x1="235.02" y1="241.25" x2="196.08" y2="241.25"/><line class="cls-1" x1="338.59" y1="241.25" x2="447.09" y2="241.25"/><line class="cls-2" x1="418.2" y1="241.25" x2="379.27" y2="241.25"/><path class="cls-3" d="M39.65,241.25H59.12a19.47,19.47,0,1,1-38.94,0Z"/><path class="cls-3" d="M215.55,241.25H235a19.47,19.47,0,0,1-38.94,0Z"/><path class="cls-3" d="M398.74,241.25H418.2a19.47,19.47,0,1,1-38.93,0Z"/><line class="cls-1" x1="102.6" y1="241.25" x2="141.2" y2="241.25"/><line class="cls-1" x1="108.25" y1="227.61" x2="135.55" y2="254.9"/><line class="cls-1" x1="283.65" y1="227.61" x2="310.94" y2="254.9"/><line class="cls-1" x1="278.5" y1="241.25" x2="317.1" y2="241.25"/><line class="cls-1" x1="466.83" y1="227.61" x2="494.13" y2="254.9"/><line class="cls-1" x1="461.69" y1="241.25" x2="480.48" y2="241.25"/><line class="cls-1" x1="467.09" y1="227.61" x2="494.38" y2="254.9"/><line class="cls-1" x1="461.43" y1="241.25" x2="480.48" y2="241.25"/><rect class="cls-4" width="512" height="512"/></g></g></svg>