<svg xmlns="http://www.w3.org/2000/svg" viewBox="0 0 512 512"><defs><style>.cls-1,.cls-3,.cls-5{fill:none;}.cls-1{stroke:blue;}.cls-1,.cls-3{stroke-miterlimit:10;stroke-width:10px;}.cls-2{fill:blue;}.cls-3{stroke:red;}.cls-4{fill:red;}</style></defs><g id="Layer_2" data-name="Layer 2"><g id="WA-DPFS-FY-L---"><line class="cls-1" x1="138.09" y1="255.44" x2="209.62" y2="255.44"/><polygon class="cls-2" points="148.31 255.44 172.3 286.71 199.4 255.44 148.31 255.44"/><line class="cls-1" x1="386.62" y1="255.44" x2="458.16" y2="255.44"/><polygon class="cls-2" points="396.84 255.44 420.84 286.71 447.94 255.44 396.84 255.44"/><line class="cls-3" x1="16.37" y1="255.44" x2="79.15" y2="255.44"/><path class="cls-4" d="M41.92,256H67.47c0-16.82-11.53-30.66-25.55-30.66S16.37,239.13,16.37,256Z"/><line class="cls-3" x1="88.62" y1="255.44" x2="108.62" y2="255.44"/><line class="cls-1" x1="108.62" y1="255.44" x2="128.62" y2="255.44"/><line class="cls-3" x1="97.53" y1="237.51" x2="123.06" y2="276.04"/><line class="cls-3" x1="337.15" y1="255.44" x2="357.15" y2="255.44"/><line class="cls-1" x1="357.15" y1="255.44" x2="377.15" y2="255.44"/><line class="cls-3" x1="344.39" y1="237.51" x2="369.92" y2="276.04"/><line class="cls-3" x1="239.09" y1="255.44" x2="327.68" y2="255.44"/><line class="cls-1" x1="219.09" y1="255.44" x2="239.09" y2="255.44"/><path class="cls-4" d="M291.93,256h25.55c0-16.82-11.54-30.66-25.55-30.66S266.38,239.13,266.38,256Z"/><line class="cls-1" x1="226.96" y1="237.51" x2="252.49" y2="276.04"/><polyline class="cls-1" points="475.49 237.51 487.63 255.44 467.63 255.44"/><rect class="cls-5" width="512" height="512"/></g></g></svg>