<svg xmlns="http://www.w3.org/2000/svg" viewBox="0 0 512 512"><defs><style>.cls-1{fill:#c61021;}.cls-2,.cls-3,.cls-4,.cls-6{fill:none;}.cls-2{stroke:#f0f;}.cls-2,.cls-3,.cls-4{stroke-miterlimit:10;}.cls-2,.cls-3{stroke-width:5px;}.cls-3,.cls-4{stroke:#c61021;}.cls-4{stroke-width:7px;}.cls-5{font-size:38px;font-family:New-Gulim, New Gulim;}</style></defs><g id="Layer_2" data-name="Layer 2"><g id="WA-DWSTSWA--A--"><path class="cls-1" d="M290.28,190.59a58.2,58.2,0,1,1-58.2,58.2,58.27,58.27,0,0,1,58.2-58.2m0-7a65.2,65.2,0,1,0,65.2,65.2,65.2,65.2,0,0,0-65.2-65.2Z"/><path class="cls-2" d="M353.11,119.38l-12.79,26.51h0A114.42,114.42,0,1,0,240.89,352L228.1,378.52a143.86,143.86,0,0,0,125-259.14Z"/><path class="cls-3" d="M374.82,57.72,356.26,96.2h0A166.06,166.06,0,1,0,212,395.34L193.4,433.82a207.93,207.93,0,0,0,90.23,20.46c115.29,0,208.75-93.46,208.75-208.74A208.76,208.76,0,0,0,374.82,57.72Z"/><path class="cls-1" d="M295.47,236.13a21.27,21.27,0,0,1-3.76-12.58c0-8.27,4-12.44,4-12.44a25.34,25.34,0,0,0-7.12,49.67,21.31,21.31,0,0,1,3.76,12.58c0,8.27-4,12.43-4,12.43a25.34,25.34,0,0,0,7.12-49.66Z"/><line class="cls-4" x1="113.18" y1="165.79" x2="279.58" y2="243.39"/><text class="cls-5" transform="translate(19.62 157.36) scale(0.93 1)">1225Z</text><rect class="cls-6" width="512" height="512"/></g></g></svg>