<svg xmlns="http://www.w3.org/2000/svg" xmlns:xlink="http://www.w3.org/1999/xlink" viewBox="0 0 512 512"><defs><style>.cls-1{fill:none;}.cls-2{clip-path:url(#clip-path);}.cls-3{fill:#f0f;}</style><clipPath id="clip-path"><rect class="cls-1" x="16" y="79.28" width="480" height="353.44"/></clipPath></defs><g id="Layer_2" data-name="Layer 2"><g id="WO-DL-SA----A--"><g class="cls-2"><circle class="cls-3" cx="37.88" cy="101.17" r="21.88"/><circle class="cls-3" cx="173.25" cy="101.17" r="21.88"/><circle class="cls-3" cx="308.62" cy="101.17" r="21.88"/><circle class="cls-3" cx="443.98" cy="101.17" r="21.88"/><circle class="cls-3" cx="105.57" cy="171.62" r="21.88"/><circle class="cls-3" cx="240.93" cy="171.62" r="21.88"/><circle class="cls-3" cx="376.3" cy="171.62" r="21.88"/><circle class="cls-3" cx="37.88" cy="236.89" r="21.88"/><circle class="cls-3" cx="173.25" cy="236.89" r="21.88"/><circle class="cls-3" cx="308.62" cy="236.89" r="21.88"/><circle class="cls-3" cx="443.98" cy="236.89" r="21.88"/><circle class="cls-3" cx="105.57" cy="307.35" r="21.88"/><circle class="cls-3" cx="240.93" cy="307.35" r="21.88"/><circle class="cls-3" cx="376.3" cy="307.35" r="21.88"/><circle class="cls-3" cx="37.88" cy="372.62" r="21.88"/><circle class="cls-3" cx="173.25" cy="372.62" r="21.88"/><circle class="cls-3" cx="308.62" cy="372.62" r="21.88"/><circle class="cls-3" cx="443.98" cy="372.62" r="21.88"/><circle class="cls-3" cx="105.57" cy="443.07" r="21.88"/><circle class="cls-3" cx="240.93" cy="443.07" r="21.88"/><circle class="cls-3" cx="376.3" cy="443.07" r="21.88"/></g><rect class="cls-1" width="512" height="512"/></g></g></svg>