<svg xmlns="http://www.w3.org/2000/svg" viewBox="0 0 512 512"><defs><style>.cls-1,.cls-2{fill:none;}.cls-1{stroke:#f0f;stroke-miterlimit:10;stroke-width:2px;}</style></defs><g id="Layer_2" data-name="Layer 2"><g id="WO-DHPBA---L---"><path class="cls-1" d="M37.47,263.05a13.72,13.72,0,0,0,13.72-13.72H23.75A13.72,13.72,0,0,0,37.47,263.05Z"/><line class="cls-1" x1="17.2" y1="249.33" x2="57.73" y2="249.33"/><path class="cls-1" d="M92.93,263.05a13.73,13.73,0,0,0,13.73-13.72H79.21A13.72,13.72,0,0,0,92.93,263.05Z"/><line class="cls-1" x1="72.67" y1="249.33" x2="113.2" y2="249.33"/><path class="cls-1" d="M180.27,263.05A13.72,13.72,0,0,0,194,249.33H166.54A13.73,13.73,0,0,0,180.27,263.05Z"/><line class="cls-1" x1="160" y1="249.33" x2="200.53" y2="249.33"/><path class="cls-1" d="M235.73,263.05a13.72,13.72,0,0,0,13.72-13.72H222A13.72,13.72,0,0,0,235.73,263.05Z"/><line class="cls-1" x1="215.47" y1="249.33" x2="256" y2="249.33"/><path class="cls-1" d="M288.73,263.05a13.72,13.72,0,0,0,13.72-13.72H275A13.72,13.72,0,0,0,288.73,263.05Z"/><line class="cls-1" x1="268.47" y1="249.33" x2="309" y2="249.33"/><path class="cls-1" d="M344.2,263.05a13.72,13.72,0,0,0,13.72-13.72H330.48A13.72,13.72,0,0,0,344.2,263.05Z"/><line class="cls-1" x1="323.93" y1="249.33" x2="364.47" y2="249.33"/><path class="cls-1" d="M433.27,263.05A13.72,13.72,0,0,0,447,249.33H419.54A13.73,13.73,0,0,0,433.27,263.05Z"/><line class="cls-1" x1="413" y1="249.33" x2="453.53" y2="249.33"/><path class="cls-1" d="M496.94,249.33H478A13.74,13.74,0,0,0,496.94,262"/><line class="cls-1" x1="471.47" y1="249.33" x2="496.94" y2="249.33"/><line class="cls-1" x1="111.4" y1="233.87" x2="162.07" y2="233.87"/><path class="cls-1" d="M104.5,278.4s1.83,14.93,32.23,14.93V218.67"/><path class="cls-1" d="M169,278.4s-1.84,14.93-32.24,14.93"/><line class="cls-1" x1="363.4" y1="233.87" x2="414.07" y2="233.87"/><path class="cls-1" d="M356.5,278.4s1.83,14.93,32.23,14.93V218.67"/><path class="cls-1" d="M421,278.4s-1.84,14.93-32.24,14.93"/><rect class="cls-2" width="512" height="512"/></g></g></svg>