<svg xmlns="http://www.w3.org/2000/svg" xmlns:xlink="http://www.w3.org/1999/xlink" viewBox="0 0 512 512"><defs><style>.cls-1,.cls-2,.cls-3,.cls-4{fill:none;}.cls-2,.cls-4{stroke:#f0f;}.cls-2,.cls-3,.cls-4{stroke-miterlimit:10;}.cls-2{stroke-width:3px;fill-rule:evenodd;}.cls-3{stroke:url(#New_Pattern_Swatch_3);}.cls-4{stroke-width:4px;}</style><pattern id="New_Pattern_Swatch_3" data-name="New Pattern Swatch 3" width="52" height="30" patternUnits="userSpaceOnUse" viewBox="0 0 52 30"><rect class="cls-1" width="52" height="30"/><polyline class="cls-2" points="1 22.83 6.51 22.83 51 22.83"/><path class="cls-2" d="M6,22.83c0-8.1,7.79-18,20-18s20,9.86,20,18"/></pattern></defs><g id="Layer_2" data-name="Layer 2"><g id="WO-DHPBA----A--"><line class="cls-3" x1="172.06" y1="439.61" x2="224.06" y2="450.01"/><path class="cls-2" d="M237.27,457.7c-1.08-.07-2.18-.1-3.24-.21l-3.17-.41a79,79,0,0,1-12.08-3c-3.83-1.29-7.48-2.78-11-4.32s-6.95-3.17-10.32-4.74l-5-2.32c-.84-.4-1.62-.72-2.41-1.06s-1.56-.7-2.37-1"/><path class="cls-2" d="M231.47,457.16c.55-4-.91-8.74-3.21-12.87a22.29,22.29,0,0,0-10.91-10,21.29,21.29,0,0,0-15.47-.49,17.17,17.17,0,0,0-9.95,8.63"/><path class="cls-2" d="M176.59,436.77c-1.69-.5-3.38-1-5.1-1.44-13.87-3.73-28.51-6.22-43.3-9.74"/><path class="cls-2" d="M172,435.46a16.79,16.79,0,0,0-2.2-13,20.17,20.17,0,0,0-13.16-9.1,20.42,20.42,0,0,0-15.55,2.79,18,18,0,0,0-7.92,10.57"/><path class="cls-2" d="M115.78,422.32c-1.85-.57-3.69-1.1-5.53-1.74a110.9,110.9,0,0,1-21.91-9.73,81.08,81.08,0,0,1-10.12-7.25,68.44,68.44,0,0,1-8.78-9.14"/><path class="cls-2" d="M110.78,420.76c1.27-3.87.71-8.7-1.22-13.16a23,23,0,0,0-9.88-11A23.45,23.45,0,0,0,85.53,394c-4.7.49-9.39,2-12.36,4.74"/><path class="cls-2" d="M61.72,385.78l-3.81-3.87c-2.6-2.62-5.28-5.31-7.93-8.12a112.58,112.58,0,0,1-7.8-9,57.26,57.26,0,0,1-6.81-11c-.45-1.08-.9-2.18-1.31-3.25l-.92-2.65-1.81-5.32"/><path class="cls-2" d="M58.29,382.29A17.71,17.71,0,0,0,63,370a22,22,0,0,0-5.08-14.27c-3.49-4.21-7.42-6-11.83-7.46-1.08-.36-2.24-.66-3.38-1a18.72,18.72,0,0,0-3.41-.63,15.6,15.6,0,0,0-6.35.68"/><path class="cls-2" d="M27.39,330.67l-1.71-5.3q-3.42-10.71-6.61-21.47l-.79-2.7c-.27-1-.55-2.14-.81-3.21s-.41-2.16-.6-3.25l-.25-1.62c-.07-.54-.1-1.07-.15-1.6a70.28,70.28,0,0,1,0-12.48"/><path class="cls-2" d="M25.85,325.88c7.71-2.5,14.7-12.87,11.23-24.47a22.09,22.09,0,0,0-1.66-4,12.91,12.91,0,0,0-2-2.9,37.68,37.68,0,0,0-5-4.74,30.26,30.26,0,0,0-6-3.68,16,16,0,0,0-6.23-1.53"/><path class="cls-2" d="M18.2,266c.33-1.87.68-3.73,1-5.56.71-3.71,1.43-7.31,2.06-10.86l.47-2.65.4-2.61c.15-.88.22-1.71.34-2.57l.33-2.73c.93-7.74,2.2-15.12,3.62-22.59"/><path class="cls-2" d="M19.12,261A17.74,17.74,0,0,0,32,257.88a19.41,19.41,0,0,0,8.38-14,18.87,18.87,0,0,0,.08-4.34,21.6,21.6,0,0,0-.71-3.91,21.33,21.33,0,0,0-3.27-6.78c-2.87-4-6.94-6.7-10.92-7.42"/><path class="cls-2" d="M29,204c.41-1.84.87-3.69,1.32-5.54.95-3.73,1.92-7.45,3.19-11.27.64-1.93,1.3-3.84,2.19-5.9.42-1.06.87-1.86,1.3-2.77l1.32-2.65,1.31-2.66c.47-.87,1-1.71,1.46-2.57,1-1.7,1.92-3.44,3-5.1l3.17-4.93c.52-.83,1.08-1.64,1.65-2.42l1.69-2.37"/><path class="cls-2" d="M30.23,199c3.92,1,8.76.09,13-2.27a23.53,23.53,0,0,0,5.82-4.53,22.43,22.43,0,0,0,2.3-2.81,11.8,11.8,0,0,0,.94-1.4c.3-.51.69-1.16,1-1.77a22.48,22.48,0,0,0,2.06-7.6,19.56,19.56,0,0,0,0-3.75c-.06-.62-.15-1.24-.26-1.85s-.2-1.19-.34-1.78c-1.13-4.67-3.76-8.88-7.11-11.15"/><path class="cls-2" d="M58.46,145.56l3.63-4.39c9.93-11.59,20.43-22.23,30.2-33.1"/><path class="cls-2" d="M61.74,141.6c3.08,2.6,7.8,4,12.68,3.72a21.37,21.37,0,0,0,7.34-1.81,21,21,0,0,0,6.77-4.91,20.53,20.53,0,0,0,5.62-14.76A17.35,17.35,0,0,0,89,111.71"/><path class="cls-2" d="M100.23,98.89c1.14-1.37,2.32-2.73,3.39-4.14l3.32-4.24,3.13-4.32,1.67-2.3L113,82.3c.44-.5.89-1,1.34-1.45a32.86,32.86,0,0,1,5.74-4.57,113.3,113.3,0,0,1,10.59-5.54c1.56-.77,2.95-1.53,4.19-2.3l.9-.59.8-.59,2.34-1.73"/><path class="cls-2" d="M103.31,95.15A16.78,16.78,0,0,0,116.1,98.3a18.87,18.87,0,0,0,7.31-2.74c.59-.37,1.17-.78,1.74-1.22l.42-.32.26-.1a4,4,0,0,0,.46-.22,6.61,6.61,0,0,0,.94-.52c.36-.2.61-.44,1-.71,2.77-2.2,6.8-6.53,8.45-11.31a15.12,15.12,0,0,0,.8-7,14.16,14.16,0,0,0-2.28-5.92"/><path class="cls-2" d="M150.54,58.27c.45-.23.89-.48,1.35-.7l1.38-.63,2.78-1.24a102.3,102.3,0,0,1,23.11-6.58,214.41,214.41,0,0,1,23-2.5"/><path class="cls-2" d="M155.51,55.94a15.54,15.54,0,0,0,3.78,5.12,24.13,24.13,0,0,0,5.78,4,31.27,31.27,0,0,0,3.34,1.41,20.7,20.7,0,0,0,3.55.88,21.1,21.1,0,0,0,7.79-.09,22,22,0,0,0,12.94-7.86c3.05-3.82,4.7-8.41,4.39-12.45"/><path class="cls-2" d="M214.7,46l5.5-.28c1.88-.09,3.59-.18,5.37-.32s3.56-.3,5.35-.48c3.59-.37,7.23-.82,10.91-1.27,7.36-.9,15-1.91,22.78-2.19"/><path class="cls-2" d="M219.67,45.7a17,17,0,0,0,6.12,11.68,20,20,0,0,0,15.49,4.38A20.44,20.44,0,0,0,255,54.16c3.05-3.81,4.69-8.43,4.39-12.47"/><path class="cls-2" d="M277.58,41.21l5.74.22a230.13,230.13,0,0,1,22.95,2.33l2.84.42,2.83.49c1.88.34,3.76.64,5.64,1,3.73.76,7.47,1.48,11.16,2.35"/><path class="cls-2" d="M282.77,41.41c-.19,4.06,1.61,8.56,4.75,12.33A21.34,21.34,0,0,0,301,61.15a21.92,21.92,0,0,0,8.18-.42A21.71,21.71,0,0,0,316,57.62c4-2.74,6.9-6.74,7.74-10.7"/><path class="cls-2" d="M341.06,51l5.43,1.44c14.58,4,28.8,8.44,43.06,13"/><path class="cls-2" d="M346,52.3a18,18,0,0,0,2.08,13A20.67,20.67,0,0,0,360.3,75.1c11.6,3.52,22-3.5,24.44-11.23"/><path class="cls-2" d="M401.88,69.82c1.84.78,3.69,1.61,5.53,2.54s3.69,2,5.5,3.11a60.68,60.68,0,0,1,5.22,3.71,76.4,76.4,0,0,1,9,8.53A225.45,225.45,0,0,1,441.4,105.9"/><path class="cls-2" d="M406.88,72.1c-1.81,3.63-1.84,8.57-.92,13.21S408.5,94.22,412.2,98a22.61,22.61,0,0,0,13.35,6.67c4.84.64,9.63-.41,12.88-2.83"/><path class="cls-2" d="M448.77,116.05l3.24,4.59c4.33,6.22,8.53,12.63,12.39,19.32a187.44,187.44,0,0,1,10.37,20.8"/><path class="cls-2" d="M451.7,120.19c-3.32,2.32-5.86,6.51-6.81,11.31a21.24,21.24,0,0,0,2.63,15.18,21.52,21.52,0,0,0,12,9.51c4.61,1.51,9.52,1.5,13.21-.18"/><path class="cls-2" d="M479.47,172.71q1,2.68,1.88,5.35c2.48,7.21,4.68,14.43,6.78,21.64s4.12,14.65,5.58,22.36"/><path class="cls-2" d="M481.17,177.54c-3.82,1.33-7.41,4.67-9.65,9a21.17,21.17,0,0,0,8.16,27.8c4.21,2.45,9,3.44,13,2.57"/><path class="cls-2" d="M495.5,235.21l.2,3,.1,3a88.8,88.8,0,0,1-.62,12.2,108.22,108.22,0,0,1-2.11,11.83,208.56,208.56,0,0,1-6.79,22.14"/><path class="cls-2" d="M495.78,240.62c-4,.1-8.45,2.31-12.06,5.45a22.74,22.74,0,0,0-7.6,12.6,22,22,0,0,0,2.14,14.94c2.28,4.31,5.86,7.65,9.7,9"/><path class="cls-2" d="M482,299.13l-1.92,5.24c-2.62,7.05-5.42,14.13-8.54,21.14a185.41,185.41,0,0,1-10.77,20.66"/><path class="cls-2" d="M480.3,303.86a17.9,17.9,0,0,0-13.16.87,21,21,0,0,0-10.89,11,21.35,21.35,0,0,0-.7,15.32c1.51,4.61,4.4,8.57,7.94,10.58"/><path class="cls-2" d="M453.39,357.09c-1.2,1.56-2.41,3.1-3.66,4.59a209.25,209.25,0,0,1-15.91,16.82c-5.48,5.25-10.86,10.27-16.36,15.39"/><path class="cls-2" d="M450.09,361.25c-3.14-2.57-7.87-3.85-12.71-3.64a21.17,21.17,0,0,0-14.11,6.09A20.87,20.87,0,0,0,416.89,378a17.74,17.74,0,0,0,4.25,12.49"/><path class="cls-2" d="M408.13,402.36l-4.23,3.71C392.43,416,380.14,425.45,366.37,433"/><path class="cls-2" d="M404.31,405.72c-2.65-3.06-7.1-5.16-11.95-5.59a21.23,21.23,0,0,0-14.84,4.2,20.8,20.8,0,0,0-5.46,6,21.16,21.16,0,0,0-2.73,6.93c-1,4.71-.44,9.65,1.6,13.12"/><path class="cls-2" d="M354.55,438.75c-1.82.74-3.62,1.51-5.45,2.22-14.86,5.6-30.17,8.28-45,10.46"/><path class="cls-2" d="M349.63,440.77c-1.47-3.8-5-7.22-9.25-9.46a21.52,21.52,0,0,0-15.05-1.95,21.24,21.24,0,0,0-12.77,8.57c-2.81,4-4.09,8.74-3.47,12.74"/><polyline class="cls-2" points="291.74 453.18 286.27 453.95 242.1 460.17"/><path class="cls-2" d="M286.8,453.88c-1.13-8-10.24-16.7-22.38-15S245.91,451.45,247,459.47"/><line class="cls-4" x1="220.41" y1="415.61" x2="277.21" y2="415.61"/><line class="cls-4" x1="248.81" y1="387.61" x2="248.81" y2="463.01"/><rect class="cls-1" width="512" height="512"/></g></g></svg>