<svg xmlns="http://www.w3.org/2000/svg" viewBox="0 0 512 512"><defs><style>.cls-1{fill:#fff;}.cls-2{fill:#6bbafd;}.cls-3{fill:#0f61fb;}.cls-4{fill:none;}</style></defs><g id="Layer_2" data-name="Layer 2"><g id="WO-DHDDA----A--"><path class="cls-1" d="M256,66.83l213.14,108.9L399.21,448H112.79L42.86,175.73,256,66.83M256,41,16,163.63,95,471h322.1L496,163.63,256,41Z"/><path class="cls-2" d="M256,57.84,478.49,171.52,405.41,456H106.59L33.51,171.52,256,57.84M256,41,16,163.63,95,471h322.1L496,163.63,256,41Z"/><path class="cls-3" d="M256,48.86,487.83,167.31,411.62,464H100.38L24.17,167.31,256,48.86M256,41,16,163.63,95,471h322.1L496,163.63,256,41Z"/><rect class="cls-4" width="512" height="512"/></g></g></svg>