<svg xmlns="http://www.w3.org/2000/svg" viewBox="0 0 512 512"><defs><style>.cls-1{fill:gray;}.cls-2{fill:none;}</style></defs><g id="Layer_2" data-name="Layer 2"><g id="WO-DHHDF----A--"><polygon class="cls-1" points="129.32 191.43 106.92 235.17 114.39 235.17 137.86 191.43 129.32 191.43"/><polygon class="cls-1" points="144.79 191.43 122.39 235.17 129.86 235.17 153.32 191.43 144.79 191.43"/><polygon class="cls-1" points="110.97 202.72 160.11 202.47 156.74 209.13 107.12 210.33 110.97 202.72"/><polygon class="cls-1" points="103.99 216.52 153.13 216.27 149.76 222.93 100.14 224.13 103.99 216.52"/><polygon class="cls-1" points="44.73 108.34 22.33 152.07 29.79 152.07 53.26 108.34 44.73 108.34"/><polygon class="cls-1" points="60.19 108.34 37.79 152.07 45.26 152.07 68.73 108.34 60.19 108.34"/><polygon class="cls-1" points="26.38 119.62 75.51 119.38 72.14 126.04 22.52 127.24 26.38 119.62"/><polygon class="cls-1" points="19.39 133.43 68.53 133.18 65.16 139.84 15.54 141.04 19.39 133.43"/><polygon class="cls-1" points="299.74 191.43 277.34 235.17 284.8 235.17 308.27 191.43 299.74 191.43"/><polygon class="cls-1" points="315.2 191.43 292.8 235.17 300.27 235.17 323.74 191.43 315.2 191.43"/><polygon class="cls-1" points="281.39 202.72 330.52 202.47 327.15 209.13 277.53 210.33 281.39 202.72"/><polygon class="cls-1" points="274.4 216.52 323.54 216.27 320.17 222.93 270.55 224.13 274.4 216.52"/><polygon class="cls-1" points="215.14 108.34 192.74 152.07 200.21 152.07 223.67 108.34 215.14 108.34"/><polygon class="cls-1" points="230.61 108.34 208.21 152.07 215.67 152.07 239.14 108.34 230.61 108.34"/><polygon class="cls-1" points="196.79 119.62 245.92 119.38 242.55 126.04 192.94 127.24 196.79 119.62"/><polygon class="cls-1" points="189.81 133.43 238.94 133.18 235.57 139.84 185.95 141.04 189.81 133.43"/><polygon class="cls-1" points="465.67 191.43 443.27 235.17 450.74 235.17 474.21 191.43 465.67 191.43"/><polygon class="cls-1" points="481.14 191.43 458.74 235.17 466.21 235.17 489.67 191.43 481.14 191.43"/><polygon class="cls-1" points="447.32 202.72 496.46 202.47 493.09 209.13 443.47 210.33 447.32 202.72"/><polygon class="cls-1" points="440.34 216.52 489.48 216.27 486.11 222.93 436.49 224.13 440.34 216.52"/><polygon class="cls-1" points="381.07 108.34 358.68 152.07 366.14 152.07 389.61 108.34 381.07 108.34"/><polygon class="cls-1" points="396.54 108.34 374.14 152.07 381.61 152.07 405.07 108.34 396.54 108.34"/><polygon class="cls-1" points="362.72 119.62 411.86 119.38 408.49 126.04 358.87 127.24 362.72 119.62"/><polygon class="cls-1" points="355.74 133.43 404.88 133.18 401.51 139.84 351.89 141.04 355.74 133.43"/><polygon class="cls-1" points="129.32 359.93 106.92 403.66 114.39 403.66 137.86 359.93 129.32 359.93"/><polygon class="cls-1" points="144.79 359.93 122.39 403.66 129.86 403.66 153.32 359.93 144.79 359.93"/><polygon class="cls-1" points="110.97 371.21 160.11 370.96 156.74 377.62 107.12 378.82 110.97 371.21"/><polygon class="cls-1" points="103.99 385.01 153.13 384.76 149.76 391.42 100.14 392.62 103.99 385.01"/><polygon class="cls-1" points="44.73 276.83 22.33 320.57 29.79 320.57 53.26 276.83 44.73 276.83"/><polygon class="cls-1" points="60.19 276.83 37.79 320.57 45.26 320.57 68.73 276.83 60.19 276.83"/><polygon class="cls-1" points="26.38 288.12 75.51 287.87 72.14 294.53 22.52 295.73 26.38 288.12"/><polygon class="cls-1" points="19.39 301.92 68.53 301.67 65.16 308.33 15.54 309.53 19.39 301.92"/><polygon class="cls-1" points="299.74 359.93 277.34 403.66 284.8 403.66 308.27 359.93 299.74 359.93"/><polygon class="cls-1" points="315.2 359.93 292.8 403.66 300.27 403.66 323.74 359.93 315.2 359.93"/><polygon class="cls-1" points="281.39 371.21 330.52 370.96 327.15 377.62 277.53 378.82 281.39 371.21"/><polygon class="cls-1" points="274.4 385.01 323.54 384.76 320.17 391.42 270.55 392.62 274.4 385.01"/><polygon class="cls-1" points="215.14 276.83 192.74 320.57 200.21 320.57 223.67 276.83 215.14 276.83"/><polygon class="cls-1" points="230.61 276.83 208.21 320.57 215.67 320.57 239.14 276.83 230.61 276.83"/><polygon class="cls-1" points="196.79 288.12 245.92 287.87 242.55 294.53 192.94 295.73 196.79 288.12"/><polygon class="cls-1" points="189.81 301.92 238.94 301.67 235.57 308.33 185.95 309.53 189.81 301.92"/><polygon class="cls-1" points="465.67 359.93 443.27 403.66 450.74 403.66 474.21 359.93 465.67 359.93"/><polygon class="cls-1" points="481.14 359.93 458.74 403.66 466.21 403.66 489.67 359.93 481.14 359.93"/><polygon class="cls-1" points="447.32 371.21 496.46 370.96 493.09 377.62 443.47 378.82 447.32 371.21"/><polygon class="cls-1" points="440.34 385.01 489.48 384.76 486.11 391.42 436.49 392.62 440.34 385.01"/><polygon class="cls-1" points="381.07 276.83 358.68 320.57 366.14 320.57 389.61 276.83 381.07 276.83"/><polygon class="cls-1" points="396.54 276.83 374.14 320.57 381.61 320.57 405.07 276.83 396.54 276.83"/><polygon class="cls-1" points="362.72 288.12 411.86 287.87 408.49 294.53 358.87 295.73 362.72 288.12"/><polygon class="cls-1" points="355.74 301.92 404.88 301.67 401.51 308.33 351.89 309.53 355.74 301.92"/><rect class="cls-2" width="512" height="512"/></g></g></svg>