<svg xmlns="http://www.w3.org/2000/svg" viewBox="0 0 512 512"><defs><style>.cls-1,.cls-2{fill:none;}.cls-1{stroke:#f0f;stroke-miterlimit:10;stroke-width:10px;}</style></defs><g id="Layer_2" data-name="Layer 2"><g id="WO-DL-RA---L---"><polyline class="cls-1" points="16.05 243.55 38.75 243.55 61.45 243.55"/><line class="cls-1" x1="38.75" y1="268.45" x2="38.75" y2="243.55"/><polyline class="cls-1" points="81.36 243.55 104.06 243.55 126.76 243.55"/><line class="cls-1" x1="104.06" y1="268.45" x2="104.06" y2="243.55"/><polyline class="cls-1" points="146.68 243.55 169.38 243.55 192.08 243.55"/><line class="cls-1" x1="169.38" y1="268.45" x2="169.38" y2="243.55"/><polyline class="cls-1" points="211.99 243.55 234.69 243.55 257.39 243.55"/><line class="cls-1" x1="234.69" y1="268.45" x2="234.69" y2="243.55"/><polyline class="cls-1" points="277.31 243.55 300.01 243.55 322.71 243.55"/><line class="cls-1" x1="300.01" y1="268.45" x2="300.01" y2="243.55"/><polyline class="cls-1" points="342.62 243.55 365.32 243.55 388.02 243.55"/><line class="cls-1" x1="365.32" y1="268.45" x2="365.32" y2="243.55"/><polyline class="cls-1" points="407.94 243.55 430.64 243.55 453.34 243.55"/><line class="cls-1" x1="430.64" y1="268.45" x2="430.64" y2="243.55"/><polyline class="cls-1" points="495.95 268.45 495.95 243.55 495.95 243.55 473.25 243.55"/><rect class="cls-2" width="512" height="512"/></g></g></svg>