<svg xmlns="http://www.w3.org/2000/svg" xmlns:xlink="http://www.w3.org/1999/xlink" viewBox="0 0 512 512"><defs><style>.cls-1,.cls-4{fill:none;}.cls-2{clip-path:url(#clip-path);}.cls-3{fill:gray;}.cls-4{stroke:gray;stroke-miterlimit:10;stroke-width:10px;}</style><clipPath id="clip-path"><polygon class="cls-1" points="17.2 165.2 90.38 472.4 421.62 472.4 494.8 165.2 256 39.6 17.2 165.2"/></clipPath></defs><g id="Layer_2" data-name="Layer 2"><g id="WO-DBST-----A--"><g class="cls-2"><circle class="cls-3" cx="85.35" cy="144.8" r="6.19"/><circle class="cls-3" cx="85.35" cy="107.73" r="6.19"/><circle class="cls-3" cx="85.35" cy="70.67" r="6.19"/><circle class="cls-3" cx="85.35" cy="181.87" r="6.19"/><circle class="cls-3" cx="85.35" cy="218.93" r="6.19"/><circle class="cls-3" cx="85.35" cy="256" r="6.19"/><circle class="cls-3" cx="85.35" cy="293.07" r="6.19"/><circle class="cls-3" cx="85.35" cy="330.13" r="6.19"/><circle class="cls-3" cx="85.35" cy="367.2" r="6.19"/><circle class="cls-3" cx="85.35" cy="404.27" r="6.19"/><circle class="cls-3" cx="85.35" cy="441.33" r="6.19"/><circle class="cls-3" cx="122.15" cy="144.8" r="6.19"/><circle class="cls-3" cx="122.15" cy="107.73" r="6.19"/><circle class="cls-3" cx="122.15" cy="70.67" r="6.19"/><circle class="cls-3" cx="122.15" cy="181.87" r="6.19"/><circle class="cls-3" cx="122.15" cy="218.93" r="6.19"/><circle class="cls-3" cx="122.15" cy="256" r="6.19"/><circle class="cls-3" cx="122.15" cy="293.07" r="6.19"/><circle class="cls-3" cx="122.15" cy="330.13" r="6.19"/><circle class="cls-3" cx="122.15" cy="367.2" r="6.19"/><circle class="cls-3" cx="122.15" cy="404.27" r="6.19"/><circle class="cls-3" cx="122.15" cy="441.33" r="6.19"/><circle class="cls-3" cx="158.95" cy="144.8" r="6.19"/><circle class="cls-3" cx="158.95" cy="107.73" r="6.19"/><circle class="cls-3" cx="158.95" cy="70.67" r="6.19"/><circle class="cls-3" cx="158.95" cy="181.87" r="6.19"/><circle class="cls-3" cx="158.95" cy="218.93" r="6.19"/><circle class="cls-3" cx="158.95" cy="256" r="6.19"/><circle class="cls-3" cx="158.95" cy="293.07" r="6.19"/><circle class="cls-3" cx="158.95" cy="330.13" r="6.19"/><circle class="cls-3" cx="158.95" cy="367.2" r="6.19"/><circle class="cls-3" cx="158.95" cy="404.27" r="6.19"/><circle class="cls-3" cx="158.95" cy="441.33" r="6.19"/><circle class="cls-3" cx="195.75" cy="144.8" r="6.19"/><circle class="cls-3" cx="195.75" cy="107.73" r="6.19"/><circle class="cls-3" cx="195.75" cy="70.67" r="6.19"/><circle class="cls-3" cx="195.75" cy="181.87" r="6.19"/><circle class="cls-3" cx="195.75" cy="218.93" r="6.19"/><circle class="cls-3" cx="195.75" cy="256" r="6.19"/><circle class="cls-3" cx="195.75" cy="293.07" r="6.19"/><circle class="cls-3" cx="195.75" cy="330.13" r="6.19"/><circle class="cls-3" cx="195.75" cy="367.2" r="6.19"/><circle class="cls-3" cx="195.75" cy="404.27" r="6.19"/><circle class="cls-3" cx="195.75" cy="441.33" r="6.19"/><circle class="cls-3" cx="232.55" cy="144.8" r="6.19"/><circle class="cls-3" cx="232.55" cy="107.73" r="6.19"/><circle class="cls-3" cx="232.55" cy="70.67" r="6.19"/><circle class="cls-3" cx="232.55" cy="181.87" r="6.19"/><circle class="cls-3" cx="232.55" cy="218.93" r="6.19"/><circle class="cls-3" cx="232.55" cy="256" r="6.19"/><circle class="cls-3" cx="232.55" cy="293.07" r="6.19"/><circle class="cls-3" cx="232.55" cy="330.13" r="6.19"/><circle class="cls-3" cx="232.55" cy="367.2" r="6.19"/><circle class="cls-3" cx="232.55" cy="404.27" r="6.19"/><circle class="cls-3" cx="232.55" cy="441.33" r="6.19"/><circle class="cls-3" cx="269.35" cy="144.8" r="6.19"/><circle class="cls-3" cx="269.35" cy="107.73" r="6.19"/><circle class="cls-3" cx="269.35" cy="70.67" r="6.19"/><circle class="cls-3" cx="269.35" cy="181.87" r="6.19"/><circle class="cls-3" cx="269.35" cy="218.93" r="6.19"/><circle class="cls-3" cx="269.35" cy="256" r="6.19"/><circle class="cls-3" cx="269.35" cy="293.07" r="6.19"/><circle class="cls-3" cx="269.35" cy="330.13" r="6.19"/><circle class="cls-3" cx="269.35" cy="367.2" r="6.19"/><circle class="cls-3" cx="269.35" cy="404.27" r="6.19"/><circle class="cls-3" cx="269.35" cy="441.33" r="6.19"/><circle class="cls-3" cx="306.15" cy="144.8" r="6.19"/><circle class="cls-3" cx="306.15" cy="107.73" r="6.19"/><circle class="cls-3" cx="306.15" cy="70.67" r="6.19"/><circle class="cls-3" cx="306.15" cy="181.87" r="6.19"/><circle class="cls-3" cx="306.15" cy="218.93" r="6.19"/><circle class="cls-3" cx="306.15" cy="256" r="6.19"/><circle class="cls-3" cx="306.15" cy="293.07" r="6.19"/><circle class="cls-3" cx="306.15" cy="330.13" r="6.19"/><circle class="cls-3" cx="306.15" cy="367.2" r="6.19"/><circle class="cls-3" cx="306.15" cy="404.27" r="6.19"/><circle class="cls-3" cx="306.15" cy="441.33" r="6.19"/><circle class="cls-3" cx="342.95" cy="144.8" r="6.19"/><circle class="cls-3" cx="342.95" cy="107.73" r="6.19"/><circle class="cls-3" cx="342.95" cy="70.67" r="6.19"/><circle class="cls-3" cx="342.95" cy="181.87" r="6.19"/><circle class="cls-3" cx="342.95" cy="218.93" r="6.19"/><circle class="cls-3" cx="342.95" cy="256" r="6.19"/><circle class="cls-3" cx="342.95" cy="293.07" r="6.19"/><circle class="cls-3" cx="342.95" cy="330.13" r="6.19"/><circle class="cls-3" cx="342.95" cy="367.2" r="6.19"/><circle class="cls-3" cx="342.95" cy="404.27" r="6.19"/><circle class="cls-3" cx="342.95" cy="441.33" r="6.19"/><circle class="cls-3" cx="379.75" cy="144.8" r="6.19"/><circle class="cls-3" cx="379.75" cy="107.73" r="6.19"/><circle class="cls-3" cx="379.75" cy="70.67" r="6.19"/><circle class="cls-3" cx="379.75" cy="181.87" r="6.19"/><circle class="cls-3" cx="379.75" cy="218.93" r="6.19"/><circle class="cls-3" cx="379.75" cy="256" r="6.19"/><circle class="cls-3" cx="379.75" cy="293.07" r="6.19"/><circle class="cls-3" cx="379.75" cy="330.13" r="6.19"/><circle class="cls-3" cx="379.75" cy="367.2" r="6.19"/><circle class="cls-3" cx="379.75" cy="404.27" r="6.19"/><circle class="cls-3" cx="379.75" cy="441.33" r="6.19"/><circle class="cls-3" cx="416.55" cy="144.8" r="6.19"/><circle class="cls-3" cx="416.55" cy="107.73" r="6.19"/><circle class="cls-3" cx="416.55" cy="70.67" r="6.19"/><circle class="cls-3" cx="416.55" cy="181.87" r="6.19"/><circle class="cls-3" cx="416.55" cy="218.93" r="6.19"/><circle class="cls-3" cx="416.55" cy="256" r="6.19"/><circle class="cls-3" cx="416.55" cy="293.07" r="6.19"/><circle class="cls-3" cx="416.55" cy="330.13" r="6.19"/><circle class="cls-3" cx="416.55" cy="367.2" r="6.19"/><circle class="cls-3" cx="416.55" cy="404.27" r="6.19"/><circle class="cls-3" cx="416.55" cy="441.33" r="6.19"/><circle class="cls-3" cx="453.35" cy="144.8" r="6.19"/><circle class="cls-3" cx="453.35" cy="107.73" r="6.19"/><circle class="cls-3" cx="453.35" cy="70.67" r="6.19"/><circle class="cls-3" cx="453.35" cy="181.87" r="6.19"/><circle class="cls-3" cx="453.35" cy="218.93" r="6.19"/><circle class="cls-3" cx="453.35" cy="256" r="6.19"/><circle class="cls-3" cx="453.35" cy="293.07" r="6.19"/><circle class="cls-3" cx="453.35" cy="330.13" r="6.19"/><circle class="cls-3" cx="453.35" cy="367.2" r="6.19"/><circle class="cls-3" cx="453.35" cy="404.27" r="6.19"/><circle class="cls-3" cx="453.35" cy="441.33" r="6.19"/><circle class="cls-3" cx="49.62" cy="144.8" r="6.19"/><circle class="cls-3" cx="49.62" cy="107.73" r="6.19"/><circle class="cls-3" cx="49.62" cy="70.67" r="6.19"/><circle class="cls-3" cx="49.62" cy="181.87" r="6.19"/><circle class="cls-3" cx="49.62" cy="218.93" r="6.19"/><circle class="cls-3" cx="49.62" cy="256" r="6.19"/><circle class="cls-3" cx="49.62" cy="293.07" r="6.19"/><circle class="cls-3" cx="49.62" cy="330.13" r="6.19"/><circle class="cls-3" cx="49.62" cy="367.2" r="6.19"/><circle class="cls-3" cx="49.62" cy="404.27" r="6.19"/><circle class="cls-3" cx="49.62" cy="441.33" r="6.19"/></g><polygon class="cls-4" points="17.2 165.2 90.38 472.4 421.62 472.4 494.8 165.2 256 39.6 17.2 165.2"/><rect class="cls-1" width="512" height="512"/></g></g></svg>