<svg xmlns="http://www.w3.org/2000/svg" viewBox="0 0 512 512"><defs><style>.cls-1,.cls-2{fill:none;}.cls-1{stroke:#000;stroke-linejoin:bevel;stroke-width:5px;}</style></defs><g id="Layer_2" data-name="Layer 2"><g id="WO-DILUC---L---"><path class="cls-1" d="M497.72,254.72S492.9,289,479.2,289s-18.52-34.28-18.52-34.28S455.86,289,442.16,289s-18.52-34.28-18.52-34.28S418.82,289,405.12,289s-18.52-34.28-18.52-34.28S381.78,289,368.08,289s-18.52-34.28-18.52-34.28S344.74,289,331,289s-18.52-34.28-18.52-34.28S307.7,289,294,289s-18.52-34.28-18.52-34.28S270.66,289,257,289s-18.52-34.28-18.52-34.28S233.62,289,219.92,289s-18.52-34.28-18.52-34.28S196.58,289,182.88,289s-18.52-34.28-18.52-34.28S159.54,289,145.84,289s-18.52-34.28-18.52-34.28S122.5,289,108.8,289s-18.52-34.28-18.52-34.28S85.46,289,71.76,289s-18.52-34.28-18.52-34.28S48.42,289,34.72,289,16.2,254.72,16.2,254.72"/><rect class="cls-2" width="512" height="512"/></g></g></svg>