<svg xmlns="http://www.w3.org/2000/svg" viewBox="0 0 512 512"><defs><style>.cls-1,.cls-2{fill:none;}.cls-1{stroke:#231f20;stroke-miterlimit:10;stroke-width:5px;}</style></defs><g id="Layer_2" data-name="Layer 2"><g id="WO-DILOR---L---"><ellipse class="cls-1" cx="45.2" cy="255.62" rx="26.28" ry="12.3"/><line class="cls-1" x1="80.4" y1="243.31" x2="105.77" y2="268.69"/><line class="cls-1" x1="105.77" y1="243.31" x2="80.4" y2="268.69"/><ellipse class="cls-1" cx="142.03" cy="255.62" rx="26.28" ry="12.3"/><line class="cls-1" x1="177.23" y1="243.31" x2="202.6" y2="268.69"/><line class="cls-1" x1="202.6" y1="243.31" x2="177.23" y2="268.69"/><ellipse class="cls-1" cx="238.85" cy="255.62" rx="26.28" ry="12.3"/><line class="cls-1" x1="274.05" y1="243.31" x2="299.42" y2="268.69"/><line class="cls-1" x1="299.42" y1="243.31" x2="274.05" y2="268.69"/><ellipse class="cls-1" cx="335.68" cy="255.62" rx="26.28" ry="12.3"/><line class="cls-1" x1="370.88" y1="243.31" x2="396.25" y2="268.69"/><line class="cls-1" x1="396.25" y1="243.31" x2="370.88" y2="268.69"/><ellipse class="cls-1" cx="432.51" cy="255.62" rx="26.28" ry="12.3"/><line class="cls-1" x1="467.71" y1="243.31" x2="493.08" y2="268.69"/><line class="cls-1" x1="493.08" y1="243.31" x2="467.71" y2="268.69"/><rect class="cls-2" width="512" height="512"/></g></g></svg>