<svg xmlns="http://www.w3.org/2000/svg" viewBox="0 0 512 512"><defs><style>.cls-1{fill:#0cf;}.cls-2,.cls-3,.cls-4,.cls-5,.cls-6{fill:none;}.cls-2,.cls-3,.cls-4,.cls-5{stroke:#000;stroke-miterlimit:10;stroke-width:10px;}.cls-3{stroke-dasharray:19.72 19.72;}.cls-4{stroke-dasharray:20.75 20.75;}.cls-5{stroke-dasharray:19.22 19.22;}</style></defs><g id="Layer_2" data-name="Layer 2"><g id="WO-DHHDD----A--"><polygon class="cls-1" points="17.2 165.2 90.38 472.4 421.62 472.4 494.8 165.2 256 39.6 17.2 165.2"/><polyline class="cls-2" points="26.05 160.54 17.2 165.2 19.52 174.93"/><line class="cls-3" x1="24.09" y1="194.11" x2="85.78" y2="453.08"/><polyline class="cls-2" points="88.06 462.67 90.38 472.4 100.38 472.4"/><line class="cls-4" x1="121.13" y1="472.4" x2="401.24" y2="472.4"/><polyline class="cls-2" points="411.62 472.4 421.62 472.4 423.94 462.67"/><line class="cls-3" x1="428.51" y1="443.49" x2="490.2" y2="184.52"/><polyline class="cls-2" points="492.48 174.93 494.8 165.2 485.95 160.54"/><line class="cls-5" x1="468.94" y1="151.6" x2="273.35" y2="48.73"/><polyline class="cls-2" points="264.85 44.26 256 39.6 247.15 44.26"/><line class="cls-5" x1="230.14" y1="53.2" x2="34.55" y2="156.07"/><rect class="cls-6" width="512" height="512"/></g></g></svg>