<svg xmlns="http://www.w3.org/2000/svg" viewBox="0 0 512 512"><defs><style>.cls-1,.cls-2{fill:none;}.cls-1{stroke:gray;stroke-linecap:round;stroke-miterlimit:10;stroke-width:7px;}</style></defs><g id="Layer_2" data-name="Layer 2"><g id="WO-DHHDK----A--"><path class="cls-1" d="M303.78,249s-20.8,6.44-29.33,7.38-40-14.8-40-14.8"/><path class="cls-1" d="M291,234.33s7.47,11.46,16,17.33,13.07,8.53,26.4,9.6,19.47-.53,23.73-1.6,14.4-8,14.4-8"/><path class="cls-1" d="M300.85,277s7.2-6.93,13.86-10.66a43.06,43.06,0,0,1,12.8-4.72"/><line class="cls-1" x1="255.51" y1="271.13" x2="276.31" y2="256.37"/><line class="cls-1" x1="241.38" y1="255.13" x2="249.38" y2="248.95"/><path class="cls-1" d="M91.22,160s-20.8,6.45-29.33,7.38-40-14.8-40-14.8"/><path class="cls-1" d="M78.42,145.33s7.47,11.47,16,17.34,13.07,8.53,26.4,9.6,19.47-.54,23.73-1.6,14.4-8,14.4-8"/><path class="cls-1" d="M88.29,188s7.2-6.93,13.86-10.67a43.19,43.19,0,0,1,12.8-4.71"/><line class="cls-1" x1="42.95" y1="182.13" x2="63.75" y2="167.37"/><line class="cls-1" x1="28.82" y1="166.13" x2="36.82" y2="159.95"/><path class="cls-1" d="M91.22,338.62s-20.8,6.45-29.33,7.38-40-14.8-40-14.8"/><path class="cls-1" d="M78.42,324s7.47,11.47,16,17.33,13.07,8.54,26.4,9.6,19.47-.53,23.73-1.6,14.4-8,14.4-8"/><path class="cls-1" d="M88.29,366.67s7.2-6.94,13.86-10.67a43.19,43.19,0,0,1,12.8-4.71"/><line class="cls-1" x1="42.95" y1="360.8" x2="63.75" y2="346.04"/><line class="cls-1" x1="28.82" y1="344.8" x2="36.82" y2="338.62"/><path class="cls-1" d="M490.11,166.69c-1.49.3-2.85.52-4,.64-8.53.94-40-14.8-40-14.8"/><line class="cls-1" x1="467.19" y1="182.13" x2="487.99" y2="167.37"/><line class="cls-1" x1="453.06" y1="166.13" x2="461.06" y2="159.95"/><path class="cls-1" d="M490.11,345.4c-1.49.29-2.85.52-4,.64-8.53.93-40-14.8-40-14.8"/><line class="cls-1" x1="467.19" y1="360.84" x2="487.99" y2="346.08"/><line class="cls-1" x1="453.06" y1="344.84" x2="461.06" y2="338.66"/><rect class="cls-2" width="512" height="512"/></g></g></svg>