<svg xmlns="http://www.w3.org/2000/svg" viewBox="0 0 512 512"><defs><style>.cls-1{fill:none;}</style></defs><g id="Layer_2" data-name="Layer 2"><g id="WO-DHALLA--L---"><polygon points="179 254.85 134.8 254.85 134.8 252.4 20.4 252.4 20.4 259.4 134.8 259.4 134.8 259.35 179 259.35 179 254.85"/><rect x="195.13" y="254.85" width="19" height="4.5"/><rect x="230.33" y="254.85" width="18.4" height="6.82"/><rect x="265.4" y="254.85" width="18.4" height="6.82"/><rect x="302.6" y="254.85" width="16" height="6.82"/><polygon points="455.4 257.12 451.4 257.12 365.4 257.12 365.4 254.85 337.67 254.85 337.67 261.67 364.2 261.67 365.4 261.67 451.4 261.67 451.4 264.1 496.5 264.1 496.5 257.12 455.4 257.12"/><rect class="cls-1" width="512" height="512"/></g></g></svg>