<svg xmlns="http://www.w3.org/2000/svg" viewBox="0 0 512 512"><defs><style>.cls-1,.cls-2{fill:none;}.cls-1{stroke:#231f20;stroke-miterlimit:10;stroke-width:7px;}</style></defs><g id="Layer_2" data-name="Layer 2"><g id="WO-DILIER--L---"><polyline class="cls-1" points="16.2 349.16 116.21 325.19 134.39 315.28 159.19 310.32 256.3 256.18 336.89 191.3 350.11 184.27 365.82 171.46 441.03 151.63 496.2 151.63"/><line class="cls-1" x1="42.34" y1="331.05" x2="21.95" y2="363.56"/><line class="cls-1" x1="17.18" y1="335.29" x2="47.1" y2="359.32"/><line class="cls-1" x1="148.42" y1="297.91" x2="133.52" y2="333.27"/><line class="cls-1" x1="124.27" y1="306.14" x2="157.67" y2="325.04"/><line class="cls-1" x1="242.52" y1="247.41" x2="239.96" y2="285.69"/><line class="cls-1" x1="222.37" y1="263.06" x2="260.11" y2="270.04"/><line class="cls-1" x1="329.25" y1="176.99" x2="326.7" y2="215.28"/><line class="cls-1" x1="309.11" y1="192.64" x2="346.84" y2="199.62"/><line class="cls-1" x1="438.44" y1="138.97" x2="421.21" y2="173.25"/><line class="cls-1" x1="413.8" y1="145.56" x2="445.85" y2="166.66"/><line class="cls-1" x1="81.66" y1="317.28" x2="92.28" y2="344.82"/><line class="cls-1" x1="183.96" y1="280.04" x2="196.08" y2="303.93"/><path class="cls-1" d="M275.42,218.64c.55,1.66,22,23.7,22,23.7"/><line class="cls-1" x1="375.15" y1="151.63" x2="383.97" y2="179.73"/><line class="cls-1" x1="496.2" y1="138.97" x2="496.2" y2="166.66"/><rect class="cls-2" width="512" height="512"/></g></g></svg>