<svg xmlns="http://www.w3.org/2000/svg" xmlns:xlink="http://www.w3.org/1999/xlink" viewBox="0 0 512 512"><defs><style>.cls-1{fill:none;}.cls-2{clip-path:url(#clip-path);}.cls-3{fill:silver;}</style><clipPath id="clip-path"><rect class="cls-1" x="16" y="95.59" width="480" height="320.82"/></clipPath></defs><g id="Layer_2" data-name="Layer 2"><g id="WO-DMOA-----A--"><g class="cls-2"><circle class="cls-3" cx="28.13" cy="144.05" r="8.88"/><circle class="cls-3" cx="69.12" cy="144.05" r="8.88"/><circle class="cls-3" cx="110.11" cy="144.05" r="8.88"/><circle class="cls-3" cx="151.1" cy="144.05" r="8.88"/><circle class="cls-3" cx="192.09" cy="144.05" r="8.88"/><circle class="cls-3" cx="233.08" cy="144.05" r="8.88"/><circle class="cls-3" cx="274.08" cy="144.05" r="8.88"/><circle class="cls-3" cx="315.07" cy="144.05" r="8.88"/><circle class="cls-3" cx="356.06" cy="144.05" r="8.88"/><circle class="cls-3" cx="397.05" cy="144.05" r="8.88"/><circle class="cls-3" cx="438.04" cy="144.05" r="8.88"/><circle class="cls-3" cx="479.03" cy="144.05" r="8.88"/><circle class="cls-3" cx="28.13" cy="185.72" r="8.88"/><circle class="cls-3" cx="69.12" cy="185.72" r="8.88"/><circle class="cls-3" cx="110.11" cy="185.72" r="8.88"/><circle class="cls-3" cx="151.1" cy="185.72" r="8.88"/><circle class="cls-3" cx="192.09" cy="185.72" r="8.88"/><circle class="cls-3" cx="233.08" cy="185.72" r="8.88"/><circle class="cls-3" cx="274.08" cy="185.72" r="8.88"/><circle class="cls-3" cx="315.07" cy="185.72" r="8.88"/><circle class="cls-3" cx="356.06" cy="185.72" r="8.88"/><circle class="cls-3" cx="397.05" cy="185.72" r="8.88"/><circle class="cls-3" cx="438.04" cy="185.72" r="8.88"/><circle class="cls-3" cx="479.03" cy="185.72" r="8.88"/><circle class="cls-3" cx="28.13" cy="227.38" r="8.88"/><circle class="cls-3" cx="69.12" cy="227.38" r="8.88"/><circle class="cls-3" cx="110.11" cy="227.38" r="8.88"/><circle class="cls-3" cx="151.1" cy="227.38" r="8.88"/><circle class="cls-3" cx="192.09" cy="227.38" r="8.88"/><circle class="cls-3" cx="233.08" cy="227.38" r="8.88"/><circle class="cls-3" cx="274.08" cy="227.38" r="8.88"/><circle class="cls-3" cx="315.07" cy="227.38" r="8.88"/><circle class="cls-3" cx="356.06" cy="227.38" r="8.88"/><circle class="cls-3" cx="397.05" cy="227.38" r="8.88"/><circle class="cls-3" cx="438.04" cy="227.38" r="8.88"/><circle class="cls-3" cx="479.03" cy="227.38" r="8.88"/><circle class="cls-3" cx="28.13" cy="269.04" r="8.88"/><circle class="cls-3" cx="69.12" cy="269.04" r="8.88"/><circle class="cls-3" cx="110.11" cy="269.04" r="8.88"/><circle class="cls-3" cx="151.1" cy="269.04" r="8.88"/><circle class="cls-3" cx="192.09" cy="269.04" r="8.88"/><circle class="cls-3" cx="233.08" cy="269.04" r="8.88"/><circle class="cls-3" cx="274.08" cy="269.04" r="8.88"/><circle class="cls-3" cx="315.07" cy="269.04" r="8.88"/><circle class="cls-3" cx="356.06" cy="265.38" r="8.88"/><circle class="cls-3" cx="397.05" cy="269.04" r="8.88"/><circle class="cls-3" cx="438.04" cy="269.04" r="8.88"/><circle class="cls-3" cx="479.03" cy="269.04" r="8.88"/><circle class="cls-3" cx="28.13" cy="310.7" r="8.88"/><circle class="cls-3" cx="69.12" cy="310.7" r="8.88"/><circle class="cls-3" cx="110.11" cy="310.7" r="8.88"/><circle class="cls-3" cx="151.1" cy="310.7" r="8.88"/><circle class="cls-3" cx="192.09" cy="310.7" r="8.88"/><circle class="cls-3" cx="233.08" cy="310.7" r="8.88"/><circle class="cls-3" cx="274.08" cy="310.7" r="8.88"/><circle class="cls-3" cx="315.07" cy="310.7" r="8.88"/><circle class="cls-3" cx="356.06" cy="310.7" r="8.88"/><circle class="cls-3" cx="397.05" cy="310.7" r="8.88"/><circle class="cls-3" cx="438.04" cy="310.7" r="8.88"/><circle class="cls-3" cx="479.03" cy="310.7" r="8.88"/><circle class="cls-3" cx="28.13" cy="352.36" r="8.88"/><circle class="cls-3" cx="69.12" cy="352.36" r="8.88"/><circle class="cls-3" cx="110.11" cy="352.36" r="8.88"/><circle class="cls-3" cx="151.1" cy="352.36" r="8.88"/><circle class="cls-3" cx="192.09" cy="352.36" r="8.88"/><circle class="cls-3" cx="233.08" cy="352.36" r="8.88"/><circle class="cls-3" cx="274.08" cy="352.36" r="8.88"/><circle class="cls-3" cx="315.07" cy="352.36" r="8.88"/><circle class="cls-3" cx="356.06" cy="352.36" r="8.88"/><circle class="cls-3" cx="397.05" cy="352.36" r="8.88"/><circle class="cls-3" cx="438.04" cy="352.36" r="8.88"/><circle class="cls-3" cx="479.03" cy="352.36" r="8.88"/><circle class="cls-3" cx="28.13" cy="394.03" r="8.88"/><circle class="cls-3" cx="69.12" cy="394.03" r="8.88"/><circle class="cls-3" cx="110.11" cy="394.03" r="8.88"/><circle class="cls-3" cx="151.1" cy="394.03" r="8.88"/><circle class="cls-3" cx="192.09" cy="394.03" r="8.88"/><circle class="cls-3" cx="233.08" cy="394.03" r="8.88"/><circle class="cls-3" cx="274.08" cy="394.03" r="8.88"/><circle class="cls-3" cx="315.07" cy="394.03" r="8.88"/><circle class="cls-3" cx="356.06" cy="394.03" r="8.88"/><circle class="cls-3" cx="397.05" cy="394.03" r="8.88"/><circle class="cls-3" cx="438.04" cy="394.03" r="8.88"/><circle class="cls-3" cx="479.03" cy="394.03" r="8.88"/><circle class="cls-3" cx="28.13" cy="102.25" r="8.88"/><circle class="cls-3" cx="69.12" cy="102.25" r="8.88"/><circle class="cls-3" cx="110.11" cy="102.25" r="8.88"/><circle class="cls-3" cx="151.1" cy="102.25" r="8.88"/><circle class="cls-3" cx="192.09" cy="102.25" r="8.88"/><circle class="cls-3" cx="233.08" cy="102.25" r="8.88"/><circle class="cls-3" cx="274.08" cy="102.25" r="8.88"/><circle class="cls-3" cx="315.07" cy="102.25" r="8.88"/><circle class="cls-3" cx="356.06" cy="102.25" r="8.88"/><circle class="cls-3" cx="397.05" cy="102.25" r="8.88"/><circle class="cls-3" cx="438.04" cy="102.25" r="8.88"/><circle class="cls-3" cx="479.03" cy="102.25" r="8.88"/></g><rect class="cls-1" width="512" height="512"/></g></g></svg>