<svg xmlns="http://www.w3.org/2000/svg" viewBox="0 0 512 512"><defs><style>.cls-1,.cls-2{fill:none;}.cls-1{stroke:#f0f;stroke-miterlimit:10;stroke-width:10px;}</style></defs><g id="Layer_2" data-name="Layer 2"><g id="WO-DMCA----L---"><path class="cls-1" d="M492,258.26c-3.52-5.25-6.26-11.52-15.57-11.52-16,0-20.4,18.52-34.86,18.52h0c-14.45,0-11.07-18.52-27.06-18.52s-12.62,18.52-27.07,18.52-11.08-18.52-27.07-18.52-12.61,18.52-27.07,18.52-11.07-18.52-27.07-18.52-12.61,18.52-27.06,18.52-11.08-18.52-27.07-18.52S239.5,265.26,225,265.26,214,246.74,198,246.74s-12.61,18.52-27.07,18.52-11.07-18.52-27.07-18.52-12.61,18.52-27.06,18.52-11.08-18.52-27.07-18.52-12.61,18.52-27.07,18.52-11.07-18.52-27.07-18.52c-9.31,0-12,6.27-15.57,11.52"/><rect class="cls-2" width="512" height="512"/></g></g></svg>