<svg xmlns="http://www.w3.org/2000/svg" viewBox="0 0 512 512"><defs><style>.cls-1,.cls-2{fill:none;}.cls-1{stroke:#000;stroke-miterlimit:10;stroke-width:10px;}</style></defs><g id="Layer_2" data-name="Layer 2"><g id="WO-DIOLF---L---"><path class="cls-1" d="M23.7,339.07l96.8-23.2,17.6-9.6,24-4.8,94-52.4,78-62.8,12.8-6.8,15.2-12.4,72.8-19.2h53.4s9.7-.87,9.7,7.93v11.13c0,5.47-9.7,6-9.7,6H434.9l-72.8,19.2-15.2,12.4-12.8,6.8-78,62.8-94,52.4-24,4.8-17.6,9.6-96.8,23.2"/><path class="cls-1" d="M374.3,163.85c2.79-.74,11.52,22,11.52,22"/><line class="cls-1" x1="277.6" y1="231.76" x2="290.6" y2="252"/><line class="cls-1" x1="181.07" y1="290.89" x2="193.67" y2="308.93"/><line class="cls-1" x1="72.78" y1="327.3" x2="72.78" y2="352.37"/><rect class="cls-2" width="512" height="512"/></g></g></svg>