<svg xmlns="http://www.w3.org/2000/svg" viewBox="0 0 512 512"><defs><style>.cls-1,.cls-2{fill:none;}.cls-1{stroke:#231f20;stroke-miterlimit:10;stroke-width:5px;}</style></defs><g id="Layer_2" data-name="Layer 2"><g id="WOS-HHDR---L---"><polyline class="cls-1" points="18.5 273 31.28 251.01 41.51 259.96 54.29 235.68 69.88 276.32 82 251.01 91.69 259.96 103.81 235.68 118.59 276.32 130.71 251.01 140.4 259.96 152.52 235.68 167.3 276.32 179.42 251.01 189.12 259.96 201.23 235.68 216.01 276.32 228.13 251.01 237.83 259.96 249.94 235.68 264.73 276.32 276.84 251.01 286.54 259.96 298.65 235.68 313.44 276.32 325.56 251.01 335.25 259.96 347.37 235.68 362.15 276.32 374.27 251.01 383.96 259.96 396.08 235.68 410.86 276.32 422.98 251.01 432.67 259.96 444.79 235.68 459.57 276.32 471.69 251.01 481.38 259.96 493.5 235.68"/><rect class="cls-2" width="512" height="512"/></g></g></svg>