<svg xmlns="http://www.w3.org/2000/svg" xmlns:xlink="http://www.w3.org/1999/xlink" viewBox="0 0 512 512"><defs><style>.cls-1,.cls-2,.cls-4,.cls-5,.cls-6{fill:none;}.cls-2,.cls-4,.cls-5,.cls-6{stroke:silver;}.cls-2{stroke-miterlimit:10;stroke-width:5px;}.cls-3{fill:url(#_10_lpi_10_3);}.cls-4,.cls-5,.cls-6{stroke-linejoin:round;stroke-width:7px;}.cls-5{stroke-dasharray:20.48 10.24;}.cls-6{stroke-dasharray:20.37 10.19;}</style><pattern id="_10_lpi_10_3" data-name="10 lpi 10% 3" width="72" height="72" patternUnits="userSpaceOnUse" viewBox="0 0 72 72"><rect class="cls-1" width="72" height="72"/><line class="cls-2" x1="73.11" y1="73.27" x2="85.74" y2="84.5"/><line class="cls-2" x1="1.11" y1="73.27" x2="13.74" y2="84.5"/><rect class="cls-2" x="73.11" y="12.5" width="25.26" height="10.79"/><line class="cls-2" x1="73.11" y1="1.27" x2="85.74" y2="12.5"/><rect class="cls-2" x="1.11" y="12.5" width="25.26" height="10.79"/><line class="cls-2" x1="1.11" y1="1.27" x2="13.74" y2="12.5"/><rect class="cls-2" x="36" y="47.4" width="25.26" height="10.79"/><line class="cls-2" x1="36" y1="36.17" x2="48.63" y2="47.4"/></pattern></defs><g id="Layer_2" data-name="Layer 2"><g id="WOS-HPFF----A--"><polygon class="cls-3" points="408.6 381.6 495.8 255.73 495.8 256.27 408.6 130.4 103.4 130.4 16.2 256.27 16.2 255.73 103.4 381.6 408.6 381.6"/><polyline class="cls-4" points="398.6 381.6 408.6 381.6 414.3 373.38"/><line class="cls-5" x1="420.13" y1="364.96" x2="487.19" y2="268.16"/><polyline class="cls-4" points="490.11 263.95 495.8 255.73 495.8 256.27 490.11 248.05"/><line class="cls-5" x1="484.27" y1="239.63" x2="417.21" y2="142.83"/><polyline class="cls-4" points="414.3 138.62 408.6 130.4 398.6 130.4"/><line class="cls-6" x1="388.41" y1="130.4" x2="118.49" y2="130.4"/><polyline class="cls-4" points="113.4 130.4 103.4 130.4 97.7 138.62"/><line class="cls-5" x1="91.87" y1="147.04" x2="24.81" y2="243.84"/><polyline class="cls-4" points="21.89 248.05 16.2 256.27 16.2 255.73 21.89 263.95"/><line class="cls-5" x1="27.73" y1="272.37" x2="94.79" y2="369.17"/><polyline class="cls-4" points="97.7 373.38 103.4 381.6 113.4 381.6"/><line class="cls-6" x1="123.59" y1="381.6" x2="393.51" y2="381.6"/><rect class="cls-1" width="512" height="512"/></g></g></svg>